mtllib BackyardShed.mtl
o BackyardShed
usemtl concrete
v 1.24000 0.12000 1.54000
v 1.24000 0.12000 -1.54000
v 1.24000 0.00000 1.54000
v 1.24000 0.00000 -1.54000
v -1.24000 0.12000 -1.54000
v -1.24000 0.12000 1.54000
v -1.24000 0.00000 -1.54000
v -1.24000 0.00000 1.54000
v -1.24000 0.12000 -1.54000
v 1.24000 0.12000 -1.54000
v -1.24000 0.12000 1.54000
v 1.24000 0.12000 1.54000
v -1.24000 0.00000 1.54000
v 1.24000 0.00000 1.54000
v -1.24000 0.00000 -1.54000
v 1.24000 0.00000 -1.54000
v -1.24000 0.12000 1.54000
v 1.24000 0.12000 1.54000
v -1.24000 0.00000 1.54000
v 1.24000 0.00000 1.54000
v 1.24000 0.12000 -1.54000
v -1.24000 0.12000 -1.54000
v 1.24000 0.00000 -1.54000
v -1.24000 0.00000 -1.54000
vt 0.00000 0.00000
vt 1.00000 0.00000
vt 0.00000 1.00000
vt 1.00000 1.00000
vt 0.00000 0.00000
vt 1.00000 0.00000
vt 0.00000 1.00000
vt 1.00000 1.00000
vt 0.00000 0.00000
vt 1.00000 0.00000
vt 0.00000 1.00000
vt 1.00000 1.00000
vt 0.00000 0.00000
vt 1.00000 0.00000
vt 0.00000 1.00000
vt 1.00000 1.00000
vt 0.00000 0.00000
vt 1.00000 0.00000
vt 0.00000 1.00000
vt 1.00000 1.00000
vt 0.00000 0.00000
vt 1.00000 0.00000
vt 0.00000 1.00000
vt 1.00000 1.00000
f 1/1 3/3 2/2
f 3/3 4/4 2/2
f 5/5 7/7 6/6
f 7/7 8/8 6/6
f 9/9 11/11 10/10
f 11/11 12/12 10/10
f 13/13 15/15 14/14
f 15/15 16/16 14/14
f 17/17 19/19 18/18
f 19/19 20/20 18/18
f 21/21 23/23 22/22
f 23/23 24/24 22/22
usemtl board_barnred
v 1.20000 2.22000 -1.40000
v 1.20000 2.22000 -1.50000
v 1.20000 0.12000 -1.40000
v 1.20000 0.12000 -1.50000
v -1.20000 2.22000 -1.50000
v -1.20000 2.22000 -1.40000
v -1.20000 0.12000 -1.50000
v -1.20000 0.12000 -1.40000
v -1.20000 2.22000 -1.50000
v 1.20000 2.22000 -1.50000
v -1.20000 2.22000 -1.40000
v 1.20000 2.22000 -1.40000
v -1.20000 0.12000 -1.40000
v 1.20000 0.12000 -1.40000
v -1.20000 0.12000 -1.50000
v 1.20000 0.12000 -1.50000
v -1.20000 2.22000 -1.40000
v 1.20000 2.22000 -1.40000
v -1.20000 0.12000 -1.40000
v 1.20000 0.12000 -1.40000
v 1.20000 2.22000 -1.50000
v -1.20000 2.22000 -1.50000
v 1.20000 0.12000 -1.50000
v -1.20000 0.12000 -1.50000
vt 0.00000 0.00000
vt 1.00000 0.00000
vt 0.00000 1.00000
vt 1.00000 1.00000
vt 0.00000 0.00000
vt 1.00000 0.00000
vt 0.00000 1.00000
vt 1.00000 1.00000
vt 0.00000 0.00000
vt 1.00000 0.00000
vt 0.00000 1.00000
vt 1.00000 1.00000
vt 0.00000 0.00000
vt 1.00000 0.00000
vt 0.00000 1.00000
vt 1.00000 1.00000
vt 0.00000 0.00000
vt 1.00000 0.00000
vt 0.00000 1.00000
vt 1.00000 1.00000
vt 0.00000 0.00000
vt 1.00000 0.00000
vt 0.00000 1.00000
vt 1.00000 1.00000
f 25/25 27/27 26/26
f 27/27 28/28 26/26
f 29/29 31/31 30/30
f 31/31 32/32 30/30
f 33/33 35/35 34/34
f 35/35 36/36 34/34
f 37/37 39/39 38/38
f 39/39 40/40 38/38
f 41/41 43/43 42/42
f 43/43 44/44 42/42
f 45/45 47/47 46/46
f 47/47 48/48 46/46
v -1.20000 2.22000 -1.50000
v 0.00000 2.77000 -1.50000
v 1.20000 2.22000 -1.50000
v 1.20000 2.22000 -1.40000
v 0.00000 2.77000 -1.40000
v -1.20000 2.22000 -1.40000
v -1.20000 2.22000 -1.50000
v 1.20000 2.22000 -1.50000
v -1.20000 2.22000 -1.40000
v 1.20000 2.22000 -1.50000
v 1.20000 2.22000 -1.40000
v -1.20000 2.22000 -1.40000
v 1.20000 2.22000 -1.50000
v 0.00000 2.77000 -1.50000
v 1.20000 2.22000 -1.40000
v 0.00000 2.77000 -1.50000
v 0.00000 2.77000 -1.40000
v 1.20000 2.22000 -1.40000
v 0.00000 2.77000 -1.50000
v -1.20000 2.22000 -1.50000
v 0.00000 2.77000 -1.40000
v -1.20000 2.22000 -1.50000
v -1.20000 2.22000 -1.40000
v 0.00000 2.77000 -1.40000
vt -1.20000 1.00000
vt 0.00000 0.45000
vt 1.20000 1.00000
vt 1.20000 1.00000
vt 0.00000 0.45000
vt -1.20000 1.00000
vt -1.20000 0.00000
vt 1.20000 0.00000
vt -1.20000 0.10000
vt 1.20000 0.00000
vt 1.20000 0.10000
vt -1.20000 0.10000
vt 1.20000 0.00000
vt 0.00000 0.00000
vt 1.20000 0.10000
vt 0.00000 0.00000
vt 0.00000 0.10000
vt 1.20000 0.10000
vt 0.00000 0.00000
vt -1.20000 0.00000
vt 0.00000 0.10000
vt -1.20000 0.00000
vt -1.20000 0.10000
vt 0.00000 0.10000
f 49/49 50/50 51/51
f 52/52 53/53 54/54
f 55/55 56/56 57/57
f 58/58 59/59 60/60
f 61/61 62/62 63/63
f 64/64 65/65 66/66
f 67/67 68/68 69/69
f 70/70 71/71 72/72
v -1.10000 2.22000 -1.50000
v -1.20000 2.22000 -1.50000
v -1.10000 0.12000 -1.50000
v -1.20000 0.12000 -1.50000
v -1.20000 2.22000 1.50000
v -1.10000 2.22000 1.50000
v -1.20000 0.12000 1.50000
v -1.10000 0.12000 1.50000
v -1.20000 2.22000 1.50000
v -1.20000 2.22000 -1.50000
v -1.10000 2.22000 1.50000
v -1.10000 2.22000 -1.50000
v -1.10000 0.12000 1.50000
v -1.10000 0.12000 -1.50000
v -1.20000 0.12000 1.50000
v -1.20000 0.12000 -1.50000
v -1.10000 2.22000 1.50000
v -1.10000 2.22000 -1.50000
v -1.10000 0.12000 1.50000
v -1.10000 0.12000 -1.50000
v -1.20000 2.22000 -1.50000
v -1.20000 2.22000 1.50000
v -1.20000 0.12000 -1.50000
v -1.20000 0.12000 1.50000
vt 0.00000 0.00000
vt 1.00000 0.00000
vt 0.00000 1.00000
vt 1.00000 1.00000
vt 0.00000 0.00000
vt 1.00000 0.00000
vt 0.00000 1.00000
vt 1.00000 1.00000
vt 0.00000 0.00000
vt 1.00000 0.00000
vt 0.00000 1.00000
vt 1.00000 1.00000
vt 0.00000 0.00000
vt 1.00000 0.00000
vt 0.00000 1.00000
vt 1.00000 1.00000
vt 0.00000 0.00000
vt 1.00000 0.00000
vt 0.00000 1.00000
vt 1.00000 1.00000
vt 0.00000 0.00000
vt 1.00000 0.00000
vt 0.00000 1.00000
vt 1.00000 1.00000
f 73/73 75/75 74/74
f 75/75 76/76 74/74
f 77/77 79/79 78/78
f 79/79 80/80 78/78
f 81/81 83/83 82/82
f 83/83 84/84 82/82
f 85/85 87/87 86/86
f 87/87 88/88 86/86
f 89/89 91/91 90/90
f 91/91 92/92 90/90
f 93/93 95/95 94/94
f 95/95 96/96 94/94
v 1.20000 2.22000 -1.50000
v 1.10000 2.22000 -1.50000
v 1.20000 0.12000 -1.50000
v 1.10000 0.12000 -1.50000
v 1.10000 2.22000 1.50000
v 1.20000 2.22000 1.50000
v 1.10000 0.12000 1.50000
v 1.20000 0.12000 1.50000
v 1.10000 2.22000 1.50000
v 1.10000 2.22000 -1.50000
v 1.20000 2.22000 1.50000
v 1.20000 2.22000 -1.50000
v 1.20000 0.12000 1.50000
v 1.20000 0.12000 -1.50000
v 1.10000 0.12000 1.50000
v 1.10000 0.12000 -1.50000
v 1.20000 2.22000 1.50000
v 1.20000 2.22000 -1.50000
v 1.20000 0.12000 1.50000
v 1.20000 0.12000 -1.50000
v 1.10000 2.22000 -1.50000
v 1.10000 2.22000 1.50000
v 1.10000 0.12000 -1.50000
v 1.10000 0.12000 1.50000
vt 0.00000 0.00000
vt 1.00000 0.00000
vt 0.00000 1.00000
vt 1.00000 1.00000
vt 0.00000 0.00000
vt 1.00000 0.00000
vt 0.00000 1.00000
vt 1.00000 1.00000
vt 0.00000 0.00000
vt 1.00000 0.00000
vt 0.00000 1.00000
vt 1.00000 1.00000
vt 0.00000 0.00000
vt 1.00000 0.00000
vt 0.00000 1.00000
vt 1.00000 1.00000
vt 0.00000 0.00000
vt 1.00000 0.00000
vt 0.00000 1.00000
vt 1.00000 1.00000
vt 0.00000 0.00000
vt 1.00000 0.00000
vt 0.00000 1.00000
vt 1.00000 1.00000
f 97/97 99/99 98/98
f 99/99 100/100 98/98
f 101/101 103/103 102/102
f 103/103 104/104 102/102
f 105/105 107/107 106/106
f 107/107 108/108 106/106
f 109/109 111/111 110/110
f 111/111 112/112 110/110
f 113/113 115/115 114/114
f 115/115 116/116 114/114
f 117/117 119/119 118/118
f 119/119 120/120 118/118
v -0.45000 2.22000 1.50000
v -0.45000 2.22000 1.40000
v -0.45000 0.12000 1.50000
v -0.45000 0.12000 1.40000
v -1.20000 2.22000 1.40000
v -1.20000 2.22000 1.50000
v -1.20000 0.12000 1.40000
v -1.20000 0.12000 1.50000
v -1.20000 2.22000 1.40000
v -0.45000 2.22000 1.40000
v -1.20000 2.22000 1.50000
v -0.45000 2.22000 1.50000
v -1.20000 0.12000 1.50000
v -0.45000 0.12000 1.50000
v -1.20000 0.12000 1.40000
v -0.45000 0.12000 1.40000
v -1.20000 2.22000 1.50000
v -0.45000 2.22000 1.50000
v -1.20000 0.12000 1.50000
v -0.45000 0.12000 1.50000
v -0.45000 2.22000 1.40000
v -1.20000 2.22000 1.40000
v -0.45000 0.12000 1.40000
v -1.20000 0.12000 1.40000
vt 0.00000 0.00000
vt 1.00000 0.00000
vt 0.00000 1.00000
vt 1.00000 1.00000
vt 0.00000 0.00000
vt 1.00000 0.00000
vt 0.00000 1.00000
vt 1.00000 1.00000
vt 0.00000 0.00000
vt 1.00000 0.00000
vt 0.00000 1.00000
vt 1.00000 1.00000
vt 0.00000 0.00000
vt 1.00000 0.00000
vt 0.00000 1.00000
vt 1.00000 1.00000
vt 0.00000 0.00000
vt 1.00000 0.00000
vt 0.00000 1.00000
vt 1.00000 1.00000
vt 0.00000 0.00000
vt 1.00000 0.00000
vt 0.00000 1.00000
vt 1.00000 1.00000
f 121/121 123/123 122/122
f 123/123 124/124 122/122
f 125/125 127/127 126/126
f 127/127 128/128 126/126
f 129/129 131/131 130/130
f 131/131 132/132 130/130
f 133/133 135/135 134/134
f 135/135 136/136 134/134
f 137/137 139/139 138/138
f 139/139 140/140 138/138
f 141/141 143/143 142/142
f 143/143 144/144 142/142
v 1.20000 2.22000 1.50000
v 1.20000 2.22000 1.40000
v 1.20000 0.12000 1.50000
v 1.20000 0.12000 1.40000
v 0.45000 2.22000 1.40000
v 0.45000 2.22000 1.50000
v 0.45000 0.12000 1.40000
v 0.45000 0.12000 1.50000
v 0.45000 2.22000 1.40000
v 1.20000 2.22000 1.40000
v 0.45000 2.22000 1.50000
v 1.20000 2.22000 1.50000
v 0.45000 0.12000 1.50000
v 1.20000 0.12000 1.50000
v 0.45000 0.12000 1.40000
v 1.20000 0.12000 1.40000
v 0.45000 2.22000 1.50000
v 1.20000 2.22000 1.50000
v 0.45000 0.12000 1.50000
v 1.20000 0.12000 1.50000
v 1.20000 2.22000 1.40000
v 0.45000 2.22000 1.40000
v 1.20000 0.12000 1.40000
v 0.45000 0.12000 1.40000
vt 0.00000 0.00000
vt 1.00000 0.00000
vt 0.00000 1.00000
vt 1.00000 1.00000
vt 0.00000 0.00000
vt 1.00000 0.00000
vt 0.00000 1.00000
vt 1.00000 1.00000
vt 0.00000 0.00000
vt 1.00000 0.00000
vt 0.00000 1.00000
vt 1.00000 1.00000
vt 0.00000 0.00000
vt 1.00000 0.00000
vt 0.00000 1.00000
vt 1.00000 1.00000
vt 0.00000 0.00000
vt 1.00000 0.00000
vt 0.00000 1.00000
vt 1.00000 1.00000
vt 0.00000 0.00000
vt 1.00000 0.00000
vt 0.00000 1.00000
vt 1.00000 1.00000
f 145/145 147/147 146/146
f 147/147 148/148 146/146
f 149/149 151/151 150/150
f 151/151 152/152 150/150
f 153/153 155/155 154/154
f 155/155 156/156 154/154
f 157/157 159/159 158/158
f 159/159 160/160 158/158
f 161/161 163/163 162/162
f 163/163 164/164 162/162
f 165/165 167/167 166/166
f 167/167 168/168 166/166
v 1.20000 2.22000 1.50000
v 1.20000 2.22000 1.40000
v 1.20000 1.97000 1.50000
v 1.20000 1.97000 1.40000
v -1.20000 2.22000 1.40000
v -1.20000 2.22000 1.50000
v -1.20000 1.97000 1.40000
v -1.20000 1.97000 1.50000
v -1.20000 2.22000 1.40000
v 1.20000 2.22000 1.40000
v -1.20000 2.22000 1.50000
v 1.20000 2.22000 1.50000
v -1.20000 1.97000 1.50000
v 1.20000 1.97000 1.50000
v -1.20000 1.97000 1.40000
v 1.20000 1.97000 1.40000
v -1.20000 2.22000 1.50000
v 1.20000 2.22000 1.50000
v -1.20000 1.97000 1.50000
v 1.20000 1.97000 1.50000
v 1.20000 2.22000 1.40000
v -1.20000 2.22000 1.40000
v 1.20000 1.97000 1.40000
v -1.20000 1.97000 1.40000
vt 0.00000 0.00000
vt 1.00000 0.00000
vt 0.00000 1.00000
vt 1.00000 1.00000
vt 0.00000 0.00000
vt 1.00000 0.00000
vt 0.00000 1.00000
vt 1.00000 1.00000
vt 0.00000 0.00000
vt 1.00000 0.00000
vt 0.00000 1.00000
vt 1.00000 1.00000
vt 0.00000 0.00000
vt 1.00000 0.00000
vt 0.00000 1.00000
vt 1.00000 1.00000
vt 0.00000 0.00000
vt 1.00000 0.00000
vt 0.00000 1.00000
vt 1.00000 1.00000
vt 0.00000 0.00000
vt 1.00000 0.00000
vt 0.00000 1.00000
vt 1.00000 1.00000
f 169/169 171/171 170/170
f 171/171 172/172 170/170
f 173/173 175/175 174/174
f 175/175 176/176 174/174
f 177/177 179/179 178/178
f 179/179 180/180 178/178
f 181/181 183/183 182/182
f 183/183 184/184 182/182
f 185/185 187/187 186/186
f 187/187 188/188 186/186
f 189/189 191/191 190/190
f 191/191 192/192 190/190
v -1.20000 2.22000 1.40000
v 0.00000 2.77000 1.40000
v 1.20000 2.22000 1.40000
v 1.20000 2.22000 1.50000
v 0.00000 2.77000 1.50000
v -1.20000 2.22000 1.50000
v -1.20000 2.22000 1.40000
v 1.20000 2.22000 1.40000
v -1.20000 2.22000 1.50000
v 1.20000 2.22000 1.40000
v 1.20000 2.22000 1.50000
v -1.20000 2.22000 1.50000
v 1.20000 2.22000 1.40000
v 0.00000 2.77000 1.40000
v 1.20000 2.22000 1.50000
v 0.00000 2.77000 1.40000
v 0.00000 2.77000 1.50000
v 1.20000 2.22000 1.50000
v 0.00000 2.77000 1.40000
v -1.20000 2.22000 1.40000
v 0.00000 2.77000 1.50000
v -1.20000 2.22000 1.40000
v -1.20000 2.22000 1.50000
v 0.00000 2.77000 1.50000
vt -1.20000 1.00000
vt 0.00000 0.45000
vt 1.20000 1.00000
vt 1.20000 1.00000
vt 0.00000 0.45000
vt -1.20000 1.00000
vt -1.20000 0.00000
vt 1.20000 0.00000
vt -1.20000 0.10000
vt 1.20000 0.00000
vt 1.20000 0.10000
vt -1.20000 0.10000
vt 1.20000 0.00000
vt 0.00000 0.00000
vt 1.20000 0.10000
vt 0.00000 0.00000
vt 0.00000 0.10000
vt 1.20000 0.10000
vt 0.00000 0.00000
vt -1.20000 0.00000
vt 0.00000 0.10000
vt -1.20000 0.00000
vt -1.20000 0.10000
vt 0.00000 0.10000
f 193/193 194/194 195/195
f 196/196 197/197 198/198
f 199/199 200/200 201/201
f 202/202 203/203 204/204
f 205/205 206/206 207/207
f 208/208 209/209 210/210
f 211/211 212/212 213/213
f 214/214 215/215 216/216
usemtl batten_barnred_dk
v -1.17750 2.22000 -1.39850
v -1.17750 2.22000 -1.43350
v -1.17750 0.12000 -1.39850
v -1.17750 0.12000 -1.43350
v -1.22250 2.22000 -1.43350
v -1.22250 2.22000 -1.39850
v -1.22250 0.12000 -1.43350
v -1.22250 0.12000 -1.39850
v -1.22250 2.22000 -1.43350
v -1.17750 2.22000 -1.43350
v -1.22250 2.22000 -1.39850
v -1.17750 2.22000 -1.39850
v -1.22250 0.12000 -1.39850
v -1.17750 0.12000 -1.39850
v -1.22250 0.12000 -1.43350
v -1.17750 0.12000 -1.43350
v -1.22250 2.22000 -1.39850
v -1.17750 2.22000 -1.39850
v -1.22250 0.12000 -1.39850
v -1.17750 0.12000 -1.39850
v -1.17750 2.22000 -1.43350
v -1.22250 2.22000 -1.43350
v -1.17750 0.12000 -1.43350
v -1.22250 0.12000 -1.43350
vt 0.00000 0.00000
vt 1.00000 0.00000
vt 0.00000 1.00000
vt 1.00000 1.00000
vt 0.00000 0.00000
vt 1.00000 0.00000
vt 0.00000 1.00000
vt 1.00000 1.00000
vt 0.00000 0.00000
vt 1.00000 0.00000
vt 0.00000 1.00000
vt 1.00000 1.00000
vt 0.00000 0.00000
vt 1.00000 0.00000
vt 0.00000 1.00000
vt 1.00000 1.00000
vt 0.00000 0.00000
vt 1.00000 0.00000
vt 0.00000 1.00000
vt 1.00000 1.00000
vt 0.00000 0.00000
vt 1.00000 0.00000
vt 0.00000 1.00000
vt 1.00000 1.00000
f 217/217 219/219 218/218
f 219/219 220/220 218/218
f 221/221 223/223 222/222
f 223/223 224/224 222/222
f 225/225 227/227 226/226
f 227/227 228/228 226/226
f 229/229 231/231 230/230
f 231/231 232/232 230/230
f 233/233 235/235 234/234
f 235/235 236/236 234/234
f 237/237 239/239 238/238
f 239/239 240/240 238/238
v -0.77750 2.22000 -1.39850
v -0.77750 2.22000 -1.43350
v -0.77750 0.12000 -1.39850
v -0.77750 0.12000 -1.43350
v -0.82250 2.22000 -1.43350
v -0.82250 2.22000 -1.39850
v -0.82250 0.12000 -1.43350
v -0.82250 0.12000 -1.39850
v -0.82250 2.22000 -1.43350
v -0.77750 2.22000 -1.43350
v -0.82250 2.22000 -1.39850
v -0.77750 2.22000 -1.39850
v -0.82250 0.12000 -1.39850
v -0.77750 0.12000 -1.39850
v -0.82250 0.12000 -1.43350
v -0.77750 0.12000 -1.43350
v -0.82250 2.22000 -1.39850
v -0.77750 2.22000 -1.39850
v -0.82250 0.12000 -1.39850
v -0.77750 0.12000 -1.39850
v -0.77750 2.22000 -1.43350
v -0.82250 2.22000 -1.43350
v -0.77750 0.12000 -1.43350
v -0.82250 0.12000 -1.43350
vt 0.00000 0.00000
vt 1.00000 0.00000
vt 0.00000 1.00000
vt 1.00000 1.00000
vt 0.00000 0.00000
vt 1.00000 0.00000
vt 0.00000 1.00000
vt 1.00000 1.00000
vt 0.00000 0.00000
vt 1.00000 0.00000
vt 0.00000 1.00000
vt 1.00000 1.00000
vt 0.00000 0.00000
vt 1.00000 0.00000
vt 0.00000 1.00000
vt 1.00000 1.00000
vt 0.00000 0.00000
vt 1.00000 0.00000
vt 0.00000 1.00000
vt 1.00000 1.00000
vt 0.00000 0.00000
vt 1.00000 0.00000
vt 0.00000 1.00000
vt 1.00000 1.00000
f 241/241 243/243 242/242
f 243/243 244/244 242/242
f 245/245 247/247 246/246
f 247/247 248/248 246/246
f 249/249 251/251 250/250
f 251/251 252/252 250/250
f 253/253 255/255 254/254
f 255/255 256/256 254/254
f 257/257 259/259 258/258
f 259/259 260/260 258/258
f 261/261 263/263 262/262
f 263/263 264/264 262/262
v -0.37750 2.22000 -1.39850
v -0.37750 2.22000 -1.43350
v -0.37750 0.12000 -1.39850
v -0.37750 0.12000 -1.43350
v -0.42250 2.22000 -1.43350
v -0.42250 2.22000 -1.39850
v -0.42250 0.12000 -1.43350
v -0.42250 0.12000 -1.39850
v -0.42250 2.22000 -1.43350
v -0.37750 2.22000 -1.43350
v -0.42250 2.22000 -1.39850
v -0.37750 2.22000 -1.39850
v -0.42250 0.12000 -1.39850
v -0.37750 0.12000 -1.39850
v -0.42250 0.12000 -1.43350
v -0.37750 0.12000 -1.43350
v -0.42250 2.22000 -1.39850
v -0.37750 2.22000 -1.39850
v -0.42250 0.12000 -1.39850
v -0.37750 0.12000 -1.39850
v -0.37750 2.22000 -1.43350
v -0.42250 2.22000 -1.43350
v -0.37750 0.12000 -1.43350
v -0.42250 0.12000 -1.43350
vt 0.00000 0.00000
vt 1.00000 0.00000
vt 0.00000 1.00000
vt 1.00000 1.00000
vt 0.00000 0.00000
vt 1.00000 0.00000
vt 0.00000 1.00000
vt 1.00000 1.00000
vt 0.00000 0.00000
vt 1.00000 0.00000
vt 0.00000 1.00000
vt 1.00000 1.00000
vt 0.00000 0.00000
vt 1.00000 0.00000
vt 0.00000 1.00000
vt 1.00000 1.00000
vt 0.00000 0.00000
vt 1.00000 0.00000
vt 0.00000 1.00000
vt 1.00000 1.00000
vt 0.00000 0.00000
vt 1.00000 0.00000
vt 0.00000 1.00000
vt 1.00000 1.00000
f 265/265 267/267 266/266
f 267/267 268/268 266/266
f 269/269 271/271 270/270
f 271/271 272/272 270/270
f 273/273 275/275 274/274
f 275/275 276/276 274/274
f 277/277 279/279 278/278
f 279/279 280/280 278/278
f 281/281 283/283 282/282
f 283/283 284/284 282/282
f 285/285 287/287 286/286
f 287/287 288/288 286/286
v 0.02250 2.22000 -1.39850
v 0.02250 2.22000 -1.43350
v 0.02250 0.12000 -1.39850
v 0.02250 0.12000 -1.43350
v -0.02250 2.22000 -1.43350
v -0.02250 2.22000 -1.39850
v -0.02250 0.12000 -1.43350
v -0.02250 0.12000 -1.39850
v -0.02250 2.22000 -1.43350
v 0.02250 2.22000 -1.43350
v -0.02250 2.22000 -1.39850
v 0.02250 2.22000 -1.39850
v -0.02250 0.12000 -1.39850
v 0.02250 0.12000 -1.39850
v -0.02250 0.12000 -1.43350
v 0.02250 0.12000 -1.43350
v -0.02250 2.22000 -1.39850
v 0.02250 2.22000 -1.39850
v -0.02250 0.12000 -1.39850
v 0.02250 0.12000 -1.39850
v 0.02250 2.22000 -1.43350
v -0.02250 2.22000 -1.43350
v 0.02250 0.12000 -1.43350
v -0.02250 0.12000 -1.43350
vt 0.00000 0.00000
vt 1.00000 0.00000
vt 0.00000 1.00000
vt 1.00000 1.00000
vt 0.00000 0.00000
vt 1.00000 0.00000
vt 0.00000 1.00000
vt 1.00000 1.00000
vt 0.00000 0.00000
vt 1.00000 0.00000
vt 0.00000 1.00000
vt 1.00000 1.00000
vt 0.00000 0.00000
vt 1.00000 0.00000
vt 0.00000 1.00000
vt 1.00000 1.00000
vt 0.00000 0.00000
vt 1.00000 0.00000
vt 0.00000 1.00000
vt 1.00000 1.00000
vt 0.00000 0.00000
vt 1.00000 0.00000
vt 0.00000 1.00000
vt 1.00000 1.00000
f 289/289 291/291 290/290
f 291/291 292/292 290/290
f 293/293 295/295 294/294
f 295/295 296/296 294/294
f 297/297 299/299 298/298
f 299/299 300/300 298/298
f 301/301 303/303 302/302
f 303/303 304/304 302/302
f 305/305 307/307 306/306
f 307/307 308/308 306/306
f 309/309 311/311 310/310
f 311/311 312/312 310/310
v 0.42250 2.22000 -1.39850
v 0.42250 2.22000 -1.43350
v 0.42250 0.12000 -1.39850
v 0.42250 0.12000 -1.43350
v 0.37750 2.22000 -1.43350
v 0.37750 2.22000 -1.39850
v 0.37750 0.12000 -1.43350
v 0.37750 0.12000 -1.39850
v 0.37750 2.22000 -1.43350
v 0.42250 2.22000 -1.43350
v 0.37750 2.22000 -1.39850
v 0.42250 2.22000 -1.39850
v 0.37750 0.12000 -1.39850
v 0.42250 0.12000 -1.39850
v 0.37750 0.12000 -1.43350
v 0.42250 0.12000 -1.43350
v 0.37750 2.22000 -1.39850
v 0.42250 2.22000 -1.39850
v 0.37750 0.12000 -1.39850
v 0.42250 0.12000 -1.39850
v 0.42250 2.22000 -1.43350
v 0.37750 2.22000 -1.43350
v 0.42250 0.12000 -1.43350
v 0.37750 0.12000 -1.43350
vt 0.00000 0.00000
vt 1.00000 0.00000
vt 0.00000 1.00000
vt 1.00000 1.00000
vt 0.00000 0.00000
vt 1.00000 0.00000
vt 0.00000 1.00000
vt 1.00000 1.00000
vt 0.00000 0.00000
vt 1.00000 0.00000
vt 0.00000 1.00000
vt 1.00000 1.00000
vt 0.00000 0.00000
vt 1.00000 0.00000
vt 0.00000 1.00000
vt 1.00000 1.00000
vt 0.00000 0.00000
vt 1.00000 0.00000
vt 0.00000 1.00000
vt 1.00000 1.00000
vt 0.00000 0.00000
vt 1.00000 0.00000
vt 0.00000 1.00000
vt 1.00000 1.00000
f 313/313 315/315 314/314
f 315/315 316/316 314/314
f 317/317 319/319 318/318
f 319/319 320/320 318/318
f 321/321 323/323 322/322
f 323/323 324/324 322/322
f 325/325 327/327 326/326
f 327/327 328/328 326/326
f 329/329 331/331 330/330
f 331/331 332/332 330/330
f 333/333 335/335 334/334
f 335/335 336/336 334/334
v 0.82250 2.22000 -1.39850
v 0.82250 2.22000 -1.43350
v 0.82250 0.12000 -1.39850
v 0.82250 0.12000 -1.43350
v 0.77750 2.22000 -1.43350
v 0.77750 2.22000 -1.39850
v 0.77750 0.12000 -1.43350
v 0.77750 0.12000 -1.39850
v 0.77750 2.22000 -1.43350
v 0.82250 2.22000 -1.43350
v 0.77750 2.22000 -1.39850
v 0.82250 2.22000 -1.39850
v 0.77750 0.12000 -1.39850
v 0.82250 0.12000 -1.39850
v 0.77750 0.12000 -1.43350
v 0.82250 0.12000 -1.43350
v 0.77750 2.22000 -1.39850
v 0.82250 2.22000 -1.39850
v 0.77750 0.12000 -1.39850
v 0.82250 0.12000 -1.39850
v 0.82250 2.22000 -1.43350
v 0.77750 2.22000 -1.43350
v 0.82250 0.12000 -1.43350
v 0.77750 0.12000 -1.43350
vt 0.00000 0.00000
vt 1.00000 0.00000
vt 0.00000 1.00000
vt 1.00000 1.00000
vt 0.00000 0.00000
vt 1.00000 0.00000
vt 0.00000 1.00000
vt 1.00000 1.00000
vt 0.00000 0.00000
vt 1.00000 0.00000
vt 0.00000 1.00000
vt 1.00000 1.00000
vt 0.00000 0.00000
vt 1.00000 0.00000
vt 0.00000 1.00000
vt 1.00000 1.00000
vt 0.00000 0.00000
vt 1.00000 0.00000
vt 0.00000 1.00000
vt 1.00000 1.00000
vt 0.00000 0.00000
vt 1.00000 0.00000
vt 0.00000 1.00000
vt 1.00000 1.00000
f 337/337 339/339 338/338
f 339/339 340/340 338/338
f 341/341 343/343 342/342
f 343/343 344/344 342/342
f 345/345 347/347 346/346
f 347/347 348/348 346/346
f 349/349 351/351 350/350
f 351/351 352/352 350/350
f 353/353 355/355 354/354
f 355/355 356/356 354/354
f 357/357 359/359 358/358
f 359/359 360/360 358/358
v 1.22250 2.22000 -1.39850
v 1.22250 2.22000 -1.43350
v 1.22250 0.12000 -1.39850
v 1.22250 0.12000 -1.43350
v 1.17750 2.22000 -1.43350
v 1.17750 2.22000 -1.39850
v 1.17750 0.12000 -1.43350
v 1.17750 0.12000 -1.39850
v 1.17750 2.22000 -1.43350
v 1.22250 2.22000 -1.43350
v 1.17750 2.22000 -1.39850
v 1.22250 2.22000 -1.39850
v 1.17750 0.12000 -1.39850
v 1.22250 0.12000 -1.39850
v 1.17750 0.12000 -1.43350
v 1.22250 0.12000 -1.43350
v 1.17750 2.22000 -1.39850
v 1.22250 2.22000 -1.39850
v 1.17750 0.12000 -1.39850
v 1.22250 0.12000 -1.39850
v 1.22250 2.22000 -1.43350
v 1.17750 2.22000 -1.43350
v 1.22250 0.12000 -1.43350
v 1.17750 0.12000 -1.43350
vt 0.00000 0.00000
vt 1.00000 0.00000
vt 0.00000 1.00000
vt 1.00000 1.00000
vt 0.00000 0.00000
vt 1.00000 0.00000
vt 0.00000 1.00000
vt 1.00000 1.00000
vt 0.00000 0.00000
vt 1.00000 0.00000
vt 0.00000 1.00000
vt 1.00000 1.00000
vt 0.00000 0.00000
vt 1.00000 0.00000
vt 0.00000 1.00000
vt 1.00000 1.00000
vt 0.00000 0.00000
vt 1.00000 0.00000
vt 0.00000 1.00000
vt 1.00000 1.00000
vt 0.00000 0.00000
vt 1.00000 0.00000
vt 0.00000 1.00000
vt 1.00000 1.00000
f 361/361 363/363 362/362
f 363/363 364/364 362/362
f 365/365 367/367 366/366
f 367/367 368/368 366/366
f 369/369 371/371 370/370
f 371/371 372/372 370/370
f 373/373 375/375 374/374
f 375/375 376/376 374/374
f 377/377 379/379 378/378
f 379/379 380/380 378/378
f 381/381 383/383 382/382
f 383/383 384/384 382/382
v -1.09850 2.22000 1.47750
v -1.13350 2.22000 1.47750
v -1.09850 0.12000 1.47750
v -1.13350 0.12000 1.47750
v -1.13350 2.22000 1.52250
v -1.09850 2.22000 1.52250
v -1.13350 0.12000 1.52250
v -1.09850 0.12000 1.52250
v -1.13350 2.22000 1.52250
v -1.13350 2.22000 1.47750
v -1.09850 2.22000 1.52250
v -1.09850 2.22000 1.47750
v -1.09850 0.12000 1.52250
v -1.09850 0.12000 1.47750
v -1.13350 0.12000 1.52250
v -1.13350 0.12000 1.47750
v -1.09850 2.22000 1.52250
v -1.09850 2.22000 1.47750
v -1.09850 0.12000 1.52250
v -1.09850 0.12000 1.47750
v -1.13350 2.22000 1.47750
v -1.13350 2.22000 1.52250
v -1.13350 0.12000 1.47750
v -1.13350 0.12000 1.52250
vt 0.00000 0.00000
vt 1.00000 0.00000
vt 0.00000 1.00000
vt 1.00000 1.00000
vt 0.00000 0.00000
vt 1.00000 0.00000
vt 0.00000 1.00000
vt 1.00000 1.00000
vt 0.00000 0.00000
vt 1.00000 0.00000
vt 0.00000 1.00000
vt 1.00000 1.00000
vt 0.00000 0.00000
vt 1.00000 0.00000
vt 0.00000 1.00000
vt 1.00000 1.00000
vt 0.00000 0.00000
vt 1.00000 0.00000
vt 0.00000 1.00000
vt 1.00000 1.00000
vt 0.00000 0.00000
vt 1.00000 0.00000
vt 0.00000 1.00000
vt 1.00000 1.00000
f 385/385 387/387 386/386
f 387/387 388/388 386/386
f 389/389 391/391 390/390
f 391/391 392/392 390/390
f 393/393 395/395 394/394
f 395/395 396/396 394/394
f 397/397 399/399 398/398
f 399/399 400/400 398/398
f 401/401 403/403 402/402
f 403/403 404/404 402/402
f 405/405 407/407 406/406
f 407/407 408/408 406/406
v -1.09850 2.22000 1.07750
v -1.13350 2.22000 1.07750
v -1.09850 0.12000 1.07750
v -1.13350 0.12000 1.07750
v -1.13350 2.22000 1.12250
v -1.09850 2.22000 1.12250
v -1.13350 0.12000 1.12250
v -1.09850 0.12000 1.12250
v -1.13350 2.22000 1.12250
v -1.13350 2.22000 1.07750
v -1.09850 2.22000 1.12250
v -1.09850 2.22000 1.07750
v -1.09850 0.12000 1.12250
v -1.09850 0.12000 1.07750
v -1.13350 0.12000 1.12250
v -1.13350 0.12000 1.07750
v -1.09850 2.22000 1.12250
v -1.09850 2.22000 1.07750
v -1.09850 0.12000 1.12250
v -1.09850 0.12000 1.07750
v -1.13350 2.22000 1.07750
v -1.13350 2.22000 1.12250
v -1.13350 0.12000 1.07750
v -1.13350 0.12000 1.12250
vt 0.00000 0.00000
vt 1.00000 0.00000
vt 0.00000 1.00000
vt 1.00000 1.00000
vt 0.00000 0.00000
vt 1.00000 0.00000
vt 0.00000 1.00000
vt 1.00000 1.00000
vt 0.00000 0.00000
vt 1.00000 0.00000
vt 0.00000 1.00000
vt 1.00000 1.00000
vt 0.00000 0.00000
vt 1.00000 0.00000
vt 0.00000 1.00000
vt 1.00000 1.00000
vt 0.00000 0.00000
vt 1.00000 0.00000
vt 0.00000 1.00000
vt 1.00000 1.00000
vt 0.00000 0.00000
vt 1.00000 0.00000
vt 0.00000 1.00000
vt 1.00000 1.00000
f 409/409 411/411 410/410
f 411/411 412/412 410/410
f 413/413 415/415 414/414
f 415/415 416/416 414/414
f 417/417 419/419 418/418
f 419/419 420/420 418/418
f 421/421 423/423 422/422
f 423/423 424/424 422/422
f 425/425 427/427 426/426
f 427/427 428/428 426/426
f 429/429 431/431 430/430
f 431/431 432/432 430/430
v -1.09850 2.22000 0.67750
v -1.13350 2.22000 0.67750
v -1.09850 0.12000 0.67750
v -1.13350 0.12000 0.67750
v -1.13350 2.22000 0.72250
v -1.09850 2.22000 0.72250
v -1.13350 0.12000 0.72250
v -1.09850 0.12000 0.72250
v -1.13350 2.22000 0.72250
v -1.13350 2.22000 0.67750
v -1.09850 2.22000 0.72250
v -1.09850 2.22000 0.67750
v -1.09850 0.12000 0.72250
v -1.09850 0.12000 0.67750
v -1.13350 0.12000 0.72250
v -1.13350 0.12000 0.67750
v -1.09850 2.22000 0.72250
v -1.09850 2.22000 0.67750
v -1.09850 0.12000 0.72250
v -1.09850 0.12000 0.67750
v -1.13350 2.22000 0.67750
v -1.13350 2.22000 0.72250
v -1.13350 0.12000 0.67750
v -1.13350 0.12000 0.72250
vt 0.00000 0.00000
vt 1.00000 0.00000
vt 0.00000 1.00000
vt 1.00000 1.00000
vt 0.00000 0.00000
vt 1.00000 0.00000
vt 0.00000 1.00000
vt 1.00000 1.00000
vt 0.00000 0.00000
vt 1.00000 0.00000
vt 0.00000 1.00000
vt 1.00000 1.00000
vt 0.00000 0.00000
vt 1.00000 0.00000
vt 0.00000 1.00000
vt 1.00000 1.00000
vt 0.00000 0.00000
vt 1.00000 0.00000
vt 0.00000 1.00000
vt 1.00000 1.00000
vt 0.00000 0.00000
vt 1.00000 0.00000
vt 0.00000 1.00000
vt 1.00000 1.00000
f 433/433 435/435 434/434
f 435/435 436/436 434/434
f 437/437 439/439 438/438
f 439/439 440/440 438/438
f 441/441 443/443 442/442
f 443/443 444/444 442/442
f 445/445 447/447 446/446
f 447/447 448/448 446/446
f 449/449 451/451 450/450
f 451/451 452/452 450/450
f 453/453 455/455 454/454
f 455/455 456/456 454/454
v -1.09850 2.22000 0.27750
v -1.13350 2.22000 0.27750
v -1.09850 0.12000 0.27750
v -1.13350 0.12000 0.27750
v -1.13350 2.22000 0.32250
v -1.09850 2.22000 0.32250
v -1.13350 0.12000 0.32250
v -1.09850 0.12000 0.32250
v -1.13350 2.22000 0.32250
v -1.13350 2.22000 0.27750
v -1.09850 2.22000 0.32250
v -1.09850 2.22000 0.27750
v -1.09850 0.12000 0.32250
v -1.09850 0.12000 0.27750
v -1.13350 0.12000 0.32250
v -1.13350 0.12000 0.27750
v -1.09850 2.22000 0.32250
v -1.09850 2.22000 0.27750
v -1.09850 0.12000 0.32250
v -1.09850 0.12000 0.27750
v -1.13350 2.22000 0.27750
v -1.13350 2.22000 0.32250
v -1.13350 0.12000 0.27750
v -1.13350 0.12000 0.32250
vt 0.00000 0.00000
vt 1.00000 0.00000
vt 0.00000 1.00000
vt 1.00000 1.00000
vt 0.00000 0.00000
vt 1.00000 0.00000
vt 0.00000 1.00000
vt 1.00000 1.00000
vt 0.00000 0.00000
vt 1.00000 0.00000
vt 0.00000 1.00000
vt 1.00000 1.00000
vt 0.00000 0.00000
vt 1.00000 0.00000
vt 0.00000 1.00000
vt 1.00000 1.00000
vt 0.00000 0.00000
vt 1.00000 0.00000
vt 0.00000 1.00000
vt 1.00000 1.00000
vt 0.00000 0.00000
vt 1.00000 0.00000
vt 0.00000 1.00000
vt 1.00000 1.00000
f 457/457 459/459 458/458
f 459/459 460/460 458/458
f 461/461 463/463 462/462
f 463/463 464/464 462/462
f 465/465 467/467 466/466
f 467/467 468/468 466/466
f 469/469 471/471 470/470
f 471/471 472/472 470/470
f 473/473 475/475 474/474
f 475/475 476/476 474/474
f 477/477 479/479 478/478
f 479/479 480/480 478/478
v -1.09850 2.22000 -0.12250
v -1.13350 2.22000 -0.12250
v -1.09850 0.12000 -0.12250
v -1.13350 0.12000 -0.12250
v -1.13350 2.22000 -0.07750
v -1.09850 2.22000 -0.07750
v -1.13350 0.12000 -0.07750
v -1.09850 0.12000 -0.07750
v -1.13350 2.22000 -0.07750
v -1.13350 2.22000 -0.12250
v -1.09850 2.22000 -0.07750
v -1.09850 2.22000 -0.12250
v -1.09850 0.12000 -0.07750
v -1.09850 0.12000 -0.12250
v -1.13350 0.12000 -0.07750
v -1.13350 0.12000 -0.12250
v -1.09850 2.22000 -0.07750
v -1.09850 2.22000 -0.12250
v -1.09850 0.12000 -0.07750
v -1.09850 0.12000 -0.12250
v -1.13350 2.22000 -0.12250
v -1.13350 2.22000 -0.07750
v -1.13350 0.12000 -0.12250
v -1.13350 0.12000 -0.07750
vt 0.00000 0.00000
vt 1.00000 0.00000
vt 0.00000 1.00000
vt 1.00000 1.00000
vt 0.00000 0.00000
vt 1.00000 0.00000
vt 0.00000 1.00000
vt 1.00000 1.00000
vt 0.00000 0.00000
vt 1.00000 0.00000
vt 0.00000 1.00000
vt 1.00000 1.00000
vt 0.00000 0.00000
vt 1.00000 0.00000
vt 0.00000 1.00000
vt 1.00000 1.00000
vt 0.00000 0.00000
vt 1.00000 0.00000
vt 0.00000 1.00000
vt 1.00000 1.00000
vt 0.00000 0.00000
vt 1.00000 0.00000
vt 0.00000 1.00000
vt 1.00000 1.00000
f 481/481 483/483 482/482
f 483/483 484/484 482/482
f 485/485 487/487 486/486
f 487/487 488/488 486/486
f 489/489 491/491 490/490
f 491/491 492/492 490/490
f 493/493 495/495 494/494
f 495/495 496/496 494/494
f 497/497 499/499 498/498
f 499/499 500/500 498/498
f 501/501 503/503 502/502
f 503/503 504/504 502/502
v -1.09850 2.22000 -0.52250
v -1.13350 2.22000 -0.52250
v -1.09850 0.12000 -0.52250
v -1.13350 0.12000 -0.52250
v -1.13350 2.22000 -0.47750
v -1.09850 2.22000 -0.47750
v -1.13350 0.12000 -0.47750
v -1.09850 0.12000 -0.47750
v -1.13350 2.22000 -0.47750
v -1.13350 2.22000 -0.52250
v -1.09850 2.22000 -0.47750
v -1.09850 2.22000 -0.52250
v -1.09850 0.12000 -0.47750
v -1.09850 0.12000 -0.52250
v -1.13350 0.12000 -0.47750
v -1.13350 0.12000 -0.52250
v -1.09850 2.22000 -0.47750
v -1.09850 2.22000 -0.52250
v -1.09850 0.12000 -0.47750
v -1.09850 0.12000 -0.52250
v -1.13350 2.22000 -0.52250
v -1.13350 2.22000 -0.47750
v -1.13350 0.12000 -0.52250
v -1.13350 0.12000 -0.47750
vt 0.00000 0.00000
vt 1.00000 0.00000
vt 0.00000 1.00000
vt 1.00000 1.00000
vt 0.00000 0.00000
vt 1.00000 0.00000
vt 0.00000 1.00000
vt 1.00000 1.00000
vt 0.00000 0.00000
vt 1.00000 0.00000
vt 0.00000 1.00000
vt 1.00000 1.00000
vt 0.00000 0.00000
vt 1.00000 0.00000
vt 0.00000 1.00000
vt 1.00000 1.00000
vt 0.00000 0.00000
vt 1.00000 0.00000
vt 0.00000 1.00000
vt 1.00000 1.00000
vt 0.00000 0.00000
vt 1.00000 0.00000
vt 0.00000 1.00000
vt 1.00000 1.00000
f 505/505 507/507 506/506
f 507/507 508/508 506/506
f 509/509 511/511 510/510
f 511/511 512/512 510/510
f 513/513 515/515 514/514
f 515/515 516/516 514/514
f 517/517 519/519 518/518
f 519/519 520/520 518/518
f 521/521 523/523 522/522
f 523/523 524/524 522/522
f 525/525 527/527 526/526
f 527/527 528/528 526/526
v -1.09850 2.22000 -0.92250
v -1.13350 2.22000 -0.92250
v -1.09850 0.12000 -0.92250
v -1.13350 0.12000 -0.92250
v -1.13350 2.22000 -0.87750
v -1.09850 2.22000 -0.87750
v -1.13350 0.12000 -0.87750
v -1.09850 0.12000 -0.87750
v -1.13350 2.22000 -0.87750
v -1.13350 2.22000 -0.92250
v -1.09850 2.22000 -0.87750
v -1.09850 2.22000 -0.92250
v -1.09850 0.12000 -0.87750
v -1.09850 0.12000 -0.92250
v -1.13350 0.12000 -0.87750
v -1.13350 0.12000 -0.92250
v -1.09850 2.22000 -0.87750
v -1.09850 2.22000 -0.92250
v -1.09850 0.12000 -0.87750
v -1.09850 0.12000 -0.92250
v -1.13350 2.22000 -0.92250
v -1.13350 2.22000 -0.87750
v -1.13350 0.12000 -0.92250
v -1.13350 0.12000 -0.87750
vt 0.00000 0.00000
vt 1.00000 0.00000
vt 0.00000 1.00000
vt 1.00000 1.00000
vt 0.00000 0.00000
vt 1.00000 0.00000
vt 0.00000 1.00000
vt 1.00000 1.00000
vt 0.00000 0.00000
vt 1.00000 0.00000
vt 0.00000 1.00000
vt 1.00000 1.00000
vt 0.00000 0.00000
vt 1.00000 0.00000
vt 0.00000 1.00000
vt 1.00000 1.00000
vt 0.00000 0.00000
vt 1.00000 0.00000
vt 0.00000 1.00000
vt 1.00000 1.00000
vt 0.00000 0.00000
vt 1.00000 0.00000
vt 0.00000 1.00000
vt 1.00000 1.00000
f 529/529 531/531 530/530
f 531/531 532/532 530/530
f 533/533 535/535 534/534
f 535/535 536/536 534/534
f 537/537 539/539 538/538
f 539/539 540/540 538/538
f 541/541 543/543 542/542
f 543/543 544/544 542/542
f 545/545 547/547 546/546
f 547/547 548/548 546/546
f 549/549 551/551 550/550
f 551/551 552/552 550/550
v -1.09850 2.22000 -1.32250
v -1.13350 2.22000 -1.32250
v -1.09850 0.12000 -1.32250
v -1.13350 0.12000 -1.32250
v -1.13350 2.22000 -1.27750
v -1.09850 2.22000 -1.27750
v -1.13350 0.12000 -1.27750
v -1.09850 0.12000 -1.27750
v -1.13350 2.22000 -1.27750
v -1.13350 2.22000 -1.32250
v -1.09850 2.22000 -1.27750
v -1.09850 2.22000 -1.32250
v -1.09850 0.12000 -1.27750
v -1.09850 0.12000 -1.32250
v -1.13350 0.12000 -1.27750
v -1.13350 0.12000 -1.32250
v -1.09850 2.22000 -1.27750
v -1.09850 2.22000 -1.32250
v -1.09850 0.12000 -1.27750
v -1.09850 0.12000 -1.32250
v -1.13350 2.22000 -1.32250
v -1.13350 2.22000 -1.27750
v -1.13350 0.12000 -1.32250
v -1.13350 0.12000 -1.27750
vt 0.00000 0.00000
vt 1.00000 0.00000
vt 0.00000 1.00000
vt 1.00000 1.00000
vt 0.00000 0.00000
vt 1.00000 0.00000
vt 0.00000 1.00000
vt 1.00000 1.00000
vt 0.00000 0.00000
vt 1.00000 0.00000
vt 0.00000 1.00000
vt 1.00000 1.00000
vt 0.00000 0.00000
vt 1.00000 0.00000
vt 0.00000 1.00000
vt 1.00000 1.00000
vt 0.00000 0.00000
vt 1.00000 0.00000
vt 0.00000 1.00000
vt 1.00000 1.00000
vt 0.00000 0.00000
vt 1.00000 0.00000
vt 0.00000 1.00000
vt 1.00000 1.00000
f 553/553 555/555 554/554
f 555/555 556/556 554/554
f 557/557 559/559 558/558
f 559/559 560/560 558/558
f 561/561 563/563 562/562
f 563/563 564/564 562/562
f 565/565 567/567 566/566
f 567/567 568/568 566/566
f 569/569 571/571 570/570
f 571/571 572/572 570/570
f 573/573 575/575 574/574
f 575/575 576/576 574/574
v -1.09850 2.22000 -1.72250
v -1.13350 2.22000 -1.72250
v -1.09850 0.12000 -1.72250
v -1.13350 0.12000 -1.72250
v -1.13350 2.22000 -1.67750
v -1.09850 2.22000 -1.67750
v -1.13350 0.12000 -1.67750
v -1.09850 0.12000 -1.67750
v -1.13350 2.22000 -1.67750
v -1.13350 2.22000 -1.72250
v -1.09850 2.22000 -1.67750
v -1.09850 2.22000 -1.72250
v -1.09850 0.12000 -1.67750
v -1.09850 0.12000 -1.72250
v -1.13350 0.12000 -1.67750
v -1.13350 0.12000 -1.72250
v -1.09850 2.22000 -1.67750
v -1.09850 2.22000 -1.72250
v -1.09850 0.12000 -1.67750
v -1.09850 0.12000 -1.72250
v -1.13350 2.22000 -1.72250
v -1.13350 2.22000 -1.67750
v -1.13350 0.12000 -1.72250
v -1.13350 0.12000 -1.67750
vt 0.00000 0.00000
vt 1.00000 0.00000
vt 0.00000 1.00000
vt 1.00000 1.00000
vt 0.00000 0.00000
vt 1.00000 0.00000
vt 0.00000 1.00000
vt 1.00000 1.00000
vt 0.00000 0.00000
vt 1.00000 0.00000
vt 0.00000 1.00000
vt 1.00000 1.00000
vt 0.00000 0.00000
vt 1.00000 0.00000
vt 0.00000 1.00000
vt 1.00000 1.00000
vt 0.00000 0.00000
vt 1.00000 0.00000
vt 0.00000 1.00000
vt 1.00000 1.00000
vt 0.00000 0.00000
vt 1.00000 0.00000
vt 0.00000 1.00000
vt 1.00000 1.00000
f 577/577 579/579 578/578
f 579/579 580/580 578/578
f 581/581 583/583 582/582
f 583/583 584/584 582/582
f 585/585 587/587 586/586
f 587/587 588/588 586/586
f 589/589 591/591 590/590
f 591/591 592/592 590/590
f 593/593 595/595 594/594
f 595/595 596/596 594/594
f 597/597 599/599 598/598
f 599/599 600/600 598/598
v 1.20150 2.22000 1.47750
v 1.16650 2.22000 1.47750
v 1.20150 0.12000 1.47750
v 1.16650 0.12000 1.47750
v 1.16650 2.22000 1.52250
v 1.20150 2.22000 1.52250
v 1.16650 0.12000 1.52250
v 1.20150 0.12000 1.52250
v 1.16650 2.22000 1.52250
v 1.16650 2.22000 1.47750
v 1.20150 2.22000 1.52250
v 1.20150 2.22000 1.47750
v 1.20150 0.12000 1.52250
v 1.20150 0.12000 1.47750
v 1.16650 0.12000 1.52250
v 1.16650 0.12000 1.47750
v 1.20150 2.22000 1.52250
v 1.20150 2.22000 1.47750
v 1.20150 0.12000 1.52250
v 1.20150 0.12000 1.47750
v 1.16650 2.22000 1.47750
v 1.16650 2.22000 1.52250
v 1.16650 0.12000 1.47750
v 1.16650 0.12000 1.52250
vt 0.00000 0.00000
vt 1.00000 0.00000
vt 0.00000 1.00000
vt 1.00000 1.00000
vt 0.00000 0.00000
vt 1.00000 0.00000
vt 0.00000 1.00000
vt 1.00000 1.00000
vt 0.00000 0.00000
vt 1.00000 0.00000
vt 0.00000 1.00000
vt 1.00000 1.00000
vt 0.00000 0.00000
vt 1.00000 0.00000
vt 0.00000 1.00000
vt 1.00000 1.00000
vt 0.00000 0.00000
vt 1.00000 0.00000
vt 0.00000 1.00000
vt 1.00000 1.00000
vt 0.00000 0.00000
vt 1.00000 0.00000
vt 0.00000 1.00000
vt 1.00000 1.00000
f 601/601 603/603 602/602
f 603/603 604/604 602/602
f 605/605 607/607 606/606
f 607/607 608/608 606/606
f 609/609 611/611 610/610
f 611/611 612/612 610/610
f 613/613 615/615 614/614
f 615/615 616/616 614/614
f 617/617 619/619 618/618
f 619/619 620/620 618/618
f 621/621 623/623 622/622
f 623/623 624/624 622/622
v 1.20150 2.22000 1.07750
v 1.16650 2.22000 1.07750
v 1.20150 0.12000 1.07750
v 1.16650 0.12000 1.07750
v 1.16650 2.22000 1.12250
v 1.20150 2.22000 1.12250
v 1.16650 0.12000 1.12250
v 1.20150 0.12000 1.12250
v 1.16650 2.22000 1.12250
v 1.16650 2.22000 1.07750
v 1.20150 2.22000 1.12250
v 1.20150 2.22000 1.07750
v 1.20150 0.12000 1.12250
v 1.20150 0.12000 1.07750
v 1.16650 0.12000 1.12250
v 1.16650 0.12000 1.07750
v 1.20150 2.22000 1.12250
v 1.20150 2.22000 1.07750
v 1.20150 0.12000 1.12250
v 1.20150 0.12000 1.07750
v 1.16650 2.22000 1.07750
v 1.16650 2.22000 1.12250
v 1.16650 0.12000 1.07750
v 1.16650 0.12000 1.12250
vt 0.00000 0.00000
vt 1.00000 0.00000
vt 0.00000 1.00000
vt 1.00000 1.00000
vt 0.00000 0.00000
vt 1.00000 0.00000
vt 0.00000 1.00000
vt 1.00000 1.00000
vt 0.00000 0.00000
vt 1.00000 0.00000
vt 0.00000 1.00000
vt 1.00000 1.00000
vt 0.00000 0.00000
vt 1.00000 0.00000
vt 0.00000 1.00000
vt 1.00000 1.00000
vt 0.00000 0.00000
vt 1.00000 0.00000
vt 0.00000 1.00000
vt 1.00000 1.00000
vt 0.00000 0.00000
vt 1.00000 0.00000
vt 0.00000 1.00000
vt 1.00000 1.00000
f 625/625 627/627 626/626
f 627/627 628/628 626/626
f 629/629 631/631 630/630
f 631/631 632/632 630/630
f 633/633 635/635 634/634
f 635/635 636/636 634/634
f 637/637 639/639 638/638
f 639/639 640/640 638/638
f 641/641 643/643 642/642
f 643/643 644/644 642/642
f 645/645 647/647 646/646
f 647/647 648/648 646/646
v 1.20150 2.22000 0.67750
v 1.16650 2.22000 0.67750
v 1.20150 0.12000 0.67750
v 1.16650 0.12000 0.67750
v 1.16650 2.22000 0.72250
v 1.20150 2.22000 0.72250
v 1.16650 0.12000 0.72250
v 1.20150 0.12000 0.72250
v 1.16650 2.22000 0.72250
v 1.16650 2.22000 0.67750
v 1.20150 2.22000 0.72250
v 1.20150 2.22000 0.67750
v 1.20150 0.12000 0.72250
v 1.20150 0.12000 0.67750
v 1.16650 0.12000 0.72250
v 1.16650 0.12000 0.67750
v 1.20150 2.22000 0.72250
v 1.20150 2.22000 0.67750
v 1.20150 0.12000 0.72250
v 1.20150 0.12000 0.67750
v 1.16650 2.22000 0.67750
v 1.16650 2.22000 0.72250
v 1.16650 0.12000 0.67750
v 1.16650 0.12000 0.72250
vt 0.00000 0.00000
vt 1.00000 0.00000
vt 0.00000 1.00000
vt 1.00000 1.00000
vt 0.00000 0.00000
vt 1.00000 0.00000
vt 0.00000 1.00000
vt 1.00000 1.00000
vt 0.00000 0.00000
vt 1.00000 0.00000
vt 0.00000 1.00000
vt 1.00000 1.00000
vt 0.00000 0.00000
vt 1.00000 0.00000
vt 0.00000 1.00000
vt 1.00000 1.00000
vt 0.00000 0.00000
vt 1.00000 0.00000
vt 0.00000 1.00000
vt 1.00000 1.00000
vt 0.00000 0.00000
vt 1.00000 0.00000
vt 0.00000 1.00000
vt 1.00000 1.00000
f 649/649 651/651 650/650
f 651/651 652/652 650/650
f 653/653 655/655 654/654
f 655/655 656/656 654/654
f 657/657 659/659 658/658
f 659/659 660/660 658/658
f 661/661 663/663 662/662
f 663/663 664/664 662/662
f 665/665 667/667 666/666
f 667/667 668/668 666/666
f 669/669 671/671 670/670
f 671/671 672/672 670/670
v 1.20150 2.22000 0.27750
v 1.16650 2.22000 0.27750
v 1.20150 0.12000 0.27750
v 1.16650 0.12000 0.27750
v 1.16650 2.22000 0.32250
v 1.20150 2.22000 0.32250
v 1.16650 0.12000 0.32250
v 1.20150 0.12000 0.32250
v 1.16650 2.22000 0.32250
v 1.16650 2.22000 0.27750
v 1.20150 2.22000 0.32250
v 1.20150 2.22000 0.27750
v 1.20150 0.12000 0.32250
v 1.20150 0.12000 0.27750
v 1.16650 0.12000 0.32250
v 1.16650 0.12000 0.27750
v 1.20150 2.22000 0.32250
v 1.20150 2.22000 0.27750
v 1.20150 0.12000 0.32250
v 1.20150 0.12000 0.27750
v 1.16650 2.22000 0.27750
v 1.16650 2.22000 0.32250
v 1.16650 0.12000 0.27750
v 1.16650 0.12000 0.32250
vt 0.00000 0.00000
vt 1.00000 0.00000
vt 0.00000 1.00000
vt 1.00000 1.00000
vt 0.00000 0.00000
vt 1.00000 0.00000
vt 0.00000 1.00000
vt 1.00000 1.00000
vt 0.00000 0.00000
vt 1.00000 0.00000
vt 0.00000 1.00000
vt 1.00000 1.00000
vt 0.00000 0.00000
vt 1.00000 0.00000
vt 0.00000 1.00000
vt 1.00000 1.00000
vt 0.00000 0.00000
vt 1.00000 0.00000
vt 0.00000 1.00000
vt 1.00000 1.00000
vt 0.00000 0.00000
vt 1.00000 0.00000
vt 0.00000 1.00000
vt 1.00000 1.00000
f 673/673 675/675 674/674
f 675/675 676/676 674/674
f 677/677 679/679 678/678
f 679/679 680/680 678/678
f 681/681 683/683 682/682
f 683/683 684/684 682/682
f 685/685 687/687 686/686
f 687/687 688/688 686/686
f 689/689 691/691 690/690
f 691/691 692/692 690/690
f 693/693 695/695 694/694
f 695/695 696/696 694/694
v 1.20150 2.22000 -0.12250
v 1.16650 2.22000 -0.12250
v 1.20150 0.12000 -0.12250
v 1.16650 0.12000 -0.12250
v 1.16650 2.22000 -0.07750
v 1.20150 2.22000 -0.07750
v 1.16650 0.12000 -0.07750
v 1.20150 0.12000 -0.07750
v 1.16650 2.22000 -0.07750
v 1.16650 2.22000 -0.12250
v 1.20150 2.22000 -0.07750
v 1.20150 2.22000 -0.12250
v 1.20150 0.12000 -0.07750
v 1.20150 0.12000 -0.12250
v 1.16650 0.12000 -0.07750
v 1.16650 0.12000 -0.12250
v 1.20150 2.22000 -0.07750
v 1.20150 2.22000 -0.12250
v 1.20150 0.12000 -0.07750
v 1.20150 0.12000 -0.12250
v 1.16650 2.22000 -0.12250
v 1.16650 2.22000 -0.07750
v 1.16650 0.12000 -0.12250
v 1.16650 0.12000 -0.07750
vt 0.00000 0.00000
vt 1.00000 0.00000
vt 0.00000 1.00000
vt 1.00000 1.00000
vt 0.00000 0.00000
vt 1.00000 0.00000
vt 0.00000 1.00000
vt 1.00000 1.00000
vt 0.00000 0.00000
vt 1.00000 0.00000
vt 0.00000 1.00000
vt 1.00000 1.00000
vt 0.00000 0.00000
vt 1.00000 0.00000
vt 0.00000 1.00000
vt 1.00000 1.00000
vt 0.00000 0.00000
vt 1.00000 0.00000
vt 0.00000 1.00000
vt 1.00000 1.00000
vt 0.00000 0.00000
vt 1.00000 0.00000
vt 0.00000 1.00000
vt 1.00000 1.00000
f 697/697 699/699 698/698
f 699/699 700/700 698/698
f 701/701 703/703 702/702
f 703/703 704/704 702/702
f 705/705 707/707 706/706
f 707/707 708/708 706/706
f 709/709 711/711 710/710
f 711/711 712/712 710/710
f 713/713 715/715 714/714
f 715/715 716/716 714/714
f 717/717 719/719 718/718
f 719/719 720/720 718/718
v 1.20150 2.22000 -0.52250
v 1.16650 2.22000 -0.52250
v 1.20150 0.12000 -0.52250
v 1.16650 0.12000 -0.52250
v 1.16650 2.22000 -0.47750
v 1.20150 2.22000 -0.47750
v 1.16650 0.12000 -0.47750
v 1.20150 0.12000 -0.47750
v 1.16650 2.22000 -0.47750
v 1.16650 2.22000 -0.52250
v 1.20150 2.22000 -0.47750
v 1.20150 2.22000 -0.52250
v 1.20150 0.12000 -0.47750
v 1.20150 0.12000 -0.52250
v 1.16650 0.12000 -0.47750
v 1.16650 0.12000 -0.52250
v 1.20150 2.22000 -0.47750
v 1.20150 2.22000 -0.52250
v 1.20150 0.12000 -0.47750
v 1.20150 0.12000 -0.52250
v 1.16650 2.22000 -0.52250
v 1.16650 2.22000 -0.47750
v 1.16650 0.12000 -0.52250
v 1.16650 0.12000 -0.47750
vt 0.00000 0.00000
vt 1.00000 0.00000
vt 0.00000 1.00000
vt 1.00000 1.00000
vt 0.00000 0.00000
vt 1.00000 0.00000
vt 0.00000 1.00000
vt 1.00000 1.00000
vt 0.00000 0.00000
vt 1.00000 0.00000
vt 0.00000 1.00000
vt 1.00000 1.00000
vt 0.00000 0.00000
vt 1.00000 0.00000
vt 0.00000 1.00000
vt 1.00000 1.00000
vt 0.00000 0.00000
vt 1.00000 0.00000
vt 0.00000 1.00000
vt 1.00000 1.00000
vt 0.00000 0.00000
vt 1.00000 0.00000
vt 0.00000 1.00000
vt 1.00000 1.00000
f 721/721 723/723 722/722
f 723/723 724/724 722/722
f 725/725 727/727 726/726
f 727/727 728/728 726/726
f 729/729 731/731 730/730
f 731/731 732/732 730/730
f 733/733 735/735 734/734
f 735/735 736/736 734/734
f 737/737 739/739 738/738
f 739/739 740/740 738/738
f 741/741 743/743 742/742
f 743/743 744/744 742/742
v 1.20150 2.22000 -0.92250
v 1.16650 2.22000 -0.92250
v 1.20150 0.12000 -0.92250
v 1.16650 0.12000 -0.92250
v 1.16650 2.22000 -0.87750
v 1.20150 2.22000 -0.87750
v 1.16650 0.12000 -0.87750
v 1.20150 0.12000 -0.87750
v 1.16650 2.22000 -0.87750
v 1.16650 2.22000 -0.92250
v 1.20150 2.22000 -0.87750
v 1.20150 2.22000 -0.92250
v 1.20150 0.12000 -0.87750
v 1.20150 0.12000 -0.92250
v 1.16650 0.12000 -0.87750
v 1.16650 0.12000 -0.92250
v 1.20150 2.22000 -0.87750
v 1.20150 2.22000 -0.92250
v 1.20150 0.12000 -0.87750
v 1.20150 0.12000 -0.92250
v 1.16650 2.22000 -0.92250
v 1.16650 2.22000 -0.87750
v 1.16650 0.12000 -0.92250
v 1.16650 0.12000 -0.87750
vt 0.00000 0.00000
vt 1.00000 0.00000
vt 0.00000 1.00000
vt 1.00000 1.00000
vt 0.00000 0.00000
vt 1.00000 0.00000
vt 0.00000 1.00000
vt 1.00000 1.00000
vt 0.00000 0.00000
vt 1.00000 0.00000
vt 0.00000 1.00000
vt 1.00000 1.00000
vt 0.00000 0.00000
vt 1.00000 0.00000
vt 0.00000 1.00000
vt 1.00000 1.00000
vt 0.00000 0.00000
vt 1.00000 0.00000
vt 0.00000 1.00000
vt 1.00000 1.00000
vt 0.00000 0.00000
vt 1.00000 0.00000
vt 0.00000 1.00000
vt 1.00000 1.00000
f 745/745 747/747 746/746
f 747/747 748/748 746/746
f 749/749 751/751 750/750
f 751/751 752/752 750/750
f 753/753 755/755 754/754
f 755/755 756/756 754/754
f 757/757 759/759 758/758
f 759/759 760/760 758/758
f 761/761 763/763 762/762
f 763/763 764/764 762/762
f 765/765 767/767 766/766
f 767/767 768/768 766/766
v 1.20150 2.22000 -1.32250
v 1.16650 2.22000 -1.32250
v 1.20150 0.12000 -1.32250
v 1.16650 0.12000 -1.32250
v 1.16650 2.22000 -1.27750
v 1.20150 2.22000 -1.27750
v 1.16650 0.12000 -1.27750
v 1.20150 0.12000 -1.27750
v 1.16650 2.22000 -1.27750
v 1.16650 2.22000 -1.32250
v 1.20150 2.22000 -1.27750
v 1.20150 2.22000 -1.32250
v 1.20150 0.12000 -1.27750
v 1.20150 0.12000 -1.32250
v 1.16650 0.12000 -1.27750
v 1.16650 0.12000 -1.32250
v 1.20150 2.22000 -1.27750
v 1.20150 2.22000 -1.32250
v 1.20150 0.12000 -1.27750
v 1.20150 0.12000 -1.32250
v 1.16650 2.22000 -1.32250
v 1.16650 2.22000 -1.27750
v 1.16650 0.12000 -1.32250
v 1.16650 0.12000 -1.27750
vt 0.00000 0.00000
vt 1.00000 0.00000
vt 0.00000 1.00000
vt 1.00000 1.00000
vt 0.00000 0.00000
vt 1.00000 0.00000
vt 0.00000 1.00000
vt 1.00000 1.00000
vt 0.00000 0.00000
vt 1.00000 0.00000
vt 0.00000 1.00000
vt 1.00000 1.00000
vt 0.00000 0.00000
vt 1.00000 0.00000
vt 0.00000 1.00000
vt 1.00000 1.00000
vt 0.00000 0.00000
vt 1.00000 0.00000
vt 0.00000 1.00000
vt 1.00000 1.00000
vt 0.00000 0.00000
vt 1.00000 0.00000
vt 0.00000 1.00000
vt 1.00000 1.00000
f 769/769 771/771 770/770
f 771/771 772/772 770/770
f 773/773 775/775 774/774
f 775/775 776/776 774/774
f 777/777 779/779 778/778
f 779/779 780/780 778/778
f 781/781 783/783 782/782
f 783/783 784/784 782/782
f 785/785 787/787 786/786
f 787/787 788/788 786/786
f 789/789 791/791 790/790
f 791/791 792/792 790/790
v 1.20150 2.22000 -1.72250
v 1.16650 2.22000 -1.72250
v 1.20150 0.12000 -1.72250
v 1.16650 0.12000 -1.72250
v 1.16650 2.22000 -1.67750
v 1.20150 2.22000 -1.67750
v 1.16650 0.12000 -1.67750
v 1.20150 0.12000 -1.67750
v 1.16650 2.22000 -1.67750
v 1.16650 2.22000 -1.72250
v 1.20150 2.22000 -1.67750
v 1.20150 2.22000 -1.72250
v 1.20150 0.12000 -1.67750
v 1.20150 0.12000 -1.72250
v 1.16650 0.12000 -1.67750
v 1.16650 0.12000 -1.72250
v 1.20150 2.22000 -1.67750
v 1.20150 2.22000 -1.72250
v 1.20150 0.12000 -1.67750
v 1.20150 0.12000 -1.72250
v 1.16650 2.22000 -1.72250
v 1.16650 2.22000 -1.67750
v 1.16650 0.12000 -1.72250
v 1.16650 0.12000 -1.67750
vt 0.00000 0.00000
vt 1.00000 0.00000
vt 0.00000 1.00000
vt 1.00000 1.00000
vt 0.00000 0.00000
vt 1.00000 0.00000
vt 0.00000 1.00000
vt 1.00000 1.00000
vt 0.00000 0.00000
vt 1.00000 0.00000
vt 0.00000 1.00000
vt 1.00000 1.00000
vt 0.00000 0.00000
vt 1.00000 0.00000
vt 0.00000 1.00000
vt 1.00000 1.00000
vt 0.00000 0.00000
vt 1.00000 0.00000
vt 0.00000 1.00000
vt 1.00000 1.00000
vt 0.00000 0.00000
vt 1.00000 0.00000
vt 0.00000 1.00000
vt 1.00000 1.00000
f 793/793 795/795 794/794
f 795/795 796/796 794/794
f 797/797 799/799 798/798
f 799/799 800/800 798/798
f 801/801 803/803 802/802
f 803/803 804/804 802/802
f 805/805 807/807 806/806
f 807/807 808/808 806/806
f 809/809 811/811 810/810
f 811/811 812/812 810/810
f 813/813 815/815 814/814
f 815/815 816/816 814/814
usemtl glass
v 1.21500 1.62800 0.08600
v 1.20500 1.62800 0.08600
v 1.21500 1.01200 0.08600
v 1.20500 1.01200 0.08600
v 1.20500 1.62800 0.61400
v 1.21500 1.62800 0.61400
v 1.20500 1.01200 0.61400
v 1.21500 1.01200 0.61400
v 1.20500 1.62800 0.61400
v 1.20500 1.62800 0.08600
v 1.21500 1.62800 0.61400
v 1.21500 1.62800 0.08600
v 1.21500 1.01200 0.61400
v 1.21500 1.01200 0.08600
v 1.20500 1.01200 0.61400
v 1.20500 1.01200 0.08600
v 1.21500 1.62800 0.61400
v 1.21500 1.62800 0.08600
v 1.21500 1.01200 0.61400
v 1.21500 1.01200 0.08600
v 1.20500 1.62800 0.08600
v 1.20500 1.62800 0.61400
v 1.20500 1.01200 0.08600
v 1.20500 1.01200 0.61400
vt 0.00000 0.00000
vt 1.00000 0.00000
vt 0.00000 1.00000
vt 1.00000 1.00000
vt 0.00000 0.00000
vt 1.00000 0.00000
vt 0.00000 1.00000
vt 1.00000 1.00000
vt 0.00000 0.00000
vt 1.00000 0.00000
vt 0.00000 1.00000
vt 1.00000 1.00000
vt 0.00000 0.00000
vt 1.00000 0.00000
vt 0.00000 1.00000
vt 1.00000 1.00000
vt 0.00000 0.00000
vt 1.00000 0.00000
vt 0.00000 1.00000
vt 1.00000 1.00000
vt 0.00000 0.00000
vt 1.00000 0.00000
vt 0.00000 1.00000
vt 1.00000 1.00000
f 817/817 819/819 818/818
f 819/819 820/820 818/818
f 821/821 823/823 822/822
f 823/823 824/824 822/822
f 825/825 827/827 826/826
f 827/827 828/828 826/826
f 829/829 831/831 830/830
f 831/831 832/832 830/830
f 833/833 835/835 834/834
f 835/835 836/836 834/834
f 837/837 839/839 838/838
f 839/839 840/840 838/838
usemtl trim_white
v 1.23250 1.67000 0.60500
v 1.18750 1.67000 0.60500
v 1.23250 0.97000 0.60500
v 1.18750 0.97000 0.60500
v 1.18750 1.67000 0.65000
v 1.23250 1.67000 0.65000
v 1.18750 0.97000 0.65000
v 1.23250 0.97000 0.65000
v 1.18750 1.67000 0.65000
v 1.18750 1.67000 0.60500
v 1.23250 1.67000 0.65000
v 1.23250 1.67000 0.60500
v 1.23250 0.97000 0.65000
v 1.23250 0.97000 0.60500
v 1.18750 0.97000 0.65000
v 1.18750 0.97000 0.60500
v 1.23250 1.67000 0.65000
v 1.23250 1.67000 0.60500
v 1.23250 0.97000 0.65000
v 1.23250 0.97000 0.60500
v 1.18750 1.67000 0.60500
v 1.18750 1.67000 0.65000
v 1.18750 0.97000 0.60500
v 1.18750 0.97000 0.65000
vt 0.00000 0.00000
vt 1.00000 0.00000
vt 0.00000 1.00000
vt 1.00000 1.00000
vt 0.00000 0.00000
vt 1.00000 0.00000
vt 0.00000 1.00000
vt 1.00000 1.00000
vt 0.00000 0.00000
vt 1.00000 0.00000
vt 0.00000 1.00000
vt 1.00000 1.00000
vt 0.00000 0.00000
vt 1.00000 0.00000
vt 0.00000 1.00000
vt 1.00000 1.00000
vt 0.00000 0.00000
vt 1.00000 0.00000
vt 0.00000 1.00000
vt 1.00000 1.00000
vt 0.00000 0.00000
vt 1.00000 0.00000
vt 0.00000 1.00000
vt 1.00000 1.00000
f 841/841 843/843 842/842
f 843/843 844/844 842/842
f 845/845 847/847 846/846
f 847/847 848/848 846/846
f 849/849 851/851 850/850
f 851/851 852/852 850/850
f 853/853 855/855 854/854
f 855/855 856/856 854/854
f 857/857 859/859 858/858
f 859/859 860/860 858/858
f 861/861 863/863 862/862
f 863/863 864/864 862/862
v 1.23250 1.67000 0.05000
v 1.18750 1.67000 0.05000
v 1.23250 0.97000 0.05000
v 1.18750 0.97000 0.05000
v 1.18750 1.67000 0.09500
v 1.23250 1.67000 0.09500
v 1.18750 0.97000 0.09500
v 1.23250 0.97000 0.09500
v 1.18750 1.67000 0.09500
v 1.18750 1.67000 0.05000
v 1.23250 1.67000 0.09500
v 1.23250 1.67000 0.05000
v 1.23250 0.97000 0.09500
v 1.23250 0.97000 0.05000
v 1.18750 0.97000 0.09500
v 1.18750 0.97000 0.05000
v 1.23250 1.67000 0.09500
v 1.23250 1.67000 0.05000
v 1.23250 0.97000 0.09500
v 1.23250 0.97000 0.05000
v 1.18750 1.67000 0.05000
v 1.18750 1.67000 0.09500
v 1.18750 0.97000 0.05000
v 1.18750 0.97000 0.09500
vt 0.00000 0.00000
vt 1.00000 0.00000
vt 0.00000 1.00000
vt 1.00000 1.00000
vt 0.00000 0.00000
vt 1.00000 0.00000
vt 0.00000 1.00000
vt 1.00000 1.00000
vt 0.00000 0.00000
vt 1.00000 0.00000
vt 0.00000 1.00000
vt 1.00000 1.00000
vt 0.00000 0.00000
vt 1.00000 0.00000
vt 0.00000 1.00000
vt 1.00000 1.00000
vt 0.00000 0.00000
vt 1.00000 0.00000
vt 0.00000 1.00000
vt 1.00000 1.00000
vt 0.00000 0.00000
vt 1.00000 0.00000
vt 0.00000 1.00000
vt 1.00000 1.00000
f 865/865 867/867 866/866
f 867/867 868/868 866/866
f 869/869 871/871 870/870
f 871/871 872/872 870/870
f 873/873 875/875 874/874
f 875/875 876/876 874/874
f 877/877 879/879 878/878
f 879/879 880/880 878/878
f 881/881 883/883 882/882
f 883/883 884/884 882/882
f 885/885 887/887 886/886
f 887/887 888/888 886/886
v 1.23250 1.67000 0.05000
v 1.18750 1.67000 0.05000
v 1.23250 1.62500 0.05000
v 1.18750 1.62500 0.05000
v 1.18750 1.67000 0.65000
v 1.23250 1.67000 0.65000
v 1.18750 1.62500 0.65000
v 1.23250 1.62500 0.65000
v 1.18750 1.67000 0.65000
v 1.18750 1.67000 0.05000
v 1.23250 1.67000 0.65000
v 1.23250 1.67000 0.05000
v 1.23250 1.62500 0.65000
v 1.23250 1.62500 0.05000
v 1.18750 1.62500 0.65000
v 1.18750 1.62500 0.05000
v 1.23250 1.67000 0.65000
v 1.23250 1.67000 0.05000
v 1.23250 1.62500 0.65000
v 1.23250 1.62500 0.05000
v 1.18750 1.67000 0.05000
v 1.18750 1.67000 0.65000
v 1.18750 1.62500 0.05000
v 1.18750 1.62500 0.65000
vt 0.00000 0.00000
vt 1.00000 0.00000
vt 0.00000 1.00000
vt 1.00000 1.00000
vt 0.00000 0.00000
vt 1.00000 0.00000
vt 0.00000 1.00000
vt 1.00000 1.00000
vt 0.00000 0.00000
vt 1.00000 0.00000
vt 0.00000 1.00000
vt 1.00000 1.00000
vt 0.00000 0.00000
vt 1.00000 0.00000
vt 0.00000 1.00000
vt 1.00000 1.00000
vt 0.00000 0.00000
vt 1.00000 0.00000
vt 0.00000 1.00000
vt 1.00000 1.00000
vt 0.00000 0.00000
vt 1.00000 0.00000
vt 0.00000 1.00000
vt 1.00000 1.00000
f 889/889 891/891 890/890
f 891/891 892/892 890/890
f 893/893 895/895 894/894
f 895/895 896/896 894/894
f 897/897 899/899 898/898
f 899/899 900/900 898/898
f 901/901 903/903 902/902
f 903/903 904/904 902/902
f 905/905 907/907 906/906
f 907/907 908/908 906/906
f 909/909 911/911 910/910
f 911/911 912/912 910/910
v 1.23250 1.01500 0.05000
v 1.18750 1.01500 0.05000
v 1.23250 0.97000 0.05000
v 1.18750 0.97000 0.05000
v 1.18750 1.01500 0.65000
v 1.23250 1.01500 0.65000
v 1.18750 0.97000 0.65000
v 1.23250 0.97000 0.65000
v 1.18750 1.01500 0.65000
v 1.18750 1.01500 0.05000
v 1.23250 1.01500 0.65000
v 1.23250 1.01500 0.05000
v 1.23250 0.97000 0.65000
v 1.23250 0.97000 0.05000
v 1.18750 0.97000 0.65000
v 1.18750 0.97000 0.05000
v 1.23250 1.01500 0.65000
v 1.23250 1.01500 0.05000
v 1.23250 0.97000 0.65000
v 1.23250 0.97000 0.05000
v 1.18750 1.01500 0.05000
v 1.18750 1.01500 0.65000
v 1.18750 0.97000 0.05000
v 1.18750 0.97000 0.65000
vt 0.00000 0.00000
vt 1.00000 0.00000
vt 0.00000 1.00000
vt 1.00000 1.00000
vt 0.00000 0.00000
vt 1.00000 0.00000
vt 0.00000 1.00000
vt 1.00000 1.00000
vt 0.00000 0.00000
vt 1.00000 0.00000
vt 0.00000 1.00000
vt 1.00000 1.00000
vt 0.00000 0.00000
vt 1.00000 0.00000
vt 0.00000 1.00000
vt 1.00000 1.00000
vt 0.00000 0.00000
vt 1.00000 0.00000
vt 0.00000 1.00000
vt 1.00000 1.00000
vt 0.00000 0.00000
vt 1.00000 0.00000
vt 0.00000 1.00000
vt 1.00000 1.00000
f 913/913 915/915 914/914
f 915/915 916/916 914/914
f 917/917 919/919 918/918
f 919/919 920/920 918/918
f 921/921 923/923 922/922
f 923/923 924/924 922/922
f 925/925 927/927 926/926
f 927/927 928/928 926/926
f 929/929 931/931 930/930
f 931/931 932/932 930/930
f 933/933 935/935 934/934
f 935/935 936/936 934/934
v 1.22750 1.62100 0.33750
v 1.19250 1.62100 0.33750
v 1.22750 1.01900 0.33750
v 1.19250 1.01900 0.33750
v 1.19250 1.62100 0.36250
v 1.22750 1.62100 0.36250
v 1.19250 1.01900 0.36250
v 1.22750 1.01900 0.36250
v 1.19250 1.62100 0.36250
v 1.19250 1.62100 0.33750
v 1.22750 1.62100 0.36250
v 1.22750 1.62100 0.33750
v 1.22750 1.01900 0.36250
v 1.22750 1.01900 0.33750
v 1.19250 1.01900 0.36250
v 1.19250 1.01900 0.33750
v 1.22750 1.62100 0.36250
v 1.22750 1.62100 0.33750
v 1.22750 1.01900 0.36250
v 1.22750 1.01900 0.33750
v 1.19250 1.62100 0.33750
v 1.19250 1.62100 0.36250
v 1.19250 1.01900 0.33750
v 1.19250 1.01900 0.36250
vt 0.00000 0.00000
vt 1.00000 0.00000
vt 0.00000 1.00000
vt 1.00000 1.00000
vt 0.00000 0.00000
vt 1.00000 0.00000
vt 0.00000 1.00000
vt 1.00000 1.00000
vt 0.00000 0.00000
vt 1.00000 0.00000
vt 0.00000 1.00000
vt 1.00000 1.00000
vt 0.00000 0.00000
vt 1.00000 0.00000
vt 0.00000 1.00000
vt 1.00000 1.00000
vt 0.00000 0.00000
vt 1.00000 0.00000
vt 0.00000 1.00000
vt 1.00000 1.00000
vt 0.00000 0.00000
vt 1.00000 0.00000
vt 0.00000 1.00000
vt 1.00000 1.00000
f 937/937 939/939 938/938
f 939/939 940/940 938/938
f 941/941 943/943 942/942
f 943/943 944/944 942/942
f 945/945 947/947 946/946
f 947/947 948/948 946/946
f 949/949 951/951 950/950
f 951/951 952/952 950/950
f 953/953 955/955 954/954
f 955/955 956/956 954/954
f 957/957 959/959 958/958
f 959/959 960/960 958/958
v 1.22750 1.33250 0.09200
v 1.19250 1.33250 0.09200
v 1.22750 1.30750 0.09200
v 1.19250 1.30750 0.09200
v 1.19250 1.33250 0.60800
v 1.22750 1.33250 0.60800
v 1.19250 1.30750 0.60800
v 1.22750 1.30750 0.60800
v 1.19250 1.33250 0.60800
v 1.19250 1.33250 0.09200
v 1.22750 1.33250 0.60800
v 1.22750 1.33250 0.09200
v 1.22750 1.30750 0.60800
v 1.22750 1.30750 0.09200
v 1.19250 1.30750 0.60800
v 1.19250 1.30750 0.09200
v 1.22750 1.33250 0.60800
v 1.22750 1.33250 0.09200
v 1.22750 1.30750 0.60800
v 1.22750 1.30750 0.09200
v 1.19250 1.33250 0.09200
v 1.19250 1.33250 0.60800
v 1.19250 1.30750 0.09200
v 1.19250 1.30750 0.60800
vt 0.00000 0.00000
vt 1.00000 0.00000
vt 0.00000 1.00000
vt 1.00000 1.00000
vt 0.00000 0.00000
vt 1.00000 0.00000
vt 0.00000 1.00000
vt 1.00000 1.00000
vt 0.00000 0.00000
vt 1.00000 0.00000
vt 0.00000 1.00000
vt 1.00000 1.00000
vt 0.00000 0.00000
vt 1.00000 0.00000
vt 0.00000 1.00000
vt 1.00000 1.00000
vt 0.00000 0.00000
vt 1.00000 0.00000
vt 0.00000 1.00000
vt 1.00000 1.00000
vt 0.00000 0.00000
vt 1.00000 0.00000
vt 0.00000 1.00000
vt 1.00000 1.00000
f 961/961 963/963 962/962
f 963/963 964/964 962/962
f 965/965 967/967 966/966
f 967/967 968/968 966/966
f 969/969 971/971 970/970
f 971/971 972/972 970/970
f 973/973 975/975 974/974
f 975/975 976/976 974/974
f 977/977 979/979 978/978
f 979/979 980/980 978/978
f 981/981 983/983 982/982
f 983/983 984/984 982/982
v -1.49000 2.22000 1.72000
v -1.49000 2.22000 -1.72000
v -1.49000 2.08000 1.72000
v -1.49000 2.08000 -1.72000
v -1.51000 2.22000 -1.72000
v -1.51000 2.22000 1.72000
v -1.51000 2.08000 -1.72000
v -1.51000 2.08000 1.72000
v -1.51000 2.22000 -1.72000
v -1.49000 2.22000 -1.72000
v -1.51000 2.22000 1.72000
v -1.49000 2.22000 1.72000
v -1.51000 2.08000 1.72000
v -1.49000 2.08000 1.72000
v -1.51000 2.08000 -1.72000
v -1.49000 2.08000 -1.72000
v -1.51000 2.22000 1.72000
v -1.49000 2.22000 1.72000
v -1.51000 2.08000 1.72000
v -1.49000 2.08000 1.72000
v -1.49000 2.22000 -1.72000
v -1.51000 2.22000 -1.72000
v -1.49000 2.08000 -1.72000
v -1.51000 2.08000 -1.72000
vt 0.00000 0.00000
vt 1.00000 0.00000
vt 0.00000 1.00000
vt 1.00000 1.00000
vt 0.00000 0.00000
vt 1.00000 0.00000
vt 0.00000 1.00000
vt 1.00000 1.00000
vt 0.00000 0.00000
vt 1.00000 0.00000
vt 0.00000 1.00000
vt 1.00000 1.00000
vt 0.00000 0.00000
vt 1.00000 0.00000
vt 0.00000 1.00000
vt 1.00000 1.00000
vt 0.00000 0.00000
vt 1.00000 0.00000
vt 0.00000 1.00000
vt 1.00000 1.00000
vt 0.00000 0.00000
vt 1.00000 0.00000
vt 0.00000 1.00000
vt 1.00000 1.00000
f 985/985 987/987 986/986
f 987/987 988/988 986/986
f 989/989 991/991 990/990
f 991/991 992/992 990/990
f 993/993 995/995 994/994
f 995/995 996/996 994/994
f 997/997 999/999 998/998
f 999/999 1000/1000 998/998
f 1001/1001 1003/1003 1002/1002
f 1003/1003 1004/1004 1002/1002
f 1005/1005 1007/1007 1006/1006
f 1007/1007 1008/1008 1006/1006
v 1.51000 2.22000 1.72000
v 1.51000 2.22000 -1.72000
v 1.51000 2.08000 1.72000
v 1.51000 2.08000 -1.72000
v 1.49000 2.22000 -1.72000
v 1.49000 2.22000 1.72000
v 1.49000 2.08000 -1.72000
v 1.49000 2.08000 1.72000
v 1.49000 2.22000 -1.72000
v 1.51000 2.22000 -1.72000
v 1.49000 2.22000 1.72000
v 1.51000 2.22000 1.72000
v 1.49000 2.08000 1.72000
v 1.51000 2.08000 1.72000
v 1.49000 2.08000 -1.72000
v 1.51000 2.08000 -1.72000
v 1.49000 2.22000 1.72000
v 1.51000 2.22000 1.72000
v 1.49000 2.08000 1.72000
v 1.51000 2.08000 1.72000
v 1.51000 2.22000 -1.72000
v 1.49000 2.22000 -1.72000
v 1.51000 2.08000 -1.72000
v 1.49000 2.08000 -1.72000
vt 0.00000 0.00000
vt 1.00000 0.00000
vt 0.00000 1.00000
vt 1.00000 1.00000
vt 0.00000 0.00000
vt 1.00000 0.00000
vt 0.00000 1.00000
vt 1.00000 1.00000
vt 0.00000 0.00000
vt 1.00000 0.00000
vt 0.00000 1.00000
vt 1.00000 1.00000
vt 0.00000 0.00000
vt 1.00000 0.00000
vt 0.00000 1.00000
vt 1.00000 1.00000
vt 0.00000 0.00000
vt 1.00000 0.00000
vt 0.00000 1.00000
vt 1.00000 1.00000
vt 0.00000 0.00000
vt 1.00000 0.00000
vt 0.00000 1.00000
vt 1.00000 1.00000
f 1009/1009 1011/1011 1010/1010
f 1011/1011 1012/1012 1010/1010
f 1013/1013 1015/1015 1014/1014
f 1015/1015 1016/1016 1014/1014
f 1017/1017 1019/1019 1018/1018
f 1019/1019 1020/1020 1018/1018
f 1021/1021 1023/1023 1022/1022
f 1023/1023 1024/1024 1022/1022
f 1025/1025 1027/1027 1026/1026
f 1027/1027 1028/1028 1026/1026
f 1029/1029 1031/1031 1030/1030
f 1031/1031 1032/1032 1030/1030
v 1.50521 2.09386 1.73500
v 1.50521 2.09386 1.60500
v 1.49479 2.07114 1.73500
v 1.49479 2.07114 1.60500
v 0.00521 2.78136 1.60500
v 0.00521 2.78136 1.73500
v -0.00521 2.75864 1.60500
v -0.00521 2.75864 1.73500
v 0.00521 2.78136 1.60500
v 1.50521 2.09386 1.60500
v 0.00521 2.78136 1.73500
v 1.50521 2.09386 1.73500
v -0.00521 2.75864 1.73500
v 1.49479 2.07114 1.73500
v -0.00521 2.75864 1.60500
v 1.49479 2.07114 1.60500
v 0.00521 2.78136 1.73500
v 1.50521 2.09386 1.73500
v -0.00521 2.75864 1.73500
v 1.49479 2.07114 1.73500
v 1.50521 2.09386 1.60500
v 0.00521 2.78136 1.60500
v 1.49479 2.07114 1.60500
v -0.00521 2.75864 1.60500
vt 0.00000 0.00000
vt 1.00000 0.00000
vt 0.00000 1.00000
vt 1.00000 1.00000
vt 0.00000 0.00000
vt 1.00000 0.00000
vt 0.00000 1.00000
vt 1.00000 1.00000
vt 0.00000 0.00000
vt 1.00000 0.00000
vt 0.00000 1.00000
vt 1.00000 1.00000
vt 0.00000 0.00000
vt 1.00000 0.00000
vt 0.00000 1.00000
vt 1.00000 1.00000
vt 0.00000 0.00000
vt 1.00000 0.00000
vt 0.00000 1.00000
vt 1.00000 1.00000
vt 0.00000 0.00000
vt 1.00000 0.00000
vt 0.00000 1.00000
vt 1.00000 1.00000
f 1033/1033 1035/1035 1034/1034
f 1035/1035 1036/1036 1034/1034
f 1037/1037 1039/1039 1038/1038
f 1039/1039 1040/1040 1038/1038
f 1041/1041 1043/1043 1042/1042
f 1043/1043 1044/1044 1042/1042
f 1045/1045 1047/1047 1046/1046
f 1047/1047 1048/1048 1046/1046
f 1049/1049 1051/1051 1050/1050
f 1051/1051 1052/1052 1050/1050
f 1053/1053 1055/1055 1054/1054
f 1055/1055 1056/1056 1054/1054
v 1.50521 2.09386 -1.60500
v 1.50521 2.09386 -1.73500
v 1.49479 2.07114 -1.60500
v 1.49479 2.07114 -1.73500
v 0.00521 2.78136 -1.73500
v 0.00521 2.78136 -1.60500
v -0.00521 2.75864 -1.73500
v -0.00521 2.75864 -1.60500
v 0.00521 2.78136 -1.73500
v 1.50521 2.09386 -1.73500
v 0.00521 2.78136 -1.60500
v 1.50521 2.09386 -1.60500
v -0.00521 2.75864 -1.60500
v 1.49479 2.07114 -1.60500
v -0.00521 2.75864 -1.73500
v 1.49479 2.07114 -1.73500
v 0.00521 2.78136 -1.60500
v 1.50521 2.09386 -1.60500
v -0.00521 2.75864 -1.60500
v 1.49479 2.07114 -1.60500
v 1.50521 2.09386 -1.73500
v 0.00521 2.78136 -1.73500
v 1.49479 2.07114 -1.73500
v -0.00521 2.75864 -1.73500
vt 0.00000 0.00000
vt 1.00000 0.00000
vt 0.00000 1.00000
vt 1.00000 1.00000
vt 0.00000 0.00000
vt 1.00000 0.00000
vt 0.00000 1.00000
vt 1.00000 1.00000
vt 0.00000 0.00000
vt 1.00000 0.00000
vt 0.00000 1.00000
vt 1.00000 1.00000
vt 0.00000 0.00000
vt 1.00000 0.00000
vt 0.00000 1.00000
vt 1.00000 1.00000
vt 0.00000 0.00000
vt 1.00000 0.00000
vt 0.00000 1.00000
vt 1.00000 1.00000
vt 0.00000 0.00000
vt 1.00000 0.00000
vt 0.00000 1.00000
vt 1.00000 1.00000
f 1057/1057 1059/1059 1058/1058
f 1059/1059 1060/1060 1058/1058
f 1061/1061 1063/1063 1062/1062
f 1063/1063 1064/1064 1062/1062
f 1065/1065 1067/1067 1066/1066
f 1067/1067 1068/1068 1066/1066
f 1069/1069 1071/1071 1070/1070
f 1071/1071 1072/1072 1070/1070
f 1073/1073 1075/1075 1074/1074
f 1075/1075 1076/1076 1074/1074
f 1077/1077 1079/1079 1078/1078
f 1079/1079 1080/1080 1078/1078
v -1.49479 2.07114 1.73500
v -1.49479 2.07114 1.60500
v -1.50521 2.09386 1.73500
v -1.50521 2.09386 1.60500
v 0.00521 2.75864 1.60500
v 0.00521 2.75864 1.73500
v -0.00521 2.78136 1.60500
v -0.00521 2.78136 1.73500
v 0.00521 2.75864 1.60500
v -1.49479 2.07114 1.60500
v 0.00521 2.75864 1.73500
v -1.49479 2.07114 1.73500
v -0.00521 2.78136 1.73500
v -1.50521 2.09386 1.73500
v -0.00521 2.78136 1.60500
v -1.50521 2.09386 1.60500
v 0.00521 2.75864 1.73500
v -1.49479 2.07114 1.73500
v -0.00521 2.78136 1.73500
v -1.50521 2.09386 1.73500
v -1.49479 2.07114 1.60500
v 0.00521 2.75864 1.60500
v -1.50521 2.09386 1.60500
v -0.00521 2.78136 1.60500
vt 0.00000 0.00000
vt 1.00000 0.00000
vt 0.00000 1.00000
vt 1.00000 1.00000
vt 0.00000 0.00000
vt 1.00000 0.00000
vt 0.00000 1.00000
vt 1.00000 1.00000
vt 0.00000 0.00000
vt 1.00000 0.00000
vt 0.00000 1.00000
vt 1.00000 1.00000
vt 0.00000 0.00000
vt 1.00000 0.00000
vt 0.00000 1.00000
vt 1.00000 1.00000
vt 0.00000 0.00000
vt 1.00000 0.00000
vt 0.00000 1.00000
vt 1.00000 1.00000
vt 0.00000 0.00000
vt 1.00000 0.00000
vt 0.00000 1.00000
vt 1.00000 1.00000
f 1081/1081 1083/1083 1082/1082
f 1083/1083 1084/1084 1082/1082
f 1085/1085 1087/1087 1086/1086
f 1087/1087 1088/1088 1086/1086
f 1089/1089 1091/1091 1090/1090
f 1091/1091 1092/1092 1090/1090
f 1093/1093 1095/1095 1094/1094
f 1095/1095 1096/1096 1094/1094
f 1097/1097 1099/1099 1098/1098
f 1099/1099 1100/1100 1098/1098
f 1101/1101 1103/1103 1102/1102
f 1103/1103 1104/1104 1102/1102
v -1.49479 2.07114 -1.60500
v -1.49479 2.07114 -1.73500
v -1.50521 2.09386 -1.60500
v -1.50521 2.09386 -1.73500
v 0.00521 2.75864 -1.73500
v 0.00521 2.75864 -1.60500
v -0.00521 2.78136 -1.73500
v -0.00521 2.78136 -1.60500
v 0.00521 2.75864 -1.73500
v -1.49479 2.07114 -1.73500
v 0.00521 2.75864 -1.60500
v -1.49479 2.07114 -1.60500
v -0.00521 2.78136 -1.60500
v -1.50521 2.09386 -1.60500
v -0.00521 2.78136 -1.73500
v -1.50521 2.09386 -1.73500
v 0.00521 2.75864 -1.60500
v -1.49479 2.07114 -1.60500
v -0.00521 2.78136 -1.60500
v -1.50521 2.09386 -1.60500
v -1.49479 2.07114 -1.73500
v 0.00521 2.75864 -1.73500
v -1.50521 2.09386 -1.73500
v -0.00521 2.78136 -1.73500
vt 0.00000 0.00000
vt 1.00000 0.00000
vt 0.00000 1.00000
vt 1.00000 1.00000
vt 0.00000 0.00000
vt 1.00000 0.00000
vt 0.00000 1.00000
vt 1.00000 1.00000
vt 0.00000 0.00000
vt 1.00000 0.00000
vt 0.00000 1.00000
vt 1.00000 1.00000
vt 0.00000 0.00000
vt 1.00000 0.00000
vt 0.00000 1.00000
vt 1.00000 1.00000
vt 0.00000 0.00000
vt 1.00000 0.00000
vt 0.00000 1.00000
vt 1.00000 1.00000
vt 0.00000 0.00000
vt 1.00000 0.00000
vt 0.00000 1.00000
vt 1.00000 1.00000
f 1105/1105 1107/1107 1106/1106
f 1107/1107 1108/1108 1106/1106
f 1109/1109 1111/1111 1110/1110
f 1111/1111 1112/1112 1110/1110
f 1113/1113 1115/1115 1114/1114
f 1115/1115 1116/1116 1114/1114
f 1117/1117 1119/1119 1118/1118
f 1119/1119 1120/1120 1118/1118
f 1121/1121 1123/1123 1122/1122
f 1123/1123 1124/1124 1122/1122
f 1125/1125 1127/1127 1126/1126
f 1127/1127 1128/1128 1126/1126
usemtl door_wood
v -0.27540 1.97000 1.51500
v -0.27540 1.97000 1.46500
v -0.27540 0.12000 1.51500
v -0.27540 0.12000 1.46500
v -0.44460 1.97000 1.46500
v -0.44460 1.97000 1.51500
v -0.44460 0.12000 1.46500
v -0.44460 0.12000 1.51500
v -0.44460 1.97000 1.46500
v -0.27540 1.97000 1.46500
v -0.44460 1.97000 1.51500
v -0.27540 1.97000 1.51500
v -0.44460 0.12000 1.51500
v -0.27540 0.12000 1.51500
v -0.44460 0.12000 1.46500
v -0.27540 0.12000 1.46500
v -0.44460 1.97000 1.51500
v -0.27540 1.97000 1.51500
v -0.44460 0.12000 1.51500
v -0.27540 0.12000 1.51500
v -0.27540 1.97000 1.46500
v -0.44460 1.97000 1.46500
v -0.27540 0.12000 1.46500
v -0.44460 0.12000 1.46500
vt 0.00000 0.00000
vt 1.00000 0.00000
vt 0.00000 1.00000
vt 1.00000 1.00000
vt 0.00000 0.00000
vt 1.00000 0.00000
vt 0.00000 1.00000
vt 1.00000 1.00000
vt 0.00000 0.00000
vt 1.00000 0.00000
vt 0.00000 1.00000
vt 1.00000 1.00000
vt 0.00000 0.00000
vt 1.00000 0.00000
vt 0.00000 1.00000
vt 1.00000 1.00000
vt 0.00000 0.00000
vt 1.00000 0.00000
vt 0.00000 1.00000
vt 1.00000 1.00000
vt 0.00000 0.00000
vt 1.00000 0.00000
vt 0.00000 1.00000
vt 1.00000 1.00000
f 1129/1129 1131/1131 1130/1130
f 1131/1131 1132/1132 1130/1130
f 1133/1133 1135/1135 1134/1134
f 1135/1135 1136/1136 1134/1134
f 1137/1137 1139/1139 1138/1138
f 1139/1139 1140/1140 1138/1138
f 1141/1141 1143/1143 1142/1142
f 1143/1143 1144/1144 1142/1142
f 1145/1145 1147/1147 1146/1146
f 1147/1147 1148/1148 1146/1146
f 1149/1149 1151/1151 1150/1150
f 1151/1151 1152/1152 1150/1150
v -0.09540 1.97000 1.51500
v -0.09540 1.97000 1.46500
v -0.09540 0.12000 1.51500
v -0.09540 0.12000 1.46500
v -0.26460 1.97000 1.46500
v -0.26460 1.97000 1.51500
v -0.26460 0.12000 1.46500
v -0.26460 0.12000 1.51500
v -0.26460 1.97000 1.46500
v -0.09540 1.97000 1.46500
v -0.26460 1.97000 1.51500
v -0.09540 1.97000 1.51500
v -0.26460 0.12000 1.51500
v -0.09540 0.12000 1.51500
v -0.26460 0.12000 1.46500
v -0.09540 0.12000 1.46500
v -0.26460 1.97000 1.51500
v -0.09540 1.97000 1.51500
v -0.26460 0.12000 1.51500
v -0.09540 0.12000 1.51500
v -0.09540 1.97000 1.46500
v -0.26460 1.97000 1.46500
v -0.09540 0.12000 1.46500
v -0.26460 0.12000 1.46500
vt 0.00000 0.00000
vt 1.00000 0.00000
vt 0.00000 1.00000
vt 1.00000 1.00000
vt 0.00000 0.00000
vt 1.00000 0.00000
vt 0.00000 1.00000
vt 1.00000 1.00000
vt 0.00000 0.00000
vt 1.00000 0.00000
vt 0.00000 1.00000
vt 1.00000 1.00000
vt 0.00000 0.00000
vt 1.00000 0.00000
vt 0.00000 1.00000
vt 1.00000 1.00000
vt 0.00000 0.00000
vt 1.00000 0.00000
vt 0.00000 1.00000
vt 1.00000 1.00000
vt 0.00000 0.00000
vt 1.00000 0.00000
vt 0.00000 1.00000
vt 1.00000 1.00000
f 1153/1153 1155/1155 1154/1154
f 1155/1155 1156/1156 1154/1154
f 1157/1157 1159/1159 1158/1158
f 1159/1159 1160/1160 1158/1158
f 1161/1161 1163/1163 1162/1162
f 1163/1163 1164/1164 1162/1162
f 1165/1165 1167/1167 1166/1166
f 1167/1167 1168/1168 1166/1166
f 1169/1169 1171/1171 1170/1170
f 1171/1171 1172/1172 1170/1170
f 1173/1173 1175/1175 1174/1174
f 1175/1175 1176/1176 1174/1174
v 0.08460 1.97000 1.51500
v 0.08460 1.97000 1.46500
v 0.08460 0.12000 1.51500
v 0.08460 0.12000 1.46500
v -0.08460 1.97000 1.46500
v -0.08460 1.97000 1.51500
v -0.08460 0.12000 1.46500
v -0.08460 0.12000 1.51500
v -0.08460 1.97000 1.46500
v 0.08460 1.97000 1.46500
v -0.08460 1.97000 1.51500
v 0.08460 1.97000 1.51500
v -0.08460 0.12000 1.51500
v 0.08460 0.12000 1.51500
v -0.08460 0.12000 1.46500
v 0.08460 0.12000 1.46500
v -0.08460 1.97000 1.51500
v 0.08460 1.97000 1.51500
v -0.08460 0.12000 1.51500
v 0.08460 0.12000 1.51500
v 0.08460 1.97000 1.46500
v -0.08460 1.97000 1.46500
v 0.08460 0.12000 1.46500
v -0.08460 0.12000 1.46500
vt 0.00000 0.00000
vt 1.00000 0.00000
vt 0.00000 1.00000
vt 1.00000 1.00000
vt 0.00000 0.00000
vt 1.00000 0.00000
vt 0.00000 1.00000
vt 1.00000 1.00000
vt 0.00000 0.00000
vt 1.00000 0.00000
vt 0.00000 1.00000
vt 1.00000 1.00000
vt 0.00000 0.00000
vt 1.00000 0.00000
vt 0.00000 1.00000
vt 1.00000 1.00000
vt 0.00000 0.00000
vt 1.00000 0.00000
vt 0.00000 1.00000
vt 1.00000 1.00000
vt 0.00000 0.00000
vt 1.00000 0.00000
vt 0.00000 1.00000
vt 1.00000 1.00000
f 1177/1177 1179/1179 1178/1178
f 1179/1179 1180/1180 1178/1178
f 1181/1181 1183/1183 1182/1182
f 1183/1183 1184/1184 1182/1182
f 1185/1185 1187/1187 1186/1186
f 1187/1187 1188/1188 1186/1186
f 1189/1189 1191/1191 1190/1190
f 1191/1191 1192/1192 1190/1190
f 1193/1193 1195/1195 1194/1194
f 1195/1195 1196/1196 1194/1194
f 1197/1197 1199/1199 1198/1198
f 1199/1199 1200/1200 1198/1198
v 0.26460 1.97000 1.51500
v 0.26460 1.97000 1.46500
v 0.26460 0.12000 1.51500
v 0.26460 0.12000 1.46500
v 0.09540 1.97000 1.46500
v 0.09540 1.97000 1.51500
v 0.09540 0.12000 1.46500
v 0.09540 0.12000 1.51500
v 0.09540 1.97000 1.46500
v 0.26460 1.97000 1.46500
v 0.09540 1.97000 1.51500
v 0.26460 1.97000 1.51500
v 0.09540 0.12000 1.51500
v 0.26460 0.12000 1.51500
v 0.09540 0.12000 1.46500
v 0.26460 0.12000 1.46500
v 0.09540 1.97000 1.51500
v 0.26460 1.97000 1.51500
v 0.09540 0.12000 1.51500
v 0.26460 0.12000 1.51500
v 0.26460 1.97000 1.46500
v 0.09540 1.97000 1.46500
v 0.26460 0.12000 1.46500
v 0.09540 0.12000 1.46500
vt 0.00000 0.00000
vt 1.00000 0.00000
vt 0.00000 1.00000
vt 1.00000 1.00000
vt 0.00000 0.00000
vt 1.00000 0.00000
vt 0.00000 1.00000
vt 1.00000 1.00000
vt 0.00000 0.00000
vt 1.00000 0.00000
vt 0.00000 1.00000
vt 1.00000 1.00000
vt 0.00000 0.00000
vt 1.00000 0.00000
vt 0.00000 1.00000
vt 1.00000 1.00000
vt 0.00000 0.00000
vt 1.00000 0.00000
vt 0.00000 1.00000
vt 1.00000 1.00000
vt 0.00000 0.00000
vt 1.00000 0.00000
vt 0.00000 1.00000
vt 1.00000 1.00000
f 1201/1201 1203/1203 1202/1202
f 1203/1203 1204/1204 1202/1202
f 1205/1205 1207/1207 1206/1206
f 1207/1207 1208/1208 1206/1206
f 1209/1209 1211/1211 1210/1210
f 1211/1211 1212/1212 1210/1210
f 1213/1213 1215/1215 1214/1214
f 1215/1215 1216/1216 1214/1214
f 1217/1217 1219/1219 1218/1218
f 1219/1219 1220/1220 1218/1218
f 1221/1221 1223/1223 1222/1222
f 1223/1223 1224/1224 1222/1222
v 0.44460 1.97000 1.51500
v 0.44460 1.97000 1.46500
v 0.44460 0.12000 1.51500
v 0.44460 0.12000 1.46500
v 0.27540 1.97000 1.46500
v 0.27540 1.97000 1.51500
v 0.27540 0.12000 1.46500
v 0.27540 0.12000 1.51500
v 0.27540 1.97000 1.46500
v 0.44460 1.97000 1.46500
v 0.27540 1.97000 1.51500
v 0.44460 1.97000 1.51500
v 0.27540 0.12000 1.51500
v 0.44460 0.12000 1.51500
v 0.27540 0.12000 1.46500
v 0.44460 0.12000 1.46500
v 0.27540 1.97000 1.51500
v 0.44460 1.97000 1.51500
v 0.27540 0.12000 1.51500
v 0.44460 0.12000 1.51500
v 0.44460 1.97000 1.46500
v 0.27540 1.97000 1.46500
v 0.44460 0.12000 1.46500
v 0.27540 0.12000 1.46500
vt 0.00000 0.00000
vt 1.00000 0.00000
vt 0.00000 1.00000
vt 1.00000 1.00000
vt 0.00000 0.00000
vt 1.00000 0.00000
vt 0.00000 1.00000
vt 1.00000 1.00000
vt 0.00000 0.00000
vt 1.00000 0.00000
vt 0.00000 1.00000
vt 1.00000 1.00000
vt 0.00000 0.00000
vt 1.00000 0.00000
vt 0.00000 1.00000
vt 1.00000 1.00000
vt 0.00000 0.00000
vt 1.00000 0.00000
vt 0.00000 1.00000
vt 1.00000 1.00000
vt 0.00000 0.00000
vt 1.00000 0.00000
vt 0.00000 1.00000
vt 1.00000 1.00000
f 1225/1225 1227/1227 1226/1226
f 1227/1227 1228/1228 1226/1226
f 1229/1229 1231/1231 1230/1230
f 1231/1231 1232/1232 1230/1230
f 1233/1233 1235/1235 1234/1234
f 1235/1235 1236/1236 1234/1234
f 1237/1237 1239/1239 1238/1238
f 1239/1239 1240/1240 1238/1238
f 1241/1241 1243/1243 1242/1242
f 1243/1243 1244/1244 1242/1242
f 1245/1245 1247/1247 1246/1246
f 1247/1247 1248/1248 1246/1246
usemtl door_brace_wood
v 0.41400 1.07000 1.52500
v 0.41400 1.07000 1.45500
v 0.41400 1.02000 1.52500
v 0.41400 1.02000 1.45500
v -0.41400 1.07000 1.45500
v -0.41400 1.07000 1.52500
v -0.41400 1.02000 1.45500
v -0.41400 1.02000 1.52500
v -0.41400 1.07000 1.45500
v 0.41400 1.07000 1.45500
v -0.41400 1.07000 1.52500
v 0.41400 1.07000 1.52500
v -0.41400 1.02000 1.52500
v 0.41400 1.02000 1.52500
v -0.41400 1.02000 1.45500
v 0.41400 1.02000 1.45500
v -0.41400 1.07000 1.52500
v 0.41400 1.07000 1.52500
v -0.41400 1.02000 1.52500
v 0.41400 1.02000 1.52500
v 0.41400 1.07000 1.45500
v -0.41400 1.07000 1.45500
v 0.41400 1.02000 1.45500
v -0.41400 1.02000 1.45500
vt 0.00000 0.00000
vt 1.00000 0.00000
vt 0.00000 1.00000
vt 1.00000 1.00000
vt 0.00000 0.00000
vt 1.00000 0.00000
vt 0.00000 1.00000
vt 1.00000 1.00000
vt 0.00000 0.00000
vt 1.00000 0.00000
vt 0.00000 1.00000
vt 1.00000 1.00000
vt 0.00000 0.00000
vt 1.00000 0.00000
vt 0.00000 1.00000
vt 1.00000 1.00000
vt 0.00000 0.00000
vt 1.00000 0.00000
vt 0.00000 1.00000
vt 1.00000 1.00000
vt 0.00000 0.00000
vt 1.00000 0.00000
vt 0.00000 1.00000
vt 1.00000 1.00000
f 1249/1249 1251/1251 1250/1250
f 1251/1251 1252/1252 1250/1250
f 1253/1253 1255/1255 1254/1254
f 1255/1255 1256/1256 1254/1254
f 1257/1257 1259/1259 1258/1258
f 1259/1259 1260/1260 1258/1258
f 1261/1261 1263/1263 1262/1262
f 1263/1263 1264/1264 1262/1262
f 1265/1265 1267/1267 1266/1266
f 1267/1267 1268/1268 1266/1266
f 1269/1269 1271/1271 1270/1270
f 1271/1271 1272/1272 1270/1270
v -0.02212 1.05334 1.52500
v -0.02212 1.05334 1.45500
v -0.38212 1.73634 1.52500
v -0.38212 1.73634 1.45500
v 0.02212 1.07666 1.45500
v 0.02212 1.07666 1.52500
v -0.33788 1.75966 1.45500
v -0.33788 1.75966 1.52500
v 0.02212 1.07666 1.45500
v -0.02212 1.05334 1.45500
v 0.02212 1.07666 1.52500
v -0.02212 1.05334 1.52500
v -0.33788 1.75966 1.52500
v -0.38212 1.73634 1.52500
v -0.33788 1.75966 1.45500
v -0.38212 1.73634 1.45500
v 0.02212 1.07666 1.52500
v -0.02212 1.05334 1.52500
v -0.33788 1.75966 1.52500
v -0.38212 1.73634 1.52500
v -0.02212 1.05334 1.45500
v 0.02212 1.07666 1.45500
v -0.38212 1.73634 1.45500
v -0.33788 1.75966 1.45500
vt 0.00000 0.00000
vt 1.00000 0.00000
vt 0.00000 1.00000
vt 1.00000 1.00000
vt 0.00000 0.00000
vt 1.00000 0.00000
vt 0.00000 1.00000
vt 1.00000 1.00000
vt 0.00000 0.00000
vt 1.00000 0.00000
vt 0.00000 1.00000
vt 1.00000 1.00000
vt 0.00000 0.00000
vt 1.00000 0.00000
vt 0.00000 1.00000
vt 1.00000 1.00000
vt 0.00000 0.00000
vt 1.00000 0.00000
vt 0.00000 1.00000
vt 1.00000 1.00000
vt 0.00000 0.00000
vt 1.00000 0.00000
vt 0.00000 1.00000
vt 1.00000 1.00000
f 1273/1273 1275/1275 1274/1274
f 1275/1275 1276/1276 1274/1274
f 1277/1277 1279/1279 1278/1278
f 1279/1279 1280/1280 1278/1278
f 1281/1281 1283/1283 1282/1282
f 1283/1283 1284/1284 1282/1282
f 1285/1285 1287/1287 1286/1286
f 1287/1287 1288/1288 1286/1286
f 1289/1289 1291/1291 1290/1290
f 1291/1291 1292/1292 1290/1290
f 1293/1293 1295/1295 1294/1294
f 1295/1295 1296/1296 1294/1294
v 0.02212 1.03666 1.52500
v 0.02212 1.03666 1.45500
v 0.38212 0.35366 1.52500
v 0.38212 0.35366 1.45500
v -0.02212 1.01334 1.45500
v -0.02212 1.01334 1.52500
v 0.33788 0.33034 1.45500
v 0.33788 0.33034 1.52500
v -0.02212 1.01334 1.45500
v 0.02212 1.03666 1.45500
v -0.02212 1.01334 1.52500
v 0.02212 1.03666 1.52500
v 0.33788 0.33034 1.52500
v 0.38212 0.35366 1.52500
v 0.33788 0.33034 1.45500
v 0.38212 0.35366 1.45500
v -0.02212 1.01334 1.52500
v 0.02212 1.03666 1.52500
v 0.33788 0.33034 1.52500
v 0.38212 0.35366 1.52500
v 0.02212 1.03666 1.45500
v -0.02212 1.01334 1.45500
v 0.38212 0.35366 1.45500
v 0.33788 0.33034 1.45500
vt 0.00000 0.00000
vt 1.00000 0.00000
vt 0.00000 1.00000
vt 1.00000 1.00000
vt 0.00000 0.00000
vt 1.00000 0.00000
vt 0.00000 1.00000
vt 1.00000 1.00000
vt 0.00000 0.00000
vt 1.00000 0.00000
vt 0.00000 1.00000
vt 1.00000 1.00000
vt 0.00000 0.00000
vt 1.00000 0.00000
vt 0.00000 1.00000
vt 1.00000 1.00000
vt 0.00000 0.00000
vt 1.00000 0.00000
vt 0.00000 1.00000
vt 1.00000 1.00000
vt 0.00000 0.00000
vt 1.00000 0.00000
vt 0.00000 1.00000
vt 1.00000 1.00000
f 1297/1297 1299/1299 1298/1298
f 1299/1299 1300/1300 1298/1298
f 1301/1301 1303/1303 1302/1302
f 1303/1303 1304/1304 1302/1302
f 1305/1305 1307/1307 1306/1306
f 1307/1307 1308/1308 1306/1306
f 1309/1309 1311/1311 1310/1310
f 1311/1311 1312/1312 1310/1310
f 1313/1313 1315/1315 1314/1314
f 1315/1315 1316/1316 1314/1314
f 1317/1317 1319/1319 1318/1318
f 1319/1319 1320/1320 1318/1318
usemtl hardware_black
v -0.20800 0.60750 1.52700
v -0.20800 0.60750 1.51300
v -0.20800 0.55750 1.52700
v -0.20800 0.55750 1.51300
v -0.36800 0.60750 1.51300
v -0.36800 0.60750 1.52700
v -0.36800 0.55750 1.51300
v -0.36800 0.55750 1.52700
v -0.36800 0.60750 1.51300
v -0.20800 0.60750 1.51300
v -0.36800 0.60750 1.52700
v -0.20800 0.60750 1.52700
v -0.36800 0.55750 1.52700
v -0.20800 0.55750 1.52700
v -0.36800 0.55750 1.51300
v -0.20800 0.55750 1.51300
v -0.36800 0.60750 1.52700
v -0.20800 0.60750 1.52700
v -0.36800 0.55750 1.52700
v -0.20800 0.55750 1.52700
v -0.20800 0.60750 1.51300
v -0.36800 0.60750 1.51300
v -0.20800 0.55750 1.51300
v -0.36800 0.55750 1.51300
vt 0.00000 0.00000
vt 1.00000 0.00000
vt 0.00000 1.00000
vt 1.00000 1.00000
vt 0.00000 0.00000
vt 1.00000 0.00000
vt 0.00000 1.00000
vt 1.00000 1.00000
vt 0.00000 0.00000
vt 1.00000 0.00000
vt 0.00000 1.00000
vt 1.00000 1.00000
vt 0.00000 0.00000
vt 1.00000 0.00000
vt 0.00000 1.00000
vt 1.00000 1.00000
vt 0.00000 0.00000
vt 1.00000 0.00000
vt 0.00000 1.00000
vt 1.00000 1.00000
vt 0.00000 0.00000
vt 1.00000 0.00000
vt 0.00000 1.00000
vt 1.00000 1.00000
f 1321/1321 1323/1323 1322/1322
f 1323/1323 1324/1324 1322/1322
f 1325/1325 1327/1327 1326/1326
f 1327/1327 1328/1328 1326/1326
f 1329/1329 1331/1331 1330/1330
f 1331/1331 1332/1332 1330/1330
f 1333/1333 1335/1335 1334/1334
f 1335/1335 1336/1336 1334/1334
f 1337/1337 1339/1339 1338/1338
f 1339/1339 1340/1340 1338/1338
f 1341/1341 1343/1343 1342/1342
f 1343/1343 1344/1344 1342/1342
v 0.36800 1.53250 1.52700
v 0.36800 1.53250 1.51300
v 0.36800 1.48250 1.52700
v 0.36800 1.48250 1.51300
v 0.20800 1.53250 1.51300
v 0.20800 1.53250 1.52700
v 0.20800 1.48250 1.51300
v 0.20800 1.48250 1.52700
v 0.20800 1.53250 1.51300
v 0.36800 1.53250 1.51300
v 0.20800 1.53250 1.52700
v 0.36800 1.53250 1.52700
v 0.20800 1.48250 1.52700
v 0.36800 1.48250 1.52700
v 0.20800 1.48250 1.51300
v 0.36800 1.48250 1.51300
v 0.20800 1.53250 1.52700
v 0.36800 1.53250 1.52700
v 0.20800 1.48250 1.52700
v 0.36800 1.48250 1.52700
v 0.36800 1.53250 1.51300
v 0.20800 1.53250 1.51300
v 0.36800 1.48250 1.51300
v 0.20800 1.48250 1.51300
vt 0.00000 0.00000
vt 1.00000 0.00000
vt 0.00000 1.00000
vt 1.00000 1.00000
vt 0.00000 0.00000
vt 1.00000 0.00000
vt 0.00000 1.00000
vt 1.00000 1.00000
vt 0.00000 0.00000
vt 1.00000 0.00000
vt 0.00000 1.00000
vt 1.00000 1.00000
vt 0.00000 0.00000
vt 1.00000 0.00000
vt 0.00000 1.00000
vt 1.00000 1.00000
vt 0.00000 0.00000
vt 1.00000 0.00000
vt 0.00000 1.00000
vt 1.00000 1.00000
vt 0.00000 0.00000
vt 1.00000 0.00000
vt 0.00000 1.00000
vt 1.00000 1.00000
f 1345/1345 1347/1347 1346/1346
f 1347/1347 1348/1348 1346/1346
f 1349/1349 1351/1351 1350/1350
f 1351/1351 1352/1352 1350/1350
f 1353/1353 1355/1355 1354/1354
f 1355/1355 1356/1356 1354/1354
f 1357/1357 1359/1359 1358/1358
f 1359/1359 1360/1360 1358/1358
f 1361/1361 1363/1363 1362/1362
f 1363/1363 1364/1364 1362/1362
f 1365/1365 1367/1367 1366/1366
f 1367/1367 1368/1368 1366/1366
v 0.28800 1.07000 1.53000
v 0.28800 1.07000 1.53000
v 0.28800 1.07000 1.53000
v 0.28800 1.07000 1.53000
v 0.28800 1.07000 1.53000
v 0.28800 1.07000 1.53000
v 0.28800 1.07000 1.53000
v 0.28800 1.07000 1.53000
v 0.28800 1.07000 1.53000
v 0.28800 1.07000 1.53000
v 0.28800 1.07000 1.53000
v 0.28800 1.07000 1.53000
v 0.28800 1.07000 1.53000
v 0.27843 1.06810 1.53000
v 0.27971 1.06810 1.53478
v 0.28322 1.06810 1.53829
v 0.28800 1.06810 1.53957
v 0.29278 1.06810 1.53829
v 0.29629 1.06810 1.53478
v 0.29757 1.06810 1.53000
v 0.29629 1.06810 1.52522
v 0.29278 1.06810 1.52171
v 0.28800 1.06810 1.52043
v 0.28322 1.06810 1.52171
v 0.27971 1.06810 1.52522
v 0.27843 1.06810 1.53000
v 0.27032 1.06268 1.53000
v 0.27269 1.06268 1.53884
v 0.27916 1.06268 1.54531
v 0.28800 1.06268 1.54768
v 0.29684 1.06268 1.54531
v 0.30331 1.06268 1.53884
v 0.30568 1.06268 1.53000
v 0.30331 1.06268 1.52116
v 0.29684 1.06268 1.51469
v 0.28800 1.06268 1.51232
v 0.27916 1.06268 1.51469
v 0.27269 1.06268 1.52116
v 0.27032 1.06268 1.53000
v 0.26490 1.05457 1.53000
v 0.26800 1.05457 1.54155
v 0.27645 1.05457 1.55000
v 0.28800 1.05457 1.55310
v 0.29955 1.05457 1.55000
v 0.30800 1.05457 1.54155
v 0.31110 1.05457 1.53000
v 0.30800 1.05457 1.51845
v 0.29955 1.05457 1.51000
v 0.28800 1.05457 1.50690
v 0.27645 1.05457 1.51000
v 0.26800 1.05457 1.51845
v 0.26490 1.05457 1.53000
v 0.26300 1.04500 1.53000
v 0.26635 1.04500 1.54250
v 0.27550 1.04500 1.55165
v 0.28800 1.04500 1.55500
v 0.30050 1.04500 1.55165
v 0.30965 1.04500 1.54250
v 0.31300 1.04500 1.53000
v 0.30965 1.04500 1.51750
v 0.30050 1.04500 1.50835
v 0.28800 1.04500 1.50500
v 0.27550 1.04500 1.50835
v 0.26635 1.04500 1.51750
v 0.26300 1.04500 1.53000
v 0.26490 1.03543 1.53000
v 0.26800 1.03543 1.54155
v 0.27645 1.03543 1.55000
v 0.28800 1.03543 1.55310
v 0.29955 1.03543 1.55000
v 0.30800 1.03543 1.54155
v 0.31110 1.03543 1.53000
v 0.30800 1.03543 1.51845
v 0.29955 1.03543 1.51000
v 0.28800 1.03543 1.50690
v 0.27645 1.03543 1.51000
v 0.26800 1.03543 1.51845
v 0.26490 1.03543 1.53000
v 0.27032 1.02732 1.53000
v 0.27269 1.02732 1.53884
v 0.27916 1.02732 1.54531
v 0.28800 1.02732 1.54768
v 0.29684 1.02732 1.54531
v 0.30331 1.02732 1.53884
v 0.30568 1.02732 1.53000
v 0.30331 1.02732 1.52116
v 0.29684 1.02732 1.51469
v 0.28800 1.02732 1.51232
v 0.27916 1.02732 1.51469
v 0.27269 1.02732 1.52116
v 0.27032 1.02732 1.53000
v 0.27843 1.02190 1.53000
v 0.27971 1.02190 1.53478
v 0.28322 1.02190 1.53829
v 0.28800 1.02190 1.53957
v 0.29278 1.02190 1.53829
v 0.29629 1.02190 1.53478
v 0.29757 1.02190 1.53000
v 0.29629 1.02190 1.52522
v 0.29278 1.02190 1.52171
v 0.28800 1.02190 1.52043
v 0.28322 1.02190 1.52171
v 0.27971 1.02190 1.52522
v 0.27843 1.02190 1.53000
v 0.28800 1.02000 1.53000
v 0.28800 1.02000 1.53000
v 0.28800 1.02000 1.53000
v 0.28800 1.02000 1.53000
v 0.28800 1.02000 1.53000
v 0.28800 1.02000 1.53000
v 0.28800 1.02000 1.53000
v 0.28800 1.02000 1.53000
v 0.28800 1.02000 1.53000
v 0.28800 1.02000 1.53000
v 0.28800 1.02000 1.53000
v 0.28800 1.02000 1.53000
v 0.28800 1.02000 1.53000
vt 0.04167 0.00000
vt 0.12500 0.00000
vt 0.20833 0.00000
vt 0.29167 0.00000
vt 0.37500 0.00000
vt 0.45833 0.00000
vt 0.54167 0.00000
vt 0.62500 0.00000
vt 0.70833 0.00000
vt 0.79167 0.00000
vt 0.87500 0.00000
vt 0.95833 0.00000
vt 1.04167 0.00000
vt 0.00000 0.12500
vt 0.08333 0.12500
vt 0.16667 0.12500
vt 0.25000 0.12500
vt 0.33333 0.12500
vt 0.41667 0.12500
vt 0.50000 0.12500
vt 0.58333 0.12500
vt 0.66667 0.12500
vt 0.75000 0.12500
vt 0.83333 0.12500
vt 0.91667 0.12500
vt 1.00000 0.12500
vt 0.00000 0.25000
vt 0.08333 0.25000
vt 0.16667 0.25000
vt 0.25000 0.25000
vt 0.33333 0.25000
vt 0.41667 0.25000
vt 0.50000 0.25000
vt 0.58333 0.25000
vt 0.66667 0.25000
vt 0.75000 0.25000
vt 0.83333 0.25000
vt 0.91667 0.25000
vt 1.00000 0.25000
vt 0.00000 0.37500
vt 0.08333 0.37500
vt 0.16667 0.37500
vt 0.25000 0.37500
vt 0.33333 0.37500
vt 0.41667 0.37500
vt 0.50000 0.37500
vt 0.58333 0.37500
vt 0.66667 0.37500
vt 0.75000 0.37500
vt 0.83333 0.37500
vt 0.91667 0.37500
vt 1.00000 0.37500
vt 0.00000 0.50000
vt 0.08333 0.50000
vt 0.16667 0.50000
vt 0.25000 0.50000
vt 0.33333 0.50000
vt 0.41667 0.50000
vt 0.50000 0.50000
vt 0.58333 0.50000
vt 0.66667 0.50000
vt 0.75000 0.50000
vt 0.83333 0.50000
vt 0.91667 0.50000
vt 1.00000 0.50000
vt 0.00000 0.62500
vt 0.08333 0.62500
vt 0.16667 0.62500
vt 0.25000 0.62500
vt 0.33333 0.62500
vt 0.41667 0.62500
vt 0.50000 0.62500
vt 0.58333 0.62500
vt 0.66667 0.62500
vt 0.75000 0.62500
vt 0.83333 0.62500
vt 0.91667 0.62500
vt 1.00000 0.62500
vt 0.00000 0.75000
vt 0.08333 0.75000
vt 0.16667 0.75000
vt 0.25000 0.75000
vt 0.33333 0.75000
vt 0.41667 0.75000
vt 0.50000 0.75000
vt 0.58333 0.75000
vt 0.66667 0.75000
vt 0.75000 0.75000
vt 0.83333 0.75000
vt 0.91667 0.75000
vt 1.00000 0.75000
vt 0.00000 0.87500
vt 0.08333 0.87500
vt 0.16667 0.87500
vt 0.25000 0.87500
vt 0.33333 0.87500
vt 0.41667 0.87500
vt 0.50000 0.87500
vt 0.58333 0.87500
vt 0.66667 0.87500
vt 0.75000 0.87500
vt 0.83333 0.87500
vt 0.91667 0.87500
vt 1.00000 0.87500
vt -0.04167 1.00000
vt 0.04167 1.00000
vt 0.12500 1.00000
vt 0.20833 1.00000
vt 0.29167 1.00000
vt 0.37500 1.00000
vt 0.45833 1.00000
vt 0.54167 1.00000
vt 0.62500 1.00000
vt 0.70833 1.00000
vt 0.79167 1.00000
vt 0.87500 1.00000
vt 0.95833 1.00000
f 1369/1369 1382/1382 1383/1383
f 1370/1370 1383/1383 1384/1384
f 1371/1371 1384/1384 1385/1385
f 1372/1372 1385/1385 1386/1386
f 1373/1373 1386/1386 1387/1387
f 1374/1374 1387/1387 1388/1388
f 1375/1375 1388/1388 1389/1389
f 1376/1376 1389/1389 1390/1390
f 1377/1377 1390/1390 1391/1391
f 1378/1378 1391/1391 1392/1392
f 1379/1379 1392/1392 1393/1393
f 1380/1380 1393/1393 1394/1394
f 1383/1383 1382/1382 1396/1396
f 1382/1382 1395/1395 1396/1396
f 1384/1384 1383/1383 1397/1397
f 1383/1383 1396/1396 1397/1397
f 1385/1385 1384/1384 1398/1398
f 1384/1384 1397/1397 1398/1398
f 1386/1386 1385/1385 1399/1399
f 1385/1385 1398/1398 1399/1399
f 1387/1387 1386/1386 1400/1400
f 1386/1386 1399/1399 1400/1400
f 1388/1388 1387/1387 1401/1401
f 1387/1387 1400/1400 1401/1401
f 1389/1389 1388/1388 1402/1402
f 1388/1388 1401/1401 1402/1402
f 1390/1390 1389/1389 1403/1403
f 1389/1389 1402/1402 1403/1403
f 1391/1391 1390/1390 1404/1404
f 1390/1390 1403/1403 1404/1404
f 1392/1392 1391/1391 1405/1405
f 1391/1391 1404/1404 1405/1405
f 1393/1393 1392/1392 1406/1406
f 1392/1392 1405/1405 1406/1406
f 1394/1394 1393/1393 1407/1407
f 1393/1393 1406/1406 1407/1407
f 1396/1396 1395/1395 1409/1409
f 1395/1395 1408/1408 1409/1409
f 1397/1397 1396/1396 1410/1410
f 1396/1396 1409/1409 1410/1410
f 1398/1398 1397/1397 1411/1411
f 1397/1397 1410/1410 1411/1411
f 1399/1399 1398/1398 1412/1412
f 1398/1398 1411/1411 1412/1412
f 1400/1400 1399/1399 1413/1413
f 1399/1399 1412/1412 1413/1413
f 1401/1401 1400/1400 1414/1414
f 1400/1400 1413/1413 1414/1414
f 1402/1402 1401/1401 1415/1415
f 1401/1401 1414/1414 1415/1415
f 1403/1403 1402/1402 1416/1416
f 1402/1402 1415/1415 1416/1416
f 1404/1404 1403/1403 1417/1417
f 1403/1403 1416/1416 1417/1417
f 1405/1405 1404/1404 1418/1418
f 1404/1404 1417/1417 1418/1418
f 1406/1406 1405/1405 1419/1419
f 1405/1405 1418/1418 1419/1419
f 1407/1407 1406/1406 1420/1420
f 1406/1406 1419/1419 1420/1420
f 1409/1409 1408/1408 1422/1422
f 1408/1408 1421/1421 1422/1422
f 1410/1410 1409/1409 1423/1423
f 1409/1409 1422/1422 1423/1423
f 1411/1411 1410/1410 1424/1424
f 1410/1410 1423/1423 1424/1424
f 1412/1412 1411/1411 1425/1425
f 1411/1411 1424/1424 1425/1425
f 1413/1413 1412/1412 1426/1426
f 1412/1412 1425/1425 1426/1426
f 1414/1414 1413/1413 1427/1427
f 1413/1413 1426/1426 1427/1427
f 1415/1415 1414/1414 1428/1428
f 1414/1414 1427/1427 1428/1428
f 1416/1416 1415/1415 1429/1429
f 1415/1415 1428/1428 1429/1429
f 1417/1417 1416/1416 1430/1430
f 1416/1416 1429/1429 1430/1430
f 1418/1418 1417/1417 1431/1431
f 1417/1417 1430/1430 1431/1431
f 1419/1419 1418/1418 1432/1432
f 1418/1418 1431/1431 1432/1432
f 1420/1420 1419/1419 1433/1433
f 1419/1419 1432/1432 1433/1433
f 1422/1422 1421/1421 1435/1435
f 1421/1421 1434/1434 1435/1435
f 1423/1423 1422/1422 1436/1436
f 1422/1422 1435/1435 1436/1436
f 1424/1424 1423/1423 1437/1437
f 1423/1423 1436/1436 1437/1437
f 1425/1425 1424/1424 1438/1438
f 1424/1424 1437/1437 1438/1438
f 1426/1426 1425/1425 1439/1439
f 1425/1425 1438/1438 1439/1439
f 1427/1427 1426/1426 1440/1440
f 1426/1426 1439/1439 1440/1440
f 1428/1428 1427/1427 1441/1441
f 1427/1427 1440/1440 1441/1441
f 1429/1429 1428/1428 1442/1442
f 1428/1428 1441/1441 1442/1442
f 1430/1430 1429/1429 1443/1443
f 1429/1429 1442/1442 1443/1443
f 1431/1431 1430/1430 1444/1444
f 1430/1430 1443/1443 1444/1444
f 1432/1432 1431/1431 1445/1445
f 1431/1431 1444/1444 1445/1445
f 1433/1433 1432/1432 1446/1446
f 1432/1432 1445/1445 1446/1446
f 1435/1435 1434/1434 1448/1448
f 1434/1434 1447/1447 1448/1448
f 1436/1436 1435/1435 1449/1449
f 1435/1435 1448/1448 1449/1449
f 1437/1437 1436/1436 1450/1450
f 1436/1436 1449/1449 1450/1450
f 1438/1438 1437/1437 1451/1451
f 1437/1437 1450/1450 1451/1451
f 1439/1439 1438/1438 1452/1452
f 1438/1438 1451/1451 1452/1452
f 1440/1440 1439/1439 1453/1453
f 1439/1439 1452/1452 1453/1453
f 1441/1441 1440/1440 1454/1454
f 1440/1440 1453/1453 1454/1454
f 1442/1442 1441/1441 1455/1455
f 1441/1441 1454/1454 1455/1455
f 1443/1443 1442/1442 1456/1456
f 1442/1442 1455/1455 1456/1456
f 1444/1444 1443/1443 1457/1457
f 1443/1443 1456/1456 1457/1457
f 1445/1445 1444/1444 1458/1458
f 1444/1444 1457/1457 1458/1458
f 1446/1446 1445/1445 1459/1459
f 1445/1445 1458/1458 1459/1459
f 1448/1448 1447/1447 1461/1461
f 1447/1447 1460/1460 1461/1461
f 1449/1449 1448/1448 1462/1462
f 1448/1448 1461/1461 1462/1462
f 1450/1450 1449/1449 1463/1463
f 1449/1449 1462/1462 1463/1463
f 1451/1451 1450/1450 1464/1464
f 1450/1450 1463/1463 1464/1464
f 1452/1452 1451/1451 1465/1465
f 1451/1451 1464/1464 1465/1465
f 1453/1453 1452/1452 1466/1466
f 1452/1452 1465/1465 1466/1466
f 1454/1454 1453/1453 1467/1467
f 1453/1453 1466/1466 1467/1467
f 1455/1455 1454/1454 1468/1468
f 1454/1454 1467/1467 1468/1468
f 1456/1456 1455/1455 1469/1469
f 1455/1455 1468/1468 1469/1469
f 1457/1457 1456/1456 1470/1470
f 1456/1456 1469/1469 1470/1470
f 1458/1458 1457/1457 1471/1471
f 1457/1457 1470/1470 1471/1471
f 1459/1459 1458/1458 1472/1472
f 1458/1458 1471/1471 1472/1472
f 1461/1461 1460/1460 1474/1474
f 1462/1462 1461/1461 1475/1475
f 1463/1463 1462/1462 1476/1476
f 1464/1464 1463/1463 1477/1477
f 1465/1465 1464/1464 1478/1478
f 1466/1466 1465/1465 1479/1479
f 1467/1467 1466/1466 1480/1480
f 1468/1468 1467/1467 1481/1481
f 1469/1469 1468/1468 1482/1482
f 1470/1470 1469/1469 1483/1483
f 1471/1471 1470/1470 1484/1484
f 1472/1472 1471/1471 1485/1485
usemtl asphalt_shingle
v 1.51250 2.10977 1.72000
v 1.51250 2.10977 -1.72000
v 1.48750 2.05523 1.72000
v 1.48750 2.05523 -1.72000
v 0.01250 2.79727 -1.72000
v 0.01250 2.79727 1.72000
v -0.01250 2.74273 -1.72000
v -0.01250 2.74273 1.72000
v 0.01250 2.79727 -1.72000
v 1.51250 2.10977 -1.72000
v 0.01250 2.79727 1.72000
v 1.51250 2.10977 1.72000
v -0.01250 2.74273 1.72000
v 1.48750 2.05523 1.72000
v -0.01250 2.74273 -1.72000
v 1.48750 2.05523 -1.72000
v 0.01250 2.79727 1.72000
v 1.51250 2.10977 1.72000
v -0.01250 2.74273 1.72000
v 1.48750 2.05523 1.72000
v 1.51250 2.10977 -1.72000
v 0.01250 2.79727 -1.72000
v 1.48750 2.05523 -1.72000
v -0.01250 2.74273 -1.72000
vt 0.00000 0.00000
vt 1.00000 0.00000
vt 0.00000 1.00000
vt 1.00000 1.00000
vt 0.00000 0.00000
vt 1.00000 0.00000
vt 0.00000 1.00000
vt 1.00000 1.00000
vt 0.00000 0.00000
vt 1.00000 0.00000
vt 0.00000 1.00000
vt 1.00000 1.00000
vt 0.00000 0.00000
vt 1.00000 0.00000
vt 0.00000 1.00000
vt 1.00000 1.00000
vt 0.00000 0.00000
vt 1.00000 0.00000
vt 0.00000 1.00000
vt 1.00000 1.00000
vt 0.00000 0.00000
vt 1.00000 0.00000
vt 0.00000 1.00000
vt 1.00000 1.00000
f 1486/1486 1488/1488 1487/1487
f 1488/1488 1489/1489 1487/1487
f 1490/1490 1492/1492 1491/1491
f 1492/1492 1493/1493 1491/1491
f 1494/1494 1496/1496 1495/1495
f 1496/1496 1497/1497 1495/1495
f 1498/1498 1500/1500 1499/1499
f 1500/1500 1501/1501 1499/1499
f 1502/1502 1504/1504 1503/1503
f 1504/1504 1505/1505 1503/1503
f 1506/1506 1508/1508 1507/1507
f 1508/1508 1509/1509 1507/1507
v -1.48750 2.05523 1.72000
v -1.48750 2.05523 -1.72000
v -1.51250 2.10977 1.72000
v -1.51250 2.10977 -1.72000
v 0.01250 2.74273 -1.72000
v 0.01250 2.74273 1.72000
v -0.01250 2.79727 -1.72000
v -0.01250 2.79727 1.72000
v 0.01250 2.74273 -1.72000
v -1.48750 2.05523 -1.72000
v 0.01250 2.74273 1.72000
v -1.48750 2.05523 1.72000
v -0.01250 2.79727 1.72000
v -1.51250 2.10977 1.72000
v -0.01250 2.79727 -1.72000
v -1.51250 2.10977 -1.72000
v 0.01250 2.74273 1.72000
v -1.48750 2.05523 1.72000
v -0.01250 2.79727 1.72000
v -1.51250 2.10977 1.72000
v -1.48750 2.05523 -1.72000
v 0.01250 2.74273 -1.72000
v -1.51250 2.10977 -1.72000
v -0.01250 2.79727 -1.72000
vt 0.00000 0.00000
vt 1.00000 0.00000
vt 0.00000 1.00000
vt 1.00000 1.00000
vt 0.00000 0.00000
vt 1.00000 0.00000
vt 0.00000 1.00000
vt 1.00000 1.00000
vt 0.00000 0.00000
vt 1.00000 0.00000
vt 0.00000 1.00000
vt 1.00000 1.00000
vt 0.00000 0.00000
vt 1.00000 0.00000
vt 0.00000 1.00000
vt 1.00000 1.00000
vt 0.00000 0.00000
vt 1.00000 0.00000
vt 0.00000 1.00000
vt 1.00000 1.00000
vt 0.00000 0.00000
vt 1.00000 0.00000
vt 0.00000 1.00000
vt 1.00000 1.00000
f 1510/1510 1512/1512 1511/1511
f 1512/1512 1513/1513 1511/1511
f 1514/1514 1516/1516 1515/1515
f 1516/1516 1517/1517 1515/1515
f 1518/1518 1520/1520 1519/1519
f 1520/1520 1521/1521 1519/1519
f 1522/1522 1524/1524 1523/1523
f 1524/1524 1525/1525 1523/1523
f 1526/1526 1528/1528 1527/1527
f 1528/1528 1529/1529 1527/1527
f 1530/1530 1532/1532 1531/1531
f 1532/1532 1533/1533 1531/1531
v 0.09000 2.84000 1.72000
v 0.09000 2.84000 -1.72000
v 0.09000 2.77000 1.72000
v 0.09000 2.77000 -1.72000
v -0.09000 2.84000 -1.72000
v -0.09000 2.84000 1.72000
v -0.09000 2.77000 -1.72000
v -0.09000 2.77000 1.72000
v -0.09000 2.84000 -1.72000
v 0.09000 2.84000 -1.72000
v -0.09000 2.84000 1.72000
v 0.09000 2.84000 1.72000
v -0.09000 2.77000 1.72000
v 0.09000 2.77000 1.72000
v -0.09000 2.77000 -1.72000
v 0.09000 2.77000 -1.72000
v -0.09000 2.84000 1.72000
v 0.09000 2.84000 1.72000
v -0.09000 2.77000 1.72000
v 0.09000 2.77000 1.72000
v 0.09000 2.84000 -1.72000
v -0.09000 2.84000 -1.72000
v 0.09000 2.77000 -1.72000
v -0.09000 2.77000 -1.72000
vt 0.00000 0.00000
vt 1.00000 0.00000
vt 0.00000 1.00000
vt 1.00000 1.00000
vt 0.00000 0.00000
vt 1.00000 0.00000
vt 0.00000 1.00000
vt 1.00000 1.00000
vt 0.00000 0.00000
vt 1.00000 0.00000
vt 0.00000 1.00000
vt 1.00000 1.00000
vt 0.00000 0.00000
vt 1.00000 0.00000
vt 0.00000 1.00000
vt 1.00000 1.00000
vt 0.00000 0.00000
vt 1.00000 0.00000
vt 0.00000 1.00000
vt 1.00000 1.00000
vt 0.00000 0.00000
vt 1.00000 0.00000
vt 0.00000 1.00000
vt 1.00000 1.00000
f 1534/1534 1536/1536 1535/1535
f 1536/1536 1537/1537 1535/1535
f 1538/1538 1540/1540 1539/1539
f 1540/1540 1541/1541 1539/1539
f 1542/1542 1544/1544 1543/1543
f 1544/1544 1545/1545 1543/1543
f 1546/1546 1548/1548 1547/1547
f 1548/1548 1549/1549 1547/1547
f 1550/1550 1552/1552 1551/1551
f 1552/1552 1553/1553 1551/1551
f 1554/1554 1556/1556 1555/1555
f 1556/1556 1557/1557 1555/1555
