mtllib ServiceStation.mtl
o ServiceStation
usemtl concrete_paving
v 5.20000 0.00000 7.30000
v 5.20000 0.00000 -8.30000
v 5.20000 -0.10000 7.30000
v 5.20000 -0.10000 -8.30000
v -10.80000 0.00000 -8.30000
v -10.80000 0.00000 7.30000
v -10.80000 -0.10000 -8.30000
v -10.80000 -0.10000 7.30000
v -10.80000 0.00000 -8.30000
v 5.20000 0.00000 -8.30000
v -10.80000 0.00000 7.30000
v 5.20000 0.00000 7.30000
v -10.80000 -0.10000 7.30000
v 5.20000 -0.10000 7.30000
v -10.80000 -0.10000 -8.30000
v 5.20000 -0.10000 -8.30000
v -10.80000 0.00000 7.30000
v 5.20000 0.00000 7.30000
v -10.80000 -0.10000 7.30000
v 5.20000 -0.10000 7.30000
v 5.20000 0.00000 -8.30000
v -10.80000 0.00000 -8.30000
v 5.20000 -0.10000 -8.30000
v -10.80000 -0.10000 -8.30000
vt 0.00000 0.00000
vt 1.00000 0.00000
vt 0.00000 1.00000
vt 1.00000 1.00000
vt 0.00000 0.00000
vt 1.00000 0.00000
vt 0.00000 1.00000
vt 1.00000 1.00000
vt 0.00000 0.00000
vt 1.00000 0.00000
vt 0.00000 1.00000
vt 1.00000 1.00000
vt 0.00000 0.00000
vt 1.00000 0.00000
vt 0.00000 1.00000
vt 1.00000 1.00000
vt 0.00000 0.00000
vt 1.00000 0.00000
vt 0.00000 1.00000
vt 1.00000 1.00000
vt 0.00000 0.00000
vt 1.00000 0.00000
vt 0.00000 1.00000
vt 1.00000 1.00000
f 1/1 3/3 2/2
f 3/3 4/4 2/2
f 5/5 7/7 6/6
f 7/7 8/8 6/6
f 9/9 11/11 10/10
f 11/11 12/12 10/10
f 13/13 15/15 14/14
f 15/15 16/16 14/14
f 17/17 19/19 18/18
f 19/19 20/20 18/18
f 21/21 23/23 22/22
f 23/23 24/24 22/22
v -1.30000 0.25000 2.10000
v -1.30000 0.25000 1.10000
v -1.30000 0.00000 2.10000
v -1.30000 0.00000 1.10000
v -3.70000 0.25000 1.10000
v -3.70000 0.25000 2.10000
v -3.70000 0.00000 1.10000
v -3.70000 0.00000 2.10000
v -3.70000 0.25000 1.10000
v -1.30000 0.25000 1.10000
v -3.70000 0.25000 2.10000
v -1.30000 0.25000 2.10000
v -3.70000 0.00000 2.10000
v -1.30000 0.00000 2.10000
v -3.70000 0.00000 1.10000
v -1.30000 0.00000 1.10000
v -3.70000 0.25000 2.10000
v -1.30000 0.25000 2.10000
v -3.70000 0.00000 2.10000
v -1.30000 0.00000 2.10000
v -1.30000 0.25000 1.10000
v -3.70000 0.25000 1.10000
v -1.30000 0.00000 1.10000
v -3.70000 0.00000 1.10000
vt 0.00000 0.00000
vt 1.00000 0.00000
vt 0.00000 1.00000
vt 1.00000 1.00000
vt 0.00000 0.00000
vt 1.00000 0.00000
vt 0.00000 1.00000
vt 1.00000 1.00000
vt 0.00000 0.00000
vt 1.00000 0.00000
vt 0.00000 1.00000
vt 1.00000 1.00000
vt 0.00000 0.00000
vt 1.00000 0.00000
vt 0.00000 1.00000
vt 1.00000 1.00000
vt 0.00000 0.00000
vt 1.00000 0.00000
vt 0.00000 1.00000
vt 1.00000 1.00000
vt 0.00000 0.00000
vt 1.00000 0.00000
vt 0.00000 1.00000
vt 1.00000 1.00000
f 25/25 27/27 26/26
f 27/27 28/28 26/26
f 29/29 31/31 30/30
f 31/31 32/32 30/30
f 33/33 35/35 34/34
f 35/35 36/36 34/34
f 37/37 39/39 38/38
f 39/39 40/40 38/38
f 41/41 43/43 42/42
f 43/43 44/44 42/42
f 45/45 47/47 46/46
f 47/47 48/48 46/46
v 1.70000 0.25000 2.10000
v 1.70000 0.25000 1.10000
v 1.70000 0.00000 2.10000
v 1.70000 0.00000 1.10000
v -0.70000 0.25000 1.10000
v -0.70000 0.25000 2.10000
v -0.70000 0.00000 1.10000
v -0.70000 0.00000 2.10000
v -0.70000 0.25000 1.10000
v 1.70000 0.25000 1.10000
v -0.70000 0.25000 2.10000
v 1.70000 0.25000 2.10000
v -0.70000 0.00000 2.10000
v 1.70000 0.00000 2.10000
v -0.70000 0.00000 1.10000
v 1.70000 0.00000 1.10000
v -0.70000 0.25000 2.10000
v 1.70000 0.25000 2.10000
v -0.70000 0.00000 2.10000
v 1.70000 0.00000 2.10000
v 1.70000 0.25000 1.10000
v -0.70000 0.25000 1.10000
v 1.70000 0.00000 1.10000
v -0.70000 0.00000 1.10000
vt 0.00000 0.00000
vt 1.00000 0.00000
vt 0.00000 1.00000
vt 1.00000 1.00000
vt 0.00000 0.00000
vt 1.00000 0.00000
vt 0.00000 1.00000
vt 1.00000 1.00000
vt 0.00000 0.00000
vt 1.00000 0.00000
vt 0.00000 1.00000
vt 1.00000 1.00000
vt 0.00000 0.00000
vt 1.00000 0.00000
vt 0.00000 1.00000
vt 1.00000 1.00000
vt 0.00000 0.00000
vt 1.00000 0.00000
vt 0.00000 1.00000
vt 1.00000 1.00000
vt 0.00000 0.00000
vt 1.00000 0.00000
vt 0.00000 1.00000
vt 1.00000 1.00000
f 49/49 51/51 50/50
f 51/51 52/52 50/50
f 53/53 55/55 54/54
f 55/55 56/56 54/54
f 57/57 59/59 58/58
f 59/59 60/60 58/58
f 61/61 63/63 62/62
f 63/63 64/64 62/62
f 65/65 67/67 66/66
f 67/67 68/68 66/66
f 69/69 71/71 70/70
f 71/71 72/72 70/70
usemtl stucco_body
v -1.00000 3.20000 -7.10000
v -1.00000 3.20000 -12.10000
v -1.00000 -0.00000 -7.10000
v -1.00000 -0.00000 -12.10000
v -6.00000 3.20000 -12.10000
v -6.00000 3.20000 -7.10000
v -6.00000 -0.00000 -12.10000
v -6.00000 -0.00000 -7.10000
v -6.00000 3.20000 -12.10000
v -1.00000 3.20000 -12.10000
v -6.00000 3.20000 -7.10000
v -1.00000 3.20000 -7.10000
v -6.00000 -0.00000 -7.10000
v -1.00000 -0.00000 -7.10000
v -6.00000 -0.00000 -12.10000
v -1.00000 -0.00000 -12.10000
v -6.00000 3.20000 -7.10000
v -1.00000 3.20000 -7.10000
v -6.00000 -0.00000 -7.10000
v -1.00000 -0.00000 -7.10000
v -1.00000 3.20000 -12.10000
v -6.00000 3.20000 -12.10000
v -1.00000 -0.00000 -12.10000
v -6.00000 -0.00000 -12.10000
vt 0.00000 0.00000
vt 1.00000 0.00000
vt 0.00000 1.00000
vt 1.00000 1.00000
vt 0.00000 0.00000
vt 1.00000 0.00000
vt 0.00000 1.00000
vt 1.00000 1.00000
vt 0.00000 0.00000
vt 1.00000 0.00000
vt 0.00000 1.00000
vt 1.00000 1.00000
vt 0.00000 0.00000
vt 1.00000 0.00000
vt 0.00000 1.00000
vt 1.00000 1.00000
vt 0.00000 0.00000
vt 1.00000 0.00000
vt 0.00000 1.00000
vt 1.00000 1.00000
vt 0.00000 0.00000
vt 1.00000 0.00000
vt 0.00000 1.00000
vt 1.00000 1.00000
f 73/73 75/75 74/74
f 75/75 76/76 74/74
f 77/77 79/79 78/78
f 79/79 80/80 78/78
f 81/81 83/83 82/82
f 83/83 84/84 82/82
f 85/85 87/87 86/86
f 87/87 88/88 86/86
f 89/89 91/91 90/90
f 91/91 92/92 90/90
f 93/93 95/95 94/94
f 95/95 96/96 94/94
v 3.40000 3.80000 -7.10000
v 3.40000 3.80000 -13.10000
v 3.40000 0.00000 -7.10000
v 3.40000 0.00000 -13.10000
v -1.10000 3.80000 -13.10000
v -1.10000 3.80000 -7.10000
v -1.10000 0.00000 -13.10000
v -1.10000 0.00000 -7.10000
v -1.10000 3.80000 -13.10000
v 3.40000 3.80000 -13.10000
v -1.10000 3.80000 -7.10000
v 3.40000 3.80000 -7.10000
v -1.10000 0.00000 -7.10000
v 3.40000 0.00000 -7.10000
v -1.10000 0.00000 -13.10000
v 3.40000 0.00000 -13.10000
v -1.10000 3.80000 -7.10000
v 3.40000 3.80000 -7.10000
v -1.10000 0.00000 -7.10000
v 3.40000 0.00000 -7.10000
v 3.40000 3.80000 -13.10000
v -1.10000 3.80000 -13.10000
v 3.40000 0.00000 -13.10000
v -1.10000 0.00000 -13.10000
vt 0.00000 0.00000
vt 1.00000 0.00000
vt 0.00000 1.00000
vt 1.00000 1.00000
vt 0.00000 0.00000
vt 1.00000 0.00000
vt 0.00000 1.00000
vt 1.00000 1.00000
vt 0.00000 0.00000
vt 1.00000 0.00000
vt 0.00000 1.00000
vt 1.00000 1.00000
vt 0.00000 0.00000
vt 1.00000 0.00000
vt 0.00000 1.00000
vt 1.00000 1.00000
vt 0.00000 0.00000
vt 1.00000 0.00000
vt 0.00000 1.00000
vt 1.00000 1.00000
vt 0.00000 0.00000
vt 1.00000 0.00000
vt 0.00000 1.00000
vt 1.00000 1.00000
f 97/97 99/99 98/98
f 99/99 100/100 98/98
f 101/101 103/103 102/102
f 103/103 104/104 102/102
f 105/105 107/107 106/106
f 107/107 108/108 106/106
f 109/109 111/111 110/110
f 111/111 112/112 110/110
f 113/113 115/115 114/114
f 115/115 116/116 114/114
f 117/117 119/119 118/118
f 119/119 120/120 118/118
usemtl trim_paint
v -0.90000 3.50000 -7.00000
v -0.90000 3.50000 -12.20000
v -0.90000 3.20000 -7.00000
v -0.90000 3.20000 -12.20000
v -6.10000 3.50000 -12.20000
v -6.10000 3.50000 -7.00000
v -6.10000 3.20000 -12.20000
v -6.10000 3.20000 -7.00000
v -6.10000 3.50000 -12.20000
v -0.90000 3.50000 -12.20000
v -6.10000 3.50000 -7.00000
v -0.90000 3.50000 -7.00000
v -6.10000 3.20000 -7.00000
v -0.90000 3.20000 -7.00000
v -6.10000 3.20000 -12.20000
v -0.90000 3.20000 -12.20000
v -6.10000 3.50000 -7.00000
v -0.90000 3.50000 -7.00000
v -6.10000 3.20000 -7.00000
v -0.90000 3.20000 -7.00000
v -0.90000 3.50000 -12.20000
v -6.10000 3.50000 -12.20000
v -0.90000 3.20000 -12.20000
v -6.10000 3.20000 -12.20000
vt 0.00000 0.00000
vt 1.00000 0.00000
vt 0.00000 1.00000
vt 1.00000 1.00000
vt 0.00000 0.00000
vt 1.00000 0.00000
vt 0.00000 1.00000
vt 1.00000 1.00000
vt 0.00000 0.00000
vt 1.00000 0.00000
vt 0.00000 1.00000
vt 1.00000 1.00000
vt 0.00000 0.00000
vt 1.00000 0.00000
vt 0.00000 1.00000
vt 1.00000 1.00000
vt 0.00000 0.00000
vt 1.00000 0.00000
vt 0.00000 1.00000
vt 1.00000 1.00000
vt 0.00000 0.00000
vt 1.00000 0.00000
vt 0.00000 1.00000
vt 1.00000 1.00000
f 121/121 123/123 122/122
f 123/123 124/124 122/122
f 125/125 127/127 126/126
f 127/127 128/128 126/126
f 129/129 131/131 130/130
f 131/131 132/132 130/130
f 133/133 135/135 134/134
f 135/135 136/136 134/134
f 137/137 139/139 138/138
f 139/139 140/140 138/138
f 141/141 143/143 142/142
f 143/143 144/144 142/142
v -2.82500 2.57500 -7.05500
v -2.82500 2.57500 -7.10500
v -2.82500 1.02500 -7.05500
v -2.82500 1.02500 -7.10500
v -4.17500 2.57500 -7.10500
v -4.17500 2.57500 -7.05500
v -4.17500 1.02500 -7.10500
v -4.17500 1.02500 -7.05500
v -4.17500 2.57500 -7.10500
v -2.82500 2.57500 -7.10500
v -4.17500 2.57500 -7.05500
v -2.82500 2.57500 -7.05500
v -4.17500 1.02500 -7.05500
v -2.82500 1.02500 -7.05500
v -4.17500 1.02500 -7.10500
v -2.82500 1.02500 -7.10500
v -4.17500 2.57500 -7.05500
v -2.82500 2.57500 -7.05500
v -4.17500 1.02500 -7.05500
v -2.82500 1.02500 -7.05500
v -2.82500 2.57500 -7.10500
v -4.17500 2.57500 -7.10500
v -2.82500 1.02500 -7.10500
v -4.17500 1.02500 -7.10500
vt 0.00000 0.00000
vt 1.00000 0.00000
vt 0.00000 1.00000
vt 1.00000 1.00000
vt 0.00000 0.00000
vt 1.00000 0.00000
vt 0.00000 1.00000
vt 1.00000 1.00000
vt 0.00000 0.00000
vt 1.00000 0.00000
vt 0.00000 1.00000
vt 1.00000 1.00000
vt 0.00000 0.00000
vt 1.00000 0.00000
vt 0.00000 1.00000
vt 1.00000 1.00000
vt 0.00000 0.00000
vt 1.00000 0.00000
vt 0.00000 1.00000
vt 1.00000 1.00000
vt 0.00000 0.00000
vt 1.00000 0.00000
vt 0.00000 1.00000
vt 1.00000 1.00000
f 145/145 147/147 146/146
f 147/147 148/148 146/146
f 149/149 151/151 150/150
f 151/151 152/152 150/150
f 153/153 155/155 154/154
f 155/155 156/156 154/154
f 157/157 159/159 158/158
f 159/159 160/160 158/158
f 161/161 163/163 162/162
f 163/163 164/164 162/162
f 165/165 167/167 166/166
f 167/167 168/168 166/166
v -1.47500 2.25000 -7.07000
v -1.47500 2.25000 -7.11000
v -1.47500 0.00000 -7.07000
v -1.47500 0.00000 -7.11000
v -2.52500 2.25000 -7.11000
v -2.52500 2.25000 -7.07000
v -2.52500 0.00000 -7.11000
v -2.52500 0.00000 -7.07000
v -2.52500 2.25000 -7.11000
v -1.47500 2.25000 -7.11000
v -2.52500 2.25000 -7.07000
v -1.47500 2.25000 -7.07000
v -2.52500 0.00000 -7.07000
v -1.47500 0.00000 -7.07000
v -2.52500 0.00000 -7.11000
v -1.47500 0.00000 -7.11000
v -2.52500 2.25000 -7.07000
v -1.47500 2.25000 -7.07000
v -2.52500 0.00000 -7.07000
v -1.47500 0.00000 -7.07000
v -1.47500 2.25000 -7.11000
v -2.52500 2.25000 -7.11000
v -1.47500 0.00000 -7.11000
v -2.52500 0.00000 -7.11000
vt 0.00000 0.00000
vt 1.00000 0.00000
vt 0.00000 1.00000
vt 1.00000 1.00000
vt 0.00000 0.00000
vt 1.00000 0.00000
vt 0.00000 1.00000
vt 1.00000 1.00000
vt 0.00000 0.00000
vt 1.00000 0.00000
vt 0.00000 1.00000
vt 1.00000 1.00000
vt 0.00000 0.00000
vt 1.00000 0.00000
vt 0.00000 1.00000
vt 1.00000 1.00000
vt 0.00000 0.00000
vt 1.00000 0.00000
vt 0.00000 1.00000
vt 1.00000 1.00000
vt 0.00000 0.00000
vt 1.00000 0.00000
vt 0.00000 1.00000
vt 1.00000 1.00000
f 169/169 171/171 170/170
f 171/171 172/172 170/170
f 173/173 175/175 174/174
f 175/175 176/176 174/174
f 177/177 179/179 178/178
f 179/179 180/180 178/178
f 181/181 183/183 182/182
f 183/183 184/184 182/182
f 185/185 187/187 186/186
f 187/187 188/188 186/186
f 189/189 191/191 190/190
f 191/191 192/192 190/190
v 3.50000 4.10000 -7.00000
v 3.50000 4.10000 -13.20000
v 3.50000 3.80000 -7.00000
v 3.50000 3.80000 -13.20000
v -1.20000 4.10000 -13.20000
v -1.20000 4.10000 -7.00000
v -1.20000 3.80000 -13.20000
v -1.20000 3.80000 -7.00000
v -1.20000 4.10000 -13.20000
v 3.50000 4.10000 -13.20000
v -1.20000 4.10000 -7.00000
v 3.50000 4.10000 -7.00000
v -1.20000 3.80000 -7.00000
v 3.50000 3.80000 -7.00000
v -1.20000 3.80000 -13.20000
v 3.50000 3.80000 -13.20000
v -1.20000 4.10000 -7.00000
v 3.50000 4.10000 -7.00000
v -1.20000 3.80000 -7.00000
v 3.50000 3.80000 -7.00000
v 3.50000 4.10000 -13.20000
v -1.20000 4.10000 -13.20000
v 3.50000 3.80000 -13.20000
v -1.20000 3.80000 -13.20000
vt 0.00000 0.00000
vt 1.00000 0.00000
vt 0.00000 1.00000
vt 1.00000 1.00000
vt 0.00000 0.00000
vt 1.00000 0.00000
vt 0.00000 1.00000
vt 1.00000 1.00000
vt 0.00000 0.00000
vt 1.00000 0.00000
vt 0.00000 1.00000
vt 1.00000 1.00000
vt 0.00000 0.00000
vt 1.00000 0.00000
vt 0.00000 1.00000
vt 1.00000 1.00000
vt 0.00000 0.00000
vt 1.00000 0.00000
vt 0.00000 1.00000
vt 1.00000 1.00000
vt 0.00000 0.00000
vt 1.00000 0.00000
vt 0.00000 1.00000
vt 1.00000 1.00000
f 193/193 195/195 194/194
f 195/195 196/196 194/194
f 197/197 199/199 198/198
f 199/199 200/200 198/198
f 201/201 203/203 202/202
f 203/203 204/204 202/202
f 205/205 207/207 206/206
f 207/207 208/208 206/206
f 209/209 211/211 210/210
f 211/211 212/212 210/210
f 213/213 215/215 214/214
f 215/215 216/216 214/214
v 3.00000 4.80000 3.00000
v 3.00000 4.80000 1.20000
v 3.00000 4.40000 3.00000
v 3.00000 4.40000 1.20000
v -5.00000 4.80000 1.20000
v -5.00000 4.80000 3.00000
v -5.00000 4.40000 1.20000
v -5.00000 4.40000 3.00000
v -5.00000 4.80000 1.20000
v 3.00000 4.80000 1.20000
v -5.00000 4.80000 3.00000
v 3.00000 4.80000 3.00000
v -5.00000 4.40000 3.00000
v 3.00000 4.40000 3.00000
v -5.00000 4.40000 1.20000
v 3.00000 4.40000 1.20000
v -5.00000 4.80000 3.00000
v 3.00000 4.80000 3.00000
v -5.00000 4.40000 3.00000
v 3.00000 4.40000 3.00000
v 3.00000 4.80000 1.20000
v -5.00000 4.80000 1.20000
v 3.00000 4.40000 1.20000
v -5.00000 4.40000 1.20000
vt 0.00000 0.00000
vt 1.00000 0.00000
vt 0.00000 1.00000
vt 1.00000 1.00000
vt 0.00000 0.00000
vt 1.00000 0.00000
vt 0.00000 1.00000
vt 1.00000 1.00000
vt 0.00000 0.00000
vt 1.00000 0.00000
vt 0.00000 1.00000
vt 1.00000 1.00000
vt 0.00000 0.00000
vt 1.00000 0.00000
vt 0.00000 1.00000
vt 1.00000 1.00000
vt 0.00000 0.00000
vt 1.00000 0.00000
vt 0.00000 1.00000
vt 1.00000 1.00000
vt 0.00000 0.00000
vt 1.00000 0.00000
vt 0.00000 1.00000
vt 1.00000 1.00000
f 217/217 219/219 218/218
f 219/219 220/220 218/218
f 221/221 223/223 222/222
f 223/223 224/224 222/222
f 225/225 227/227 226/226
f 227/227 228/228 226/226
f 229/229 231/231 230/230
f 231/231 232/232 230/230
f 233/233 235/235 234/234
f 235/235 236/236 234/234
f 237/237 239/239 238/238
f 239/239 240/240 238/238
v -2.25000 1.45000 1.80000
v -2.25000 1.45000 1.40000
v -2.25000 0.25000 1.80000
v -2.25000 0.25000 1.40000
v -2.75000 1.45000 1.40000
v -2.75000 1.45000 1.80000
v -2.75000 0.25000 1.40000
v -2.75000 0.25000 1.80000
v -2.75000 1.45000 1.40000
v -2.25000 1.45000 1.40000
v -2.75000 1.45000 1.80000
v -2.25000 1.45000 1.80000
v -2.75000 0.25000 1.80000
v -2.25000 0.25000 1.80000
v -2.75000 0.25000 1.40000
v -2.25000 0.25000 1.40000
v -2.75000 1.45000 1.80000
v -2.25000 1.45000 1.80000
v -2.75000 0.25000 1.80000
v -2.25000 0.25000 1.80000
v -2.25000 1.45000 1.40000
v -2.75000 1.45000 1.40000
v -2.25000 0.25000 1.40000
v -2.75000 0.25000 1.40000
vt 0.00000 0.00000
vt 1.00000 0.00000
vt 0.00000 1.00000
vt 1.00000 1.00000
vt 0.00000 0.00000
vt 1.00000 0.00000
vt 0.00000 1.00000
vt 1.00000 1.00000
vt 0.00000 0.00000
vt 1.00000 0.00000
vt 0.00000 1.00000
vt 1.00000 1.00000
vt 0.00000 0.00000
vt 1.00000 0.00000
vt 0.00000 1.00000
vt 1.00000 1.00000
vt 0.00000 0.00000
vt 1.00000 0.00000
vt 0.00000 1.00000
vt 1.00000 1.00000
vt 0.00000 0.00000
vt 1.00000 0.00000
vt 0.00000 1.00000
vt 1.00000 1.00000
f 241/241 243/243 242/242
f 243/243 244/244 242/242
f 245/245 247/247 246/246
f 247/247 248/248 246/246
f 249/249 251/251 250/250
f 251/251 252/252 250/250
f 253/253 255/255 254/254
f 255/255 256/256 254/254
f 257/257 259/259 258/258
f 259/259 260/260 258/258
f 261/261 263/263 262/262
f 263/263 264/264 262/262
v -2.32500 1.15000 1.84500
v -2.32500 1.15000 1.79500
v -2.32500 0.85000 1.84500
v -2.32500 0.85000 1.79500
v -2.67500 1.15000 1.79500
v -2.67500 1.15000 1.84500
v -2.67500 0.85000 1.79500
v -2.67500 0.85000 1.84500
v -2.67500 1.15000 1.79500
v -2.32500 1.15000 1.79500
v -2.67500 1.15000 1.84500
v -2.32500 1.15000 1.84500
v -2.67500 0.85000 1.84500
v -2.32500 0.85000 1.84500
v -2.67500 0.85000 1.79500
v -2.32500 0.85000 1.79500
v -2.67500 1.15000 1.84500
v -2.32500 1.15000 1.84500
v -2.67500 0.85000 1.84500
v -2.32500 0.85000 1.84500
v -2.32500 1.15000 1.79500
v -2.67500 1.15000 1.79500
v -2.32500 0.85000 1.79500
v -2.67500 0.85000 1.79500
vt 0.00000 0.00000
vt 1.00000 0.00000
vt 0.00000 1.00000
vt 1.00000 1.00000
vt 0.00000 0.00000
vt 1.00000 0.00000
vt 0.00000 1.00000
vt 1.00000 1.00000
vt 0.00000 0.00000
vt 1.00000 0.00000
vt 0.00000 1.00000
vt 1.00000 1.00000
vt 0.00000 0.00000
vt 1.00000 0.00000
vt 0.00000 1.00000
vt 1.00000 1.00000
vt 0.00000 0.00000
vt 1.00000 0.00000
vt 0.00000 1.00000
vt 1.00000 1.00000
vt 0.00000 0.00000
vt 1.00000 0.00000
vt 0.00000 1.00000
vt 1.00000 1.00000
f 265/265 267/267 266/266
f 267/267 268/268 266/266
f 269/269 271/271 270/270
f 271/271 272/272 270/270
f 273/273 275/275 274/274
f 275/275 276/276 274/274
f 277/277 279/279 278/278
f 279/279 280/280 278/278
f 281/281 283/283 282/282
f 283/283 284/284 282/282
f 285/285 287/287 286/286
f 287/287 288/288 286/286
v 0.75000 1.45000 1.80000
v 0.75000 1.45000 1.40000
v 0.75000 0.25000 1.80000
v 0.75000 0.25000 1.40000
v 0.25000 1.45000 1.40000
v 0.25000 1.45000 1.80000
v 0.25000 0.25000 1.40000
v 0.25000 0.25000 1.80000
v 0.25000 1.45000 1.40000
v 0.75000 1.45000 1.40000
v 0.25000 1.45000 1.80000
v 0.75000 1.45000 1.80000
v 0.25000 0.25000 1.80000
v 0.75000 0.25000 1.80000
v 0.25000 0.25000 1.40000
v 0.75000 0.25000 1.40000
v 0.25000 1.45000 1.80000
v 0.75000 1.45000 1.80000
v 0.25000 0.25000 1.80000
v 0.75000 0.25000 1.80000
v 0.75000 1.45000 1.40000
v 0.25000 1.45000 1.40000
v 0.75000 0.25000 1.40000
v 0.25000 0.25000 1.40000
vt 0.00000 0.00000
vt 1.00000 0.00000
vt 0.00000 1.00000
vt 1.00000 1.00000
vt 0.00000 0.00000
vt 1.00000 0.00000
vt 0.00000 1.00000
vt 1.00000 1.00000
vt 0.00000 0.00000
vt 1.00000 0.00000
vt 0.00000 1.00000
vt 1.00000 1.00000
vt 0.00000 0.00000
vt 1.00000 0.00000
vt 0.00000 1.00000
vt 1.00000 1.00000
vt 0.00000 0.00000
vt 1.00000 0.00000
vt 0.00000 1.00000
vt 1.00000 1.00000
vt 0.00000 0.00000
vt 1.00000 0.00000
vt 0.00000 1.00000
vt 1.00000 1.00000
f 289/289 291/291 290/290
f 291/291 292/292 290/290
f 293/293 295/295 294/294
f 295/295 296/296 294/294
f 297/297 299/299 298/298
f 299/299 300/300 298/298
f 301/301 303/303 302/302
f 303/303 304/304 302/302
f 305/305 307/307 306/306
f 307/307 308/308 306/306
f 309/309 311/311 310/310
f 311/311 312/312 310/310
v 0.67500 1.15000 1.84500
v 0.67500 1.15000 1.79500
v 0.67500 0.85000 1.84500
v 0.67500 0.85000 1.79500
v 0.32500 1.15000 1.79500
v 0.32500 1.15000 1.84500
v 0.32500 0.85000 1.79500
v 0.32500 0.85000 1.84500
v 0.32500 1.15000 1.79500
v 0.67500 1.15000 1.79500
v 0.32500 1.15000 1.84500
v 0.67500 1.15000 1.84500
v 0.32500 0.85000 1.84500
v 0.67500 0.85000 1.84500
v 0.32500 0.85000 1.79500
v 0.67500 0.85000 1.79500
v 0.32500 1.15000 1.84500
v 0.67500 1.15000 1.84500
v 0.32500 0.85000 1.84500
v 0.67500 0.85000 1.84500
v 0.67500 1.15000 1.79500
v 0.32500 1.15000 1.79500
v 0.67500 0.85000 1.79500
v 0.32500 0.85000 1.79500
vt 0.00000 0.00000
vt 1.00000 0.00000
vt 0.00000 1.00000
vt 1.00000 1.00000
vt 0.00000 0.00000
vt 1.00000 0.00000
vt 0.00000 1.00000
vt 1.00000 1.00000
vt 0.00000 0.00000
vt 1.00000 0.00000
vt 0.00000 1.00000
vt 1.00000 1.00000
vt 0.00000 0.00000
vt 1.00000 0.00000
vt 0.00000 1.00000
vt 1.00000 1.00000
vt 0.00000 0.00000
vt 1.00000 0.00000
vt 0.00000 1.00000
vt 1.00000 1.00000
vt 0.00000 0.00000
vt 1.00000 0.00000
vt 0.00000 1.00000
vt 1.00000 1.00000
f 313/313 315/315 314/314
f 315/315 316/316 314/314
f 317/317 319/319 318/318
f 319/319 320/320 318/318
f 321/321 323/323 322/322
f 323/323 324/324 322/322
f 325/325 327/327 326/326
f 327/327 328/328 326/326
f 329/329 331/331 330/330
f 331/331 332/332 330/330
f 333/333 335/335 334/334
f 335/335 336/336 334/334
v -8.45000 6.65000 6.10000
v -8.45000 6.65000 5.90000
v -8.45000 6.55000 6.10000
v -8.45000 6.55000 5.90000
v -10.55000 6.65000 5.90000
v -10.55000 6.65000 6.10000
v -10.55000 6.55000 5.90000
v -10.55000 6.55000 6.10000
v -10.55000 6.65000 5.90000
v -8.45000 6.65000 5.90000
v -10.55000 6.65000 6.10000
v -8.45000 6.65000 6.10000
v -10.55000 6.55000 6.10000
v -8.45000 6.55000 6.10000
v -10.55000 6.55000 5.90000
v -8.45000 6.55000 5.90000
v -10.55000 6.65000 6.10000
v -8.45000 6.65000 6.10000
v -10.55000 6.55000 6.10000
v -8.45000 6.55000 6.10000
v -8.45000 6.65000 5.90000
v -10.55000 6.65000 5.90000
v -8.45000 6.55000 5.90000
v -10.55000 6.55000 5.90000
vt 0.00000 0.00000
vt 1.00000 0.00000
vt 0.00000 1.00000
vt 1.00000 1.00000
vt 0.00000 0.00000
vt 1.00000 0.00000
vt 0.00000 1.00000
vt 1.00000 1.00000
vt 0.00000 0.00000
vt 1.00000 0.00000
vt 0.00000 1.00000
vt 1.00000 1.00000
vt 0.00000 0.00000
vt 1.00000 0.00000
vt 0.00000 1.00000
vt 1.00000 1.00000
vt 0.00000 0.00000
vt 1.00000 0.00000
vt 0.00000 1.00000
vt 1.00000 1.00000
vt 0.00000 0.00000
vt 1.00000 0.00000
vt 0.00000 1.00000
vt 1.00000 1.00000
f 337/337 339/339 338/338
f 339/339 340/340 338/338
f 341/341 343/343 342/342
f 343/343 344/344 342/342
f 345/345 347/347 346/346
f 347/347 348/348 346/346
f 349/349 351/351 350/350
f 351/351 352/352 350/350
f 353/353 355/355 354/354
f 355/355 356/356 354/354
f 357/357 359/359 358/358
f 359/359 360/360 358/358
usemtl window_glass
v -2.90000 2.50000 -7.03500
v -2.90000 2.50000 -7.06500
v -2.90000 1.10000 -7.03500
v -2.90000 1.10000 -7.06500
v -4.10000 2.50000 -7.06500
v -4.10000 2.50000 -7.03500
v -4.10000 1.10000 -7.06500
v -4.10000 1.10000 -7.03500
v -4.10000 2.50000 -7.06500
v -2.90000 2.50000 -7.06500
v -4.10000 2.50000 -7.03500
v -2.90000 2.50000 -7.03500
v -4.10000 1.10000 -7.03500
v -2.90000 1.10000 -7.03500
v -4.10000 1.10000 -7.06500
v -2.90000 1.10000 -7.06500
v -4.10000 2.50000 -7.03500
v -2.90000 2.50000 -7.03500
v -4.10000 1.10000 -7.03500
v -2.90000 1.10000 -7.03500
v -2.90000 2.50000 -7.06500
v -4.10000 2.50000 -7.06500
v -2.90000 1.10000 -7.06500
v -4.10000 1.10000 -7.06500
vt 0.00000 0.00000
vt 1.00000 0.00000
vt 0.00000 1.00000
vt 1.00000 1.00000
vt 0.00000 0.00000
vt 1.00000 0.00000
vt 0.00000 1.00000
vt 1.00000 1.00000
vt 0.00000 0.00000
vt 1.00000 0.00000
vt 0.00000 1.00000
vt 1.00000 1.00000
vt 0.00000 0.00000
vt 1.00000 0.00000
vt 0.00000 1.00000
vt 1.00000 1.00000
vt 0.00000 0.00000
vt 1.00000 0.00000
vt 0.00000 1.00000
vt 1.00000 1.00000
vt 0.00000 0.00000
vt 1.00000 0.00000
vt 0.00000 1.00000
vt 1.00000 1.00000
f 361/361 363/363 362/362
f 363/363 364/364 362/362
f 365/365 367/367 366/366
f 367/367 368/368 366/366
f 369/369 371/371 370/370
f 371/371 372/372 370/370
f 373/373 375/375 374/374
f 375/375 376/376 374/374
f 377/377 379/379 378/378
f 379/379 380/380 378/378
f 381/381 383/383 382/382
f 383/383 384/384 382/382
usemtl door_wood
v -1.55000 2.10000 -7.04000
v -1.55000 2.10000 -7.10000
v -1.55000 0.00000 -7.04000
v -1.55000 0.00000 -7.10000
v -2.45000 2.10000 -7.10000
v -2.45000 2.10000 -7.04000
v -2.45000 0.00000 -7.10000
v -2.45000 0.00000 -7.04000
v -2.45000 2.10000 -7.10000
v -1.55000 2.10000 -7.10000
v -2.45000 2.10000 -7.04000
v -1.55000 2.10000 -7.04000
v -2.45000 0.00000 -7.04000
v -1.55000 0.00000 -7.04000
v -2.45000 0.00000 -7.10000
v -1.55000 0.00000 -7.10000
v -2.45000 2.10000 -7.04000
v -1.55000 2.10000 -7.04000
v -2.45000 0.00000 -7.04000
v -1.55000 0.00000 -7.04000
v -1.55000 2.10000 -7.10000
v -2.45000 2.10000 -7.10000
v -1.55000 0.00000 -7.10000
v -2.45000 0.00000 -7.10000
vt 0.00000 0.00000
vt 1.00000 0.00000
vt 0.00000 1.00000
vt 1.00000 1.00000
vt 0.00000 0.00000
vt 1.00000 0.00000
vt 0.00000 1.00000
vt 1.00000 1.00000
vt 0.00000 0.00000
vt 1.00000 0.00000
vt 0.00000 1.00000
vt 1.00000 1.00000
vt 0.00000 0.00000
vt 1.00000 0.00000
vt 0.00000 1.00000
vt 1.00000 1.00000
vt 0.00000 0.00000
vt 1.00000 0.00000
vt 0.00000 1.00000
vt 1.00000 1.00000
vt 0.00000 0.00000
vt 1.00000 0.00000
vt 0.00000 1.00000
vt 1.00000 1.00000
f 385/385 387/387 386/386
f 387/387 388/388 386/386
f 389/389 391/391 390/390
f 391/391 392/392 390/390
f 393/393 395/395 394/394
f 395/395 396/396 394/394
f 397/397 399/399 398/398
f 399/399 400/400 398/398
f 401/401 403/403 402/402
f 403/403 404/404 402/402
f 405/405 407/407 406/406
f 407/407 408/408 406/406
usemtl garage_door_metal
v 2.95000 3.20000 -7.02000
v 2.95000 3.20000 -7.10000
v 2.95000 0.20000 -7.02000
v 2.95000 0.20000 -7.10000
v -0.65000 3.20000 -7.10000
v -0.65000 3.20000 -7.02000
v -0.65000 0.20000 -7.10000
v -0.65000 0.20000 -7.02000
v -0.65000 3.20000 -7.10000
v 2.95000 3.20000 -7.10000
v -0.65000 3.20000 -7.02000
v 2.95000 3.20000 -7.02000
v -0.65000 0.20000 -7.02000
v 2.95000 0.20000 -7.02000
v -0.65000 0.20000 -7.10000
v 2.95000 0.20000 -7.10000
v -0.65000 3.20000 -7.02000
v 2.95000 3.20000 -7.02000
v -0.65000 0.20000 -7.02000
v 2.95000 0.20000 -7.02000
v 2.95000 3.20000 -7.10000
v -0.65000 3.20000 -7.10000
v 2.95000 0.20000 -7.10000
v -0.65000 0.20000 -7.10000
vt 0.00000 0.00000
vt 1.00000 0.00000
vt 0.00000 1.00000
vt 1.00000 1.00000
vt 0.00000 0.00000
vt 1.00000 0.00000
vt 0.00000 1.00000
vt 1.00000 1.00000
vt 0.00000 0.00000
vt 1.00000 0.00000
vt 0.00000 1.00000
vt 1.00000 1.00000
vt 0.00000 0.00000
vt 1.00000 0.00000
vt 0.00000 1.00000
vt 1.00000 1.00000
vt 0.00000 0.00000
vt 1.00000 0.00000
vt 0.00000 1.00000
vt 1.00000 1.00000
vt 0.00000 0.00000
vt 1.00000 0.00000
vt 0.00000 1.00000
vt 1.00000 1.00000
f 409/409 411/411 410/410
f 411/411 412/412 410/410
f 413/413 415/415 414/414
f 415/415 416/416 414/414
f 417/417 419/419 418/418
f 419/419 420/420 418/418
f 421/421 423/423 422/422
f 423/423 424/424 422/422
f 425/425 427/427 426/426
f 427/427 428/428 426/426
f 429/429 431/431 430/430
f 431/431 432/432 430/430
usemtl steel_metal
v 2.95000 0.52000 -6.99500
v 2.95000 0.52000 -7.08500
v 2.95000 0.48000 -6.99500
v 2.95000 0.48000 -7.08500
v -0.65000 0.52000 -7.08500
v -0.65000 0.52000 -6.99500
v -0.65000 0.48000 -7.08500
v -0.65000 0.48000 -6.99500
v -0.65000 0.52000 -7.08500
v 2.95000 0.52000 -7.08500
v -0.65000 0.52000 -6.99500
v 2.95000 0.52000 -6.99500
v -0.65000 0.48000 -6.99500
v 2.95000 0.48000 -6.99500
v -0.65000 0.48000 -7.08500
v 2.95000 0.48000 -7.08500
v -0.65000 0.52000 -6.99500
v 2.95000 0.52000 -6.99500
v -0.65000 0.48000 -6.99500
v 2.95000 0.48000 -6.99500
v 2.95000 0.52000 -7.08500
v -0.65000 0.52000 -7.08500
v 2.95000 0.48000 -7.08500
v -0.65000 0.48000 -7.08500
vt 0.00000 0.00000
vt 1.00000 0.00000
vt 0.00000 1.00000
vt 1.00000 1.00000
vt 0.00000 0.00000
vt 1.00000 0.00000
vt 0.00000 1.00000
vt 1.00000 1.00000
vt 0.00000 0.00000
vt 1.00000 0.00000
vt 0.00000 1.00000
vt 1.00000 1.00000
vt 0.00000 0.00000
vt 1.00000 0.00000
vt 0.00000 1.00000
vt 1.00000 1.00000
vt 0.00000 0.00000
vt 1.00000 0.00000
vt 0.00000 1.00000
vt 1.00000 1.00000
vt 0.00000 0.00000
vt 1.00000 0.00000
vt 0.00000 1.00000
vt 1.00000 1.00000
f 433/433 435/435 434/434
f 435/435 436/436 434/434
f 437/437 439/439 438/438
f 439/439 440/440 438/438
f 441/441 443/443 442/442
f 443/443 444/444 442/442
f 445/445 447/447 446/446
f 447/447 448/448 446/446
f 449/449 451/451 450/450
f 451/451 452/452 450/450
f 453/453 455/455 454/454
f 455/455 456/456 454/454
v 2.95000 1.17000 -6.99500
v 2.95000 1.17000 -7.08500
v 2.95000 1.13000 -6.99500
v 2.95000 1.13000 -7.08500
v -0.65000 1.17000 -7.08500
v -0.65000 1.17000 -6.99500
v -0.65000 1.13000 -7.08500
v -0.65000 1.13000 -6.99500
v -0.65000 1.17000 -7.08500
v 2.95000 1.17000 -7.08500
v -0.65000 1.17000 -6.99500
v 2.95000 1.17000 -6.99500
v -0.65000 1.13000 -6.99500
v 2.95000 1.13000 -6.99500
v -0.65000 1.13000 -7.08500
v 2.95000 1.13000 -7.08500
v -0.65000 1.17000 -6.99500
v 2.95000 1.17000 -6.99500
v -0.65000 1.13000 -6.99500
v 2.95000 1.13000 -6.99500
v 2.95000 1.17000 -7.08500
v -0.65000 1.17000 -7.08500
v 2.95000 1.13000 -7.08500
v -0.65000 1.13000 -7.08500
vt 0.00000 0.00000
vt 1.00000 0.00000
vt 0.00000 1.00000
vt 1.00000 1.00000
vt 0.00000 0.00000
vt 1.00000 0.00000
vt 0.00000 1.00000
vt 1.00000 1.00000
vt 0.00000 0.00000
vt 1.00000 0.00000
vt 0.00000 1.00000
vt 1.00000 1.00000
vt 0.00000 0.00000
vt 1.00000 0.00000
vt 0.00000 1.00000
vt 1.00000 1.00000
vt 0.00000 0.00000
vt 1.00000 0.00000
vt 0.00000 1.00000
vt 1.00000 1.00000
vt 0.00000 0.00000
vt 1.00000 0.00000
vt 0.00000 1.00000
vt 1.00000 1.00000
f 457/457 459/459 458/458
f 459/459 460/460 458/458
f 461/461 463/463 462/462
f 463/463 464/464 462/462
f 465/465 467/467 466/466
f 467/467 468/468 466/466
f 469/469 471/471 470/470
f 471/471 472/472 470/470
f 473/473 475/475 474/474
f 475/475 476/476 474/474
f 477/477 479/479 478/478
f 479/479 480/480 478/478
v 2.95000 1.82000 -6.99500
v 2.95000 1.82000 -7.08500
v 2.95000 1.78000 -6.99500
v 2.95000 1.78000 -7.08500
v -0.65000 1.82000 -7.08500
v -0.65000 1.82000 -6.99500
v -0.65000 1.78000 -7.08500
v -0.65000 1.78000 -6.99500
v -0.65000 1.82000 -7.08500
v 2.95000 1.82000 -7.08500
v -0.65000 1.82000 -6.99500
v 2.95000 1.82000 -6.99500
v -0.65000 1.78000 -6.99500
v 2.95000 1.78000 -6.99500
v -0.65000 1.78000 -7.08500
v 2.95000 1.78000 -7.08500
v -0.65000 1.82000 -6.99500
v 2.95000 1.82000 -6.99500
v -0.65000 1.78000 -6.99500
v 2.95000 1.78000 -6.99500
v 2.95000 1.82000 -7.08500
v -0.65000 1.82000 -7.08500
v 2.95000 1.78000 -7.08500
v -0.65000 1.78000 -7.08500
vt 0.00000 0.00000
vt 1.00000 0.00000
vt 0.00000 1.00000
vt 1.00000 1.00000
vt 0.00000 0.00000
vt 1.00000 0.00000
vt 0.00000 1.00000
vt 1.00000 1.00000
vt 0.00000 0.00000
vt 1.00000 0.00000
vt 0.00000 1.00000
vt 1.00000 1.00000
vt 0.00000 0.00000
vt 1.00000 0.00000
vt 0.00000 1.00000
vt 1.00000 1.00000
vt 0.00000 0.00000
vt 1.00000 0.00000
vt 0.00000 1.00000
vt 1.00000 1.00000
vt 0.00000 0.00000
vt 1.00000 0.00000
vt 0.00000 1.00000
vt 1.00000 1.00000
f 481/481 483/483 482/482
f 483/483 484/484 482/482
f 485/485 487/487 486/486
f 487/487 488/488 486/486
f 489/489 491/491 490/490
f 491/491 492/492 490/490
f 493/493 495/495 494/494
f 495/495 496/496 494/494
f 497/497 499/499 498/498
f 499/499 500/500 498/498
f 501/501 503/503 502/502
f 503/503 504/504 502/502
v 2.95000 2.47000 -6.99500
v 2.95000 2.47000 -7.08500
v 2.95000 2.43000 -6.99500
v 2.95000 2.43000 -7.08500
v -0.65000 2.47000 -7.08500
v -0.65000 2.47000 -6.99500
v -0.65000 2.43000 -7.08500
v -0.65000 2.43000 -6.99500
v -0.65000 2.47000 -7.08500
v 2.95000 2.47000 -7.08500
v -0.65000 2.47000 -6.99500
v 2.95000 2.47000 -6.99500
v -0.65000 2.43000 -6.99500
v 2.95000 2.43000 -6.99500
v -0.65000 2.43000 -7.08500
v 2.95000 2.43000 -7.08500
v -0.65000 2.47000 -6.99500
v 2.95000 2.47000 -6.99500
v -0.65000 2.43000 -6.99500
v 2.95000 2.43000 -6.99500
v 2.95000 2.47000 -7.08500
v -0.65000 2.47000 -7.08500
v 2.95000 2.43000 -7.08500
v -0.65000 2.43000 -7.08500
vt 0.00000 0.00000
vt 1.00000 0.00000
vt 0.00000 1.00000
vt 1.00000 1.00000
vt 0.00000 0.00000
vt 1.00000 0.00000
vt 0.00000 1.00000
vt 1.00000 1.00000
vt 0.00000 0.00000
vt 1.00000 0.00000
vt 0.00000 1.00000
vt 1.00000 1.00000
vt 0.00000 0.00000
vt 1.00000 0.00000
vt 0.00000 1.00000
vt 1.00000 1.00000
vt 0.00000 0.00000
vt 1.00000 0.00000
vt 0.00000 1.00000
vt 1.00000 1.00000
vt 0.00000 0.00000
vt 1.00000 0.00000
vt 0.00000 1.00000
vt 1.00000 1.00000
f 505/505 507/507 506/506
f 507/507 508/508 506/506
f 509/509 511/511 510/510
f 511/511 512/512 510/510
f 513/513 515/515 514/514
f 515/515 516/516 514/514
f 517/517 519/519 518/518
f 519/519 520/520 518/518
f 521/521 523/523 522/522
f 523/523 524/524 522/522
f 525/525 527/527 526/526
f 527/527 528/528 526/526
v -4.50000 4.40000 2.28000
v -4.44438 4.40000 2.27119
v -4.39420 4.40000 2.24562
v -4.35438 4.40000 2.20580
v -4.32881 4.40000 2.15562
v -4.32000 4.40000 2.10000
v -4.32881 4.40000 2.04438
v -4.35438 4.40000 1.99420
v -4.39420 4.40000 1.95438
v -4.44438 4.40000 1.92881
v -4.50000 4.40000 1.92000
v -4.55562 4.40000 1.92881
v -4.60580 4.40000 1.95438
v -4.64562 4.40000 1.99420
v -4.67119 4.40000 2.04438
v -4.68000 4.40000 2.10000
v -4.67119 4.40000 2.15562
v -4.64562 4.40000 2.20580
v -4.60580 4.40000 2.24562
v -4.55562 4.40000 2.27119
v -4.50000 4.40000 2.28000
v -4.50000 -0.00000 2.28000
v -4.44438 -0.00000 2.27119
v -4.39420 -0.00000 2.24562
v -4.35438 -0.00000 2.20580
v -4.32881 -0.00000 2.15562
v -4.32000 -0.00000 2.10000
v -4.32881 -0.00000 2.04438
v -4.35438 -0.00000 1.99420
v -4.39420 -0.00000 1.95438
v -4.44438 -0.00000 1.92881
v -4.50000 -0.00000 1.92000
v -4.55562 -0.00000 1.92881
v -4.60580 -0.00000 1.95438
v -4.64562 -0.00000 1.99420
v -4.67119 -0.00000 2.04438
v -4.68000 -0.00000 2.10000
v -4.67119 -0.00000 2.15562
v -4.64562 -0.00000 2.20580
v -4.60580 -0.00000 2.24562
v -4.55562 -0.00000 2.27119
v -4.50000 -0.00000 2.28000
v -4.50000 4.40000 2.10000
v -4.50000 4.40000 2.10000
v -4.50000 4.40000 2.10000
v -4.50000 4.40000 2.10000
v -4.50000 4.40000 2.10000
v -4.50000 4.40000 2.10000
v -4.50000 4.40000 2.10000
v -4.50000 4.40000 2.10000
v -4.50000 4.40000 2.10000
v -4.50000 4.40000 2.10000
v -4.50000 4.40000 2.10000
v -4.50000 4.40000 2.10000
v -4.50000 4.40000 2.10000
v -4.50000 4.40000 2.10000
v -4.50000 4.40000 2.10000
v -4.50000 4.40000 2.10000
v -4.50000 4.40000 2.10000
v -4.50000 4.40000 2.10000
v -4.50000 4.40000 2.10000
v -4.50000 4.40000 2.10000
v -4.50000 4.40000 2.28000
v -4.44438 4.40000 2.27119
v -4.39420 4.40000 2.24562
v -4.35438 4.40000 2.20580
v -4.32881 4.40000 2.15562
v -4.32000 4.40000 2.10000
v -4.32881 4.40000 2.04438
v -4.35438 4.40000 1.99420
v -4.39420 4.40000 1.95438
v -4.44438 4.40000 1.92881
v -4.50000 4.40000 1.92000
v -4.55562 4.40000 1.92881
v -4.60580 4.40000 1.95438
v -4.64562 4.40000 1.99420
v -4.67119 4.40000 2.04438
v -4.68000 4.40000 2.10000
v -4.67119 4.40000 2.15562
v -4.64562 4.40000 2.20580
v -4.60580 4.40000 2.24562
v -4.55562 4.40000 2.27119
v -4.50000 4.40000 2.28000
v -4.50000 -0.00000 2.10000
v -4.50000 -0.00000 2.10000
v -4.50000 -0.00000 2.10000
v -4.50000 -0.00000 2.10000
v -4.50000 -0.00000 2.10000
v -4.50000 -0.00000 2.10000
v -4.50000 -0.00000 2.10000
v -4.50000 -0.00000 2.10000
v -4.50000 -0.00000 2.10000
v -4.50000 -0.00000 2.10000
v -4.50000 -0.00000 2.10000
v -4.50000 -0.00000 2.10000
v -4.50000 -0.00000 2.10000
v -4.50000 -0.00000 2.10000
v -4.50000 -0.00000 2.10000
v -4.50000 -0.00000 2.10000
v -4.50000 -0.00000 2.10000
v -4.50000 -0.00000 2.10000
v -4.50000 -0.00000 2.10000
v -4.50000 -0.00000 2.10000
v -4.50000 -0.00000 2.28000
v -4.44438 -0.00000 2.27119
v -4.39420 -0.00000 2.24562
v -4.35438 -0.00000 2.20580
v -4.32881 -0.00000 2.15562
v -4.32000 -0.00000 2.10000
v -4.32881 -0.00000 2.04438
v -4.35438 -0.00000 1.99420
v -4.39420 -0.00000 1.95438
v -4.44438 -0.00000 1.92881
v -4.50000 -0.00000 1.92000
v -4.55562 -0.00000 1.92881
v -4.60580 -0.00000 1.95438
v -4.64562 -0.00000 1.99420
v -4.67119 -0.00000 2.04438
v -4.68000 -0.00000 2.10000
v -4.67119 -0.00000 2.15562
v -4.64562 -0.00000 2.20580
v -4.60580 -0.00000 2.24562
v -4.55562 -0.00000 2.27119
v -4.50000 -0.00000 2.28000
vt 0.00000 0.00000
vt 0.05000 0.00000
vt 0.10000 0.00000
vt 0.15000 0.00000
vt 0.20000 0.00000
vt 0.25000 0.00000
vt 0.30000 0.00000
vt 0.35000 0.00000
vt 0.40000 0.00000
vt 0.45000 0.00000
vt 0.50000 0.00000
vt 0.55000 0.00000
vt 0.60000 0.00000
vt 0.65000 0.00000
vt 0.70000 0.00000
vt 0.75000 0.00000
vt 0.80000 0.00000
vt 0.85000 0.00000
vt 0.90000 0.00000
vt 0.95000 0.00000
vt 1.00000 0.00000
vt 0.00000 1.00000
vt 0.05000 1.00000
vt 0.10000 1.00000
vt 0.15000 1.00000
vt 0.20000 1.00000
vt 0.25000 1.00000
vt 0.30000 1.00000
vt 0.35000 1.00000
vt 0.40000 1.00000
vt 0.45000 1.00000
vt 0.50000 1.00000
vt 0.55000 1.00000
vt 0.60000 1.00000
vt 0.65000 1.00000
vt 0.70000 1.00000
vt 0.75000 1.00000
vt 0.80000 1.00000
vt 0.85000 1.00000
vt 0.90000 1.00000
vt 0.95000 1.00000
vt 1.00000 1.00000
vt 0.50000 0.50000
vt 0.50000 0.50000
vt 0.50000 0.50000
vt 0.50000 0.50000
vt 0.50000 0.50000
vt 0.50000 0.50000
vt 0.50000 0.50000
vt 0.50000 0.50000
vt 0.50000 0.50000
vt 0.50000 0.50000
vt 0.50000 0.50000
vt 0.50000 0.50000
vt 0.50000 0.50000
vt 0.50000 0.50000
vt 0.50000 0.50000
vt 0.50000 0.50000
vt 0.50000 0.50000
vt 0.50000 0.50000
vt 0.50000 0.50000
vt 0.50000 0.50000
vt 1.00000 0.50000
vt 0.97553 0.34549
vt 0.90451 0.20611
vt 0.79389 0.09549
vt 0.65451 0.02447
vt 0.50000 0.00000
vt 0.34549 0.02447
vt 0.20611 0.09549
vt 0.09549 0.20611
vt 0.02447 0.34549
vt 0.00000 0.50000
vt 0.02447 0.65451
vt 0.09549 0.79389
vt 0.20611 0.90451
vt 0.34549 0.97553
vt 0.50000 1.00000
vt 0.65451 0.97553
vt 0.79389 0.90451
vt 0.90451 0.79389
vt 0.97553 0.65451
vt 1.00000 0.50000
vt 0.50000 0.50000
vt 0.50000 0.50000
vt 0.50000 0.50000
vt 0.50000 0.50000
vt 0.50000 0.50000
vt 0.50000 0.50000
vt 0.50000 0.50000
vt 0.50000 0.50000
vt 0.50000 0.50000
vt 0.50000 0.50000
vt 0.50000 0.50000
vt 0.50000 0.50000
vt 0.50000 0.50000
vt 0.50000 0.50000
vt 0.50000 0.50000
vt 0.50000 0.50000
vt 0.50000 0.50000
vt 0.50000 0.50000
vt 0.50000 0.50000
vt 0.50000 0.50000
vt 1.00000 0.50000
vt 0.97553 0.65451
vt 0.90451 0.79389
vt 0.79389 0.90451
vt 0.65451 0.97553
vt 0.50000 1.00000
vt 0.34549 0.97553
vt 0.20611 0.90451
vt 0.09549 0.79389
vt 0.02447 0.65451
vt 0.00000 0.50000
vt 0.02447 0.34549
vt 0.09549 0.20611
vt 0.20611 0.09549
vt 0.34549 0.02447
vt 0.50000 0.00000
vt 0.65451 0.02447
vt 0.79389 0.09549
vt 0.90451 0.20611
vt 0.97553 0.34549
vt 1.00000 0.50000
f 529/529 550/550 530/530
f 550/550 551/551 530/530
f 530/530 551/551 531/531
f 551/551 552/552 531/531
f 531/531 552/552 532/532
f 552/552 553/553 532/532
f 532/532 553/553 533/533
f 553/553 554/554 533/533
f 533/533 554/554 534/534
f 554/554 555/555 534/534
f 534/534 555/555 535/535
f 555/555 556/556 535/535
f 535/535 556/556 536/536
f 556/556 557/557 536/536
f 536/536 557/557 537/537
f 557/557 558/558 537/537
f 537/537 558/558 538/538
f 558/558 559/559 538/538
f 538/538 559/559 539/539
f 559/559 560/560 539/539
f 539/539 560/560 540/540
f 560/560 561/561 540/540
f 540/540 561/561 541/541
f 561/561 562/562 541/541
f 541/541 562/562 542/542
f 562/562 563/563 542/542
f 542/542 563/563 543/543
f 563/563 564/564 543/543
f 543/543 564/564 544/544
f 564/564 565/565 544/544
f 544/544 565/565 545/545
f 565/565 566/566 545/545
f 545/545 566/566 546/546
f 566/566 567/567 546/546
f 546/546 567/567 547/547
f 567/567 568/568 547/547
f 547/547 568/568 548/548
f 568/568 569/569 548/548
f 548/548 569/569 549/549
f 569/569 570/570 549/549
f 591/591 592/592 571/571
f 592/592 593/593 572/572
f 593/593 594/594 573/573
f 594/594 595/595 574/574
f 595/595 596/596 575/575
f 596/596 597/597 576/576
f 597/597 598/598 577/577
f 598/598 599/599 578/578
f 599/599 600/600 579/579
f 600/600 601/601 580/580
f 601/601 602/602 581/581
f 602/602 603/603 582/582
f 603/603 604/604 583/583
f 604/604 605/605 584/584
f 605/605 606/606 585/585
f 606/606 607/607 586/586
f 607/607 608/608 587/587
f 608/608 609/609 588/588
f 609/609 610/610 589/589
f 610/610 611/611 590/590
f 633/633 632/632 612/612
f 634/634 633/633 613/613
f 635/635 634/634 614/614
f 636/636 635/635 615/615
f 637/637 636/636 616/616
f 638/638 637/637 617/617
f 639/639 638/638 618/618
f 640/640 639/639 619/619
f 641/641 640/640 620/620
f 642/642 641/641 621/621
f 643/643 642/642 622/622
f 644/644 643/643 623/623
f 645/645 644/644 624/624
f 646/646 645/645 625/625
f 647/647 646/646 626/626
f 648/648 647/647 627/627
f 649/649 648/648 628/628
f 650/650 649/649 629/629
f 651/651 650/650 630/630
f 652/652 651/651 631/631
v 2.50000 4.40000 2.28000
v 2.55562 4.40000 2.27119
v 2.60580 4.40000 2.24562
v 2.64562 4.40000 2.20580
v 2.67119 4.40000 2.15562
v 2.68000 4.40000 2.10000
v 2.67119 4.40000 2.04438
v 2.64562 4.40000 1.99420
v 2.60580 4.40000 1.95438
v 2.55562 4.40000 1.92881
v 2.50000 4.40000 1.92000
v 2.44438 4.40000 1.92881
v 2.39420 4.40000 1.95438
v 2.35438 4.40000 1.99420
v 2.32881 4.40000 2.04438
v 2.32000 4.40000 2.10000
v 2.32881 4.40000 2.15562
v 2.35438 4.40000 2.20580
v 2.39420 4.40000 2.24562
v 2.44438 4.40000 2.27119
v 2.50000 4.40000 2.28000
v 2.50000 -0.00000 2.28000
v 2.55562 -0.00000 2.27119
v 2.60580 -0.00000 2.24562
v 2.64562 -0.00000 2.20580
v 2.67119 -0.00000 2.15562
v 2.68000 -0.00000 2.10000
v 2.67119 -0.00000 2.04438
v 2.64562 -0.00000 1.99420
v 2.60580 -0.00000 1.95438
v 2.55562 -0.00000 1.92881
v 2.50000 -0.00000 1.92000
v 2.44438 -0.00000 1.92881
v 2.39420 -0.00000 1.95438
v 2.35438 -0.00000 1.99420
v 2.32881 -0.00000 2.04438
v 2.32000 -0.00000 2.10000
v 2.32881 -0.00000 2.15562
v 2.35438 -0.00000 2.20580
v 2.39420 -0.00000 2.24562
v 2.44438 -0.00000 2.27119
v 2.50000 -0.00000 2.28000
v 2.50000 4.40000 2.10000
v 2.50000 4.40000 2.10000
v 2.50000 4.40000 2.10000
v 2.50000 4.40000 2.10000
v 2.50000 4.40000 2.10000
v 2.50000 4.40000 2.10000
v 2.50000 4.40000 2.10000
v 2.50000 4.40000 2.10000
v 2.50000 4.40000 2.10000
v 2.50000 4.40000 2.10000
v 2.50000 4.40000 2.10000
v 2.50000 4.40000 2.10000
v 2.50000 4.40000 2.10000
v 2.50000 4.40000 2.10000
v 2.50000 4.40000 2.10000
v 2.50000 4.40000 2.10000
v 2.50000 4.40000 2.10000
v 2.50000 4.40000 2.10000
v 2.50000 4.40000 2.10000
v 2.50000 4.40000 2.10000
v 2.50000 4.40000 2.28000
v 2.55562 4.40000 2.27119
v 2.60580 4.40000 2.24562
v 2.64562 4.40000 2.20580
v 2.67119 4.40000 2.15562
v 2.68000 4.40000 2.10000
v 2.67119 4.40000 2.04438
v 2.64562 4.40000 1.99420
v 2.60580 4.40000 1.95438
v 2.55562 4.40000 1.92881
v 2.50000 4.40000 1.92000
v 2.44438 4.40000 1.92881
v 2.39420 4.40000 1.95438
v 2.35438 4.40000 1.99420
v 2.32881 4.40000 2.04438
v 2.32000 4.40000 2.10000
v 2.32881 4.40000 2.15562
v 2.35438 4.40000 2.20580
v 2.39420 4.40000 2.24562
v 2.44438 4.40000 2.27119
v 2.50000 4.40000 2.28000
v 2.50000 -0.00000 2.10000
v 2.50000 -0.00000 2.10000
v 2.50000 -0.00000 2.10000
v 2.50000 -0.00000 2.10000
v 2.50000 -0.00000 2.10000
v 2.50000 -0.00000 2.10000
v 2.50000 -0.00000 2.10000
v 2.50000 -0.00000 2.10000
v 2.50000 -0.00000 2.10000
v 2.50000 -0.00000 2.10000
v 2.50000 -0.00000 2.10000
v 2.50000 -0.00000 2.10000
v 2.50000 -0.00000 2.10000
v 2.50000 -0.00000 2.10000
v 2.50000 -0.00000 2.10000
v 2.50000 -0.00000 2.10000
v 2.50000 -0.00000 2.10000
v 2.50000 -0.00000 2.10000
v 2.50000 -0.00000 2.10000
v 2.50000 -0.00000 2.10000
v 2.50000 -0.00000 2.28000
v 2.55562 -0.00000 2.27119
v 2.60580 -0.00000 2.24562
v 2.64562 -0.00000 2.20580
v 2.67119 -0.00000 2.15562
v 2.68000 -0.00000 2.10000
v 2.67119 -0.00000 2.04438
v 2.64562 -0.00000 1.99420
v 2.60580 -0.00000 1.95438
v 2.55562 -0.00000 1.92881
v 2.50000 -0.00000 1.92000
v 2.44438 -0.00000 1.92881
v 2.39420 -0.00000 1.95438
v 2.35438 -0.00000 1.99420
v 2.32881 -0.00000 2.04438
v 2.32000 -0.00000 2.10000
v 2.32881 -0.00000 2.15562
v 2.35438 -0.00000 2.20580
v 2.39420 -0.00000 2.24562
v 2.44438 -0.00000 2.27119
v 2.50000 -0.00000 2.28000
vt 0.00000 0.00000
vt 0.05000 0.00000
vt 0.10000 0.00000
vt 0.15000 0.00000
vt 0.20000 0.00000
vt 0.25000 0.00000
vt 0.30000 0.00000
vt 0.35000 0.00000
vt 0.40000 0.00000
vt 0.45000 0.00000
vt 0.50000 0.00000
vt 0.55000 0.00000
vt 0.60000 0.00000
vt 0.65000 0.00000
vt 0.70000 0.00000
vt 0.75000 0.00000
vt 0.80000 0.00000
vt 0.85000 0.00000
vt 0.90000 0.00000
vt 0.95000 0.00000
vt 1.00000 0.00000
vt 0.00000 1.00000
vt 0.05000 1.00000
vt 0.10000 1.00000
vt 0.15000 1.00000
vt 0.20000 1.00000
vt 0.25000 1.00000
vt 0.30000 1.00000
vt 0.35000 1.00000
vt 0.40000 1.00000
vt 0.45000 1.00000
vt 0.50000 1.00000
vt 0.55000 1.00000
vt 0.60000 1.00000
vt 0.65000 1.00000
vt 0.70000 1.00000
vt 0.75000 1.00000
vt 0.80000 1.00000
vt 0.85000 1.00000
vt 0.90000 1.00000
vt 0.95000 1.00000
vt 1.00000 1.00000
vt 0.50000 0.50000
vt 0.50000 0.50000
vt 0.50000 0.50000
vt 0.50000 0.50000
vt 0.50000 0.50000
vt 0.50000 0.50000
vt 0.50000 0.50000
vt 0.50000 0.50000
vt 0.50000 0.50000
vt 0.50000 0.50000
vt 0.50000 0.50000
vt 0.50000 0.50000
vt 0.50000 0.50000
vt 0.50000 0.50000
vt 0.50000 0.50000
vt 0.50000 0.50000
vt 0.50000 0.50000
vt 0.50000 0.50000
vt 0.50000 0.50000
vt 0.50000 0.50000
vt 1.00000 0.50000
vt 0.97553 0.34549
vt 0.90451 0.20611
vt 0.79389 0.09549
vt 0.65451 0.02447
vt 0.50000 0.00000
vt 0.34549 0.02447
vt 0.20611 0.09549
vt 0.09549 0.20611
vt 0.02447 0.34549
vt 0.00000 0.50000
vt 0.02447 0.65451
vt 0.09549 0.79389
vt 0.20611 0.90451
vt 0.34549 0.97553
vt 0.50000 1.00000
vt 0.65451 0.97553
vt 0.79389 0.90451
vt 0.90451 0.79389
vt 0.97553 0.65451
vt 1.00000 0.50000
vt 0.50000 0.50000
vt 0.50000 0.50000
vt 0.50000 0.50000
vt 0.50000 0.50000
vt 0.50000 0.50000
vt 0.50000 0.50000
vt 0.50000 0.50000
vt 0.50000 0.50000
vt 0.50000 0.50000
vt 0.50000 0.50000
vt 0.50000 0.50000
vt 0.50000 0.50000
vt 0.50000 0.50000
vt 0.50000 0.50000
vt 0.50000 0.50000
vt 0.50000 0.50000
vt 0.50000 0.50000
vt 0.50000 0.50000
vt 0.50000 0.50000
vt 0.50000 0.50000
vt 1.00000 0.50000
vt 0.97553 0.65451
vt 0.90451 0.79389
vt 0.79389 0.90451
vt 0.65451 0.97553
vt 0.50000 1.00000
vt 0.34549 0.97553
vt 0.20611 0.90451
vt 0.09549 0.79389
vt 0.02447 0.65451
vt 0.00000 0.50000
vt 0.02447 0.34549
vt 0.09549 0.20611
vt 0.20611 0.09549
vt 0.34549 0.02447
vt 0.50000 0.00000
vt 0.65451 0.02447
vt 0.79389 0.09549
vt 0.90451 0.20611
vt 0.97553 0.34549
vt 1.00000 0.50000
f 653/653 674/674 654/654
f 674/674 675/675 654/654
f 654/654 675/675 655/655
f 675/675 676/676 655/655
f 655/655 676/676 656/656
f 676/676 677/677 656/656
f 656/656 677/677 657/657
f 677/677 678/678 657/657
f 657/657 678/678 658/658
f 678/678 679/679 658/658
f 658/658 679/679 659/659
f 679/679 680/680 659/659
f 659/659 680/680 660/660
f 680/680 681/681 660/660
f 660/660 681/681 661/661
f 681/681 682/682 661/661
f 661/661 682/682 662/662
f 682/682 683/683 662/662
f 662/662 683/683 663/663
f 683/683 684/684 663/663
f 663/663 684/684 664/664
f 684/684 685/685 664/664
f 664/664 685/685 665/665
f 685/685 686/686 665/665
f 665/665 686/686 666/666
f 686/686 687/687 666/666
f 666/666 687/687 667/667
f 687/687 688/688 667/667
f 667/667 688/688 668/668
f 688/688 689/689 668/668
f 668/668 689/689 669/669
f 689/689 690/690 669/669
f 669/669 690/690 670/670
f 690/690 691/691 670/670
f 670/670 691/691 671/671
f 691/691 692/692 671/671
f 671/671 692/692 672/672
f 692/692 693/693 672/672
f 672/672 693/693 673/673
f 693/693 694/694 673/673
f 715/715 716/716 695/695
f 716/716 717/717 696/696
f 717/717 718/718 697/697
f 718/718 719/719 698/698
f 719/719 720/720 699/699
f 720/720 721/721 700/700
f 721/721 722/722 701/701
f 722/722 723/723 702/702
f 723/723 724/724 703/703
f 724/724 725/725 704/704
f 725/725 726/726 705/705
f 726/726 727/727 706/706
f 727/727 728/728 707/707
f 728/728 729/729 708/708
f 729/729 730/730 709/709
f 730/730 731/731 710/710
f 731/731 732/732 711/711
f 732/732 733/733 712/712
f 733/733 734/734 713/713
f 734/734 735/735 714/714
f 757/757 756/756 736/736
f 758/758 757/757 737/737
f 759/759 758/758 738/738
f 760/760 759/759 739/739
f 761/761 760/760 740/740
f 762/762 761/761 741/741
f 763/763 762/762 742/742
f 764/764 763/763 743/743
f 765/765 764/764 744/744
f 766/766 765/765 745/745
f 767/767 766/766 746/746
f 768/768 767/767 747/747
f 769/769 768/768 748/748
f 770/770 769/769 749/749
f 771/771 770/770 750/750
f 772/772 771/771 751/751
f 773/773 772/772 752/752
f 774/774 773/773 753/753
f 775/775 774/774 754/754
f 776/776 775/775 755/755
v -1.97108 0.74000 1.69185
v -2.01625 0.74000 1.62583
v -1.97108 0.66000 1.69185
v -2.01625 0.66000 1.62583
v -2.42892 0.74000 1.90815
v -2.38375 0.74000 1.97417
v -2.42892 0.66000 1.90815
v -2.38375 0.66000 1.97417
v -2.42892 0.74000 1.90815
v -2.01625 0.74000 1.62583
v -2.38375 0.74000 1.97417
v -1.97108 0.74000 1.69185
v -2.38375 0.66000 1.97417
v -1.97108 0.66000 1.69185
v -2.42892 0.66000 1.90815
v -2.01625 0.66000 1.62583
v -2.38375 0.74000 1.97417
v -1.97108 0.74000 1.69185
v -2.38375 0.66000 1.97417
v -1.97108 0.66000 1.69185
v -2.01625 0.74000 1.62583
v -2.42892 0.74000 1.90815
v -2.01625 0.66000 1.62583
v -2.42892 0.66000 1.90815
vt 0.00000 0.00000
vt 1.00000 0.00000
vt 0.00000 1.00000
vt 1.00000 1.00000
vt 0.00000 0.00000
vt 1.00000 0.00000
vt 0.00000 1.00000
vt 1.00000 1.00000
vt 0.00000 0.00000
vt 1.00000 0.00000
vt 0.00000 1.00000
vt 1.00000 1.00000
vt 0.00000 0.00000
vt 1.00000 0.00000
vt 0.00000 1.00000
vt 1.00000 1.00000
vt 0.00000 0.00000
vt 1.00000 0.00000
vt 0.00000 1.00000
vt 1.00000 1.00000
vt 0.00000 0.00000
vt 1.00000 0.00000
vt 0.00000 1.00000
vt 1.00000 1.00000
f 777/777 779/779 778/778
f 779/779 780/780 778/778
f 781/781 783/783 782/782
f 783/783 784/784 782/782
f 785/785 787/787 786/786
f 787/787 788/788 786/786
f 789/789 791/791 790/790
f 791/791 792/792 790/790
f 793/793 795/795 794/794
f 795/795 796/796 794/794
f 797/797 799/799 798/798
f 799/799 800/800 798/798
v 1.02892 0.74000 1.69185
v 0.98375 0.74000 1.62583
v 1.02892 0.66000 1.69185
v 0.98375 0.66000 1.62583
v 0.57108 0.74000 1.90815
v 0.61625 0.74000 1.97417
v 0.57108 0.66000 1.90815
v 0.61625 0.66000 1.97417
v 0.57108 0.74000 1.90815
v 0.98375 0.74000 1.62583
v 0.61625 0.74000 1.97417
v 1.02892 0.74000 1.69185
v 0.61625 0.66000 1.97417
v 1.02892 0.66000 1.69185
v 0.57108 0.66000 1.90815
v 0.98375 0.66000 1.62583
v 0.61625 0.74000 1.97417
v 1.02892 0.74000 1.69185
v 0.61625 0.66000 1.97417
v 1.02892 0.66000 1.69185
v 0.98375 0.74000 1.62583
v 0.57108 0.74000 1.90815
v 0.98375 0.66000 1.62583
v 0.57108 0.66000 1.90815
vt 0.00000 0.00000
vt 1.00000 0.00000
vt 0.00000 1.00000
vt 1.00000 1.00000
vt 0.00000 0.00000
vt 1.00000 0.00000
vt 0.00000 1.00000
vt 1.00000 1.00000
vt 0.00000 0.00000
vt 1.00000 0.00000
vt 0.00000 1.00000
vt 1.00000 1.00000
vt 0.00000 0.00000
vt 1.00000 0.00000
vt 0.00000 1.00000
vt 1.00000 1.00000
vt 0.00000 0.00000
vt 1.00000 0.00000
vt 0.00000 1.00000
vt 1.00000 1.00000
vt 0.00000 0.00000
vt 1.00000 0.00000
vt 0.00000 1.00000
vt 1.00000 1.00000
f 801/801 803/803 802/802
f 803/803 804/804 802/802
f 805/805 807/807 806/806
f 807/807 808/808 806/806
f 809/809 811/811 810/810
f 811/811 812/812 810/810
f 813/813 815/815 814/814
f 815/815 816/816 814/814
f 817/817 819/819 818/818
f 819/819 820/820 818/818
f 821/821 823/823 822/822
f 823/823 824/824 822/822
v -9.50000 5.50000 6.08000
v -9.47528 5.50000 6.07608
v -9.45298 5.50000 6.06472
v -9.43528 5.50000 6.04702
v -9.42392 5.50000 6.02472
v -9.42000 5.50000 6.00000
v -9.42392 5.50000 5.97528
v -9.43528 5.50000 5.95298
v -9.45298 5.50000 5.93528
v -9.47528 5.50000 5.92392
v -9.50000 5.50000 5.92000
v -9.52472 5.50000 5.92392
v -9.54702 5.50000 5.93528
v -9.56472 5.50000 5.95298
v -9.57608 5.50000 5.97528
v -9.58000 5.50000 6.00000
v -9.57608 5.50000 6.02472
v -9.56472 5.50000 6.04702
v -9.54702 5.50000 6.06472
v -9.52472 5.50000 6.07608
v -9.50000 5.50000 6.08000
v -9.50000 0.00000 6.08000
v -9.47528 0.00000 6.07608
v -9.45298 0.00000 6.06472
v -9.43528 0.00000 6.04702
v -9.42392 0.00000 6.02472
v -9.42000 0.00000 6.00000
v -9.42392 0.00000 5.97528
v -9.43528 0.00000 5.95298
v -9.45298 0.00000 5.93528
v -9.47528 0.00000 5.92392
v -9.50000 0.00000 5.92000
v -9.52472 0.00000 5.92392
v -9.54702 0.00000 5.93528
v -9.56472 0.00000 5.95298
v -9.57608 0.00000 5.97528
v -9.58000 0.00000 6.00000
v -9.57608 0.00000 6.02472
v -9.56472 0.00000 6.04702
v -9.54702 0.00000 6.06472
v -9.52472 0.00000 6.07608
v -9.50000 0.00000 6.08000
v -9.50000 5.50000 6.00000
v -9.50000 5.50000 6.00000
v -9.50000 5.50000 6.00000
v -9.50000 5.50000 6.00000
v -9.50000 5.50000 6.00000
v -9.50000 5.50000 6.00000
v -9.50000 5.50000 6.00000
v -9.50000 5.50000 6.00000
v -9.50000 5.50000 6.00000
v -9.50000 5.50000 6.00000
v -9.50000 5.50000 6.00000
v -9.50000 5.50000 6.00000
v -9.50000 5.50000 6.00000
v -9.50000 5.50000 6.00000
v -9.50000 5.50000 6.00000
v -9.50000 5.50000 6.00000
v -9.50000 5.50000 6.00000
v -9.50000 5.50000 6.00000
v -9.50000 5.50000 6.00000
v -9.50000 5.50000 6.00000
v -9.50000 5.50000 6.08000
v -9.47528 5.50000 6.07608
v -9.45298 5.50000 6.06472
v -9.43528 5.50000 6.04702
v -9.42392 5.50000 6.02472
v -9.42000 5.50000 6.00000
v -9.42392 5.50000 5.97528
v -9.43528 5.50000 5.95298
v -9.45298 5.50000 5.93528
v -9.47528 5.50000 5.92392
v -9.50000 5.50000 5.92000
v -9.52472 5.50000 5.92392
v -9.54702 5.50000 5.93528
v -9.56472 5.50000 5.95298
v -9.57608 5.50000 5.97528
v -9.58000 5.50000 6.00000
v -9.57608 5.50000 6.02472
v -9.56472 5.50000 6.04702
v -9.54702 5.50000 6.06472
v -9.52472 5.50000 6.07608
v -9.50000 5.50000 6.08000
v -9.50000 0.00000 6.00000
v -9.50000 0.00000 6.00000
v -9.50000 0.00000 6.00000
v -9.50000 0.00000 6.00000
v -9.50000 0.00000 6.00000
v -9.50000 0.00000 6.00000
v -9.50000 0.00000 6.00000
v -9.50000 0.00000 6.00000
v -9.50000 0.00000 6.00000
v -9.50000 0.00000 6.00000
v -9.50000 0.00000 6.00000
v -9.50000 0.00000 6.00000
v -9.50000 0.00000 6.00000
v -9.50000 0.00000 6.00000
v -9.50000 0.00000 6.00000
v -9.50000 0.00000 6.00000
v -9.50000 0.00000 6.00000
v -9.50000 0.00000 6.00000
v -9.50000 0.00000 6.00000
v -9.50000 0.00000 6.00000
v -9.50000 0.00000 6.08000
v -9.47528 0.00000 6.07608
v -9.45298 0.00000 6.06472
v -9.43528 0.00000 6.04702
v -9.42392 0.00000 6.02472
v -9.42000 0.00000 6.00000
v -9.42392 0.00000 5.97528
v -9.43528 0.00000 5.95298
v -9.45298 0.00000 5.93528
v -9.47528 0.00000 5.92392
v -9.50000 0.00000 5.92000
v -9.52472 0.00000 5.92392
v -9.54702 0.00000 5.93528
v -9.56472 0.00000 5.95298
v -9.57608 0.00000 5.97528
v -9.58000 0.00000 6.00000
v -9.57608 0.00000 6.02472
v -9.56472 0.00000 6.04702
v -9.54702 0.00000 6.06472
v -9.52472 0.00000 6.07608
v -9.50000 0.00000 6.08000
vt 0.00000 0.00000
vt 0.05000 0.00000
vt 0.10000 0.00000
vt 0.15000 0.00000
vt 0.20000 0.00000
vt 0.25000 0.00000
vt 0.30000 0.00000
vt 0.35000 0.00000
vt 0.40000 0.00000
vt 0.45000 0.00000
vt 0.50000 0.00000
vt 0.55000 0.00000
vt 0.60000 0.00000
vt 0.65000 0.00000
vt 0.70000 0.00000
vt 0.75000 0.00000
vt 0.80000 0.00000
vt 0.85000 0.00000
vt 0.90000 0.00000
vt 0.95000 0.00000
vt 1.00000 0.00000
vt 0.00000 1.00000
vt 0.05000 1.00000
vt 0.10000 1.00000
vt 0.15000 1.00000
vt 0.20000 1.00000
vt 0.25000 1.00000
vt 0.30000 1.00000
vt 0.35000 1.00000
vt 0.40000 1.00000
vt 0.45000 1.00000
vt 0.50000 1.00000
vt 0.55000 1.00000
vt 0.60000 1.00000
vt 0.65000 1.00000
vt 0.70000 1.00000
vt 0.75000 1.00000
vt 0.80000 1.00000
vt 0.85000 1.00000
vt 0.90000 1.00000
vt 0.95000 1.00000
vt 1.00000 1.00000
vt 0.50000 0.50000
vt 0.50000 0.50000
vt 0.50000 0.50000
vt 0.50000 0.50000
vt 0.50000 0.50000
vt 0.50000 0.50000
vt 0.50000 0.50000
vt 0.50000 0.50000
vt 0.50000 0.50000
vt 0.50000 0.50000
vt 0.50000 0.50000
vt 0.50000 0.50000
vt 0.50000 0.50000
vt 0.50000 0.50000
vt 0.50000 0.50000
vt 0.50000 0.50000
vt 0.50000 0.50000
vt 0.50000 0.50000
vt 0.50000 0.50000
vt 0.50000 0.50000
vt 1.00000 0.50000
vt 0.97553 0.34549
vt 0.90451 0.20611
vt 0.79389 0.09549
vt 0.65451 0.02447
vt 0.50000 0.00000
vt 0.34549 0.02447
vt 0.20611 0.09549
vt 0.09549 0.20611
vt 0.02447 0.34549
vt 0.00000 0.50000
vt 0.02447 0.65451
vt 0.09549 0.79389
vt 0.20611 0.90451
vt 0.34549 0.97553
vt 0.50000 1.00000
vt 0.65451 0.97553
vt 0.79389 0.90451
vt 0.90451 0.79389
vt 0.97553 0.65451
vt 1.00000 0.50000
vt 0.50000 0.50000
vt 0.50000 0.50000
vt 0.50000 0.50000
vt 0.50000 0.50000
vt 0.50000 0.50000
vt 0.50000 0.50000
vt 0.50000 0.50000
vt 0.50000 0.50000
vt 0.50000 0.50000
vt 0.50000 0.50000
vt 0.50000 0.50000
vt 0.50000 0.50000
vt 0.50000 0.50000
vt 0.50000 0.50000
vt 0.50000 0.50000
vt 0.50000 0.50000
vt 0.50000 0.50000
vt 0.50000 0.50000
vt 0.50000 0.50000
vt 0.50000 0.50000
vt 1.00000 0.50000
vt 0.97553 0.65451
vt 0.90451 0.79389
vt 0.79389 0.90451
vt 0.65451 0.97553
vt 0.50000 1.00000
vt 0.34549 0.97553
vt 0.20611 0.90451
vt 0.09549 0.79389
vt 0.02447 0.65451
vt 0.00000 0.50000
vt 0.02447 0.34549
vt 0.09549 0.20611
vt 0.20611 0.09549
vt 0.34549 0.02447
vt 0.50000 0.00000
vt 0.65451 0.02447
vt 0.79389 0.09549
vt 0.90451 0.20611
vt 0.97553 0.34549
vt 1.00000 0.50000
f 825/825 846/846 826/826
f 846/846 847/847 826/826
f 826/826 847/847 827/827
f 847/847 848/848 827/827
f 827/827 848/848 828/828
f 848/848 849/849 828/828
f 828/828 849/849 829/829
f 849/849 850/850 829/829
f 829/829 850/850 830/830
f 850/850 851/851 830/830
f 830/830 851/851 831/831
f 851/851 852/852 831/831
f 831/831 852/852 832/832
f 852/852 853/853 832/832
f 832/832 853/853 833/833
f 853/853 854/854 833/833
f 833/833 854/854 834/834
f 854/854 855/855 834/834
f 834/834 855/855 835/835
f 855/855 856/856 835/835
f 835/835 856/856 836/836
f 856/856 857/857 836/836
f 836/836 857/857 837/837
f 857/857 858/858 837/837
f 837/837 858/858 838/838
f 858/858 859/859 838/838
f 838/838 859/859 839/839
f 859/859 860/860 839/839
f 839/839 860/860 840/840
f 860/860 861/861 840/840
f 840/840 861/861 841/841
f 861/861 862/862 841/841
f 841/841 862/862 842/842
f 862/862 863/863 842/842
f 842/842 863/863 843/843
f 863/863 864/864 843/843
f 843/843 864/864 844/844
f 864/864 865/865 844/844
f 844/844 865/865 845/845
f 865/865 866/866 845/845
f 887/887 888/888 867/867
f 888/888 889/889 868/868
f 889/889 890/890 869/869
f 890/890 891/891 870/870
f 891/891 892/892 871/871
f 892/892 893/893 872/872
f 893/893 894/894 873/873
f 894/894 895/895 874/874
f 895/895 896/896 875/875
f 896/896 897/897 876/876
f 897/897 898/898 877/877
f 898/898 899/899 878/878
f 899/899 900/900 879/879
f 900/900 901/901 880/880
f 901/901 902/902 881/881
f 902/902 903/903 882/882
f 903/903 904/904 883/883
f 904/904 905/905 884/884
f 905/905 906/906 885/885
f 906/906 907/907 886/886
f 929/929 928/928 908/908
f 930/930 929/929 909/909
f 931/931 930/930 910/910
f 932/932 931/931 911/911
f 933/933 932/932 912/912
f 934/934 933/933 913/913
f 935/935 934/934 914/914
f 936/936 935/935 915/915
f 937/937 936/936 916/916
f 938/938 937/937 917/917
f 939/939 938/938 918/918
f 940/940 939/939 919/919
f 941/941 940/940 920/920
f 942/942 941/941 921/921
f 943/943 942/942 922/922
f 944/944 943/943 923/923
f 945/945 944/944 924/924
f 946/946 945/945 925/925
f 947/947 946/946 926/926
f 948/948 947/947 927/927
usemtl accent_red
v 3.10000 4.60000 3.00000
v 3.10000 4.60000 2.85000
v 3.10000 4.10000 3.00000
v 3.10000 4.10000 2.85000
v -5.10000 4.60000 2.85000
v -5.10000 4.60000 3.00000
v -5.10000 4.10000 2.85000
v -5.10000 4.10000 3.00000
v -5.10000 4.60000 2.85000
v 3.10000 4.60000 2.85000
v -5.10000 4.60000 3.00000
v 3.10000 4.60000 3.00000
v -5.10000 4.10000 3.00000
v 3.10000 4.10000 3.00000
v -5.10000 4.10000 2.85000
v 3.10000 4.10000 2.85000
v -5.10000 4.60000 3.00000
v 3.10000 4.60000 3.00000
v -5.10000 4.10000 3.00000
v 3.10000 4.10000 3.00000
v 3.10000 4.60000 2.85000
v -5.10000 4.60000 2.85000
v 3.10000 4.10000 2.85000
v -5.10000 4.10000 2.85000
vt 0.00000 0.00000
vt 1.00000 0.00000
vt 0.00000 1.00000
vt 1.00000 1.00000
vt 0.00000 0.00000
vt 1.00000 0.00000
vt 0.00000 1.00000
vt 1.00000 1.00000
vt 0.00000 0.00000
vt 1.00000 0.00000
vt 0.00000 1.00000
vt 1.00000 1.00000
vt 0.00000 0.00000
vt 1.00000 0.00000
vt 0.00000 1.00000
vt 1.00000 1.00000
vt 0.00000 0.00000
vt 1.00000 0.00000
vt 0.00000 1.00000
vt 1.00000 1.00000
vt 0.00000 0.00000
vt 1.00000 0.00000
vt 0.00000 1.00000
vt 1.00000 1.00000
f 949/949 951/951 950/950
f 951/951 952/952 950/950
f 953/953 955/955 954/954
f 955/955 956/956 954/954
f 957/957 959/959 958/958
f 959/959 960/960 958/958
f 961/961 963/963 962/962
f 963/963 964/964 962/962
f 965/965 967/967 966/966
f 967/967 968/968 966/966
f 969/969 971/971 970/970
f 971/971 972/972 970/970
v -4.92500 4.60000 3.00000
v -4.92500 4.60000 1.20000
v -4.92500 4.10000 3.00000
v -4.92500 4.10000 1.20000
v -5.07500 4.60000 1.20000
v -5.07500 4.60000 3.00000
v -5.07500 4.10000 1.20000
v -5.07500 4.10000 3.00000
v -5.07500 4.60000 1.20000
v -4.92500 4.60000 1.20000
v -5.07500 4.60000 3.00000
v -4.92500 4.60000 3.00000
v -5.07500 4.10000 3.00000
v -4.92500 4.10000 3.00000
v -5.07500 4.10000 1.20000
v -4.92500 4.10000 1.20000
v -5.07500 4.60000 3.00000
v -4.92500 4.60000 3.00000
v -5.07500 4.10000 3.00000
v -4.92500 4.10000 3.00000
v -4.92500 4.60000 1.20000
v -5.07500 4.60000 1.20000
v -4.92500 4.10000 1.20000
v -5.07500 4.10000 1.20000
vt 0.00000 0.00000
vt 1.00000 0.00000
vt 0.00000 1.00000
vt 1.00000 1.00000
vt 0.00000 0.00000
vt 1.00000 0.00000
vt 0.00000 1.00000
vt 1.00000 1.00000
vt 0.00000 0.00000
vt 1.00000 0.00000
vt 0.00000 1.00000
vt 1.00000 1.00000
vt 0.00000 0.00000
vt 1.00000 0.00000
vt 0.00000 1.00000
vt 1.00000 1.00000
vt 0.00000 0.00000
vt 1.00000 0.00000
vt 0.00000 1.00000
vt 1.00000 1.00000
vt 0.00000 0.00000
vt 1.00000 0.00000
vt 0.00000 1.00000
vt 1.00000 1.00000
f 973/973 975/975 974/974
f 975/975 976/976 974/974
f 977/977 979/979 978/978
f 979/979 980/980 978/978
f 981/981 983/983 982/982
f 983/983 984/984 982/982
f 985/985 987/987 986/986
f 987/987 988/988 986/986
f 989/989 991/991 990/990
f 991/991 992/992 990/990
f 993/993 995/995 994/994
f 995/995 996/996 994/994
v 3.07500 4.60000 3.00000
v 3.07500 4.60000 1.20000
v 3.07500 4.10000 3.00000
v 3.07500 4.10000 1.20000
v 2.92500 4.60000 1.20000
v 2.92500 4.60000 3.00000
v 2.92500 4.10000 1.20000
v 2.92500 4.10000 3.00000
v 2.92500 4.60000 1.20000
v 3.07500 4.60000 1.20000
v 2.92500 4.60000 3.00000
v 3.07500 4.60000 3.00000
v 2.92500 4.10000 3.00000
v 3.07500 4.10000 3.00000
v 2.92500 4.10000 1.20000
v 3.07500 4.10000 1.20000
v 2.92500 4.60000 3.00000
v 3.07500 4.60000 3.00000
v 2.92500 4.10000 3.00000
v 3.07500 4.10000 3.00000
v 3.07500 4.60000 1.20000
v 2.92500 4.60000 1.20000
v 3.07500 4.10000 1.20000
v 2.92500 4.10000 1.20000
vt 0.00000 0.00000
vt 1.00000 0.00000
vt 0.00000 1.00000
vt 1.00000 1.00000
vt 0.00000 0.00000
vt 1.00000 0.00000
vt 0.00000 1.00000
vt 1.00000 1.00000
vt 0.00000 0.00000
vt 1.00000 0.00000
vt 0.00000 1.00000
vt 1.00000 1.00000
vt 0.00000 0.00000
vt 1.00000 0.00000
vt 0.00000 1.00000
vt 1.00000 1.00000
vt 0.00000 0.00000
vt 1.00000 0.00000
vt 0.00000 1.00000
vt 1.00000 1.00000
vt 0.00000 0.00000
vt 1.00000 0.00000
vt 0.00000 1.00000
vt 1.00000 1.00000
f 997/997 999/999 998/998
f 999/999 1000/1000 998/998
f 1001/1001 1003/1003 1002/1002
f 1003/1003 1004/1004 1002/1002
f 1005/1005 1007/1007 1006/1006
f 1007/1007 1008/1008 1006/1006
f 1009/1009 1011/1011 1010/1010
f 1011/1011 1012/1012 1010/1010
f 1013/1013 1015/1015 1014/1014
f 1015/1015 1016/1016 1014/1014
f 1017/1017 1019/1019 1018/1018
f 1019/1019 1020/1020 1018/1018
v -2.50000 1.52500 1.85000
v -2.42275 1.52500 1.83776
v -2.35305 1.52500 1.80225
v -2.29775 1.52500 1.74695
v -2.26224 1.52500 1.67725
v -2.25000 1.52500 1.60000
v -2.26224 1.52500 1.52275
v -2.29775 1.52500 1.45305
v -2.35305 1.52500 1.39775
v -2.42275 1.52500 1.36224
v -2.50000 1.52500 1.35000
v -2.57725 1.52500 1.36224
v -2.64695 1.52500 1.39775
v -2.70225 1.52500 1.45305
v -2.73776 1.52500 1.52275
v -2.75000 1.52500 1.60000
v -2.73776 1.52500 1.67725
v -2.70225 1.52500 1.74695
v -2.64695 1.52500 1.80225
v -2.57725 1.52500 1.83776
v -2.50000 1.52500 1.85000
v -2.50000 1.37500 1.85000
v -2.42275 1.37500 1.83776
v -2.35305 1.37500 1.80225
v -2.29775 1.37500 1.74695
v -2.26224 1.37500 1.67725
v -2.25000 1.37500 1.60000
v -2.26224 1.37500 1.52275
v -2.29775 1.37500 1.45305
v -2.35305 1.37500 1.39775
v -2.42275 1.37500 1.36224
v -2.50000 1.37500 1.35000
v -2.57725 1.37500 1.36224
v -2.64695 1.37500 1.39775
v -2.70225 1.37500 1.45305
v -2.73776 1.37500 1.52275
v -2.75000 1.37500 1.60000
v -2.73776 1.37500 1.67725
v -2.70225 1.37500 1.74695
v -2.64695 1.37500 1.80225
v -2.57725 1.37500 1.83776
v -2.50000 1.37500 1.85000
v -2.50000 1.52500 1.60000
v -2.50000 1.52500 1.60000
v -2.50000 1.52500 1.60000
v -2.50000 1.52500 1.60000
v -2.50000 1.52500 1.60000
v -2.50000 1.52500 1.60000
v -2.50000 1.52500 1.60000
v -2.50000 1.52500 1.60000
v -2.50000 1.52500 1.60000
v -2.50000 1.52500 1.60000
v -2.50000 1.52500 1.60000
v -2.50000 1.52500 1.60000
v -2.50000 1.52500 1.60000
v -2.50000 1.52500 1.60000
v -2.50000 1.52500 1.60000
v -2.50000 1.52500 1.60000
v -2.50000 1.52500 1.60000
v -2.50000 1.52500 1.60000
v -2.50000 1.52500 1.60000
v -2.50000 1.52500 1.60000
v -2.50000 1.52500 1.85000
v -2.42275 1.52500 1.83776
v -2.35305 1.52500 1.80225
v -2.29775 1.52500 1.74695
v -2.26224 1.52500 1.67725
v -2.25000 1.52500 1.60000
v -2.26224 1.52500 1.52275
v -2.29775 1.52500 1.45305
v -2.35305 1.52500 1.39775
v -2.42275 1.52500 1.36224
v -2.50000 1.52500 1.35000
v -2.57725 1.52500 1.36224
v -2.64695 1.52500 1.39775
v -2.70225 1.52500 1.45305
v -2.73776 1.52500 1.52275
v -2.75000 1.52500 1.60000
v -2.73776 1.52500 1.67725
v -2.70225 1.52500 1.74695
v -2.64695 1.52500 1.80225
v -2.57725 1.52500 1.83776
v -2.50000 1.52500 1.85000
v -2.50000 1.37500 1.60000
v -2.50000 1.37500 1.60000
v -2.50000 1.37500 1.60000
v -2.50000 1.37500 1.60000
v -2.50000 1.37500 1.60000
v -2.50000 1.37500 1.60000
v -2.50000 1.37500 1.60000
v -2.50000 1.37500 1.60000
v -2.50000 1.37500 1.60000
v -2.50000 1.37500 1.60000
v -2.50000 1.37500 1.60000
v -2.50000 1.37500 1.60000
v -2.50000 1.37500 1.60000
v -2.50000 1.37500 1.60000
v -2.50000 1.37500 1.60000
v -2.50000 1.37500 1.60000
v -2.50000 1.37500 1.60000
v -2.50000 1.37500 1.60000
v -2.50000 1.37500 1.60000
v -2.50000 1.37500 1.60000
v -2.50000 1.37500 1.85000
v -2.42275 1.37500 1.83776
v -2.35305 1.37500 1.80225
v -2.29775 1.37500 1.74695
v -2.26224 1.37500 1.67725
v -2.25000 1.37500 1.60000
v -2.26224 1.37500 1.52275
v -2.29775 1.37500 1.45305
v -2.35305 1.37500 1.39775
v -2.42275 1.37500 1.36224
v -2.50000 1.37500 1.35000
v -2.57725 1.37500 1.36224
v -2.64695 1.37500 1.39775
v -2.70225 1.37500 1.45305
v -2.73776 1.37500 1.52275
v -2.75000 1.37500 1.60000
v -2.73776 1.37500 1.67725
v -2.70225 1.37500 1.74695
v -2.64695 1.37500 1.80225
v -2.57725 1.37500 1.83776
v -2.50000 1.37500 1.85000
vt 0.00000 0.00000
vt 0.05000 0.00000
vt 0.10000 0.00000
vt 0.15000 0.00000
vt 0.20000 0.00000
vt 0.25000 0.00000
vt 0.30000 0.00000
vt 0.35000 0.00000
vt 0.40000 0.00000
vt 0.45000 0.00000
vt 0.50000 0.00000
vt 0.55000 0.00000
vt 0.60000 0.00000
vt 0.65000 0.00000
vt 0.70000 0.00000
vt 0.75000 0.00000
vt 0.80000 0.00000
vt 0.85000 0.00000
vt 0.90000 0.00000
vt 0.95000 0.00000
vt 1.00000 0.00000
vt 0.00000 1.00000
vt 0.05000 1.00000
vt 0.10000 1.00000
vt 0.15000 1.00000
vt 0.20000 1.00000
vt 0.25000 1.00000
vt 0.30000 1.00000
vt 0.35000 1.00000
vt 0.40000 1.00000
vt 0.45000 1.00000
vt 0.50000 1.00000
vt 0.55000 1.00000
vt 0.60000 1.00000
vt 0.65000 1.00000
vt 0.70000 1.00000
vt 0.75000 1.00000
vt 0.80000 1.00000
vt 0.85000 1.00000
vt 0.90000 1.00000
vt 0.95000 1.00000
vt 1.00000 1.00000
vt 0.50000 0.50000
vt 0.50000 0.50000
vt 0.50000 0.50000
vt 0.50000 0.50000
vt 0.50000 0.50000
vt 0.50000 0.50000
vt 0.50000 0.50000
vt 0.50000 0.50000
vt 0.50000 0.50000
vt 0.50000 0.50000
vt 0.50000 0.50000
vt 0.50000 0.50000
vt 0.50000 0.50000
vt 0.50000 0.50000
vt 0.50000 0.50000
vt 0.50000 0.50000
vt 0.50000 0.50000
vt 0.50000 0.50000
vt 0.50000 0.50000
vt 0.50000 0.50000
vt 1.00000 0.50000
vt 0.97553 0.34549
vt 0.90451 0.20611
vt 0.79389 0.09549
vt 0.65451 0.02447
vt 0.50000 0.00000
vt 0.34549 0.02447
vt 0.20611 0.09549
vt 0.09549 0.20611
vt 0.02447 0.34549
vt 0.00000 0.50000
vt 0.02447 0.65451
vt 0.09549 0.79389
vt 0.20611 0.90451
vt 0.34549 0.97553
vt 0.50000 1.00000
vt 0.65451 0.97553
vt 0.79389 0.90451
vt 0.90451 0.79389
vt 0.97553 0.65451
vt 1.00000 0.50000
vt 0.50000 0.50000
vt 0.50000 0.50000
vt 0.50000 0.50000
vt 0.50000 0.50000
vt 0.50000 0.50000
vt 0.50000 0.50000
vt 0.50000 0.50000
vt 0.50000 0.50000
vt 0.50000 0.50000
vt 0.50000 0.50000
vt 0.50000 0.50000
vt 0.50000 0.50000
vt 0.50000 0.50000
vt 0.50000 0.50000
vt 0.50000 0.50000
vt 0.50000 0.50000
vt 0.50000 0.50000
vt 0.50000 0.50000
vt 0.50000 0.50000
vt 0.50000 0.50000
vt 1.00000 0.50000
vt 0.97553 0.65451
vt 0.90451 0.79389
vt 0.79389 0.90451
vt 0.65451 0.97553
vt 0.50000 1.00000
vt 0.34549 0.97553
vt 0.20611 0.90451
vt 0.09549 0.79389
vt 0.02447 0.65451
vt 0.00000 0.50000
vt 0.02447 0.34549
vt 0.09549 0.20611
vt 0.20611 0.09549
vt 0.34549 0.02447
vt 0.50000 0.00000
vt 0.65451 0.02447
vt 0.79389 0.09549
vt 0.90451 0.20611
vt 0.97553 0.34549
vt 1.00000 0.50000
f 1021/1021 1042/1042 1022/1022
f 1042/1042 1043/1043 1022/1022
f 1022/1022 1043/1043 1023/1023
f 1043/1043 1044/1044 1023/1023
f 1023/1023 1044/1044 1024/1024
f 1044/1044 1045/1045 1024/1024
f 1024/1024 1045/1045 1025/1025
f 1045/1045 1046/1046 1025/1025
f 1025/1025 1046/1046 1026/1026
f 1046/1046 1047/1047 1026/1026
f 1026/1026 1047/1047 1027/1027
f 1047/1047 1048/1048 1027/1027
f 1027/1027 1048/1048 1028/1028
f 1048/1048 1049/1049 1028/1028
f 1028/1028 1049/1049 1029/1029
f 1049/1049 1050/1050 1029/1029
f 1029/1029 1050/1050 1030/1030
f 1050/1050 1051/1051 1030/1030
f 1030/1030 1051/1051 1031/1031
f 1051/1051 1052/1052 1031/1031
f 1031/1031 1052/1052 1032/1032
f 1052/1052 1053/1053 1032/1032
f 1032/1032 1053/1053 1033/1033
f 1053/1053 1054/1054 1033/1033
f 1033/1033 1054/1054 1034/1034
f 1054/1054 1055/1055 1034/1034
f 1034/1034 1055/1055 1035/1035
f 1055/1055 1056/1056 1035/1035
f 1035/1035 1056/1056 1036/1036
f 1056/1056 1057/1057 1036/1036
f 1036/1036 1057/1057 1037/1037
f 1057/1057 1058/1058 1037/1037
f 1037/1037 1058/1058 1038/1038
f 1058/1058 1059/1059 1038/1038
f 1038/1038 1059/1059 1039/1039
f 1059/1059 1060/1060 1039/1039
f 1039/1039 1060/1060 1040/1040
f 1060/1060 1061/1061 1040/1040
f 1040/1040 1061/1061 1041/1041
f 1061/1061 1062/1062 1041/1041
f 1083/1083 1084/1084 1063/1063
f 1084/1084 1085/1085 1064/1064
f 1085/1085 1086/1086 1065/1065
f 1086/1086 1087/1087 1066/1066
f 1087/1087 1088/1088 1067/1067
f 1088/1088 1089/1089 1068/1068
f 1089/1089 1090/1090 1069/1069
f 1090/1090 1091/1091 1070/1070
f 1091/1091 1092/1092 1071/1071
f 1092/1092 1093/1093 1072/1072
f 1093/1093 1094/1094 1073/1073
f 1094/1094 1095/1095 1074/1074
f 1095/1095 1096/1096 1075/1075
f 1096/1096 1097/1097 1076/1076
f 1097/1097 1098/1098 1077/1077
f 1098/1098 1099/1099 1078/1078
f 1099/1099 1100/1100 1079/1079
f 1100/1100 1101/1101 1080/1080
f 1101/1101 1102/1102 1081/1081
f 1102/1102 1103/1103 1082/1082
f 1125/1125 1124/1124 1104/1104
f 1126/1126 1125/1125 1105/1105
f 1127/1127 1126/1126 1106/1106
f 1128/1128 1127/1127 1107/1107
f 1129/1129 1128/1128 1108/1108
f 1130/1130 1129/1129 1109/1109
f 1131/1131 1130/1130 1110/1110
f 1132/1132 1131/1131 1111/1111
f 1133/1133 1132/1132 1112/1112
f 1134/1134 1133/1133 1113/1113
f 1135/1135 1134/1134 1114/1114
f 1136/1136 1135/1135 1115/1115
f 1137/1137 1136/1136 1116/1116
f 1138/1138 1137/1137 1117/1117
f 1139/1139 1138/1138 1118/1118
f 1140/1140 1139/1139 1119/1119
f 1141/1141 1140/1140 1120/1120
f 1142/1142 1141/1141 1121/1121
f 1143/1143 1142/1142 1122/1122
f 1144/1144 1143/1143 1123/1123
v 0.50000 1.52500 1.85000
v 0.57725 1.52500 1.83776
v 0.64695 1.52500 1.80225
v 0.70225 1.52500 1.74695
v 0.73776 1.52500 1.67725
v 0.75000 1.52500 1.60000
v 0.73776 1.52500 1.52275
v 0.70225 1.52500 1.45305
v 0.64695 1.52500 1.39775
v 0.57725 1.52500 1.36224
v 0.50000 1.52500 1.35000
v 0.42275 1.52500 1.36224
v 0.35305 1.52500 1.39775
v 0.29775 1.52500 1.45305
v 0.26224 1.52500 1.52275
v 0.25000 1.52500 1.60000
v 0.26224 1.52500 1.67725
v 0.29775 1.52500 1.74695
v 0.35305 1.52500 1.80225
v 0.42275 1.52500 1.83776
v 0.50000 1.52500 1.85000
v 0.50000 1.37500 1.85000
v 0.57725 1.37500 1.83776
v 0.64695 1.37500 1.80225
v 0.70225 1.37500 1.74695
v 0.73776 1.37500 1.67725
v 0.75000 1.37500 1.60000
v 0.73776 1.37500 1.52275
v 0.70225 1.37500 1.45305
v 0.64695 1.37500 1.39775
v 0.57725 1.37500 1.36224
v 0.50000 1.37500 1.35000
v 0.42275 1.37500 1.36224
v 0.35305 1.37500 1.39775
v 0.29775 1.37500 1.45305
v 0.26224 1.37500 1.52275
v 0.25000 1.37500 1.60000
v 0.26224 1.37500 1.67725
v 0.29775 1.37500 1.74695
v 0.35305 1.37500 1.80225
v 0.42275 1.37500 1.83776
v 0.50000 1.37500 1.85000
v 0.50000 1.52500 1.60000
v 0.50000 1.52500 1.60000
v 0.50000 1.52500 1.60000
v 0.50000 1.52500 1.60000
v 0.50000 1.52500 1.60000
v 0.50000 1.52500 1.60000
v 0.50000 1.52500 1.60000
v 0.50000 1.52500 1.60000
v 0.50000 1.52500 1.60000
v 0.50000 1.52500 1.60000
v 0.50000 1.52500 1.60000
v 0.50000 1.52500 1.60000
v 0.50000 1.52500 1.60000
v 0.50000 1.52500 1.60000
v 0.50000 1.52500 1.60000
v 0.50000 1.52500 1.60000
v 0.50000 1.52500 1.60000
v 0.50000 1.52500 1.60000
v 0.50000 1.52500 1.60000
v 0.50000 1.52500 1.60000
v 0.50000 1.52500 1.85000
v 0.57725 1.52500 1.83776
v 0.64695 1.52500 1.80225
v 0.70225 1.52500 1.74695
v 0.73776 1.52500 1.67725
v 0.75000 1.52500 1.60000
v 0.73776 1.52500 1.52275
v 0.70225 1.52500 1.45305
v 0.64695 1.52500 1.39775
v 0.57725 1.52500 1.36224
v 0.50000 1.52500 1.35000
v 0.42275 1.52500 1.36224
v 0.35305 1.52500 1.39775
v 0.29775 1.52500 1.45305
v 0.26224 1.52500 1.52275
v 0.25000 1.52500 1.60000
v 0.26224 1.52500 1.67725
v 0.29775 1.52500 1.74695
v 0.35305 1.52500 1.80225
v 0.42275 1.52500 1.83776
v 0.50000 1.52500 1.85000
v 0.50000 1.37500 1.60000
v 0.50000 1.37500 1.60000
v 0.50000 1.37500 1.60000
v 0.50000 1.37500 1.60000
v 0.50000 1.37500 1.60000
v 0.50000 1.37500 1.60000
v 0.50000 1.37500 1.60000
v 0.50000 1.37500 1.60000
v 0.50000 1.37500 1.60000
v 0.50000 1.37500 1.60000
v 0.50000 1.37500 1.60000
v 0.50000 1.37500 1.60000
v 0.50000 1.37500 1.60000
v 0.50000 1.37500 1.60000
v 0.50000 1.37500 1.60000
v 0.50000 1.37500 1.60000
v 0.50000 1.37500 1.60000
v 0.50000 1.37500 1.60000
v 0.50000 1.37500 1.60000
v 0.50000 1.37500 1.60000
v 0.50000 1.37500 1.85000
v 0.57725 1.37500 1.83776
v 0.64695 1.37500 1.80225
v 0.70225 1.37500 1.74695
v 0.73776 1.37500 1.67725
v 0.75000 1.37500 1.60000
v 0.73776 1.37500 1.52275
v 0.70225 1.37500 1.45305
v 0.64695 1.37500 1.39775
v 0.57725 1.37500 1.36224
v 0.50000 1.37500 1.35000
v 0.42275 1.37500 1.36224
v 0.35305 1.37500 1.39775
v 0.29775 1.37500 1.45305
v 0.26224 1.37500 1.52275
v 0.25000 1.37500 1.60000
v 0.26224 1.37500 1.67725
v 0.29775 1.37500 1.74695
v 0.35305 1.37500 1.80225
v 0.42275 1.37500 1.83776
v 0.50000 1.37500 1.85000
vt 0.00000 0.00000
vt 0.05000 0.00000
vt 0.10000 0.00000
vt 0.15000 0.00000
vt 0.20000 0.00000
vt 0.25000 0.00000
vt 0.30000 0.00000
vt 0.35000 0.00000
vt 0.40000 0.00000
vt 0.45000 0.00000
vt 0.50000 0.00000
vt 0.55000 0.00000
vt 0.60000 0.00000
vt 0.65000 0.00000
vt 0.70000 0.00000
vt 0.75000 0.00000
vt 0.80000 0.00000
vt 0.85000 0.00000
vt 0.90000 0.00000
vt 0.95000 0.00000
vt 1.00000 0.00000
vt 0.00000 1.00000
vt 0.05000 1.00000
vt 0.10000 1.00000
vt 0.15000 1.00000
vt 0.20000 1.00000
vt 0.25000 1.00000
vt 0.30000 1.00000
vt 0.35000 1.00000
vt 0.40000 1.00000
vt 0.45000 1.00000
vt 0.50000 1.00000
vt 0.55000 1.00000
vt 0.60000 1.00000
vt 0.65000 1.00000
vt 0.70000 1.00000
vt 0.75000 1.00000
vt 0.80000 1.00000
vt 0.85000 1.00000
vt 0.90000 1.00000
vt 0.95000 1.00000
vt 1.00000 1.00000
vt 0.50000 0.50000
vt 0.50000 0.50000
vt 0.50000 0.50000
vt 0.50000 0.50000
vt 0.50000 0.50000
vt 0.50000 0.50000
vt 0.50000 0.50000
vt 0.50000 0.50000
vt 0.50000 0.50000
vt 0.50000 0.50000
vt 0.50000 0.50000
vt 0.50000 0.50000
vt 0.50000 0.50000
vt 0.50000 0.50000
vt 0.50000 0.50000
vt 0.50000 0.50000
vt 0.50000 0.50000
vt 0.50000 0.50000
vt 0.50000 0.50000
vt 0.50000 0.50000
vt 1.00000 0.50000
vt 0.97553 0.34549
vt 0.90451 0.20611
vt 0.79389 0.09549
vt 0.65451 0.02447
vt 0.50000 0.00000
vt 0.34549 0.02447
vt 0.20611 0.09549
vt 0.09549 0.20611
vt 0.02447 0.34549
vt 0.00000 0.50000
vt 0.02447 0.65451
vt 0.09549 0.79389
vt 0.20611 0.90451
vt 0.34549 0.97553
vt 0.50000 1.00000
vt 0.65451 0.97553
vt 0.79389 0.90451
vt 0.90451 0.79389
vt 0.97553 0.65451
vt 1.00000 0.50000
vt 0.50000 0.50000
vt 0.50000 0.50000
vt 0.50000 0.50000
vt 0.50000 0.50000
vt 0.50000 0.50000
vt 0.50000 0.50000
vt 0.50000 0.50000
vt 0.50000 0.50000
vt 0.50000 0.50000
vt 0.50000 0.50000
vt 0.50000 0.50000
vt 0.50000 0.50000
vt 0.50000 0.50000
vt 0.50000 0.50000
vt 0.50000 0.50000
vt 0.50000 0.50000
vt 0.50000 0.50000
vt 0.50000 0.50000
vt 0.50000 0.50000
vt 0.50000 0.50000
vt 1.00000 0.50000
vt 0.97553 0.65451
vt 0.90451 0.79389
vt 0.79389 0.90451
vt 0.65451 0.97553
vt 0.50000 1.00000
vt 0.34549 0.97553
vt 0.20611 0.90451
vt 0.09549 0.79389
vt 0.02447 0.65451
vt 0.00000 0.50000
vt 0.02447 0.34549
vt 0.09549 0.20611
vt 0.20611 0.09549
vt 0.34549 0.02447
vt 0.50000 0.00000
vt 0.65451 0.02447
vt 0.79389 0.09549
vt 0.90451 0.20611
vt 0.97553 0.34549
vt 1.00000 0.50000
f 1145/1145 1166/1166 1146/1146
f 1166/1166 1167/1167 1146/1146
f 1146/1146 1167/1167 1147/1147
f 1167/1167 1168/1168 1147/1147
f 1147/1147 1168/1168 1148/1148
f 1168/1168 1169/1169 1148/1148
f 1148/1148 1169/1169 1149/1149
f 1169/1169 1170/1170 1149/1149
f 1149/1149 1170/1170 1150/1150
f 1170/1170 1171/1171 1150/1150
f 1150/1150 1171/1171 1151/1151
f 1171/1171 1172/1172 1151/1151
f 1151/1151 1172/1172 1152/1152
f 1172/1172 1173/1173 1152/1152
f 1152/1152 1173/1173 1153/1153
f 1173/1173 1174/1174 1153/1153
f 1153/1153 1174/1174 1154/1154
f 1174/1174 1175/1175 1154/1154
f 1154/1154 1175/1175 1155/1155
f 1175/1175 1176/1176 1155/1155
f 1155/1155 1176/1176 1156/1156
f 1176/1176 1177/1177 1156/1156
f 1156/1156 1177/1177 1157/1157
f 1177/1177 1178/1178 1157/1157
f 1157/1157 1178/1178 1158/1158
f 1178/1178 1179/1179 1158/1158
f 1158/1158 1179/1179 1159/1159
f 1179/1179 1180/1180 1159/1159
f 1159/1159 1180/1180 1160/1160
f 1180/1180 1181/1181 1160/1160
f 1160/1160 1181/1181 1161/1161
f 1181/1181 1182/1182 1161/1161
f 1161/1161 1182/1182 1162/1162
f 1182/1182 1183/1183 1162/1162
f 1162/1162 1183/1183 1163/1163
f 1183/1183 1184/1184 1163/1163
f 1163/1163 1184/1184 1164/1164
f 1184/1184 1185/1185 1164/1164
f 1164/1164 1185/1185 1165/1165
f 1185/1185 1186/1186 1165/1165
f 1207/1207 1208/1208 1187/1187
f 1208/1208 1209/1209 1188/1188
f 1209/1209 1210/1210 1189/1189
f 1210/1210 1211/1211 1190/1190
f 1211/1211 1212/1212 1191/1191
f 1212/1212 1213/1213 1192/1192
f 1213/1213 1214/1214 1193/1193
f 1214/1214 1215/1215 1194/1194
f 1215/1215 1216/1216 1195/1195
f 1216/1216 1217/1217 1196/1196
f 1217/1217 1218/1218 1197/1197
f 1218/1218 1219/1219 1198/1198
f 1219/1219 1220/1220 1199/1199
f 1220/1220 1221/1221 1200/1200
f 1221/1221 1222/1222 1201/1201
f 1222/1222 1223/1223 1202/1202
f 1223/1223 1224/1224 1203/1203
f 1224/1224 1225/1225 1204/1204
f 1225/1225 1226/1226 1205/1205
f 1226/1226 1227/1227 1206/1206
f 1249/1249 1248/1248 1228/1228
f 1250/1250 1249/1249 1229/1229
f 1251/1251 1250/1250 1230/1230
f 1252/1252 1251/1251 1231/1231
f 1253/1253 1252/1252 1232/1232
f 1254/1254 1253/1253 1233/1233
f 1255/1255 1254/1254 1234/1234
f 1256/1256 1255/1255 1235/1235
f 1257/1257 1256/1256 1236/1236
f 1258/1258 1257/1257 1237/1237
f 1259/1259 1258/1258 1238/1238
f 1260/1260 1259/1259 1239/1239
f 1261/1261 1260/1260 1240/1240
f 1262/1262 1261/1261 1241/1241
f 1263/1263 1262/1262 1242/1242
f 1264/1264 1263/1263 1243/1243
f 1265/1265 1264/1264 1244/1244
f 1266/1266 1265/1265 1245/1245
f 1267/1267 1266/1266 1246/1246
f 1268/1268 1267/1267 1247/1247
v -8.50000 6.55000 6.07500
v -8.50000 6.55000 5.92500
v -8.50000 5.25000 6.07500
v -8.50000 5.25000 5.92500
v -10.50000 6.55000 5.92500
v -10.50000 6.55000 6.07500
v -10.50000 5.25000 5.92500
v -10.50000 5.25000 6.07500
v -10.50000 6.55000 5.92500
v -8.50000 6.55000 5.92500
v -10.50000 6.55000 6.07500
v -8.50000 6.55000 6.07500
v -10.50000 5.25000 6.07500
v -8.50000 5.25000 6.07500
v -10.50000 5.25000 5.92500
v -8.50000 5.25000 5.92500
v -10.50000 6.55000 6.07500
v -8.50000 6.55000 6.07500
v -10.50000 5.25000 6.07500
v -8.50000 5.25000 6.07500
v -8.50000 6.55000 5.92500
v -10.50000 6.55000 5.92500
v -8.50000 5.25000 5.92500
v -10.50000 5.25000 5.92500
vt 0.00000 0.00000
vt 1.00000 0.00000
vt 0.00000 1.00000
vt 1.00000 1.00000
vt 0.00000 0.00000
vt 1.00000 0.00000
vt 0.00000 1.00000
vt 1.00000 1.00000
vt 0.00000 0.00000
vt 1.00000 0.00000
vt 0.00000 1.00000
vt 1.00000 1.00000
vt 0.00000 0.00000
vt 1.00000 0.00000
vt 0.00000 1.00000
vt 1.00000 1.00000
vt 0.00000 0.00000
vt 1.00000 0.00000
vt 0.00000 1.00000
vt 1.00000 1.00000
vt 0.00000 0.00000
vt 1.00000 0.00000
vt 0.00000 1.00000
vt 1.00000 1.00000
f 1269/1269 1271/1271 1270/1270
f 1271/1271 1272/1272 1270/1270
f 1273/1273 1275/1275 1274/1274
f 1275/1275 1276/1276 1274/1274
f 1277/1277 1279/1279 1278/1278
f 1279/1279 1280/1280 1278/1278
f 1281/1281 1283/1283 1282/1282
f 1283/1283 1284/1284 1282/1282
f 1285/1285 1287/1287 1286/1286
f 1287/1287 1288/1288 1286/1286
f 1289/1289 1291/1291 1290/1290
f 1291/1291 1292/1292 1290/1290
