mtllib SodaVendingMachine.mtl
o SodaVendingMachine
usemtl mat_0
v 0.45000 1.72000 0.36000
v 0.45000 1.72000 -0.36000
v 0.45000 0.10000 0.36000
v 0.45000 0.10000 -0.36000
v -0.45000 1.72000 -0.36000
v -0.45000 1.72000 0.36000
v -0.45000 0.10000 -0.36000
v -0.45000 0.10000 0.36000
v -0.45000 1.72000 -0.36000
v 0.45000 1.72000 -0.36000
v -0.45000 1.72000 0.36000
v 0.45000 1.72000 0.36000
v -0.45000 0.10000 0.36000
v 0.45000 0.10000 0.36000
v -0.45000 0.10000 -0.36000
v 0.45000 0.10000 -0.36000
v -0.45000 1.72000 0.36000
v 0.45000 1.72000 0.36000
v -0.45000 0.10000 0.36000
v 0.45000 0.10000 0.36000
v 0.45000 1.72000 -0.36000
v -0.45000 1.72000 -0.36000
v 0.45000 0.10000 -0.36000
v -0.45000 0.10000 -0.36000
vt 0.00000 0.00000
vt 1.00000 0.00000
vt 0.00000 1.00000
vt 1.00000 1.00000
vt 0.00000 0.00000
vt 1.00000 0.00000
vt 0.00000 1.00000
vt 1.00000 1.00000
vt 0.00000 0.00000
vt 1.00000 0.00000
vt 0.00000 1.00000
vt 1.00000 1.00000
vt 0.00000 0.00000
vt 1.00000 0.00000
vt 0.00000 1.00000
vt 1.00000 1.00000
vt 0.00000 0.00000
vt 1.00000 0.00000
vt 0.00000 1.00000
vt 1.00000 1.00000
vt 0.00000 0.00000
vt 1.00000 0.00000
vt 0.00000 1.00000
vt 1.00000 1.00000
f 1/1 3/3 2/2
f 3/3 4/4 2/2
f 5/5 7/7 6/6
f 7/7 8/8 6/6
f 9/9 11/11 10/10
f 11/11 12/12 10/10
f 13/13 15/15 14/14
f 15/15 16/16 14/14
f 17/17 19/19 18/18
f 19/19 20/20 18/18
f 21/21 23/23 22/22
f 23/23 24/24 22/22
usemtl mat_1
v 0.42500 1.70000 0.37600
v 0.42500 1.70000 0.35600
v 0.42500 1.31120 0.37600
v 0.42500 1.31120 0.35600
v -0.42500 1.70000 0.35600
v -0.42500 1.70000 0.37600
v -0.42500 1.31120 0.35600
v -0.42500 1.31120 0.37600
v -0.42500 1.70000 0.35600
v 0.42500 1.70000 0.35600
v -0.42500 1.70000 0.37600
v 0.42500 1.70000 0.37600
v -0.42500 1.31120 0.37600
v 0.42500 1.31120 0.37600
v -0.42500 1.31120 0.35600
v 0.42500 1.31120 0.35600
v -0.42500 1.70000 0.37600
v 0.42500 1.70000 0.37600
v -0.42500 1.31120 0.37600
v 0.42500 1.31120 0.37600
v 0.42500 1.70000 0.35600
v -0.42500 1.70000 0.35600
v 0.42500 1.31120 0.35600
v -0.42500 1.31120 0.35600
vt 0.00000 0.00000
vt 1.00000 0.00000
vt 0.00000 1.00000
vt 1.00000 1.00000
vt 0.00000 0.00000
vt 1.00000 0.00000
vt 0.00000 1.00000
vt 1.00000 1.00000
vt 0.00000 0.00000
vt 1.00000 0.00000
vt 0.00000 1.00000
vt 1.00000 1.00000
vt 0.00000 0.00000
vt 1.00000 0.00000
vt 0.00000 1.00000
vt 1.00000 1.00000
vt 0.00000 0.00000
vt 1.00000 0.00000
vt 0.00000 1.00000
vt 1.00000 1.00000
vt 0.00000 0.00000
vt 1.00000 0.00000
vt 0.00000 1.00000
vt 1.00000 1.00000
f 25/25 27/27 26/26
f 27/27 28/28 26/26
f 29/29 31/31 30/30
f 31/31 32/32 30/30
f 33/33 35/35 34/34
f 35/35 36/36 34/34
f 37/37 39/39 38/38
f 39/39 40/40 38/38
f 41/41 43/43 42/42
f 43/43 44/44 42/42
f 45/45 47/47 46/46
f 47/47 48/48 46/46
usemtl mat_2
v -0.34000 1.61252 0.37800
v 0.34000 1.61252 0.37800
v -0.34000 1.39868 0.37800
v 0.34000 1.39868 0.37800
vt 0.00000 0.00000
vt 1.00000 0.00000
vt 0.00000 1.00000
vt 1.00000 1.00000
f 49/49 51/51 50/50
f 51/51 52/52 50/50
usemtl mat_3
v 0.42500 1.31120 0.38500
v 0.42500 1.31120 0.35500
v 0.42500 1.29120 0.38500
v 0.42500 1.29120 0.35500
v -0.42500 1.31120 0.35500
v -0.42500 1.31120 0.38500
v -0.42500 1.29120 0.35500
v -0.42500 1.29120 0.38500
v -0.42500 1.31120 0.35500
v 0.42500 1.31120 0.35500
v -0.42500 1.31120 0.38500
v 0.42500 1.31120 0.38500
v -0.42500 1.29120 0.38500
v 0.42500 1.29120 0.38500
v -0.42500 1.29120 0.35500
v 0.42500 1.29120 0.35500
v -0.42500 1.31120 0.38500
v 0.42500 1.31120 0.38500
v -0.42500 1.29120 0.38500
v 0.42500 1.29120 0.38500
v 0.42500 1.31120 0.35500
v -0.42500 1.31120 0.35500
v 0.42500 1.29120 0.35500
v -0.42500 1.29120 0.35500
vt 0.00000 0.00000
vt 1.00000 0.00000
vt 0.00000 1.00000
vt 1.00000 1.00000
vt 0.00000 0.00000
vt 1.00000 0.00000
vt 0.00000 1.00000
vt 1.00000 1.00000
vt 0.00000 0.00000
vt 1.00000 0.00000
vt 0.00000 1.00000
vt 1.00000 1.00000
vt 0.00000 0.00000
vt 1.00000 0.00000
vt 0.00000 1.00000
vt 1.00000 1.00000
vt 0.00000 0.00000
vt 1.00000 0.00000
vt 0.00000 1.00000
vt 1.00000 1.00000
vt 0.00000 0.00000
vt 1.00000 0.00000
vt 0.00000 1.00000
vt 1.00000 1.00000
f 53/53 55/55 54/54
f 55/55 56/56 54/54
f 57/57 59/59 58/58
f 59/59 60/60 58/58
f 61/61 63/63 62/62
f 63/63 64/64 62/62
f 65/65 67/67 66/66
f 67/67 68/68 66/66
f 69/69 71/71 70/70
f 71/71 72/72 70/70
f 73/73 75/75 74/74
f 75/75 76/76 74/74
v -0.15250 1.26370 0.36800
v -0.15250 1.26370 0.36000
v -0.15250 1.17870 0.36800
v -0.15250 1.17870 0.36000
v -0.32750 1.26370 0.36000
v -0.32750 1.26370 0.36800
v -0.32750 1.17870 0.36000
v -0.32750 1.17870 0.36800
v -0.32750 1.26370 0.36000
v -0.15250 1.26370 0.36000
v -0.32750 1.26370 0.36800
v -0.15250 1.26370 0.36800
v -0.32750 1.17870 0.36800
v -0.15250 1.17870 0.36800
v -0.32750 1.17870 0.36000
v -0.15250 1.17870 0.36000
v -0.32750 1.26370 0.36800
v -0.15250 1.26370 0.36800
v -0.32750 1.17870 0.36800
v -0.15250 1.17870 0.36800
v -0.15250 1.26370 0.36000
v -0.32750 1.26370 0.36000
v -0.15250 1.17870 0.36000
v -0.32750 1.17870 0.36000
vt 0.00000 0.00000
vt 1.00000 0.00000
vt 0.00000 1.00000
vt 1.00000 1.00000
vt 0.00000 0.00000
vt 1.00000 0.00000
vt 0.00000 1.00000
vt 1.00000 1.00000
vt 0.00000 0.00000
vt 1.00000 0.00000
vt 0.00000 1.00000
vt 1.00000 1.00000
vt 0.00000 0.00000
vt 1.00000 0.00000
vt 0.00000 1.00000
vt 1.00000 1.00000
vt 0.00000 0.00000
vt 1.00000 0.00000
vt 0.00000 1.00000
vt 1.00000 1.00000
vt 0.00000 0.00000
vt 1.00000 0.00000
vt 0.00000 1.00000
vt 1.00000 1.00000
f 77/77 79/79 78/78
f 79/79 80/80 78/78
f 81/81 83/83 82/82
f 83/83 84/84 82/82
f 85/85 87/87 86/86
f 87/87 88/88 86/86
f 89/89 91/91 90/90
f 91/91 92/92 90/90
f 93/93 95/95 94/94
f 95/95 96/96 94/94
f 97/97 99/99 98/98
f 99/99 100/100 98/98
v 0.02750 1.26370 0.36800
v 0.02750 1.26370 0.36000
v 0.02750 1.17870 0.36800
v 0.02750 1.17870 0.36000
v -0.14750 1.26370 0.36000
v -0.14750 1.26370 0.36800
v -0.14750 1.17870 0.36000
v -0.14750 1.17870 0.36800
v -0.14750 1.26370 0.36000
v 0.02750 1.26370 0.36000
v -0.14750 1.26370 0.36800
v 0.02750 1.26370 0.36800
v -0.14750 1.17870 0.36800
v 0.02750 1.17870 0.36800
v -0.14750 1.17870 0.36000
v 0.02750 1.17870 0.36000
v -0.14750 1.26370 0.36800
v 0.02750 1.26370 0.36800
v -0.14750 1.17870 0.36800
v 0.02750 1.17870 0.36800
v 0.02750 1.26370 0.36000
v -0.14750 1.26370 0.36000
v 0.02750 1.17870 0.36000
v -0.14750 1.17870 0.36000
vt 0.00000 0.00000
vt 1.00000 0.00000
vt 0.00000 1.00000
vt 1.00000 1.00000
vt 0.00000 0.00000
vt 1.00000 0.00000
vt 0.00000 1.00000
vt 1.00000 1.00000
vt 0.00000 0.00000
vt 1.00000 0.00000
vt 0.00000 1.00000
vt 1.00000 1.00000
vt 0.00000 0.00000
vt 1.00000 0.00000
vt 0.00000 1.00000
vt 1.00000 1.00000
vt 0.00000 0.00000
vt 1.00000 0.00000
vt 0.00000 1.00000
vt 1.00000 1.00000
vt 0.00000 0.00000
vt 1.00000 0.00000
vt 0.00000 1.00000
vt 1.00000 1.00000
f 101/101 103/103 102/102
f 103/103 104/104 102/102
f 105/105 107/107 106/106
f 107/107 108/108 106/106
f 109/109 111/111 110/110
f 111/111 112/112 110/110
f 113/113 115/115 114/114
f 115/115 116/116 114/114
f 117/117 119/119 118/118
f 119/119 120/120 118/118
f 121/121 123/123 122/122
f 123/123 124/124 122/122
v 0.20750 1.26370 0.36800
v 0.20750 1.26370 0.36000
v 0.20750 1.17870 0.36800
v 0.20750 1.17870 0.36000
v 0.03250 1.26370 0.36000
v 0.03250 1.26370 0.36800
v 0.03250 1.17870 0.36000
v 0.03250 1.17870 0.36800
v 0.03250 1.26370 0.36000
v 0.20750 1.26370 0.36000
v 0.03250 1.26370 0.36800
v 0.20750 1.26370 0.36800
v 0.03250 1.17870 0.36800
v 0.20750 1.17870 0.36800
v 0.03250 1.17870 0.36000
v 0.20750 1.17870 0.36000
v 0.03250 1.26370 0.36800
v 0.20750 1.26370 0.36800
v 0.03250 1.17870 0.36800
v 0.20750 1.17870 0.36800
v 0.20750 1.26370 0.36000
v 0.03250 1.26370 0.36000
v 0.20750 1.17870 0.36000
v 0.03250 1.17870 0.36000
vt 0.00000 0.00000
vt 1.00000 0.00000
vt 0.00000 1.00000
vt 1.00000 1.00000
vt 0.00000 0.00000
vt 1.00000 0.00000
vt 0.00000 1.00000
vt 1.00000 1.00000
vt 0.00000 0.00000
vt 1.00000 0.00000
vt 0.00000 1.00000
vt 1.00000 1.00000
vt 0.00000 0.00000
vt 1.00000 0.00000
vt 0.00000 1.00000
vt 1.00000 1.00000
vt 0.00000 0.00000
vt 1.00000 0.00000
vt 0.00000 1.00000
vt 1.00000 1.00000
vt 0.00000 0.00000
vt 1.00000 0.00000
vt 0.00000 1.00000
vt 1.00000 1.00000
f 125/125 127/127 126/126
f 127/127 128/128 126/126
f 129/129 131/131 130/130
f 131/131 132/132 130/130
f 133/133 135/135 134/134
f 135/135 136/136 134/134
f 137/137 139/139 138/138
f 139/139 140/140 138/138
f 141/141 143/143 142/142
f 143/143 144/144 142/142
f 145/145 147/147 146/146
f 147/147 148/148 146/146
v 0.38750 1.26370 0.36800
v 0.38750 1.26370 0.36000
v 0.38750 1.17870 0.36800
v 0.38750 1.17870 0.36000
v 0.21250 1.26370 0.36000
v 0.21250 1.26370 0.36800
v 0.21250 1.17870 0.36000
v 0.21250 1.17870 0.36800
v 0.21250 1.26370 0.36000
v 0.38750 1.26370 0.36000
v 0.21250 1.26370 0.36800
v 0.38750 1.26370 0.36800
v 0.21250 1.17870 0.36800
v 0.38750 1.17870 0.36800
v 0.21250 1.17870 0.36000
v 0.38750 1.17870 0.36000
v 0.21250 1.26370 0.36800
v 0.38750 1.26370 0.36800
v 0.21250 1.17870 0.36800
v 0.38750 1.17870 0.36800
v 0.38750 1.26370 0.36000
v 0.21250 1.26370 0.36000
v 0.38750 1.17870 0.36000
v 0.21250 1.17870 0.36000
vt 0.00000 0.00000
vt 1.00000 0.00000
vt 0.00000 1.00000
vt 1.00000 1.00000
vt 0.00000 0.00000
vt 1.00000 0.00000
vt 0.00000 1.00000
vt 1.00000 1.00000
vt 0.00000 0.00000
vt 1.00000 0.00000
vt 0.00000 1.00000
vt 1.00000 1.00000
vt 0.00000 0.00000
vt 1.00000 0.00000
vt 0.00000 1.00000
vt 1.00000 1.00000
vt 0.00000 0.00000
vt 1.00000 0.00000
vt 0.00000 1.00000
vt 1.00000 1.00000
vt 0.00000 0.00000
vt 1.00000 0.00000
vt 0.00000 1.00000
vt 1.00000 1.00000
f 149/149 151/151 150/150
f 151/151 152/152 150/150
f 153/153 155/155 154/154
f 155/155 156/156 154/154
f 157/157 159/159 158/158
f 159/159 160/160 158/158
f 161/161 163/163 162/162
f 163/163 164/164 162/162
f 165/165 167/167 166/166
f 167/167 168/168 166/166
f 169/169 171/171 170/170
f 171/171 172/172 170/170
v -0.30500 1.12620 0.38700
v -0.30500 1.12620 0.35700
v -0.30500 0.32000 0.38700
v -0.30500 0.32000 0.35700
v -0.32500 1.12620 0.35700
v -0.32500 1.12620 0.38700
v -0.32500 0.32000 0.35700
v -0.32500 0.32000 0.38700
v -0.32500 1.12620 0.35700
v -0.30500 1.12620 0.35700
v -0.32500 1.12620 0.38700
v -0.30500 1.12620 0.38700
v -0.32500 0.32000 0.38700
v -0.30500 0.32000 0.38700
v -0.32500 0.32000 0.35700
v -0.30500 0.32000 0.35700
v -0.32500 1.12620 0.38700
v -0.30500 1.12620 0.38700
v -0.32500 0.32000 0.38700
v -0.30500 0.32000 0.38700
v -0.30500 1.12620 0.35700
v -0.32500 1.12620 0.35700
v -0.30500 0.32000 0.35700
v -0.32500 0.32000 0.35700
vt 0.00000 0.00000
vt 1.00000 0.00000
vt 0.00000 1.00000
vt 1.00000 1.00000
vt 0.00000 0.00000
vt 1.00000 0.00000
vt 0.00000 1.00000
vt 1.00000 1.00000
vt 0.00000 0.00000
vt 1.00000 0.00000
vt 0.00000 1.00000
vt 1.00000 1.00000
vt 0.00000 0.00000
vt 1.00000 0.00000
vt 0.00000 1.00000
vt 1.00000 1.00000
vt 0.00000 0.00000
vt 1.00000 0.00000
vt 0.00000 1.00000
vt 1.00000 1.00000
vt 0.00000 0.00000
vt 1.00000 0.00000
vt 0.00000 1.00000
vt 1.00000 1.00000
f 173/173 175/175 174/174
f 175/175 176/176 174/174
f 177/177 179/179 178/178
f 179/179 180/180 178/178
f 181/181 183/183 182/182
f 183/183 184/184 182/182
f 185/185 187/187 186/186
f 187/187 188/188 186/186
f 189/189 191/191 190/190
f 191/191 192/192 190/190
f 193/193 195/195 194/194
f 195/195 196/196 194/194
v 0.29500 0.94420 0.38500
v 0.29959 0.94511 0.38500
v 0.30349 0.94771 0.38500
v 0.30609 0.95161 0.38500
v 0.30700 0.95620 0.38500
v 0.30609 0.96079 0.38500
v 0.30349 0.96469 0.38500
v 0.29959 0.96729 0.38500
v 0.29500 0.96820 0.38500
v 0.29041 0.96729 0.38500
v 0.28651 0.96469 0.38500
v 0.28391 0.96079 0.38500
v 0.28300 0.95620 0.38500
v 0.28391 0.95161 0.38500
v 0.28651 0.94771 0.38500
v 0.29041 0.94511 0.38500
v 0.29500 0.94420 0.38500
v 0.29500 0.94420 0.37500
v 0.29959 0.94511 0.37500
v 0.30349 0.94771 0.37500
v 0.30609 0.95161 0.37500
v 0.30700 0.95620 0.37500
v 0.30609 0.96079 0.37500
v 0.30349 0.96469 0.37500
v 0.29959 0.96729 0.37500
v 0.29500 0.96820 0.37500
v 0.29041 0.96729 0.37500
v 0.28651 0.96469 0.37500
v 0.28391 0.96079 0.37500
v 0.28300 0.95620 0.37500
v 0.28391 0.95161 0.37500
v 0.28651 0.94771 0.37500
v 0.29041 0.94511 0.37500
v 0.29500 0.94420 0.37500
v 0.29500 0.95620 0.38500
v 0.29500 0.95620 0.38500
v 0.29500 0.95620 0.38500
v 0.29500 0.95620 0.38500
v 0.29500 0.95620 0.38500
v 0.29500 0.95620 0.38500
v 0.29500 0.95620 0.38500
v 0.29500 0.95620 0.38500
v 0.29500 0.95620 0.38500
v 0.29500 0.95620 0.38500
v 0.29500 0.95620 0.38500
v 0.29500 0.95620 0.38500
v 0.29500 0.95620 0.38500
v 0.29500 0.95620 0.38500
v 0.29500 0.95620 0.38500
v 0.29500 0.95620 0.38500
v 0.29500 0.94420 0.38500
v 0.29959 0.94511 0.38500
v 0.30349 0.94771 0.38500
v 0.30609 0.95161 0.38500
v 0.30700 0.95620 0.38500
v 0.30609 0.96079 0.38500
v 0.30349 0.96469 0.38500
v 0.29959 0.96729 0.38500
v 0.29500 0.96820 0.38500
v 0.29041 0.96729 0.38500
v 0.28651 0.96469 0.38500
v 0.28391 0.96079 0.38500
v 0.28300 0.95620 0.38500
v 0.28391 0.95161 0.38500
v 0.28651 0.94771 0.38500
v 0.29041 0.94511 0.38500
v 0.29500 0.94420 0.38500
v 0.29500 0.95620 0.37500
v 0.29500 0.95620 0.37500
v 0.29500 0.95620 0.37500
v 0.29500 0.95620 0.37500
v 0.29500 0.95620 0.37500
v 0.29500 0.95620 0.37500
v 0.29500 0.95620 0.37500
v 0.29500 0.95620 0.37500
v 0.29500 0.95620 0.37500
v 0.29500 0.95620 0.37500
v 0.29500 0.95620 0.37500
v 0.29500 0.95620 0.37500
v 0.29500 0.95620 0.37500
v 0.29500 0.95620 0.37500
v 0.29500 0.95620 0.37500
v 0.29500 0.95620 0.37500
v 0.29500 0.94420 0.37500
v 0.29959 0.94511 0.37500
v 0.30349 0.94771 0.37500
v 0.30609 0.95161 0.37500
v 0.30700 0.95620 0.37500
v 0.30609 0.96079 0.37500
v 0.30349 0.96469 0.37500
v 0.29959 0.96729 0.37500
v 0.29500 0.96820 0.37500
v 0.29041 0.96729 0.37500
v 0.28651 0.96469 0.37500
v 0.28391 0.96079 0.37500
v 0.28300 0.95620 0.37500
v 0.28391 0.95161 0.37500
v 0.28651 0.94771 0.37500
v 0.29041 0.94511 0.37500
v 0.29500 0.94420 0.37500
vt 0.00000 0.00000
vt 0.06250 0.00000
vt 0.12500 0.00000
vt 0.18750 0.00000
vt 0.25000 0.00000
vt 0.31250 0.00000
vt 0.37500 0.00000
vt 0.43750 0.00000
vt 0.50000 0.00000
vt 0.56250 0.00000
vt 0.62500 0.00000
vt 0.68750 0.00000
vt 0.75000 0.00000
vt 0.81250 0.00000
vt 0.87500 0.00000
vt 0.93750 0.00000
vt 1.00000 0.00000
vt 0.00000 1.00000
vt 0.06250 1.00000
vt 0.12500 1.00000
vt 0.18750 1.00000
vt 0.25000 1.00000
vt 0.31250 1.00000
vt 0.37500 1.00000
vt 0.43750 1.00000
vt 0.50000 1.00000
vt 0.56250 1.00000
vt 0.62500 1.00000
vt 0.68750 1.00000
vt 0.75000 1.00000
vt 0.81250 1.00000
vt 0.87500 1.00000
vt 0.93750 1.00000
vt 1.00000 1.00000
vt 0.50000 0.50000
vt 0.50000 0.50000
vt 0.50000 0.50000
vt 0.50000 0.50000
vt 0.50000 0.50000
vt 0.50000 0.50000
vt 0.50000 0.50000
vt 0.50000 0.50000
vt 0.50000 0.50000
vt 0.50000 0.50000
vt 0.50000 0.50000
vt 0.50000 0.50000
vt 0.50000 0.50000
vt 0.50000 0.50000
vt 0.50000 0.50000
vt 0.50000 0.50000
vt 1.00000 0.50000
vt 0.96194 0.30866
vt 0.85355 0.14645
vt 0.69134 0.03806
vt 0.50000 0.00000
vt 0.30866 0.03806
vt 0.14645 0.14645
vt 0.03806 0.30866
vt 0.00000 0.50000
vt 0.03806 0.69134
vt 0.14645 0.85355
vt 0.30866 0.96194
vt 0.50000 1.00000
vt 0.69134 0.96194
vt 0.85355 0.85355
vt 0.96194 0.69134
vt 1.00000 0.50000
vt 0.50000 0.50000
vt 0.50000 0.50000
vt 0.50000 0.50000
vt 0.50000 0.50000
vt 0.50000 0.50000
vt 0.50000 0.50000
vt 0.50000 0.50000
vt 0.50000 0.50000
vt 0.50000 0.50000
vt 0.50000 0.50000
vt 0.50000 0.50000
vt 0.50000 0.50000
vt 0.50000 0.50000
vt 0.50000 0.50000
vt 0.50000 0.50000
vt 0.50000 0.50000
vt 1.00000 0.50000
vt 0.96194 0.69134
vt 0.85355 0.85355
vt 0.69134 0.96194
vt 0.50000 1.00000
vt 0.30866 0.96194
vt 0.14645 0.85355
vt 0.03806 0.69134
vt 0.00000 0.50000
vt 0.03806 0.30866
vt 0.14645 0.14645
vt 0.30866 0.03806
vt 0.50000 0.00000
vt 0.69134 0.03806
vt 0.85355 0.14645
vt 0.96194 0.30866
vt 1.00000 0.50000
f 197/197 214/214 198/198
f 214/214 215/215 198/198
f 198/198 215/215 199/199
f 215/215 216/216 199/199
f 199/199 216/216 200/200
f 216/216 217/217 200/200
f 200/200 217/217 201/201
f 217/217 218/218 201/201
f 201/201 218/218 202/202
f 218/218 219/219 202/202
f 202/202 219/219 203/203
f 219/219 220/220 203/203
f 203/203 220/220 204/204
f 220/220 221/221 204/204
f 204/204 221/221 205/205
f 221/221 222/222 205/205
f 205/205 222/222 206/206
f 222/222 223/223 206/206
f 206/206 223/223 207/207
f 223/223 224/224 207/207
f 207/207 224/224 208/208
f 224/224 225/225 208/208
f 208/208 225/225 209/209
f 225/225 226/226 209/209
f 209/209 226/226 210/210
f 226/226 227/227 210/210
f 210/210 227/227 211/211
f 227/227 228/228 211/211
f 211/211 228/228 212/212
f 228/228 229/229 212/212
f 212/212 229/229 213/213
f 229/229 230/230 213/213
f 247/247 248/248 231/231
f 248/248 249/249 232/232
f 249/249 250/250 233/233
f 250/250 251/251 234/234
f 251/251 252/252 235/235
f 252/252 253/253 236/236
f 253/253 254/254 237/237
f 254/254 255/255 238/238
f 255/255 256/256 239/239
f 256/256 257/257 240/240
f 257/257 258/258 241/241
f 258/258 259/259 242/242
f 259/259 260/260 243/243
f 260/260 261/261 244/244
f 261/261 262/262 245/245
f 262/262 263/263 246/246
f 281/281 280/280 264/264
f 282/282 281/281 265/265
f 283/283 282/282 266/266
f 284/284 283/283 267/267
f 285/285 284/284 268/268
f 286/286 285/285 269/269
f 287/287 286/286 270/270
f 288/288 287/287 271/271
f 289/289 288/288 272/272
f 290/290 289/289 273/273
f 291/291 290/290 274/274
f 292/292 291/291 275/275
f 293/293 292/292 276/276
f 294/294 293/293 277/277
f 295/295 294/294 278/278
f 296/296 295/295 279/279
v 0.19000 0.56122 0.37474
v 0.19000 0.55380 0.34567
v 0.19000 0.40620 0.41433
v 0.19000 0.39878 0.38526
v -0.15000 0.55380 0.34567
v -0.15000 0.56122 0.37474
v -0.15000 0.39878 0.38526
v -0.15000 0.40620 0.41433
v -0.15000 0.55380 0.34567
v 0.19000 0.55380 0.34567
v -0.15000 0.56122 0.37474
v 0.19000 0.56122 0.37474
v -0.15000 0.40620 0.41433
v 0.19000 0.40620 0.41433
v -0.15000 0.39878 0.38526
v 0.19000 0.39878 0.38526
v -0.15000 0.56122 0.37474
v 0.19000 0.56122 0.37474
v -0.15000 0.40620 0.41433
v 0.19000 0.40620 0.41433
v 0.19000 0.55380 0.34567
v -0.15000 0.55380 0.34567
v 0.19000 0.39878 0.38526
v -0.15000 0.39878 0.38526
vt 0.00000 0.00000
vt 1.00000 0.00000
vt 0.00000 1.00000
vt 1.00000 1.00000
vt 0.00000 0.00000
vt 1.00000 0.00000
vt 0.00000 1.00000
vt 1.00000 1.00000
vt 0.00000 0.00000
vt 1.00000 0.00000
vt 0.00000 1.00000
vt 1.00000 1.00000
vt 0.00000 0.00000
vt 1.00000 0.00000
vt 0.00000 1.00000
vt 1.00000 1.00000
vt 0.00000 0.00000
vt 1.00000 0.00000
vt 0.00000 1.00000
vt 1.00000 1.00000
vt 0.00000 0.00000
vt 1.00000 0.00000
vt 0.00000 1.00000
vt 1.00000 1.00000
f 297/297 299/299 298/298
f 299/299 300/300 298/298
f 301/301 303/303 302/302
f 303/303 304/304 302/302
f 305/305 307/307 306/306
f 307/307 308/308 306/306
f 309/309 311/311 310/310
f 311/311 312/312 310/310
f 313/313 315/315 314/314
f 315/315 316/316 314/314
f 317/317 319/319 318/318
f 319/319 320/320 318/318
v 0.20500 0.58500 0.37050
v 0.20500 0.58500 0.35550
v 0.20500 0.39500 0.37050
v 0.20500 0.39500 0.35550
v -0.16500 0.58500 0.35550
v -0.16500 0.58500 0.37050
v -0.16500 0.39500 0.35550
v -0.16500 0.39500 0.37050
v -0.16500 0.58500 0.35550
v 0.20500 0.58500 0.35550
v -0.16500 0.58500 0.37050
v 0.20500 0.58500 0.37050
v -0.16500 0.39500 0.37050
v 0.20500 0.39500 0.37050
v -0.16500 0.39500 0.35550
v 0.20500 0.39500 0.35550
v -0.16500 0.58500 0.37050
v 0.20500 0.58500 0.37050
v -0.16500 0.39500 0.37050
v 0.20500 0.39500 0.37050
v 0.20500 0.58500 0.35550
v -0.16500 0.58500 0.35550
v 0.20500 0.39500 0.35550
v -0.16500 0.39500 0.35550
vt 0.00000 0.00000
vt 1.00000 0.00000
vt 0.00000 1.00000
vt 1.00000 1.00000
vt 0.00000 0.00000
vt 1.00000 0.00000
vt 0.00000 1.00000
vt 1.00000 1.00000
vt 0.00000 0.00000
vt 1.00000 0.00000
vt 0.00000 1.00000
vt 1.00000 1.00000
vt 0.00000 0.00000
vt 1.00000 0.00000
vt 0.00000 1.00000
vt 1.00000 1.00000
vt 0.00000 0.00000
vt 1.00000 0.00000
vt 0.00000 1.00000
vt 1.00000 1.00000
vt 0.00000 0.00000
vt 1.00000 0.00000
vt 0.00000 1.00000
vt 1.00000 1.00000
f 321/321 323/323 322/322
f 323/323 324/324 322/322
f 325/325 327/327 326/326
f 327/327 328/328 326/326
f 329/329 331/331 330/330
f 331/331 332/332 330/330
f 333/333 335/335 334/334
f 335/335 336/336 334/334
f 337/337 339/339 338/338
f 339/339 340/340 338/338
f 341/341 343/343 342/342
f 343/343 344/344 342/342
v 0.46500 0.12000 0.37500
v 0.46500 0.12000 -0.37500
v 0.46500 0.00000 0.37500
v 0.46500 0.00000 -0.37500
v -0.46500 0.12000 -0.37500
v -0.46500 0.12000 0.37500
v -0.46500 0.00000 -0.37500
v -0.46500 0.00000 0.37500
v -0.46500 0.12000 -0.37500
v 0.46500 0.12000 -0.37500
v -0.46500 0.12000 0.37500
v 0.46500 0.12000 0.37500
v -0.46500 0.00000 0.37500
v 0.46500 0.00000 0.37500
v -0.46500 0.00000 -0.37500
v 0.46500 0.00000 -0.37500
v -0.46500 0.12000 0.37500
v 0.46500 0.12000 0.37500
v -0.46500 0.00000 0.37500
v 0.46500 0.00000 0.37500
v 0.46500 0.12000 -0.37500
v -0.46500 0.12000 -0.37500
v 0.46500 0.00000 -0.37500
v -0.46500 0.00000 -0.37500
vt 0.00000 0.00000
vt 1.00000 0.00000
vt 0.00000 1.00000
vt 1.00000 1.00000
vt 0.00000 0.00000
vt 1.00000 0.00000
vt 0.00000 1.00000
vt 1.00000 1.00000
vt 0.00000 0.00000
vt 1.00000 0.00000
vt 0.00000 1.00000
vt 1.00000 1.00000
vt 0.00000 0.00000
vt 1.00000 0.00000
vt 0.00000 1.00000
vt 1.00000 1.00000
vt 0.00000 0.00000
vt 1.00000 0.00000
vt 0.00000 1.00000
vt 1.00000 1.00000
vt 0.00000 0.00000
vt 1.00000 0.00000
vt 0.00000 1.00000
vt 1.00000 1.00000
f 345/345 347/347 346/346
f 347/347 348/348 346/346
f 349/349 351/351 350/350
f 351/351 352/352 350/350
f 353/353 355/355 354/354
f 355/355 356/356 354/354
f 357/357 359/359 358/358
f 359/359 360/360 358/358
f 361/361 363/363 362/362
f 363/363 364/364 362/362
f 365/365 367/367 366/366
f 367/367 368/368 366/366
v 0.20000 1.74600 -0.20000
v 0.20000 1.74600 -0.22000
v 0.20000 1.73400 -0.20000
v 0.20000 1.73400 -0.22000
v -0.20000 1.74600 -0.22000
v -0.20000 1.74600 -0.20000
v -0.20000 1.73400 -0.22000
v -0.20000 1.73400 -0.20000
v -0.20000 1.74600 -0.22000
v 0.20000 1.74600 -0.22000
v -0.20000 1.74600 -0.20000
v 0.20000 1.74600 -0.20000
v -0.20000 1.73400 -0.20000
v 0.20000 1.73400 -0.20000
v -0.20000 1.73400 -0.22000
v 0.20000 1.73400 -0.22000
v -0.20000 1.74600 -0.20000
v 0.20000 1.74600 -0.20000
v -0.20000 1.73400 -0.20000
v 0.20000 1.73400 -0.20000
v 0.20000 1.74600 -0.22000
v -0.20000 1.74600 -0.22000
v 0.20000 1.73400 -0.22000
v -0.20000 1.73400 -0.22000
vt 0.00000 0.00000
vt 1.00000 0.00000
vt 0.00000 1.00000
vt 1.00000 1.00000
vt 0.00000 0.00000
vt 1.00000 0.00000
vt 0.00000 1.00000
vt 1.00000 1.00000
vt 0.00000 0.00000
vt 1.00000 0.00000
vt 0.00000 1.00000
vt 1.00000 1.00000
vt 0.00000 0.00000
vt 1.00000 0.00000
vt 0.00000 1.00000
vt 1.00000 1.00000
vt 0.00000 0.00000
vt 1.00000 0.00000
vt 0.00000 1.00000
vt 1.00000 1.00000
vt 0.00000 0.00000
vt 1.00000 0.00000
vt 0.00000 1.00000
vt 1.00000 1.00000
f 369/369 371/371 370/370
f 371/371 372/372 370/370
f 373/373 375/375 374/374
f 375/375 376/376 374/374
f 377/377 379/379 378/378
f 379/379 380/380 378/378
f 381/381 383/383 382/382
f 383/383 384/384 382/382
f 385/385 387/387 386/386
f 387/387 388/388 386/386
f 389/389 391/391 390/390
f 391/391 392/392 390/390
v 0.20000 1.76600 -0.20000
v 0.20000 1.76600 -0.22000
v 0.20000 1.75400 -0.20000
v 0.20000 1.75400 -0.22000
v -0.20000 1.76600 -0.22000
v -0.20000 1.76600 -0.20000
v -0.20000 1.75400 -0.22000
v -0.20000 1.75400 -0.20000
v -0.20000 1.76600 -0.22000
v 0.20000 1.76600 -0.22000
v -0.20000 1.76600 -0.20000
v 0.20000 1.76600 -0.20000
v -0.20000 1.75400 -0.20000
v 0.20000 1.75400 -0.20000
v -0.20000 1.75400 -0.22000
v 0.20000 1.75400 -0.22000
v -0.20000 1.76600 -0.20000
v 0.20000 1.76600 -0.20000
v -0.20000 1.75400 -0.20000
v 0.20000 1.75400 -0.20000
v 0.20000 1.76600 -0.22000
v -0.20000 1.76600 -0.22000
v 0.20000 1.75400 -0.22000
v -0.20000 1.75400 -0.22000
vt 0.00000 0.00000
vt 1.00000 0.00000
vt 0.00000 1.00000
vt 1.00000 1.00000
vt 0.00000 0.00000
vt 1.00000 0.00000
vt 0.00000 1.00000
vt 1.00000 1.00000
vt 0.00000 0.00000
vt 1.00000 0.00000
vt 0.00000 1.00000
vt 1.00000 1.00000
vt 0.00000 0.00000
vt 1.00000 0.00000
vt 0.00000 1.00000
vt 1.00000 1.00000
vt 0.00000 0.00000
vt 1.00000 0.00000
vt 0.00000 1.00000
vt 1.00000 1.00000
vt 0.00000 0.00000
vt 1.00000 0.00000
vt 0.00000 1.00000
vt 1.00000 1.00000
f 393/393 395/395 394/394
f 395/395 396/396 394/394
f 397/397 399/399 398/398
f 399/399 400/400 398/398
f 401/401 403/403 402/402
f 403/403 404/404 402/402
f 405/405 407/407 406/406
f 407/407 408/408 406/406
f 409/409 411/411 410/410
f 411/411 412/412 410/410
f 413/413 415/415 414/414
f 415/415 416/416 414/414
v 0.20000 1.78600 -0.20000
v 0.20000 1.78600 -0.22000
v 0.20000 1.77400 -0.20000
v 0.20000 1.77400 -0.22000
v -0.20000 1.78600 -0.22000
v -0.20000 1.78600 -0.20000
v -0.20000 1.77400 -0.22000
v -0.20000 1.77400 -0.20000
v -0.20000 1.78600 -0.22000
v 0.20000 1.78600 -0.22000
v -0.20000 1.78600 -0.20000
v 0.20000 1.78600 -0.20000
v -0.20000 1.77400 -0.20000
v 0.20000 1.77400 -0.20000
v -0.20000 1.77400 -0.22000
v 0.20000 1.77400 -0.22000
v -0.20000 1.78600 -0.20000
v 0.20000 1.78600 -0.20000
v -0.20000 1.77400 -0.20000
v 0.20000 1.77400 -0.20000
v 0.20000 1.78600 -0.22000
v -0.20000 1.78600 -0.22000
v 0.20000 1.77400 -0.22000
v -0.20000 1.77400 -0.22000
vt 0.00000 0.00000
vt 1.00000 0.00000
vt 0.00000 1.00000
vt 1.00000 1.00000
vt 0.00000 0.00000
vt 1.00000 0.00000
vt 0.00000 1.00000
vt 1.00000 1.00000
vt 0.00000 0.00000
vt 1.00000 0.00000
vt 0.00000 1.00000
vt 1.00000 1.00000
vt 0.00000 0.00000
vt 1.00000 0.00000
vt 0.00000 1.00000
vt 1.00000 1.00000
vt 0.00000 0.00000
vt 1.00000 0.00000
vt 0.00000 1.00000
vt 1.00000 1.00000
vt 0.00000 0.00000
vt 1.00000 0.00000
vt 0.00000 1.00000
vt 1.00000 1.00000
f 417/417 419/419 418/418
f 419/419 420/420 418/418
f 421/421 423/423 422/422
f 423/423 424/424 422/422
f 425/425 427/427 426/426
f 427/427 428/428 426/426
f 429/429 431/431 430/430
f 431/431 432/432 430/430
f 433/433 435/435 434/434
f 435/435 436/436 434/434
f 437/437 439/439 438/438
f 439/439 440/440 438/438
v 0.20000 1.80600 -0.20000
v 0.20000 1.80600 -0.22000
v 0.20000 1.79400 -0.20000
v 0.20000 1.79400 -0.22000
v -0.20000 1.80600 -0.22000
v -0.20000 1.80600 -0.20000
v -0.20000 1.79400 -0.22000
v -0.20000 1.79400 -0.20000
v -0.20000 1.80600 -0.22000
v 0.20000 1.80600 -0.22000
v -0.20000 1.80600 -0.20000
v 0.20000 1.80600 -0.20000
v -0.20000 1.79400 -0.20000
v 0.20000 1.79400 -0.20000
v -0.20000 1.79400 -0.22000
v 0.20000 1.79400 -0.22000
v -0.20000 1.80600 -0.20000
v 0.20000 1.80600 -0.20000
v -0.20000 1.79400 -0.20000
v 0.20000 1.79400 -0.20000
v 0.20000 1.80600 -0.22000
v -0.20000 1.80600 -0.22000
v 0.20000 1.79400 -0.22000
v -0.20000 1.79400 -0.22000
vt 0.00000 0.00000
vt 1.00000 0.00000
vt 0.00000 1.00000
vt 1.00000 1.00000
vt 0.00000 0.00000
vt 1.00000 0.00000
vt 0.00000 1.00000
vt 1.00000 1.00000
vt 0.00000 0.00000
vt 1.00000 0.00000
vt 0.00000 1.00000
vt 1.00000 1.00000
vt 0.00000 0.00000
vt 1.00000 0.00000
vt 0.00000 1.00000
vt 1.00000 1.00000
vt 0.00000 0.00000
vt 1.00000 0.00000
vt 0.00000 1.00000
vt 1.00000 1.00000
vt 0.00000 0.00000
vt 1.00000 0.00000
vt 0.00000 1.00000
vt 1.00000 1.00000
f 441/441 443/443 442/442
f 443/443 444/444 442/442
f 445/445 447/447 446/446
f 447/447 448/448 446/446
f 449/449 451/451 450/450
f 451/451 452/452 450/450
f 453/453 455/455 454/454
f 455/455 456/456 454/454
f 457/457 459/459 458/458
f 459/459 460/460 458/458
f 461/461 463/463 462/462
f 463/463 464/464 462/462
v 0.20000 1.82600 -0.20000
v 0.20000 1.82600 -0.22000
v 0.20000 1.81400 -0.20000
v 0.20000 1.81400 -0.22000
v -0.20000 1.82600 -0.22000
v -0.20000 1.82600 -0.20000
v -0.20000 1.81400 -0.22000
v -0.20000 1.81400 -0.20000
v -0.20000 1.82600 -0.22000
v 0.20000 1.82600 -0.22000
v -0.20000 1.82600 -0.20000
v 0.20000 1.82600 -0.20000
v -0.20000 1.81400 -0.20000
v 0.20000 1.81400 -0.20000
v -0.20000 1.81400 -0.22000
v 0.20000 1.81400 -0.22000
v -0.20000 1.82600 -0.20000
v 0.20000 1.82600 -0.20000
v -0.20000 1.81400 -0.20000
v 0.20000 1.81400 -0.20000
v 0.20000 1.82600 -0.22000
v -0.20000 1.82600 -0.22000
v 0.20000 1.81400 -0.22000
v -0.20000 1.81400 -0.22000
vt 0.00000 0.00000
vt 1.00000 0.00000
vt 0.00000 1.00000
vt 1.00000 1.00000
vt 0.00000 0.00000
vt 1.00000 0.00000
vt 0.00000 1.00000
vt 1.00000 1.00000
vt 0.00000 0.00000
vt 1.00000 0.00000
vt 0.00000 1.00000
vt 1.00000 1.00000
vt 0.00000 0.00000
vt 1.00000 0.00000
vt 0.00000 1.00000
vt 1.00000 1.00000
vt 0.00000 0.00000
vt 1.00000 0.00000
vt 0.00000 1.00000
vt 1.00000 1.00000
vt 0.00000 0.00000
vt 1.00000 0.00000
vt 0.00000 1.00000
vt 1.00000 1.00000
f 465/465 467/467 466/466
f 467/467 468/468 466/466
f 469/469 471/471 470/470
f 471/471 472/472 470/470
f 473/473 475/475 474/474
f 475/475 476/476 474/474
f 477/477 479/479 478/478
f 479/479 480/480 478/478
f 481/481 483/483 482/482
f 483/483 484/484 482/482
f 485/485 487/487 486/486
f 487/487 488/488 486/486
usemtl mat_4
v -0.16000 1.25620 0.37800
v -0.16000 1.25620 0.36600
v -0.16000 1.18620 0.37800
v -0.16000 1.18620 0.36600
v -0.32000 1.25620 0.36600
v -0.32000 1.25620 0.37800
v -0.32000 1.18620 0.36600
v -0.32000 1.18620 0.37800
v -0.32000 1.25620 0.36600
v -0.16000 1.25620 0.36600
v -0.32000 1.25620 0.37800
v -0.16000 1.25620 0.37800
v -0.32000 1.18620 0.37800
v -0.16000 1.18620 0.37800
v -0.32000 1.18620 0.36600
v -0.16000 1.18620 0.36600
v -0.32000 1.25620 0.37800
v -0.16000 1.25620 0.37800
v -0.32000 1.18620 0.37800
v -0.16000 1.18620 0.37800
v -0.16000 1.25620 0.36600
v -0.32000 1.25620 0.36600
v -0.16000 1.18620 0.36600
v -0.32000 1.18620 0.36600
vt 0.00000 0.00000
vt 1.00000 0.00000
vt 0.00000 1.00000
vt 1.00000 1.00000
vt 0.00000 0.00000
vt 1.00000 0.00000
vt 0.00000 1.00000
vt 1.00000 1.00000
vt 0.00000 0.00000
vt 1.00000 0.00000
vt 0.00000 1.00000
vt 1.00000 1.00000
vt 0.00000 0.00000
vt 1.00000 0.00000
vt 0.00000 1.00000
vt 1.00000 1.00000
vt 0.00000 0.00000
vt 1.00000 0.00000
vt 0.00000 1.00000
vt 1.00000 1.00000
vt 0.00000 0.00000
vt 1.00000 0.00000
vt 0.00000 1.00000
vt 1.00000 1.00000
f 489/489 491/491 490/490
f 491/491 492/492 490/490
f 493/493 495/495 494/494
f 495/495 496/496 494/494
f 497/497 499/499 498/498
f 499/499 500/500 498/498
f 501/501 503/503 502/502
f 503/503 504/504 502/502
f 505/505 507/507 506/506
f 507/507 508/508 506/506
f 509/509 511/511 510/510
f 511/511 512/512 510/510
v 0.02000 1.25620 0.37800
v 0.02000 1.25620 0.36600
v 0.02000 1.18620 0.37800
v 0.02000 1.18620 0.36600
v -0.14000 1.25620 0.36600
v -0.14000 1.25620 0.37800
v -0.14000 1.18620 0.36600
v -0.14000 1.18620 0.37800
v -0.14000 1.25620 0.36600
v 0.02000 1.25620 0.36600
v -0.14000 1.25620 0.37800
v 0.02000 1.25620 0.37800
v -0.14000 1.18620 0.37800
v 0.02000 1.18620 0.37800
v -0.14000 1.18620 0.36600
v 0.02000 1.18620 0.36600
v -0.14000 1.25620 0.37800
v 0.02000 1.25620 0.37800
v -0.14000 1.18620 0.37800
v 0.02000 1.18620 0.37800
v 0.02000 1.25620 0.36600
v -0.14000 1.25620 0.36600
v 0.02000 1.18620 0.36600
v -0.14000 1.18620 0.36600
vt 0.00000 0.00000
vt 1.00000 0.00000
vt 0.00000 1.00000
vt 1.00000 1.00000
vt 0.00000 0.00000
vt 1.00000 0.00000
vt 0.00000 1.00000
vt 1.00000 1.00000
vt 0.00000 0.00000
vt 1.00000 0.00000
vt 0.00000 1.00000
vt 1.00000 1.00000
vt 0.00000 0.00000
vt 1.00000 0.00000
vt 0.00000 1.00000
vt 1.00000 1.00000
vt 0.00000 0.00000
vt 1.00000 0.00000
vt 0.00000 1.00000
vt 1.00000 1.00000
vt 0.00000 0.00000
vt 1.00000 0.00000
vt 0.00000 1.00000
vt 1.00000 1.00000
f 513/513 515/515 514/514
f 515/515 516/516 514/514
f 517/517 519/519 518/518
f 519/519 520/520 518/518
f 521/521 523/523 522/522
f 523/523 524/524 522/522
f 525/525 527/527 526/526
f 527/527 528/528 526/526
f 529/529 531/531 530/530
f 531/531 532/532 530/530
f 533/533 535/535 534/534
f 535/535 536/536 534/534
v 0.20000 1.25620 0.37800
v 0.20000 1.25620 0.36600
v 0.20000 1.18620 0.37800
v 0.20000 1.18620 0.36600
v 0.04000 1.25620 0.36600
v 0.04000 1.25620 0.37800
v 0.04000 1.18620 0.36600
v 0.04000 1.18620 0.37800
v 0.04000 1.25620 0.36600
v 0.20000 1.25620 0.36600
v 0.04000 1.25620 0.37800
v 0.20000 1.25620 0.37800
v 0.04000 1.18620 0.37800
v 0.20000 1.18620 0.37800
v 0.04000 1.18620 0.36600
v 0.20000 1.18620 0.36600
v 0.04000 1.25620 0.37800
v 0.20000 1.25620 0.37800
v 0.04000 1.18620 0.37800
v 0.20000 1.18620 0.37800
v 0.20000 1.25620 0.36600
v 0.04000 1.25620 0.36600
v 0.20000 1.18620 0.36600
v 0.04000 1.18620 0.36600
vt 0.00000 0.00000
vt 1.00000 0.00000
vt 0.00000 1.00000
vt 1.00000 1.00000
vt 0.00000 0.00000
vt 1.00000 0.00000
vt 0.00000 1.00000
vt 1.00000 1.00000
vt 0.00000 0.00000
vt 1.00000 0.00000
vt 0.00000 1.00000
vt 1.00000 1.00000
vt 0.00000 0.00000
vt 1.00000 0.00000
vt 0.00000 1.00000
vt 1.00000 1.00000
vt 0.00000 0.00000
vt 1.00000 0.00000
vt 0.00000 1.00000
vt 1.00000 1.00000
vt 0.00000 0.00000
vt 1.00000 0.00000
vt 0.00000 1.00000
vt 1.00000 1.00000
f 537/537 539/539 538/538
f 539/539 540/540 538/538
f 541/541 543/543 542/542
f 543/543 544/544 542/542
f 545/545 547/547 546/546
f 547/547 548/548 546/546
f 549/549 551/551 550/550
f 551/551 552/552 550/550
f 553/553 555/555 554/554
f 555/555 556/556 554/554
f 557/557 559/559 558/558
f 559/559 560/560 558/558
v 0.38000 1.25620 0.37800
v 0.38000 1.25620 0.36600
v 0.38000 1.18620 0.37800
v 0.38000 1.18620 0.36600
v 0.22000 1.25620 0.36600
v 0.22000 1.25620 0.37800
v 0.22000 1.18620 0.36600
v 0.22000 1.18620 0.37800
v 0.22000 1.25620 0.36600
v 0.38000 1.25620 0.36600
v 0.22000 1.25620 0.37800
v 0.38000 1.25620 0.37800
v 0.22000 1.18620 0.37800
v 0.38000 1.18620 0.37800
v 0.22000 1.18620 0.36600
v 0.38000 1.18620 0.36600
v 0.22000 1.25620 0.37800
v 0.38000 1.25620 0.37800
v 0.22000 1.18620 0.37800
v 0.38000 1.18620 0.37800
v 0.38000 1.25620 0.36600
v 0.22000 1.25620 0.36600
v 0.38000 1.18620 0.36600
v 0.22000 1.18620 0.36600
vt 0.00000 0.00000
vt 1.00000 0.00000
vt 0.00000 1.00000
vt 1.00000 1.00000
vt 0.00000 0.00000
vt 1.00000 0.00000
vt 0.00000 1.00000
vt 1.00000 1.00000
vt 0.00000 0.00000
vt 1.00000 0.00000
vt 0.00000 1.00000
vt 1.00000 1.00000
vt 0.00000 0.00000
vt 1.00000 0.00000
vt 0.00000 1.00000
vt 1.00000 1.00000
vt 0.00000 0.00000
vt 1.00000 0.00000
vt 0.00000 1.00000
vt 1.00000 1.00000
vt 0.00000 0.00000
vt 1.00000 0.00000
vt 0.00000 1.00000
vt 1.00000 1.00000
f 561/561 563/563 562/562
f 563/563 564/564 562/562
f 565/565 567/567 566/566
f 567/567 568/568 566/566
f 569/569 571/571 570/570
f 571/571 572/572 570/570
f 573/573 575/575 574/574
f 575/575 576/576 574/574
f 577/577 579/579 578/578
f 579/579 580/580 578/578
f 581/581 583/583 582/582
f 583/583 584/584 582/582
usemtl mat_5
v 0.48500 1.12620 0.37600
v 0.48500 1.12620 0.35600
v 0.48500 0.32000 0.37600
v 0.48500 0.32000 0.35600
v -0.36500 1.12620 0.35600
v -0.36500 1.12620 0.37600
v -0.36500 0.32000 0.35600
v -0.36500 0.32000 0.37600
v -0.36500 1.12620 0.35600
v 0.48500 1.12620 0.35600
v -0.36500 1.12620 0.37600
v 0.48500 1.12620 0.37600
v -0.36500 0.32000 0.37600
v 0.48500 0.32000 0.37600
v -0.36500 0.32000 0.35600
v 0.48500 0.32000 0.35600
v -0.36500 1.12620 0.37600
v 0.48500 1.12620 0.37600
v -0.36500 0.32000 0.37600
v 0.48500 0.32000 0.37600
v 0.48500 1.12620 0.35600
v -0.36500 1.12620 0.35600
v 0.48500 0.32000 0.35600
v -0.36500 0.32000 0.35600
vt 0.00000 0.00000
vt 1.00000 0.00000
vt 0.00000 1.00000
vt 1.00000 1.00000
vt 0.00000 0.00000
vt 1.00000 0.00000
vt 0.00000 1.00000
vt 1.00000 1.00000
vt 0.00000 0.00000
vt 1.00000 0.00000
vt 0.00000 1.00000
vt 1.00000 1.00000
vt 0.00000 0.00000
vt 1.00000 0.00000
vt 0.00000 1.00000
vt 1.00000 1.00000
vt 0.00000 0.00000
vt 1.00000 0.00000
vt 0.00000 1.00000
vt 1.00000 1.00000
vt 0.00000 0.00000
vt 1.00000 0.00000
vt 0.00000 1.00000
vt 1.00000 1.00000
f 585/585 587/587 586/586
f 587/587 588/588 586/586
f 589/589 591/591 590/590
f 591/591 592/592 590/590
f 593/593 595/595 594/594
f 595/595 596/596 594/594
f 597/597 599/599 598/598
f 599/599 600/600 598/598
f 601/601 603/603 602/602
f 603/603 604/604 602/602
f 605/605 607/607 606/606
f 607/607 608/608 606/606
usemtl mat_6
v -0.32500 1.12620 0.38200
v -0.32500 1.12620 0.35800
v -0.32500 0.32000 0.38200
v -0.32500 0.32000 0.35800
v -0.48500 1.12620 0.35800
v -0.48500 1.12620 0.38200
v -0.48500 0.32000 0.35800
v -0.48500 0.32000 0.38200
v -0.48500 1.12620 0.35800
v -0.32500 1.12620 0.35800
v -0.48500 1.12620 0.38200
v -0.32500 1.12620 0.38200
v -0.48500 0.32000 0.38200
v -0.32500 0.32000 0.38200
v -0.48500 0.32000 0.35800
v -0.32500 0.32000 0.35800
v -0.48500 1.12620 0.38200
v -0.32500 1.12620 0.38200
v -0.48500 0.32000 0.38200
v -0.32500 0.32000 0.38200
v -0.32500 1.12620 0.35800
v -0.48500 1.12620 0.35800
v -0.32500 0.32000 0.35800
v -0.48500 0.32000 0.35800
vt 0.00000 0.00000
vt 1.00000 0.00000
vt 0.00000 1.00000
vt 1.00000 1.00000
vt 0.00000 0.00000
vt 1.00000 0.00000
vt 0.00000 1.00000
vt 1.00000 1.00000
vt 0.00000 0.00000
vt 1.00000 0.00000
vt 0.00000 1.00000
vt 1.00000 1.00000
vt 0.00000 0.00000
vt 1.00000 0.00000
vt 0.00000 1.00000
vt 1.00000 1.00000
vt 0.00000 0.00000
vt 1.00000 0.00000
vt 0.00000 1.00000
vt 1.00000 1.00000
vt 0.00000 0.00000
vt 1.00000 0.00000
vt 0.00000 1.00000
vt 1.00000 1.00000
f 609/609 611/611 610/610
f 611/611 612/612 610/610
f 613/613 615/615 614/614
f 615/615 616/616 614/614
f 617/617 619/619 618/618
f 619/619 620/620 618/618
f 621/621 623/623 622/622
f 623/623 624/624 622/622
f 625/625 627/627 626/626
f 627/627 628/628 626/626
f 629/629 631/631 630/630
f 631/631 632/632 630/630
usemtl mat_7
v 0.31500 1.08620 0.38150
v 0.31500 1.08620 0.36650
v 0.31500 0.92620 0.38150
v 0.31500 0.92620 0.36650
v 0.21500 1.08620 0.36650
v 0.21500 1.08620 0.38150
v 0.21500 0.92620 0.36650
v 0.21500 0.92620 0.38150
v 0.21500 1.08620 0.36650
v 0.31500 1.08620 0.36650
v 0.21500 1.08620 0.38150
v 0.31500 1.08620 0.38150
v 0.21500 0.92620 0.38150
v 0.31500 0.92620 0.38150
v 0.21500 0.92620 0.36650
v 0.31500 0.92620 0.36650
v 0.21500 1.08620 0.38150
v 0.31500 1.08620 0.38150
v 0.21500 0.92620 0.38150
v 0.31500 0.92620 0.38150
v 0.31500 1.08620 0.36650
v 0.21500 1.08620 0.36650
v 0.31500 0.92620 0.36650
v 0.21500 0.92620 0.36650
vt 0.00000 0.00000
vt 1.00000 0.00000
vt 0.00000 1.00000
vt 1.00000 1.00000
vt 0.00000 0.00000
vt 1.00000 0.00000
vt 0.00000 1.00000
vt 1.00000 1.00000
vt 0.00000 0.00000
vt 1.00000 0.00000
vt 0.00000 1.00000
vt 1.00000 1.00000
vt 0.00000 0.00000
vt 1.00000 0.00000
vt 0.00000 1.00000
vt 1.00000 1.00000
vt 0.00000 0.00000
vt 1.00000 0.00000
vt 0.00000 1.00000
vt 1.00000 1.00000
vt 0.00000 0.00000
vt 1.00000 0.00000
vt 0.00000 1.00000
vt 1.00000 1.00000
f 633/633 635/635 634/634
f 635/635 636/636 634/634
f 637/637 639/639 638/638
f 639/639 640/640 638/638
f 641/641 643/643 642/642
f 643/643 644/644 642/642
f 645/645 647/647 646/646
f 647/647 648/648 646/646
f 649/649 651/651 650/650
f 651/651 652/652 650/650
f 653/653 655/655 654/654
f 655/655 656/656 654/654
usemtl mat_8
v -0.42000 1.72000 0.37900
v -0.42000 1.72000 0.34900
v -0.42000 0.10000 0.37900
v -0.42000 0.10000 0.34900
v -0.45000 1.72000 0.34900
v -0.45000 1.72000 0.37900
v -0.45000 0.10000 0.34900
v -0.45000 0.10000 0.37900
v -0.45000 1.72000 0.34900
v -0.42000 1.72000 0.34900
v -0.45000 1.72000 0.37900
v -0.42000 1.72000 0.37900
v -0.45000 0.10000 0.37900
v -0.42000 0.10000 0.37900
v -0.45000 0.10000 0.34900
v -0.42000 0.10000 0.34900
v -0.45000 1.72000 0.37900
v -0.42000 1.72000 0.37900
v -0.45000 0.10000 0.37900
v -0.42000 0.10000 0.37900
v -0.42000 1.72000 0.34900
v -0.45000 1.72000 0.34900
v -0.42000 0.10000 0.34900
v -0.45000 0.10000 0.34900
vt 0.00000 0.00000
vt 1.00000 0.00000
vt 0.00000 1.00000
vt 1.00000 1.00000
vt 0.00000 0.00000
vt 1.00000 0.00000
vt 0.00000 1.00000
vt 1.00000 1.00000
vt 0.00000 0.00000
vt 1.00000 0.00000
vt 0.00000 1.00000
vt 1.00000 1.00000
vt 0.00000 0.00000
vt 1.00000 0.00000
vt 0.00000 1.00000
vt 1.00000 1.00000
vt 0.00000 0.00000
vt 1.00000 0.00000
vt 0.00000 1.00000
vt 1.00000 1.00000
vt 0.00000 0.00000
vt 1.00000 0.00000
vt 0.00000 1.00000
vt 1.00000 1.00000
f 657/657 659/659 658/658
f 659/659 660/660 658/658
f 661/661 663/663 662/662
f 663/663 664/664 662/662
f 665/665 667/667 666/666
f 667/667 668/668 666/666
f 669/669 671/671 670/670
f 671/671 672/672 670/670
f 673/673 675/675 674/674
f 675/675 676/676 674/674
f 677/677 679/679 678/678
f 679/679 680/680 678/678
v 0.45000 1.72000 0.37900
v 0.45000 1.72000 0.34900
v 0.45000 0.10000 0.37900
v 0.45000 0.10000 0.34900
v 0.42000 1.72000 0.34900
v 0.42000 1.72000 0.37900
v 0.42000 0.10000 0.34900
v 0.42000 0.10000 0.37900
v 0.42000 1.72000 0.34900
v 0.45000 1.72000 0.34900
v 0.42000 1.72000 0.37900
v 0.45000 1.72000 0.37900
v 0.42000 0.10000 0.37900
v 0.45000 0.10000 0.37900
v 0.42000 0.10000 0.34900
v 0.45000 0.10000 0.34900
v 0.42000 1.72000 0.37900
v 0.45000 1.72000 0.37900
v 0.42000 0.10000 0.37900
v 0.45000 0.10000 0.37900
v 0.45000 1.72000 0.34900
v 0.42000 1.72000 0.34900
v 0.45000 0.10000 0.34900
v 0.42000 0.10000 0.34900
vt 0.00000 0.00000
vt 1.00000 0.00000
vt 0.00000 1.00000
vt 1.00000 1.00000
vt 0.00000 0.00000
vt 1.00000 0.00000
vt 0.00000 1.00000
vt 1.00000 1.00000
vt 0.00000 0.00000
vt 1.00000 0.00000
vt 0.00000 1.00000
vt 1.00000 1.00000
vt 0.00000 0.00000
vt 1.00000 0.00000
vt 0.00000 1.00000
vt 1.00000 1.00000
vt 0.00000 0.00000
vt 1.00000 0.00000
vt 0.00000 1.00000
vt 1.00000 1.00000
vt 0.00000 0.00000
vt 1.00000 0.00000
vt 0.00000 1.00000
vt 1.00000 1.00000
f 681/681 683/683 682/682
f 683/683 684/684 682/682
f 685/685 687/687 686/686
f 687/687 688/688 686/686
f 689/689 691/691 690/690
f 691/691 692/692 690/690
f 693/693 695/695 694/694
f 695/695 696/696 694/694
f 697/697 699/699 698/698
f 699/699 700/700 698/698
f 701/701 703/703 702/702
f 703/703 704/704 702/702
usemtl mat_9
v 0.39000 0.02000 0.32800
v 0.40072 0.02000 0.32587
v 0.40980 0.02000 0.31980
v 0.41587 0.02000 0.31072
v 0.41800 0.02000 0.30000
v 0.41587 0.02000 0.28928
v 0.40980 0.02000 0.28020
v 0.40072 0.02000 0.27413
v 0.39000 0.02000 0.27200
v 0.37928 0.02000 0.27413
v 0.37020 0.02000 0.28020
v 0.36413 0.02000 0.28928
v 0.36200 0.02000 0.30000
v 0.36413 0.02000 0.31072
v 0.37020 0.02000 0.31980
v 0.37928 0.02000 0.32587
v 0.39000 0.02000 0.32800
v 0.39000 0.00000 0.32800
v 0.40072 0.00000 0.32587
v 0.40980 0.00000 0.31980
v 0.41587 0.00000 0.31072
v 0.41800 0.00000 0.30000
v 0.41587 0.00000 0.28928
v 0.40980 0.00000 0.28020
v 0.40072 0.00000 0.27413
v 0.39000 0.00000 0.27200
v 0.37928 0.00000 0.27413
v 0.37020 0.00000 0.28020
v 0.36413 0.00000 0.28928
v 0.36200 0.00000 0.30000
v 0.36413 0.00000 0.31072
v 0.37020 0.00000 0.31980
v 0.37928 0.00000 0.32587
v 0.39000 0.00000 0.32800
v 0.39000 0.02000 0.30000
v 0.39000 0.02000 0.30000
v 0.39000 0.02000 0.30000
v 0.39000 0.02000 0.30000
v 0.39000 0.02000 0.30000
v 0.39000 0.02000 0.30000
v 0.39000 0.02000 0.30000
v 0.39000 0.02000 0.30000
v 0.39000 0.02000 0.30000
v 0.39000 0.02000 0.30000
v 0.39000 0.02000 0.30000
v 0.39000 0.02000 0.30000
v 0.39000 0.02000 0.30000
v 0.39000 0.02000 0.30000
v 0.39000 0.02000 0.30000
v 0.39000 0.02000 0.30000
v 0.39000 0.02000 0.32800
v 0.40072 0.02000 0.32587
v 0.40980 0.02000 0.31980
v 0.41587 0.02000 0.31072
v 0.41800 0.02000 0.30000
v 0.41587 0.02000 0.28928
v 0.40980 0.02000 0.28020
v 0.40072 0.02000 0.27413
v 0.39000 0.02000 0.27200
v 0.37928 0.02000 0.27413
v 0.37020 0.02000 0.28020
v 0.36413 0.02000 0.28928
v 0.36200 0.02000 0.30000
v 0.36413 0.02000 0.31072
v 0.37020 0.02000 0.31980
v 0.37928 0.02000 0.32587
v 0.39000 0.02000 0.32800
v 0.39000 0.00000 0.30000
v 0.39000 0.00000 0.30000
v 0.39000 0.00000 0.30000
v 0.39000 0.00000 0.30000
v 0.39000 0.00000 0.30000
v 0.39000 0.00000 0.30000
v 0.39000 0.00000 0.30000
v 0.39000 0.00000 0.30000
v 0.39000 0.00000 0.30000
v 0.39000 0.00000 0.30000
v 0.39000 0.00000 0.30000
v 0.39000 0.00000 0.30000
v 0.39000 0.00000 0.30000
v 0.39000 0.00000 0.30000
v 0.39000 0.00000 0.30000
v 0.39000 0.00000 0.30000
v 0.39000 0.00000 0.32800
v 0.40072 0.00000 0.32587
v 0.40980 0.00000 0.31980
v 0.41587 0.00000 0.31072
v 0.41800 0.00000 0.30000
v 0.41587 0.00000 0.28928
v 0.40980 0.00000 0.28020
v 0.40072 0.00000 0.27413
v 0.39000 0.00000 0.27200
v 0.37928 0.00000 0.27413
v 0.37020 0.00000 0.28020
v 0.36413 0.00000 0.28928
v 0.36200 0.00000 0.30000
v 0.36413 0.00000 0.31072
v 0.37020 0.00000 0.31980
v 0.37928 0.00000 0.32587
v 0.39000 0.00000 0.32800
vt 0.00000 0.00000
vt 0.06250 0.00000
vt 0.12500 0.00000
vt 0.18750 0.00000
vt 0.25000 0.00000
vt 0.31250 0.00000
vt 0.37500 0.00000
vt 0.43750 0.00000
vt 0.50000 0.00000
vt 0.56250 0.00000
vt 0.62500 0.00000
vt 0.68750 0.00000
vt 0.75000 0.00000
vt 0.81250 0.00000
vt 0.87500 0.00000
vt 0.93750 0.00000
vt 1.00000 0.00000
vt 0.00000 1.00000
vt 0.06250 1.00000
vt 0.12500 1.00000
vt 0.18750 1.00000
vt 0.25000 1.00000
vt 0.31250 1.00000
vt 0.37500 1.00000
vt 0.43750 1.00000
vt 0.50000 1.00000
vt 0.56250 1.00000
vt 0.62500 1.00000
vt 0.68750 1.00000
vt 0.75000 1.00000
vt 0.81250 1.00000
vt 0.87500 1.00000
vt 0.93750 1.00000
vt 1.00000 1.00000
vt 0.50000 0.50000
vt 0.50000 0.50000
vt 0.50000 0.50000
vt 0.50000 0.50000
vt 0.50000 0.50000
vt 0.50000 0.50000
vt 0.50000 0.50000
vt 0.50000 0.50000
vt 0.50000 0.50000
vt 0.50000 0.50000
vt 0.50000 0.50000
vt 0.50000 0.50000
vt 0.50000 0.50000
vt 0.50000 0.50000
vt 0.50000 0.50000
vt 0.50000 0.50000
vt 1.00000 0.50000
vt 0.96194 0.30866
vt 0.85355 0.14645
vt 0.69134 0.03806
vt 0.50000 0.00000
vt 0.30866 0.03806
vt 0.14645 0.14645
vt 0.03806 0.30866
vt 0.00000 0.50000
vt 0.03806 0.69134
vt 0.14645 0.85355
vt 0.30866 0.96194
vt 0.50000 1.00000
vt 0.69134 0.96194
vt 0.85355 0.85355
vt 0.96194 0.69134
vt 1.00000 0.50000
vt 0.50000 0.50000
vt 0.50000 0.50000
vt 0.50000 0.50000
vt 0.50000 0.50000
vt 0.50000 0.50000
vt 0.50000 0.50000
vt 0.50000 0.50000
vt 0.50000 0.50000
vt 0.50000 0.50000
vt 0.50000 0.50000
vt 0.50000 0.50000
vt 0.50000 0.50000
vt 0.50000 0.50000
vt 0.50000 0.50000
vt 0.50000 0.50000
vt 0.50000 0.50000
vt 1.00000 0.50000
vt 0.96194 0.69134
vt 0.85355 0.85355
vt 0.69134 0.96194
vt 0.50000 1.00000
vt 0.30866 0.96194
vt 0.14645 0.85355
vt 0.03806 0.69134
vt 0.00000 0.50000
vt 0.03806 0.30866
vt 0.14645 0.14645
vt 0.30866 0.03806
vt 0.50000 0.00000
vt 0.69134 0.03806
vt 0.85355 0.14645
vt 0.96194 0.30866
vt 1.00000 0.50000
f 705/705 722/722 706/706
f 722/722 723/723 706/706
f 706/706 723/723 707/707
f 723/723 724/724 707/707
f 707/707 724/724 708/708
f 724/724 725/725 708/708
f 708/708 725/725 709/709
f 725/725 726/726 709/709
f 709/709 726/726 710/710
f 726/726 727/727 710/710
f 710/710 727/727 711/711
f 727/727 728/728 711/711
f 711/711 728/728 712/712
f 728/728 729/729 712/712
f 712/712 729/729 713/713
f 729/729 730/730 713/713
f 713/713 730/730 714/714
f 730/730 731/731 714/714
f 714/714 731/731 715/715
f 731/731 732/732 715/715
f 715/715 732/732 716/716
f 732/732 733/733 716/716
f 716/716 733/733 717/717
f 733/733 734/734 717/717
f 717/717 734/734 718/718
f 734/734 735/735 718/718
f 718/718 735/735 719/719
f 735/735 736/736 719/719
f 719/719 736/736 720/720
f 736/736 737/737 720/720
f 720/720 737/737 721/721
f 737/737 738/738 721/721
f 755/755 756/756 739/739
f 756/756 757/757 740/740
f 757/757 758/758 741/741
f 758/758 759/759 742/742
f 759/759 760/760 743/743
f 760/760 761/761 744/744
f 761/761 762/762 745/745
f 762/762 763/763 746/746
f 763/763 764/764 747/747
f 764/764 765/765 748/748
f 765/765 766/766 749/749
f 766/766 767/767 750/750
f 767/767 768/768 751/751
f 768/768 769/769 752/752
f 769/769 770/770 753/753
f 770/770 771/771 754/754
f 789/789 788/788 772/772
f 790/790 789/789 773/773
f 791/791 790/790 774/774
f 792/792 791/791 775/775
f 793/793 792/792 776/776
f 794/794 793/793 777/777
f 795/795 794/794 778/778
f 796/796 795/795 779/779
f 797/797 796/796 780/780
f 798/798 797/797 781/781
f 799/799 798/798 782/782
f 800/800 799/799 783/783
f 801/801 800/800 784/784
f 802/802 801/801 785/785
f 803/803 802/802 786/786
f 804/804 803/803 787/787
v -0.39000 0.02000 0.32800
v -0.37928 0.02000 0.32587
v -0.37020 0.02000 0.31980
v -0.36413 0.02000 0.31072
v -0.36200 0.02000 0.30000
v -0.36413 0.02000 0.28928
v -0.37020 0.02000 0.28020
v -0.37928 0.02000 0.27413
v -0.39000 0.02000 0.27200
v -0.40072 0.02000 0.27413
v -0.40980 0.02000 0.28020
v -0.41587 0.02000 0.28928
v -0.41800 0.02000 0.30000
v -0.41587 0.02000 0.31072
v -0.40980 0.02000 0.31980
v -0.40072 0.02000 0.32587
v -0.39000 0.02000 0.32800
v -0.39000 0.00000 0.32800
v -0.37928 0.00000 0.32587
v -0.37020 0.00000 0.31980
v -0.36413 0.00000 0.31072
v -0.36200 0.00000 0.30000
v -0.36413 0.00000 0.28928
v -0.37020 0.00000 0.28020
v -0.37928 0.00000 0.27413
v -0.39000 0.00000 0.27200
v -0.40072 0.00000 0.27413
v -0.40980 0.00000 0.28020
v -0.41587 0.00000 0.28928
v -0.41800 0.00000 0.30000
v -0.41587 0.00000 0.31072
v -0.40980 0.00000 0.31980
v -0.40072 0.00000 0.32587
v -0.39000 0.00000 0.32800
v -0.39000 0.02000 0.30000
v -0.39000 0.02000 0.30000
v -0.39000 0.02000 0.30000
v -0.39000 0.02000 0.30000
v -0.39000 0.02000 0.30000
v -0.39000 0.02000 0.30000
v -0.39000 0.02000 0.30000
v -0.39000 0.02000 0.30000
v -0.39000 0.02000 0.30000
v -0.39000 0.02000 0.30000
v -0.39000 0.02000 0.30000
v -0.39000 0.02000 0.30000
v -0.39000 0.02000 0.30000
v -0.39000 0.02000 0.30000
v -0.39000 0.02000 0.30000
v -0.39000 0.02000 0.30000
v -0.39000 0.02000 0.32800
v -0.37928 0.02000 0.32587
v -0.37020 0.02000 0.31980
v -0.36413 0.02000 0.31072
v -0.36200 0.02000 0.30000
v -0.36413 0.02000 0.28928
v -0.37020 0.02000 0.28020
v -0.37928 0.02000 0.27413
v -0.39000 0.02000 0.27200
v -0.40072 0.02000 0.27413
v -0.40980 0.02000 0.28020
v -0.41587 0.02000 0.28928
v -0.41800 0.02000 0.30000
v -0.41587 0.02000 0.31072
v -0.40980 0.02000 0.31980
v -0.40072 0.02000 0.32587
v -0.39000 0.02000 0.32800
v -0.39000 0.00000 0.30000
v -0.39000 0.00000 0.30000
v -0.39000 0.00000 0.30000
v -0.39000 0.00000 0.30000
v -0.39000 0.00000 0.30000
v -0.39000 0.00000 0.30000
v -0.39000 0.00000 0.30000
v -0.39000 0.00000 0.30000
v -0.39000 0.00000 0.30000
v -0.39000 0.00000 0.30000
v -0.39000 0.00000 0.30000
v -0.39000 0.00000 0.30000
v -0.39000 0.00000 0.30000
v -0.39000 0.00000 0.30000
v -0.39000 0.00000 0.30000
v -0.39000 0.00000 0.30000
v -0.39000 0.00000 0.32800
v -0.37928 0.00000 0.32587
v -0.37020 0.00000 0.31980
v -0.36413 0.00000 0.31072
v -0.36200 0.00000 0.30000
v -0.36413 0.00000 0.28928
v -0.37020 0.00000 0.28020
v -0.37928 0.00000 0.27413
v -0.39000 0.00000 0.27200
v -0.40072 0.00000 0.27413
v -0.40980 0.00000 0.28020
v -0.41587 0.00000 0.28928
v -0.41800 0.00000 0.30000
v -0.41587 0.00000 0.31072
v -0.40980 0.00000 0.31980
v -0.40072 0.00000 0.32587
v -0.39000 0.00000 0.32800
vt 0.00000 0.00000
vt 0.06250 0.00000
vt 0.12500 0.00000
vt 0.18750 0.00000
vt 0.25000 0.00000
vt 0.31250 0.00000
vt 0.37500 0.00000
vt 0.43750 0.00000
vt 0.50000 0.00000
vt 0.56250 0.00000
vt 0.62500 0.00000
vt 0.68750 0.00000
vt 0.75000 0.00000
vt 0.81250 0.00000
vt 0.87500 0.00000
vt 0.93750 0.00000
vt 1.00000 0.00000
vt 0.00000 1.00000
vt 0.06250 1.00000
vt 0.12500 1.00000
vt 0.18750 1.00000
vt 0.25000 1.00000
vt 0.31250 1.00000
vt 0.37500 1.00000
vt 0.43750 1.00000
vt 0.50000 1.00000
vt 0.56250 1.00000
vt 0.62500 1.00000
vt 0.68750 1.00000
vt 0.75000 1.00000
vt 0.81250 1.00000
vt 0.87500 1.00000
vt 0.93750 1.00000
vt 1.00000 1.00000
vt 0.50000 0.50000
vt 0.50000 0.50000
vt 0.50000 0.50000
vt 0.50000 0.50000
vt 0.50000 0.50000
vt 0.50000 0.50000
vt 0.50000 0.50000
vt 0.50000 0.50000
vt 0.50000 0.50000
vt 0.50000 0.50000
vt 0.50000 0.50000
vt 0.50000 0.50000
vt 0.50000 0.50000
vt 0.50000 0.50000
vt 0.50000 0.50000
vt 0.50000 0.50000
vt 1.00000 0.50000
vt 0.96194 0.30866
vt 0.85355 0.14645
vt 0.69134 0.03806
vt 0.50000 0.00000
vt 0.30866 0.03806
vt 0.14645 0.14645
vt 0.03806 0.30866
vt 0.00000 0.50000
vt 0.03806 0.69134
vt 0.14645 0.85355
vt 0.30866 0.96194
vt 0.50000 1.00000
vt 0.69134 0.96194
vt 0.85355 0.85355
vt 0.96194 0.69134
vt 1.00000 0.50000
vt 0.50000 0.50000
vt 0.50000 0.50000
vt 0.50000 0.50000
vt 0.50000 0.50000
vt 0.50000 0.50000
vt 0.50000 0.50000
vt 0.50000 0.50000
vt 0.50000 0.50000
vt 0.50000 0.50000
vt 0.50000 0.50000
vt 0.50000 0.50000
vt 0.50000 0.50000
vt 0.50000 0.50000
vt 0.50000 0.50000
vt 0.50000 0.50000
vt 0.50000 0.50000
vt 1.00000 0.50000
vt 0.96194 0.69134
vt 0.85355 0.85355
vt 0.69134 0.96194
vt 0.50000 1.00000
vt 0.30866 0.96194
vt 0.14645 0.85355
vt 0.03806 0.69134
vt 0.00000 0.50000
vt 0.03806 0.30866
vt 0.14645 0.14645
vt 0.30866 0.03806
vt 0.50000 0.00000
vt 0.69134 0.03806
vt 0.85355 0.14645
vt 0.96194 0.30866
vt 1.00000 0.50000
f 805/805 822/822 806/806
f 822/822 823/823 806/806
f 806/806 823/823 807/807
f 823/823 824/824 807/807
f 807/807 824/824 808/808
f 824/824 825/825 808/808
f 808/808 825/825 809/809
f 825/825 826/826 809/809
f 809/809 826/826 810/810
f 826/826 827/827 810/810
f 810/810 827/827 811/811
f 827/827 828/828 811/811
f 811/811 828/828 812/812
f 828/828 829/829 812/812
f 812/812 829/829 813/813
f 829/829 830/830 813/813
f 813/813 830/830 814/814
f 830/830 831/831 814/814
f 814/814 831/831 815/815
f 831/831 832/832 815/815
f 815/815 832/832 816/816
f 832/832 833/833 816/816
f 816/816 833/833 817/817
f 833/833 834/834 817/817
f 817/817 834/834 818/818
f 834/834 835/835 818/818
f 818/818 835/835 819/819
f 835/835 836/836 819/819
f 819/819 836/836 820/820
f 836/836 837/837 820/820
f 820/820 837/837 821/821
f 837/837 838/838 821/821
f 855/855 856/856 839/839
f 856/856 857/857 840/840
f 857/857 858/858 841/841
f 858/858 859/859 842/842
f 859/859 860/860 843/843
f 860/860 861/861 844/844
f 861/861 862/862 845/845
f 862/862 863/863 846/846
f 863/863 864/864 847/847
f 864/864 865/865 848/848
f 865/865 866/866 849/849
f 866/866 867/867 850/850
f 867/867 868/868 851/851
f 868/868 869/869 852/852
f 869/869 870/870 853/853
f 870/870 871/871 854/854
f 889/889 888/888 872/872
f 890/890 889/889 873/873
f 891/891 890/890 874/874
f 892/892 891/891 875/875
f 893/893 892/892 876/876
f 894/894 893/893 877/877
f 895/895 894/894 878/878
f 896/896 895/895 879/879
f 897/897 896/896 880/880
f 898/898 897/897 881/881
f 899/899 898/898 882/882
f 900/900 899/899 883/883
f 901/901 900/900 884/884
f 902/902 901/901 885/885
f 903/903 902/902 886/886
f 904/904 903/903 887/887
v 0.39000 0.02000 -0.27200
v 0.40072 0.02000 -0.27413
v 0.40980 0.02000 -0.28020
v 0.41587 0.02000 -0.28928
v 0.41800 0.02000 -0.30000
v 0.41587 0.02000 -0.31072
v 0.40980 0.02000 -0.31980
v 0.40072 0.02000 -0.32587
v 0.39000 0.02000 -0.32800
v 0.37928 0.02000 -0.32587
v 0.37020 0.02000 -0.31980
v 0.36413 0.02000 -0.31072
v 0.36200 0.02000 -0.30000
v 0.36413 0.02000 -0.28928
v 0.37020 0.02000 -0.28020
v 0.37928 0.02000 -0.27413
v 0.39000 0.02000 -0.27200
v 0.39000 0.00000 -0.27200
v 0.40072 0.00000 -0.27413
v 0.40980 0.00000 -0.28020
v 0.41587 0.00000 -0.28928
v 0.41800 0.00000 -0.30000
v 0.41587 0.00000 -0.31072
v 0.40980 0.00000 -0.31980
v 0.40072 0.00000 -0.32587
v 0.39000 0.00000 -0.32800
v 0.37928 0.00000 -0.32587
v 0.37020 0.00000 -0.31980
v 0.36413 0.00000 -0.31072
v 0.36200 0.00000 -0.30000
v 0.36413 0.00000 -0.28928
v 0.37020 0.00000 -0.28020
v 0.37928 0.00000 -0.27413
v 0.39000 0.00000 -0.27200
v 0.39000 0.02000 -0.30000
v 0.39000 0.02000 -0.30000
v 0.39000 0.02000 -0.30000
v 0.39000 0.02000 -0.30000
v 0.39000 0.02000 -0.30000
v 0.39000 0.02000 -0.30000
v 0.39000 0.02000 -0.30000
v 0.39000 0.02000 -0.30000
v 0.39000 0.02000 -0.30000
v 0.39000 0.02000 -0.30000
v 0.39000 0.02000 -0.30000
v 0.39000 0.02000 -0.30000
v 0.39000 0.02000 -0.30000
v 0.39000 0.02000 -0.30000
v 0.39000 0.02000 -0.30000
v 0.39000 0.02000 -0.30000
v 0.39000 0.02000 -0.27200
v 0.40072 0.02000 -0.27413
v 0.40980 0.02000 -0.28020
v 0.41587 0.02000 -0.28928
v 0.41800 0.02000 -0.30000
v 0.41587 0.02000 -0.31072
v 0.40980 0.02000 -0.31980
v 0.40072 0.02000 -0.32587
v 0.39000 0.02000 -0.32800
v 0.37928 0.02000 -0.32587
v 0.37020 0.02000 -0.31980
v 0.36413 0.02000 -0.31072
v 0.36200 0.02000 -0.30000
v 0.36413 0.02000 -0.28928
v 0.37020 0.02000 -0.28020
v 0.37928 0.02000 -0.27413
v 0.39000 0.02000 -0.27200
v 0.39000 0.00000 -0.30000
v 0.39000 0.00000 -0.30000
v 0.39000 0.00000 -0.30000
v 0.39000 0.00000 -0.30000
v 0.39000 0.00000 -0.30000
v 0.39000 0.00000 -0.30000
v 0.39000 0.00000 -0.30000
v 0.39000 0.00000 -0.30000
v 0.39000 0.00000 -0.30000
v 0.39000 0.00000 -0.30000
v 0.39000 0.00000 -0.30000
v 0.39000 0.00000 -0.30000
v 0.39000 0.00000 -0.30000
v 0.39000 0.00000 -0.30000
v 0.39000 0.00000 -0.30000
v 0.39000 0.00000 -0.30000
v 0.39000 0.00000 -0.27200
v 0.40072 0.00000 -0.27413
v 0.40980 0.00000 -0.28020
v 0.41587 0.00000 -0.28928
v 0.41800 0.00000 -0.30000
v 0.41587 0.00000 -0.31072
v 0.40980 0.00000 -0.31980
v 0.40072 0.00000 -0.32587
v 0.39000 0.00000 -0.32800
v 0.37928 0.00000 -0.32587
v 0.37020 0.00000 -0.31980
v 0.36413 0.00000 -0.31072
v 0.36200 0.00000 -0.30000
v 0.36413 0.00000 -0.28928
v 0.37020 0.00000 -0.28020
v 0.37928 0.00000 -0.27413
v 0.39000 0.00000 -0.27200
vt 0.00000 0.00000
vt 0.06250 0.00000
vt 0.12500 0.00000
vt 0.18750 0.00000
vt 0.25000 0.00000
vt 0.31250 0.00000
vt 0.37500 0.00000
vt 0.43750 0.00000
vt 0.50000 0.00000
vt 0.56250 0.00000
vt 0.62500 0.00000
vt 0.68750 0.00000
vt 0.75000 0.00000
vt 0.81250 0.00000
vt 0.87500 0.00000
vt 0.93750 0.00000
vt 1.00000 0.00000
vt 0.00000 1.00000
vt 0.06250 1.00000
vt 0.12500 1.00000
vt 0.18750 1.00000
vt 0.25000 1.00000
vt 0.31250 1.00000
vt 0.37500 1.00000
vt 0.43750 1.00000
vt 0.50000 1.00000
vt 0.56250 1.00000
vt 0.62500 1.00000
vt 0.68750 1.00000
vt 0.75000 1.00000
vt 0.81250 1.00000
vt 0.87500 1.00000
vt 0.93750 1.00000
vt 1.00000 1.00000
vt 0.50000 0.50000
vt 0.50000 0.50000
vt 0.50000 0.50000
vt 0.50000 0.50000
vt 0.50000 0.50000
vt 0.50000 0.50000
vt 0.50000 0.50000
vt 0.50000 0.50000
vt 0.50000 0.50000
vt 0.50000 0.50000
vt 0.50000 0.50000
vt 0.50000 0.50000
vt 0.50000 0.50000
vt 0.50000 0.50000
vt 0.50000 0.50000
vt 0.50000 0.50000
vt 1.00000 0.50000
vt 0.96194 0.30866
vt 0.85355 0.14645
vt 0.69134 0.03806
vt 0.50000 0.00000
vt 0.30866 0.03806
vt 0.14645 0.14645
vt 0.03806 0.30866
vt 0.00000 0.50000
vt 0.03806 0.69134
vt 0.14645 0.85355
vt 0.30866 0.96194
vt 0.50000 1.00000
vt 0.69134 0.96194
vt 0.85355 0.85355
vt 0.96194 0.69134
vt 1.00000 0.50000
vt 0.50000 0.50000
vt 0.50000 0.50000
vt 0.50000 0.50000
vt 0.50000 0.50000
vt 0.50000 0.50000
vt 0.50000 0.50000
vt 0.50000 0.50000
vt 0.50000 0.50000
vt 0.50000 0.50000
vt 0.50000 0.50000
vt 0.50000 0.50000
vt 0.50000 0.50000
vt 0.50000 0.50000
vt 0.50000 0.50000
vt 0.50000 0.50000
vt 0.50000 0.50000
vt 1.00000 0.50000
vt 0.96194 0.69134
vt 0.85355 0.85355
vt 0.69134 0.96194
vt 0.50000 1.00000
vt 0.30866 0.96194
vt 0.14645 0.85355
vt 0.03806 0.69134
vt 0.00000 0.50000
vt 0.03806 0.30866
vt 0.14645 0.14645
vt 0.30866 0.03806
vt 0.50000 0.00000
vt 0.69134 0.03806
vt 0.85355 0.14645
vt 0.96194 0.30866
vt 1.00000 0.50000
f 905/905 922/922 906/906
f 922/922 923/923 906/906
f 906/906 923/923 907/907
f 923/923 924/924 907/907
f 907/907 924/924 908/908
f 924/924 925/925 908/908
f 908/908 925/925 909/909
f 925/925 926/926 909/909
f 909/909 926/926 910/910
f 926/926 927/927 910/910
f 910/910 927/927 911/911
f 927/927 928/928 911/911
f 911/911 928/928 912/912
f 928/928 929/929 912/912
f 912/912 929/929 913/913
f 929/929 930/930 913/913
f 913/913 930/930 914/914
f 930/930 931/931 914/914
f 914/914 931/931 915/915
f 931/931 932/932 915/915
f 915/915 932/932 916/916
f 932/932 933/933 916/916
f 916/916 933/933 917/917
f 933/933 934/934 917/917
f 917/917 934/934 918/918
f 934/934 935/935 918/918
f 918/918 935/935 919/919
f 935/935 936/936 919/919
f 919/919 936/936 920/920
f 936/936 937/937 920/920
f 920/920 937/937 921/921
f 937/937 938/938 921/921
f 955/955 956/956 939/939
f 956/956 957/957 940/940
f 957/957 958/958 941/941
f 958/958 959/959 942/942
f 959/959 960/960 943/943
f 960/960 961/961 944/944
f 961/961 962/962 945/945
f 962/962 963/963 946/946
f 963/963 964/964 947/947
f 964/964 965/965 948/948
f 965/965 966/966 949/949
f 966/966 967/967 950/950
f 967/967 968/968 951/951
f 968/968 969/969 952/952
f 969/969 970/970 953/953
f 970/970 971/971 954/954
f 989/989 988/988 972/972
f 990/990 989/989 973/973
f 991/991 990/990 974/974
f 992/992 991/991 975/975
f 993/993 992/992 976/976
f 994/994 993/993 977/977
f 995/995 994/994 978/978
f 996/996 995/995 979/979
f 997/997 996/996 980/980
f 998/998 997/997 981/981
f 999/999 998/998 982/982
f 1000/1000 999/999 983/983
f 1001/1001 1000/1000 984/984
f 1002/1002 1001/1001 985/985
f 1003/1003 1002/1002 986/986
f 1004/1004 1003/1003 987/987
v -0.39000 0.02000 -0.27200
v -0.37928 0.02000 -0.27413
v -0.37020 0.02000 -0.28020
v -0.36413 0.02000 -0.28928
v -0.36200 0.02000 -0.30000
v -0.36413 0.02000 -0.31072
v -0.37020 0.02000 -0.31980
v -0.37928 0.02000 -0.32587
v -0.39000 0.02000 -0.32800
v -0.40072 0.02000 -0.32587
v -0.40980 0.02000 -0.31980
v -0.41587 0.02000 -0.31072
v -0.41800 0.02000 -0.30000
v -0.41587 0.02000 -0.28928
v -0.40980 0.02000 -0.28020
v -0.40072 0.02000 -0.27413
v -0.39000 0.02000 -0.27200
v -0.39000 0.00000 -0.27200
v -0.37928 0.00000 -0.27413
v -0.37020 0.00000 -0.28020
v -0.36413 0.00000 -0.28928
v -0.36200 0.00000 -0.30000
v -0.36413 0.00000 -0.31072
v -0.37020 0.00000 -0.31980
v -0.37928 0.00000 -0.32587
v -0.39000 0.00000 -0.32800
v -0.40072 0.00000 -0.32587
v -0.40980 0.00000 -0.31980
v -0.41587 0.00000 -0.31072
v -0.41800 0.00000 -0.30000
v -0.41587 0.00000 -0.28928
v -0.40980 0.00000 -0.28020
v -0.40072 0.00000 -0.27413
v -0.39000 0.00000 -0.27200
v -0.39000 0.02000 -0.30000
v -0.39000 0.02000 -0.30000
v -0.39000 0.02000 -0.30000
v -0.39000 0.02000 -0.30000
v -0.39000 0.02000 -0.30000
v -0.39000 0.02000 -0.30000
v -0.39000 0.02000 -0.30000
v -0.39000 0.02000 -0.30000
v -0.39000 0.02000 -0.30000
v -0.39000 0.02000 -0.30000
v -0.39000 0.02000 -0.30000
v -0.39000 0.02000 -0.30000
v -0.39000 0.02000 -0.30000
v -0.39000 0.02000 -0.30000
v -0.39000 0.02000 -0.30000
v -0.39000 0.02000 -0.30000
v -0.39000 0.02000 -0.27200
v -0.37928 0.02000 -0.27413
v -0.37020 0.02000 -0.28020
v -0.36413 0.02000 -0.28928
v -0.36200 0.02000 -0.30000
v -0.36413 0.02000 -0.31072
v -0.37020 0.02000 -0.31980
v -0.37928 0.02000 -0.32587
v -0.39000 0.02000 -0.32800
v -0.40072 0.02000 -0.32587
v -0.40980 0.02000 -0.31980
v -0.41587 0.02000 -0.31072
v -0.41800 0.02000 -0.30000
v -0.41587 0.02000 -0.28928
v -0.40980 0.02000 -0.28020
v -0.40072 0.02000 -0.27413
v -0.39000 0.02000 -0.27200
v -0.39000 0.00000 -0.30000
v -0.39000 0.00000 -0.30000
v -0.39000 0.00000 -0.30000
v -0.39000 0.00000 -0.30000
v -0.39000 0.00000 -0.30000
v -0.39000 0.00000 -0.30000
v -0.39000 0.00000 -0.30000
v -0.39000 0.00000 -0.30000
v -0.39000 0.00000 -0.30000
v -0.39000 0.00000 -0.30000
v -0.39000 0.00000 -0.30000
v -0.39000 0.00000 -0.30000
v -0.39000 0.00000 -0.30000
v -0.39000 0.00000 -0.30000
v -0.39000 0.00000 -0.30000
v -0.39000 0.00000 -0.30000
v -0.39000 0.00000 -0.27200
v -0.37928 0.00000 -0.27413
v -0.37020 0.00000 -0.28020
v -0.36413 0.00000 -0.28928
v -0.36200 0.00000 -0.30000
v -0.36413 0.00000 -0.31072
v -0.37020 0.00000 -0.31980
v -0.37928 0.00000 -0.32587
v -0.39000 0.00000 -0.32800
v -0.40072 0.00000 -0.32587
v -0.40980 0.00000 -0.31980
v -0.41587 0.00000 -0.31072
v -0.41800 0.00000 -0.30000
v -0.41587 0.00000 -0.28928
v -0.40980 0.00000 -0.28020
v -0.40072 0.00000 -0.27413
v -0.39000 0.00000 -0.27200
vt 0.00000 0.00000
vt 0.06250 0.00000
vt 0.12500 0.00000
vt 0.18750 0.00000
vt 0.25000 0.00000
vt 0.31250 0.00000
vt 0.37500 0.00000
vt 0.43750 0.00000
vt 0.50000 0.00000
vt 0.56250 0.00000
vt 0.62500 0.00000
vt 0.68750 0.00000
vt 0.75000 0.00000
vt 0.81250 0.00000
vt 0.87500 0.00000
vt 0.93750 0.00000
vt 1.00000 0.00000
vt 0.00000 1.00000
vt 0.06250 1.00000
vt 0.12500 1.00000
vt 0.18750 1.00000
vt 0.25000 1.00000
vt 0.31250 1.00000
vt 0.37500 1.00000
vt 0.43750 1.00000
vt 0.50000 1.00000
vt 0.56250 1.00000
vt 0.62500 1.00000
vt 0.68750 1.00000
vt 0.75000 1.00000
vt 0.81250 1.00000
vt 0.87500 1.00000
vt 0.93750 1.00000
vt 1.00000 1.00000
vt 0.50000 0.50000
vt 0.50000 0.50000
vt 0.50000 0.50000
vt 0.50000 0.50000
vt 0.50000 0.50000
vt 0.50000 0.50000
vt 0.50000 0.50000
vt 0.50000 0.50000
vt 0.50000 0.50000
vt 0.50000 0.50000
vt 0.50000 0.50000
vt 0.50000 0.50000
vt 0.50000 0.50000
vt 0.50000 0.50000
vt 0.50000 0.50000
vt 0.50000 0.50000
vt 1.00000 0.50000
vt 0.96194 0.30866
vt 0.85355 0.14645
vt 0.69134 0.03806
vt 0.50000 0.00000
vt 0.30866 0.03806
vt 0.14645 0.14645
vt 0.03806 0.30866
vt 0.00000 0.50000
vt 0.03806 0.69134
vt 0.14645 0.85355
vt 0.30866 0.96194
vt 0.50000 1.00000
vt 0.69134 0.96194
vt 0.85355 0.85355
vt 0.96194 0.69134
vt 1.00000 0.50000
vt 0.50000 0.50000
vt 0.50000 0.50000
vt 0.50000 0.50000
vt 0.50000 0.50000
vt 0.50000 0.50000
vt 0.50000 0.50000
vt 0.50000 0.50000
vt 0.50000 0.50000
vt 0.50000 0.50000
vt 0.50000 0.50000
vt 0.50000 0.50000
vt 0.50000 0.50000
vt 0.50000 0.50000
vt 0.50000 0.50000
vt 0.50000 0.50000
vt 0.50000 0.50000
vt 1.00000 0.50000
vt 0.96194 0.69134
vt 0.85355 0.85355
vt 0.69134 0.96194
vt 0.50000 1.00000
vt 0.30866 0.96194
vt 0.14645 0.85355
vt 0.03806 0.69134
vt 0.00000 0.50000
vt 0.03806 0.30866
vt 0.14645 0.14645
vt 0.30866 0.03806
vt 0.50000 0.00000
vt 0.69134 0.03806
vt 0.85355 0.14645
vt 0.96194 0.30866
vt 1.00000 0.50000
f 1005/1005 1022/1022 1006/1006
f 1022/1022 1023/1023 1006/1006
f 1006/1006 1023/1023 1007/1007
f 1023/1023 1024/1024 1007/1007
f 1007/1007 1024/1024 1008/1008
f 1024/1024 1025/1025 1008/1008
f 1008/1008 1025/1025 1009/1009
f 1025/1025 1026/1026 1009/1009
f 1009/1009 1026/1026 1010/1010
f 1026/1026 1027/1027 1010/1010
f 1010/1010 1027/1027 1011/1011
f 1027/1027 1028/1028 1011/1011
f 1011/1011 1028/1028 1012/1012
f 1028/1028 1029/1029 1012/1012
f 1012/1012 1029/1029 1013/1013
f 1029/1029 1030/1030 1013/1013
f 1013/1013 1030/1030 1014/1014
f 1030/1030 1031/1031 1014/1014
f 1014/1014 1031/1031 1015/1015
f 1031/1031 1032/1032 1015/1015
f 1015/1015 1032/1032 1016/1016
f 1032/1032 1033/1033 1016/1016
f 1016/1016 1033/1033 1017/1017
f 1033/1033 1034/1034 1017/1017
f 1017/1017 1034/1034 1018/1018
f 1034/1034 1035/1035 1018/1018
f 1018/1018 1035/1035 1019/1019
f 1035/1035 1036/1036 1019/1019
f 1019/1019 1036/1036 1020/1020
f 1036/1036 1037/1037 1020/1020
f 1020/1020 1037/1037 1021/1021
f 1037/1037 1038/1038 1021/1021
f 1055/1055 1056/1056 1039/1039
f 1056/1056 1057/1057 1040/1040
f 1057/1057 1058/1058 1041/1041
f 1058/1058 1059/1059 1042/1042
f 1059/1059 1060/1060 1043/1043
f 1060/1060 1061/1061 1044/1044
f 1061/1061 1062/1062 1045/1045
f 1062/1062 1063/1063 1046/1046
f 1063/1063 1064/1064 1047/1047
f 1064/1064 1065/1065 1048/1048
f 1065/1065 1066/1066 1049/1049
f 1066/1066 1067/1067 1050/1050
f 1067/1067 1068/1068 1051/1051
f 1068/1068 1069/1069 1052/1052
f 1069/1069 1070/1070 1053/1053
f 1070/1070 1071/1071 1054/1054
f 1089/1089 1088/1088 1072/1072
f 1090/1090 1089/1089 1073/1073
f 1091/1091 1090/1090 1074/1074
f 1092/1092 1091/1091 1075/1075
f 1093/1093 1092/1092 1076/1076
f 1094/1094 1093/1093 1077/1077
f 1095/1095 1094/1094 1078/1078
f 1096/1096 1095/1095 1079/1079
f 1097/1097 1096/1096 1080/1080
f 1098/1098 1097/1097 1081/1081
f 1099/1099 1098/1098 1082/1082
f 1100/1100 1099/1099 1083/1083
f 1101/1101 1100/1100 1084/1084
f 1102/1102 1101/1101 1085/1085
f 1103/1103 1102/1102 1086/1086
f 1104/1104 1103/1103 1087/1087
