mtllib SpinalBackboard.mtl
o SpinalBackboard
usemtl backboard_orange
v 0.91500 0.06300 0.14200
v 0.91500 0.06300 -0.14200
v 0.91500 0.01800 0.14200
v 0.91500 0.01800 -0.14200
v -0.91500 0.06300 -0.14200
v -0.91500 0.06300 0.14200
v -0.91500 0.01800 -0.14200
v -0.91500 0.01800 0.14200
v -0.91500 0.06300 -0.14200
v 0.91500 0.06300 -0.14200
v -0.91500 0.06300 0.14200
v 0.91500 0.06300 0.14200
v -0.91500 0.01800 0.14200
v 0.91500 0.01800 0.14200
v -0.91500 0.01800 -0.14200
v 0.91500 0.01800 -0.14200
v -0.91500 0.06300 0.14200
v 0.91500 0.06300 0.14200
v -0.91500 0.01800 0.14200
v 0.91500 0.01800 0.14200
v 0.91500 0.06300 -0.14200
v -0.91500 0.06300 -0.14200
v 0.91500 0.01800 -0.14200
v -0.91500 0.01800 -0.14200
v 0.91500 0.06300 -0.17700
v 0.91500 0.06300 -0.20500
v 0.91500 0.01800 -0.17700
v 0.91500 0.01800 -0.20500
v -0.91500 0.06300 -0.20500
v -0.91500 0.06300 -0.17700
v -0.91500 0.01800 -0.20500
v -0.91500 0.01800 -0.17700
v -0.91500 0.06300 -0.20500
v 0.91500 0.06300 -0.20500
v -0.91500 0.06300 -0.17700
v 0.91500 0.06300 -0.17700
v -0.91500 0.01800 -0.17700
v 0.91500 0.01800 -0.17700
v -0.91500 0.01800 -0.20500
v 0.91500 0.01800 -0.20500
v -0.91500 0.06300 -0.17700
v 0.91500 0.06300 -0.17700
v -0.91500 0.01800 -0.17700
v 0.91500 0.01800 -0.17700
v 0.91500 0.06300 -0.20500
v -0.91500 0.06300 -0.20500
v 0.91500 0.01800 -0.20500
v -0.91500 0.01800 -0.20500
v 0.91500 0.06300 0.20500
v 0.91500 0.06300 0.17700
v 0.91500 0.01800 0.20500
v 0.91500 0.01800 0.17700
v -0.91500 0.06300 0.17700
v -0.91500 0.06300 0.20500
v -0.91500 0.01800 0.17700
v -0.91500 0.01800 0.20500
v -0.91500 0.06300 0.17700
v 0.91500 0.06300 0.17700
v -0.91500 0.06300 0.20500
v 0.91500 0.06300 0.20500
v -0.91500 0.01800 0.20500
v 0.91500 0.01800 0.20500
v -0.91500 0.01800 0.17700
v 0.91500 0.01800 0.17700
v -0.91500 0.06300 0.20500
v 0.91500 0.06300 0.20500
v -0.91500 0.01800 0.20500
v 0.91500 0.01800 0.20500
v 0.91500 0.06300 0.17700
v -0.91500 0.06300 0.17700
v 0.91500 0.01800 0.17700
v -0.91500 0.01800 0.17700
v -0.77500 0.06300 -0.14200
v -0.77500 0.06300 -0.17700
v -0.77500 0.01800 -0.14200
v -0.77500 0.01800 -0.17700
v -0.91500 0.06300 -0.17700
v -0.91500 0.06300 -0.14200
v -0.91500 0.01800 -0.17700
v -0.91500 0.01800 -0.14200
v -0.91500 0.06300 -0.17700
v -0.77500 0.06300 -0.17700
v -0.91500 0.06300 -0.14200
v -0.77500 0.06300 -0.14200
v -0.91500 0.01800 -0.14200
v -0.77500 0.01800 -0.14200
v -0.91500 0.01800 -0.17700
v -0.77500 0.01800 -0.17700
v -0.91500 0.06300 -0.14200
v -0.77500 0.06300 -0.14200
v -0.91500 0.01800 -0.14200
v -0.77500 0.01800 -0.14200
v -0.77500 0.06300 -0.17700
v -0.91500 0.06300 -0.17700
v -0.77500 0.01800 -0.17700
v -0.91500 0.01800 -0.17700
v -0.55500 0.06300 -0.14200
v -0.55500 0.06300 -0.17700
v -0.55500 0.01800 -0.14200
v -0.55500 0.01800 -0.17700
v -0.66500 0.06300 -0.17700
v -0.66500 0.06300 -0.14200
v -0.66500 0.01800 -0.17700
v -0.66500 0.01800 -0.14200
v -0.66500 0.06300 -0.17700
v -0.55500 0.06300 -0.17700
v -0.66500 0.06300 -0.14200
v -0.55500 0.06300 -0.14200
v -0.66500 0.01800 -0.14200
v -0.55500 0.01800 -0.14200
v -0.66500 0.01800 -0.17700
v -0.55500 0.01800 -0.17700
v -0.66500 0.06300 -0.14200
v -0.55500 0.06300 -0.14200
v -0.66500 0.01800 -0.14200
v -0.55500 0.01800 -0.14200
v -0.55500 0.06300 -0.17700
v -0.66500 0.06300 -0.17700
v -0.55500 0.01800 -0.17700
v -0.66500 0.01800 -0.17700
v -0.33500 0.06300 -0.14200
v -0.33500 0.06300 -0.17700
v -0.33500 0.01800 -0.14200
v -0.33500 0.01800 -0.17700
v -0.44500 0.06300 -0.17700
v -0.44500 0.06300 -0.14200
v -0.44500 0.01800 -0.17700
v -0.44500 0.01800 -0.14200
v -0.44500 0.06300 -0.17700
v -0.33500 0.06300 -0.17700
v -0.44500 0.06300 -0.14200
v -0.33500 0.06300 -0.14200
v -0.44500 0.01800 -0.14200
v -0.33500 0.01800 -0.14200
v -0.44500 0.01800 -0.17700
v -0.33500 0.01800 -0.17700
v -0.44500 0.06300 -0.14200
v -0.33500 0.06300 -0.14200
v -0.44500 0.01800 -0.14200
v -0.33500 0.01800 -0.14200
v -0.33500 0.06300 -0.17700
v -0.44500 0.06300 -0.17700
v -0.33500 0.01800 -0.17700
v -0.44500 0.01800 -0.17700
v 0.22500 0.06300 -0.14200
v 0.22500 0.06300 -0.17700
v 0.22500 0.01800 -0.14200
v 0.22500 0.01800 -0.17700
v -0.22500 0.06300 -0.17700
v -0.22500 0.06300 -0.14200
v -0.22500 0.01800 -0.17700
v -0.22500 0.01800 -0.14200
v -0.22500 0.06300 -0.17700
v 0.22500 0.06300 -0.17700
v -0.22500 0.06300 -0.14200
v 0.22500 0.06300 -0.14200
v -0.22500 0.01800 -0.14200
v 0.22500 0.01800 -0.14200
v -0.22500 0.01800 -0.17700
v 0.22500 0.01800 -0.17700
v -0.22500 0.06300 -0.14200
v 0.22500 0.06300 -0.14200
v -0.22500 0.01800 -0.14200
v 0.22500 0.01800 -0.14200
v 0.22500 0.06300 -0.17700
v -0.22500 0.06300 -0.17700
v 0.22500 0.01800 -0.17700
v -0.22500 0.01800 -0.17700
v 0.44500 0.06300 -0.14200
v 0.44500 0.06300 -0.17700
v 0.44500 0.01800 -0.14200
v 0.44500 0.01800 -0.17700
v 0.33500 0.06300 -0.17700
v 0.33500 0.06300 -0.14200
v 0.33500 0.01800 -0.17700
v 0.33500 0.01800 -0.14200
v 0.33500 0.06300 -0.17700
v 0.44500 0.06300 -0.17700
v 0.33500 0.06300 -0.14200
v 0.44500 0.06300 -0.14200
v 0.33500 0.01800 -0.14200
v 0.44500 0.01800 -0.14200
v 0.33500 0.01800 -0.17700
v 0.44500 0.01800 -0.17700
v 0.33500 0.06300 -0.14200
v 0.44500 0.06300 -0.14200
v 0.33500 0.01800 -0.14200
v 0.44500 0.01800 -0.14200
v 0.44500 0.06300 -0.17700
v 0.33500 0.06300 -0.17700
v 0.44500 0.01800 -0.17700
v 0.33500 0.01800 -0.17700
v 0.66500 0.06300 -0.14200
v 0.66500 0.06300 -0.17700
v 0.66500 0.01800 -0.14200
v 0.66500 0.01800 -0.17700
v 0.55500 0.06300 -0.17700
v 0.55500 0.06300 -0.14200
v 0.55500 0.01800 -0.17700
v 0.55500 0.01800 -0.14200
v 0.55500 0.06300 -0.17700
v 0.66500 0.06300 -0.17700
v 0.55500 0.06300 -0.14200
v 0.66500 0.06300 -0.14200
v 0.55500 0.01800 -0.14200
v 0.66500 0.01800 -0.14200
v 0.55500 0.01800 -0.17700
v 0.66500 0.01800 -0.17700
v 0.55500 0.06300 -0.14200
v 0.66500 0.06300 -0.14200
v 0.55500 0.01800 -0.14200
v 0.66500 0.01800 -0.14200
v 0.66500 0.06300 -0.17700
v 0.55500 0.06300 -0.17700
v 0.66500 0.01800 -0.17700
v 0.55500 0.01800 -0.17700
v 0.91500 0.06300 -0.14200
v 0.91500 0.06300 -0.17700
v 0.91500 0.01800 -0.14200
v 0.91500 0.01800 -0.17700
v 0.77500 0.06300 -0.17700
v 0.77500 0.06300 -0.14200
v 0.77500 0.01800 -0.17700
v 0.77500 0.01800 -0.14200
v 0.77500 0.06300 -0.17700
v 0.91500 0.06300 -0.17700
v 0.77500 0.06300 -0.14200
v 0.91500 0.06300 -0.14200
v 0.77500 0.01800 -0.14200
v 0.91500 0.01800 -0.14200
v 0.77500 0.01800 -0.17700
v 0.91500 0.01800 -0.17700
v 0.77500 0.06300 -0.14200
v 0.91500 0.06300 -0.14200
v 0.77500 0.01800 -0.14200
v 0.91500 0.01800 -0.14200
v 0.91500 0.06300 -0.17700
v 0.77500 0.06300 -0.17700
v 0.91500 0.01800 -0.17700
v 0.77500 0.01800 -0.17700
v -0.77500 0.06300 0.17700
v -0.77500 0.06300 0.14200
v -0.77500 0.01800 0.17700
v -0.77500 0.01800 0.14200
v -0.91500 0.06300 0.14200
v -0.91500 0.06300 0.17700
v -0.91500 0.01800 0.14200
v -0.91500 0.01800 0.17700
v -0.91500 0.06300 0.14200
v -0.77500 0.06300 0.14200
v -0.91500 0.06300 0.17700
v -0.77500 0.06300 0.17700
v -0.91500 0.01800 0.17700
v -0.77500 0.01800 0.17700
v -0.91500 0.01800 0.14200
v -0.77500 0.01800 0.14200
v -0.91500 0.06300 0.17700
v -0.77500 0.06300 0.17700
v -0.91500 0.01800 0.17700
v -0.77500 0.01800 0.17700
v -0.77500 0.06300 0.14200
v -0.91500 0.06300 0.14200
v -0.77500 0.01800 0.14200
v -0.91500 0.01800 0.14200
v -0.55500 0.06300 0.17700
v -0.55500 0.06300 0.14200
v -0.55500 0.01800 0.17700
v -0.55500 0.01800 0.14200
v -0.66500 0.06300 0.14200
v -0.66500 0.06300 0.17700
v -0.66500 0.01800 0.14200
v -0.66500 0.01800 0.17700
v -0.66500 0.06300 0.14200
v -0.55500 0.06300 0.14200
v -0.66500 0.06300 0.17700
v -0.55500 0.06300 0.17700
v -0.66500 0.01800 0.17700
v -0.55500 0.01800 0.17700
v -0.66500 0.01800 0.14200
v -0.55500 0.01800 0.14200
v -0.66500 0.06300 0.17700
v -0.55500 0.06300 0.17700
v -0.66500 0.01800 0.17700
v -0.55500 0.01800 0.17700
v -0.55500 0.06300 0.14200
v -0.66500 0.06300 0.14200
v -0.55500 0.01800 0.14200
v -0.66500 0.01800 0.14200
v -0.33500 0.06300 0.17700
v -0.33500 0.06300 0.14200
v -0.33500 0.01800 0.17700
v -0.33500 0.01800 0.14200
v -0.44500 0.06300 0.14200
v -0.44500 0.06300 0.17700
v -0.44500 0.01800 0.14200
v -0.44500 0.01800 0.17700
v -0.44500 0.06300 0.14200
v -0.33500 0.06300 0.14200
v -0.44500 0.06300 0.17700
v -0.33500 0.06300 0.17700
v -0.44500 0.01800 0.17700
v -0.33500 0.01800 0.17700
v -0.44500 0.01800 0.14200
v -0.33500 0.01800 0.14200
v -0.44500 0.06300 0.17700
v -0.33500 0.06300 0.17700
v -0.44500 0.01800 0.17700
v -0.33500 0.01800 0.17700
v -0.33500 0.06300 0.14200
v -0.44500 0.06300 0.14200
v -0.33500 0.01800 0.14200
v -0.44500 0.01800 0.14200
v 0.22500 0.06300 0.17700
v 0.22500 0.06300 0.14200
v 0.22500 0.01800 0.17700
v 0.22500 0.01800 0.14200
v -0.22500 0.06300 0.14200
v -0.22500 0.06300 0.17700
v -0.22500 0.01800 0.14200
v -0.22500 0.01800 0.17700
v -0.22500 0.06300 0.14200
v 0.22500 0.06300 0.14200
v -0.22500 0.06300 0.17700
v 0.22500 0.06300 0.17700
v -0.22500 0.01800 0.17700
v 0.22500 0.01800 0.17700
v -0.22500 0.01800 0.14200
v 0.22500 0.01800 0.14200
v -0.22500 0.06300 0.17700
v 0.22500 0.06300 0.17700
v -0.22500 0.01800 0.17700
v 0.22500 0.01800 0.17700
v 0.22500 0.06300 0.14200
v -0.22500 0.06300 0.14200
v 0.22500 0.01800 0.14200
v -0.22500 0.01800 0.14200
v 0.44500 0.06300 0.17700
v 0.44500 0.06300 0.14200
v 0.44500 0.01800 0.17700
v 0.44500 0.01800 0.14200
v 0.33500 0.06300 0.14200
v 0.33500 0.06300 0.17700
v 0.33500 0.01800 0.14200
v 0.33500 0.01800 0.17700
v 0.33500 0.06300 0.14200
v 0.44500 0.06300 0.14200
v 0.33500 0.06300 0.17700
v 0.44500 0.06300 0.17700
v 0.33500 0.01800 0.17700
v 0.44500 0.01800 0.17700
v 0.33500 0.01800 0.14200
v 0.44500 0.01800 0.14200
v 0.33500 0.06300 0.17700
v 0.44500 0.06300 0.17700
v 0.33500 0.01800 0.17700
v 0.44500 0.01800 0.17700
v 0.44500 0.06300 0.14200
v 0.33500 0.06300 0.14200
v 0.44500 0.01800 0.14200
v 0.33500 0.01800 0.14200
v 0.66500 0.06300 0.17700
v 0.66500 0.06300 0.14200
v 0.66500 0.01800 0.17700
v 0.66500 0.01800 0.14200
v 0.55500 0.06300 0.14200
v 0.55500 0.06300 0.17700
v 0.55500 0.01800 0.14200
v 0.55500 0.01800 0.17700
v 0.55500 0.06300 0.14200
v 0.66500 0.06300 0.14200
v 0.55500 0.06300 0.17700
v 0.66500 0.06300 0.17700
v 0.55500 0.01800 0.17700
v 0.66500 0.01800 0.17700
v 0.55500 0.01800 0.14200
v 0.66500 0.01800 0.14200
v 0.55500 0.06300 0.17700
v 0.66500 0.06300 0.17700
v 0.55500 0.01800 0.17700
v 0.66500 0.01800 0.17700
v 0.66500 0.06300 0.14200
v 0.55500 0.06300 0.14200
v 0.66500 0.01800 0.14200
v 0.55500 0.01800 0.14200
v 0.91500 0.06300 0.17700
v 0.91500 0.06300 0.14200
v 0.91500 0.01800 0.17700
v 0.91500 0.01800 0.14200
v 0.77500 0.06300 0.14200
v 0.77500 0.06300 0.17700
v 0.77500 0.01800 0.14200
v 0.77500 0.01800 0.17700
v 0.77500 0.06300 0.14200
v 0.91500 0.06300 0.14200
v 0.77500 0.06300 0.17700
v 0.91500 0.06300 0.17700
v 0.77500 0.01800 0.17700
v 0.91500 0.01800 0.17700
v 0.77500 0.01800 0.14200
v 0.91500 0.01800 0.14200
v 0.77500 0.06300 0.17700
v 0.91500 0.06300 0.17700
v 0.77500 0.01800 0.17700
v 0.91500 0.01800 0.17700
v 0.91500 0.06300 0.14200
v 0.77500 0.06300 0.14200
v 0.91500 0.01800 0.14200
v 0.77500 0.01800 0.14200
f 1 3 2
f 3 4 2
f 5 7 6
f 7 8 6
f 9 11 10
f 11 12 10
f 13 15 14
f 15 16 14
f 17 19 18
f 19 20 18
f 21 23 22
f 23 24 22
f 25 27 26
f 27 28 26
f 29 31 30
f 31 32 30
f 33 35 34
f 35 36 34
f 37 39 38
f 39 40 38
f 41 43 42
f 43 44 42
f 45 47 46
f 47 48 46
f 49 51 50
f 51 52 50
f 53 55 54
f 55 56 54
f 57 59 58
f 59 60 58
f 61 63 62
f 63 64 62
f 65 67 66
f 67 68 66
f 69 71 70
f 71 72 70
f 73 75 74
f 75 76 74
f 77 79 78
f 79 80 78
f 81 83 82
f 83 84 82
f 85 87 86
f 87 88 86
f 89 91 90
f 91 92 90
f 93 95 94
f 95 96 94
f 97 99 98
f 99 100 98
f 101 103 102
f 103 104 102
f 105 107 106
f 107 108 106
f 109 111 110
f 111 112 110
f 113 115 114
f 115 116 114
f 117 119 118
f 119 120 118
f 121 123 122
f 123 124 122
f 125 127 126
f 127 128 126
f 129 131 130
f 131 132 130
f 133 135 134
f 135 136 134
f 137 139 138
f 139 140 138
f 141 143 142
f 143 144 142
f 145 147 146
f 147 148 146
f 149 151 150
f 151 152 150
f 153 155 154
f 155 156 154
f 157 159 158
f 159 160 158
f 161 163 162
f 163 164 162
f 165 167 166
f 167 168 166
f 169 171 170
f 171 172 170
f 173 175 174
f 175 176 174
f 177 179 178
f 179 180 178
f 181 183 182
f 183 184 182
f 185 187 186
f 187 188 186
f 189 191 190
f 191 192 190
f 193 195 194
f 195 196 194
f 197 199 198
f 199 200 198
f 201 203 202
f 203 204 202
f 205 207 206
f 207 208 206
f 209 211 210
f 211 212 210
f 213 215 214
f 215 216 214
f 217 219 218
f 219 220 218
f 221 223 222
f 223 224 222
f 225 227 226
f 227 228 226
f 229 231 230
f 231 232 230
f 233 235 234
f 235 236 234
f 237 239 238
f 239 240 238
f 241 243 242
f 243 244 242
f 245 247 246
f 247 248 246
f 249 251 250
f 251 252 250
f 253 255 254
f 255 256 254
f 257 259 258
f 259 260 258
f 261 263 262
f 263 264 262
f 265 267 266
f 267 268 266
f 269 271 270
f 271 272 270
f 273 275 274
f 275 276 274
f 277 279 278
f 279 280 278
f 281 283 282
f 283 284 282
f 285 287 286
f 287 288 286
f 289 291 290
f 291 292 290
f 293 295 294
f 295 296 294
f 297 299 298
f 299 300 298
f 301 303 302
f 303 304 302
f 305 307 306
f 307 308 306
f 309 311 310
f 311 312 310
f 313 315 314
f 315 316 314
f 317 319 318
f 319 320 318
f 321 323 322
f 323 324 322
f 325 327 326
f 327 328 326
f 329 331 330
f 331 332 330
f 333 335 334
f 335 336 334
f 337 339 338
f 339 340 338
f 341 343 342
f 343 344 342
f 345 347 346
f 347 348 346
f 349 351 350
f 351 352 350
f 353 355 354
f 355 356 354
f 357 359 358
f 359 360 358
f 361 363 362
f 363 364 362
f 365 367 366
f 367 368 366
f 369 371 370
f 371 372 370
f 373 375 374
f 375 376 374
f 377 379 378
f 379 380 378
f 381 383 382
f 383 384 382
f 385 387 386
f 387 388 386
f 389 391 390
f 391 392 390
f 393 395 394
f 395 396 394
f 397 399 398
f 399 400 398
f 401 403 402
f 403 404 402
f 405 407 406
f 407 408 406
v -0.91500 0.06300 0.15500
v -0.91500 0.06300 -0.15500
v -0.91500 0.01800 0.15500
v -0.91500 0.01800 -0.15500
v -1.00500 0.06300 -0.15500
v -1.00500 0.06300 0.15500
v -1.00500 0.01800 -0.15500
v -1.00500 0.01800 0.15500
v -1.00500 0.06300 -0.15500
v -0.91500 0.06300 -0.15500
v -1.00500 0.06300 0.15500
v -0.91500 0.06300 0.15500
v -1.00500 0.01800 0.15500
v -0.91500 0.01800 0.15500
v -1.00500 0.01800 -0.15500
v -0.91500 0.01800 -0.15500
v -1.00500 0.06300 0.15500
v -0.91500 0.06300 0.15500
v -1.00500 0.01800 0.15500
v -0.91500 0.01800 0.15500
v -0.91500 0.06300 -0.15500
v -1.00500 0.06300 -0.15500
v -0.91500 0.01800 -0.15500
v -1.00500 0.01800 -0.15500
vt 0.00000 0.00000
vt 1.00000 0.00000
vt 0.00000 1.00000
vt 1.00000 1.00000
vt 0.00000 0.00000
vt 1.00000 0.00000
vt 0.00000 1.00000
vt 1.00000 1.00000
vt 0.00000 0.00000
vt 1.00000 0.00000
vt 0.00000 1.00000
vt 1.00000 1.00000
vt 0.00000 0.00000
vt 1.00000 0.00000
vt 0.00000 1.00000
vt 1.00000 1.00000
vt 0.00000 0.00000
vt 1.00000 0.00000
vt 0.00000 1.00000
vt 1.00000 1.00000
vt 0.00000 0.00000
vt 1.00000 0.00000
vt 0.00000 1.00000
vt 1.00000 1.00000
f 409/1 411/3 410/2
f 411/3 412/4 410/2
f 413/5 415/7 414/6
f 415/7 416/8 414/6
f 417/9 419/11 418/10
f 419/11 420/12 418/10
f 421/13 423/15 422/14
f 423/15 424/16 422/14
f 425/17 427/19 426/18
f 427/19 428/20 426/18
f 429/21 431/23 430/22
f 431/23 432/24 430/22
v 1.00500 0.06300 0.15500
v 1.00500 0.06300 -0.15500
v 1.00500 0.01800 0.15500
v 1.00500 0.01800 -0.15500
v 0.91500 0.06300 -0.15500
v 0.91500 0.06300 0.15500
v 0.91500 0.01800 -0.15500
v 0.91500 0.01800 0.15500
v 0.91500 0.06300 -0.15500
v 1.00500 0.06300 -0.15500
v 0.91500 0.06300 0.15500
v 1.00500 0.06300 0.15500
v 0.91500 0.01800 0.15500
v 1.00500 0.01800 0.15500
v 0.91500 0.01800 -0.15500
v 1.00500 0.01800 -0.15500
v 0.91500 0.06300 0.15500
v 1.00500 0.06300 0.15500
v 0.91500 0.01800 0.15500
v 1.00500 0.01800 0.15500
v 1.00500 0.06300 -0.15500
v 0.91500 0.06300 -0.15500
v 1.00500 0.01800 -0.15500
v 0.91500 0.01800 -0.15500
vt 0.00000 0.00000
vt 1.00000 0.00000
vt 0.00000 1.00000
vt 1.00000 1.00000
vt 0.00000 0.00000
vt 1.00000 0.00000
vt 0.00000 1.00000
vt 1.00000 1.00000
vt 0.00000 0.00000
vt 1.00000 0.00000
vt 0.00000 1.00000
vt 1.00000 1.00000
vt 0.00000 0.00000
vt 1.00000 0.00000
vt 0.00000 1.00000
vt 1.00000 1.00000
vt 0.00000 0.00000
vt 1.00000 0.00000
vt 0.00000 1.00000
vt 1.00000 1.00000
vt 0.00000 0.00000
vt 1.00000 0.00000
vt 0.00000 1.00000
vt 1.00000 1.00000
f 433/25 435/27 434/26
f 435/27 436/28 434/26
f 437/29 439/31 438/30
f 439/31 440/32 438/30
f 441/33 443/35 442/34
f 443/35 444/36 442/34
f 445/37 447/39 446/38
f 447/39 448/40 446/38
f 449/41 451/43 450/42
f 451/43 452/44 450/42
f 453/45 455/47 454/46
f 455/47 456/48 454/46
usemtl handhold_dark
v -0.60000 0.06500 -0.10200
v -0.60000 0.06500 -0.12200
v -0.60000 0.01600 -0.10200
v -0.60000 0.01600 -0.12200
v -0.62000 0.06500 -0.12200
v -0.62000 0.06500 -0.10200
v -0.62000 0.01600 -0.12200
v -0.62000 0.01600 -0.10200
v -0.62000 0.06500 -0.12200
v -0.60000 0.06500 -0.12200
v -0.62000 0.06500 -0.10200
v -0.60000 0.06500 -0.10200
v -0.62000 0.01600 -0.10200
v -0.60000 0.01600 -0.10200
v -0.62000 0.01600 -0.12200
v -0.60000 0.01600 -0.12200
v -0.62000 0.06500 -0.10200
v -0.60000 0.06500 -0.10200
v -0.62000 0.01600 -0.10200
v -0.60000 0.01600 -0.10200
v -0.60000 0.06500 -0.12200
v -0.62000 0.06500 -0.12200
v -0.60000 0.01600 -0.12200
v -0.62000 0.01600 -0.12200
vt 0.00000 0.00000
vt 1.00000 0.00000
vt 0.00000 1.00000
vt 1.00000 1.00000
vt 0.00000 0.00000
vt 1.00000 0.00000
vt 0.00000 1.00000
vt 1.00000 1.00000
vt 0.00000 0.00000
vt 1.00000 0.00000
vt 0.00000 1.00000
vt 1.00000 1.00000
vt 0.00000 0.00000
vt 1.00000 0.00000
vt 0.00000 1.00000
vt 1.00000 1.00000
vt 0.00000 0.00000
vt 1.00000 0.00000
vt 0.00000 1.00000
vt 1.00000 1.00000
vt 0.00000 0.00000
vt 1.00000 0.00000
vt 0.00000 1.00000
vt 1.00000 1.00000
f 457/49 459/51 458/50
f 459/51 460/52 458/50
f 461/53 463/55 462/54
f 463/55 464/56 462/54
f 465/57 467/59 466/58
f 467/59 468/60 466/58
f 469/61 471/63 470/62
f 471/63 472/64 470/62
f 473/65 475/67 474/66
f 475/67 476/68 474/66
f 477/69 479/71 478/70
f 479/71 480/72 478/70
v -0.60000 0.06500 0.12200
v -0.60000 0.06500 0.10200
v -0.60000 0.01600 0.12200
v -0.60000 0.01600 0.10200
v -0.62000 0.06500 0.10200
v -0.62000 0.06500 0.12200
v -0.62000 0.01600 0.10200
v -0.62000 0.01600 0.12200
v -0.62000 0.06500 0.10200
v -0.60000 0.06500 0.10200
v -0.62000 0.06500 0.12200
v -0.60000 0.06500 0.12200
v -0.62000 0.01600 0.12200
v -0.60000 0.01600 0.12200
v -0.62000 0.01600 0.10200
v -0.60000 0.01600 0.10200
v -0.62000 0.06500 0.12200
v -0.60000 0.06500 0.12200
v -0.62000 0.01600 0.12200
v -0.60000 0.01600 0.12200
v -0.60000 0.06500 0.10200
v -0.62000 0.06500 0.10200
v -0.60000 0.01600 0.10200
v -0.62000 0.01600 0.10200
vt 0.00000 0.00000
vt 1.00000 0.00000
vt 0.00000 1.00000
vt 1.00000 1.00000
vt 0.00000 0.00000
vt 1.00000 0.00000
vt 0.00000 1.00000
vt 1.00000 1.00000
vt 0.00000 0.00000
vt 1.00000 0.00000
vt 0.00000 1.00000
vt 1.00000 1.00000
vt 0.00000 0.00000
vt 1.00000 0.00000
vt 0.00000 1.00000
vt 1.00000 1.00000
vt 0.00000 0.00000
vt 1.00000 0.00000
vt 0.00000 1.00000
vt 1.00000 1.00000
vt 0.00000 0.00000
vt 1.00000 0.00000
vt 0.00000 1.00000
vt 1.00000 1.00000
f 481/73 483/75 482/74
f 483/75 484/76 482/74
f 485/77 487/79 486/78
f 487/79 488/80 486/78
f 489/81 491/83 490/82
f 491/83 492/84 490/82
f 493/85 495/87 494/86
f 495/87 496/88 494/86
f 497/89 499/91 498/90
f 499/91 500/92 498/90
f 501/93 503/95 502/94
f 503/95 504/96 502/94
v -0.38000 0.06500 -0.10200
v -0.38000 0.06500 -0.12200
v -0.38000 0.01600 -0.10200
v -0.38000 0.01600 -0.12200
v -0.40000 0.06500 -0.12200
v -0.40000 0.06500 -0.10200
v -0.40000 0.01600 -0.12200
v -0.40000 0.01600 -0.10200
v -0.40000 0.06500 -0.12200
v -0.38000 0.06500 -0.12200
v -0.40000 0.06500 -0.10200
v -0.38000 0.06500 -0.10200
v -0.40000 0.01600 -0.10200
v -0.38000 0.01600 -0.10200
v -0.40000 0.01600 -0.12200
v -0.38000 0.01600 -0.12200
v -0.40000 0.06500 -0.10200
v -0.38000 0.06500 -0.10200
v -0.40000 0.01600 -0.10200
v -0.38000 0.01600 -0.10200
v -0.38000 0.06500 -0.12200
v -0.40000 0.06500 -0.12200
v -0.38000 0.01600 -0.12200
v -0.40000 0.01600 -0.12200
vt 0.00000 0.00000
vt 1.00000 0.00000
vt 0.00000 1.00000
vt 1.00000 1.00000
vt 0.00000 0.00000
vt 1.00000 0.00000
vt 0.00000 1.00000
vt 1.00000 1.00000
vt 0.00000 0.00000
vt 1.00000 0.00000
vt 0.00000 1.00000
vt 1.00000 1.00000
vt 0.00000 0.00000
vt 1.00000 0.00000
vt 0.00000 1.00000
vt 1.00000 1.00000
vt 0.00000 0.00000
vt 1.00000 0.00000
vt 0.00000 1.00000
vt 1.00000 1.00000
vt 0.00000 0.00000
vt 1.00000 0.00000
vt 0.00000 1.00000
vt 1.00000 1.00000
f 505/97 507/99 506/98
f 507/99 508/100 506/98
f 509/101 511/103 510/102
f 511/103 512/104 510/102
f 513/105 515/107 514/106
f 515/107 516/108 514/106
f 517/109 519/111 518/110
f 519/111 520/112 518/110
f 521/113 523/115 522/114
f 523/115 524/116 522/114
f 525/117 527/119 526/118
f 527/119 528/120 526/118
v -0.38000 0.06500 0.12200
v -0.38000 0.06500 0.10200
v -0.38000 0.01600 0.12200
v -0.38000 0.01600 0.10200
v -0.40000 0.06500 0.10200
v -0.40000 0.06500 0.12200
v -0.40000 0.01600 0.10200
v -0.40000 0.01600 0.12200
v -0.40000 0.06500 0.10200
v -0.38000 0.06500 0.10200
v -0.40000 0.06500 0.12200
v -0.38000 0.06500 0.12200
v -0.40000 0.01600 0.12200
v -0.38000 0.01600 0.12200
v -0.40000 0.01600 0.10200
v -0.38000 0.01600 0.10200
v -0.40000 0.06500 0.12200
v -0.38000 0.06500 0.12200
v -0.40000 0.01600 0.12200
v -0.38000 0.01600 0.12200
v -0.38000 0.06500 0.10200
v -0.40000 0.06500 0.10200
v -0.38000 0.01600 0.10200
v -0.40000 0.01600 0.10200
vt 0.00000 0.00000
vt 1.00000 0.00000
vt 0.00000 1.00000
vt 1.00000 1.00000
vt 0.00000 0.00000
vt 1.00000 0.00000
vt 0.00000 1.00000
vt 1.00000 1.00000
vt 0.00000 0.00000
vt 1.00000 0.00000
vt 0.00000 1.00000
vt 1.00000 1.00000
vt 0.00000 0.00000
vt 1.00000 0.00000
vt 0.00000 1.00000
vt 1.00000 1.00000
vt 0.00000 0.00000
vt 1.00000 0.00000
vt 0.00000 1.00000
vt 1.00000 1.00000
vt 0.00000 0.00000
vt 1.00000 0.00000
vt 0.00000 1.00000
vt 1.00000 1.00000
f 529/121 531/123 530/122
f 531/123 532/124 530/122
f 533/125 535/127 534/126
f 535/127 536/128 534/126
f 537/129 539/131 538/130
f 539/131 540/132 538/130
f 541/133 543/135 542/134
f 543/135 544/136 542/134
f 545/137 547/139 546/138
f 547/139 548/140 546/138
f 549/141 551/143 550/142
f 551/143 552/144 550/142
v 0.40000 0.06500 -0.10200
v 0.40000 0.06500 -0.12200
v 0.40000 0.01600 -0.10200
v 0.40000 0.01600 -0.12200
v 0.38000 0.06500 -0.12200
v 0.38000 0.06500 -0.10200
v 0.38000 0.01600 -0.12200
v 0.38000 0.01600 -0.10200
v 0.38000 0.06500 -0.12200
v 0.40000 0.06500 -0.12200
v 0.38000 0.06500 -0.10200
v 0.40000 0.06500 -0.10200
v 0.38000 0.01600 -0.10200
v 0.40000 0.01600 -0.10200
v 0.38000 0.01600 -0.12200
v 0.40000 0.01600 -0.12200
v 0.38000 0.06500 -0.10200
v 0.40000 0.06500 -0.10200
v 0.38000 0.01600 -0.10200
v 0.40000 0.01600 -0.10200
v 0.40000 0.06500 -0.12200
v 0.38000 0.06500 -0.12200
v 0.40000 0.01600 -0.12200
v 0.38000 0.01600 -0.12200
vt 0.00000 0.00000
vt 1.00000 0.00000
vt 0.00000 1.00000
vt 1.00000 1.00000
vt 0.00000 0.00000
vt 1.00000 0.00000
vt 0.00000 1.00000
vt 1.00000 1.00000
vt 0.00000 0.00000
vt 1.00000 0.00000
vt 0.00000 1.00000
vt 1.00000 1.00000
vt 0.00000 0.00000
vt 1.00000 0.00000
vt 0.00000 1.00000
vt 1.00000 1.00000
vt 0.00000 0.00000
vt 1.00000 0.00000
vt 0.00000 1.00000
vt 1.00000 1.00000
vt 0.00000 0.00000
vt 1.00000 0.00000
vt 0.00000 1.00000
vt 1.00000 1.00000
f 553/145 555/147 554/146
f 555/147 556/148 554/146
f 557/149 559/151 558/150
f 559/151 560/152 558/150
f 561/153 563/155 562/154
f 563/155 564/156 562/154
f 565/157 567/159 566/158
f 567/159 568/160 566/158
f 569/161 571/163 570/162
f 571/163 572/164 570/162
f 573/165 575/167 574/166
f 575/167 576/168 574/166
v 0.40000 0.06500 0.12200
v 0.40000 0.06500 0.10200
v 0.40000 0.01600 0.12200
v 0.40000 0.01600 0.10200
v 0.38000 0.06500 0.10200
v 0.38000 0.06500 0.12200
v 0.38000 0.01600 0.10200
v 0.38000 0.01600 0.12200
v 0.38000 0.06500 0.10200
v 0.40000 0.06500 0.10200
v 0.38000 0.06500 0.12200
v 0.40000 0.06500 0.12200
v 0.38000 0.01600 0.12200
v 0.40000 0.01600 0.12200
v 0.38000 0.01600 0.10200
v 0.40000 0.01600 0.10200
v 0.38000 0.06500 0.12200
v 0.40000 0.06500 0.12200
v 0.38000 0.01600 0.12200
v 0.40000 0.01600 0.12200
v 0.40000 0.06500 0.10200
v 0.38000 0.06500 0.10200
v 0.40000 0.01600 0.10200
v 0.38000 0.01600 0.10200
vt 0.00000 0.00000
vt 1.00000 0.00000
vt 0.00000 1.00000
vt 1.00000 1.00000
vt 0.00000 0.00000
vt 1.00000 0.00000
vt 0.00000 1.00000
vt 1.00000 1.00000
vt 0.00000 0.00000
vt 1.00000 0.00000
vt 0.00000 1.00000
vt 1.00000 1.00000
vt 0.00000 0.00000
vt 1.00000 0.00000
vt 0.00000 1.00000
vt 1.00000 1.00000
vt 0.00000 0.00000
vt 1.00000 0.00000
vt 0.00000 1.00000
vt 1.00000 1.00000
vt 0.00000 0.00000
vt 1.00000 0.00000
vt 0.00000 1.00000
vt 1.00000 1.00000
f 577/169 579/171 578/170
f 579/171 580/172 578/170
f 581/173 583/175 582/174
f 583/175 584/176 582/174
f 585/177 587/179 586/178
f 587/179 588/180 586/178
f 589/181 591/183 590/182
f 591/183 592/184 590/182
f 593/185 595/187 594/186
f 595/187 596/188 594/186
f 597/189 599/191 598/190
f 599/191 600/192 598/190
v 0.62000 0.06500 -0.10200
v 0.62000 0.06500 -0.12200
v 0.62000 0.01600 -0.10200
v 0.62000 0.01600 -0.12200
v 0.60000 0.06500 -0.12200
v 0.60000 0.06500 -0.10200
v 0.60000 0.01600 -0.12200
v 0.60000 0.01600 -0.10200
v 0.60000 0.06500 -0.12200
v 0.62000 0.06500 -0.12200
v 0.60000 0.06500 -0.10200
v 0.62000 0.06500 -0.10200
v 0.60000 0.01600 -0.10200
v 0.62000 0.01600 -0.10200
v 0.60000 0.01600 -0.12200
v 0.62000 0.01600 -0.12200
v 0.60000 0.06500 -0.10200
v 0.62000 0.06500 -0.10200
v 0.60000 0.01600 -0.10200
v 0.62000 0.01600 -0.10200
v 0.62000 0.06500 -0.12200
v 0.60000 0.06500 -0.12200
v 0.62000 0.01600 -0.12200
v 0.60000 0.01600 -0.12200
vt 0.00000 0.00000
vt 1.00000 0.00000
vt 0.00000 1.00000
vt 1.00000 1.00000
vt 0.00000 0.00000
vt 1.00000 0.00000
vt 0.00000 1.00000
vt 1.00000 1.00000
vt 0.00000 0.00000
vt 1.00000 0.00000
vt 0.00000 1.00000
vt 1.00000 1.00000
vt 0.00000 0.00000
vt 1.00000 0.00000
vt 0.00000 1.00000
vt 1.00000 1.00000
vt 0.00000 0.00000
vt 1.00000 0.00000
vt 0.00000 1.00000
vt 1.00000 1.00000
vt 0.00000 0.00000
vt 1.00000 0.00000
vt 0.00000 1.00000
vt 1.00000 1.00000
f 601/193 603/195 602/194
f 603/195 604/196 602/194
f 605/197 607/199 606/198
f 607/199 608/200 606/198
f 609/201 611/203 610/202
f 611/203 612/204 610/202
f 613/205 615/207 614/206
f 615/207 616/208 614/206
f 617/209 619/211 618/210
f 619/211 620/212 618/210
f 621/213 623/215 622/214
f 623/215 624/216 622/214
v 0.62000 0.06500 0.12200
v 0.62000 0.06500 0.10200
v 0.62000 0.01600 0.12200
v 0.62000 0.01600 0.10200
v 0.60000 0.06500 0.10200
v 0.60000 0.06500 0.12200
v 0.60000 0.01600 0.10200
v 0.60000 0.01600 0.12200
v 0.60000 0.06500 0.10200
v 0.62000 0.06500 0.10200
v 0.60000 0.06500 0.12200
v 0.62000 0.06500 0.12200
v 0.60000 0.01600 0.12200
v 0.62000 0.01600 0.12200
v 0.60000 0.01600 0.10200
v 0.62000 0.01600 0.10200
v 0.60000 0.06500 0.12200
v 0.62000 0.06500 0.12200
v 0.60000 0.01600 0.12200
v 0.62000 0.01600 0.12200
v 0.62000 0.06500 0.10200
v 0.60000 0.06500 0.10200
v 0.62000 0.01600 0.10200
v 0.60000 0.01600 0.10200
vt 0.00000 0.00000
vt 1.00000 0.00000
vt 0.00000 1.00000
vt 1.00000 1.00000
vt 0.00000 0.00000
vt 1.00000 0.00000
vt 0.00000 1.00000
vt 1.00000 1.00000
vt 0.00000 0.00000
vt 1.00000 0.00000
vt 0.00000 1.00000
vt 1.00000 1.00000
vt 0.00000 0.00000
vt 1.00000 0.00000
vt 0.00000 1.00000
vt 1.00000 1.00000
vt 0.00000 0.00000
vt 1.00000 0.00000
vt 0.00000 1.00000
vt 1.00000 1.00000
vt 0.00000 0.00000
vt 1.00000 0.00000
vt 0.00000 1.00000
vt 1.00000 1.00000
f 625/217 627/219 626/218
f 627/219 628/220 626/218
f 629/221 631/223 630/222
f 631/223 632/224 630/222
f 633/225 635/227 634/226
f 635/227 636/228 634/226
f 637/229 639/231 638/230
f 639/231 640/232 638/230
f 641/233 643/235 642/234
f 643/235 644/236 642/234
f 645/237 647/239 646/238
f 647/239 648/240 646/238
usemtl backboard_recess
v -0.52500 0.01800 0.17500
v -0.52500 0.01800 -0.17500
v -0.52500 0.00000 0.17500
v -0.52500 0.00000 -0.17500
v -0.57500 0.01800 -0.17500
v -0.57500 0.01800 0.17500
v -0.57500 0.00000 -0.17500
v -0.57500 0.00000 0.17500
v -0.57500 0.01800 -0.17500
v -0.52500 0.01800 -0.17500
v -0.57500 0.01800 0.17500
v -0.52500 0.01800 0.17500
v -0.57500 0.00000 0.17500
v -0.52500 0.00000 0.17500
v -0.57500 0.00000 -0.17500
v -0.52500 0.00000 -0.17500
v -0.57500 0.01800 0.17500
v -0.52500 0.01800 0.17500
v -0.57500 0.00000 0.17500
v -0.52500 0.00000 0.17500
v -0.52500 0.01800 -0.17500
v -0.57500 0.01800 -0.17500
v -0.52500 0.00000 -0.17500
v -0.57500 0.00000 -0.17500
vt 0.00000 0.00000
vt 1.00000 0.00000
vt 0.00000 1.00000
vt 1.00000 1.00000
vt 0.00000 0.00000
vt 1.00000 0.00000
vt 0.00000 1.00000
vt 1.00000 1.00000
vt 0.00000 0.00000
vt 1.00000 0.00000
vt 0.00000 1.00000
vt 1.00000 1.00000
vt 0.00000 0.00000
vt 1.00000 0.00000
vt 0.00000 1.00000
vt 1.00000 1.00000
vt 0.00000 0.00000
vt 1.00000 0.00000
vt 0.00000 1.00000
vt 1.00000 1.00000
vt 0.00000 0.00000
vt 1.00000 0.00000
vt 0.00000 1.00000
vt 1.00000 1.00000
f 649/241 651/243 650/242
f 651/243 652/244 650/242
f 653/245 655/247 654/246
f 655/247 656/248 654/246
f 657/249 659/251 658/250
f 659/251 660/252 658/250
f 661/253 663/255 662/254
f 663/255 664/256 662/254
f 665/257 667/259 666/258
f 667/259 668/260 666/258
f 669/261 671/263 670/262
f 671/263 672/264 670/262
v 0.02500 0.01800 0.17500
v 0.02500 0.01800 -0.17500
v 0.02500 0.00000 0.17500
v 0.02500 0.00000 -0.17500
v -0.02500 0.01800 -0.17500
v -0.02500 0.01800 0.17500
v -0.02500 0.00000 -0.17500
v -0.02500 0.00000 0.17500
v -0.02500 0.01800 -0.17500
v 0.02500 0.01800 -0.17500
v -0.02500 0.01800 0.17500
v 0.02500 0.01800 0.17500
v -0.02500 0.00000 0.17500
v 0.02500 0.00000 0.17500
v -0.02500 0.00000 -0.17500
v 0.02500 0.00000 -0.17500
v -0.02500 0.01800 0.17500
v 0.02500 0.01800 0.17500
v -0.02500 0.00000 0.17500
v 0.02500 0.00000 0.17500
v 0.02500 0.01800 -0.17500
v -0.02500 0.01800 -0.17500
v 0.02500 0.00000 -0.17500
v -0.02500 0.00000 -0.17500
vt 0.00000 0.00000
vt 1.00000 0.00000
vt 0.00000 1.00000
vt 1.00000 1.00000
vt 0.00000 0.00000
vt 1.00000 0.00000
vt 0.00000 1.00000
vt 1.00000 1.00000
vt 0.00000 0.00000
vt 1.00000 0.00000
vt 0.00000 1.00000
vt 1.00000 1.00000
vt 0.00000 0.00000
vt 1.00000 0.00000
vt 0.00000 1.00000
vt 1.00000 1.00000
vt 0.00000 0.00000
vt 1.00000 0.00000
vt 0.00000 1.00000
vt 1.00000 1.00000
vt 0.00000 0.00000
vt 1.00000 0.00000
vt 0.00000 1.00000
vt 1.00000 1.00000
f 673/265 675/267 674/266
f 675/267 676/268 674/266
f 677/269 679/271 678/270
f 679/271 680/272 678/270
f 681/273 683/275 682/274
f 683/275 684/276 682/274
f 685/277 687/279 686/278
f 687/279 688/280 686/278
f 689/281 691/283 690/282
f 691/283 692/284 690/282
f 693/285 695/287 694/286
f 695/287 696/288 694/286
v 0.57500 0.01800 0.17500
v 0.57500 0.01800 -0.17500
v 0.57500 0.00000 0.17500
v 0.57500 0.00000 -0.17500
v 0.52500 0.01800 -0.17500
v 0.52500 0.01800 0.17500
v 0.52500 0.00000 -0.17500
v 0.52500 0.00000 0.17500
v 0.52500 0.01800 -0.17500
v 0.57500 0.01800 -0.17500
v 0.52500 0.01800 0.17500
v 0.57500 0.01800 0.17500
v 0.52500 0.00000 0.17500
v 0.57500 0.00000 0.17500
v 0.52500 0.00000 -0.17500
v 0.57500 0.00000 -0.17500
v 0.52500 0.01800 0.17500
v 0.57500 0.01800 0.17500
v 0.52500 0.00000 0.17500
v 0.57500 0.00000 0.17500
v 0.57500 0.01800 -0.17500
v 0.52500 0.01800 -0.17500
v 0.57500 0.00000 -0.17500
v 0.52500 0.00000 -0.17500
vt 0.00000 0.00000
vt 1.00000 0.00000
vt 0.00000 1.00000
vt 1.00000 1.00000
vt 0.00000 0.00000
vt 1.00000 0.00000
vt 0.00000 1.00000
vt 1.00000 1.00000
vt 0.00000 0.00000
vt 1.00000 0.00000
vt 0.00000 1.00000
vt 1.00000 1.00000
vt 0.00000 0.00000
vt 1.00000 0.00000
vt 0.00000 1.00000
vt 1.00000 1.00000
vt 0.00000 0.00000
vt 1.00000 0.00000
vt 0.00000 1.00000
vt 1.00000 1.00000
vt 0.00000 0.00000
vt 1.00000 0.00000
vt 0.00000 1.00000
vt 1.00000 1.00000
f 697/289 699/291 698/290
f 699/291 700/292 698/290
f 701/293 703/295 702/294
f 703/295 704/296 702/294
f 705/297 707/299 706/298
f 707/299 708/300 706/298
f 709/301 711/303 710/302
f 711/303 712/304 710/302
f 713/305 715/307 714/306
f 715/307 716/308 714/306
f 717/309 719/311 718/310
f 719/311 720/312 718/310
usemtl strap_black
v -0.17500 0.06900 0.21000
v -0.17500 0.06900 -0.21000
v -0.17500 0.06300 0.21000
v -0.17500 0.06300 -0.21000
v -0.22500 0.06900 -0.21000
v -0.22500 0.06900 0.21000
v -0.22500 0.06300 -0.21000
v -0.22500 0.06300 0.21000
v -0.22500 0.06900 -0.21000
v -0.17500 0.06900 -0.21000
v -0.22500 0.06900 0.21000
v -0.17500 0.06900 0.21000
v -0.22500 0.06300 0.21000
v -0.17500 0.06300 0.21000
v -0.22500 0.06300 -0.21000
v -0.17500 0.06300 -0.21000
v -0.22500 0.06900 0.21000
v -0.17500 0.06900 0.21000
v -0.22500 0.06300 0.21000
v -0.17500 0.06300 0.21000
v -0.17500 0.06900 -0.21000
v -0.22500 0.06900 -0.21000
v -0.17500 0.06300 -0.21000
v -0.22500 0.06300 -0.21000
vt 0.00000 0.00000
vt 1.00000 0.00000
vt 0.00000 1.00000
vt 1.00000 1.00000
vt 0.00000 0.00000
vt 1.00000 0.00000
vt 0.00000 1.00000
vt 1.00000 1.00000
vt 0.00000 0.00000
vt 1.00000 0.00000
vt 0.00000 1.00000
vt 1.00000 1.00000
vt 0.00000 0.00000
vt 1.00000 0.00000
vt 0.00000 1.00000
vt 1.00000 1.00000
vt 0.00000 0.00000
vt 1.00000 0.00000
vt 0.00000 1.00000
vt 1.00000 1.00000
vt 0.00000 0.00000
vt 1.00000 0.00000
vt 0.00000 1.00000
vt 1.00000 1.00000
f 721/313 723/315 722/314
f 723/315 724/316 722/314
f 725/317 727/319 726/318
f 727/319 728/320 726/318
f 729/321 731/323 730/322
f 731/323 732/324 730/322
f 733/325 735/327 734/326
f 735/327 736/328 734/326
f 737/329 739/331 738/330
f 739/331 740/332 738/330
f 741/333 743/335 742/334
f 743/335 744/336 742/334
v 0.16500 0.06900 0.21000
v 0.16500 0.06900 -0.21000
v 0.16500 0.06300 0.21000
v 0.16500 0.06300 -0.21000
v 0.11500 0.06900 -0.21000
v 0.11500 0.06900 0.21000
v 0.11500 0.06300 -0.21000
v 0.11500 0.06300 0.21000
v 0.11500 0.06900 -0.21000
v 0.16500 0.06900 -0.21000
v 0.11500 0.06900 0.21000
v 0.16500 0.06900 0.21000
v 0.11500 0.06300 0.21000
v 0.16500 0.06300 0.21000
v 0.11500 0.06300 -0.21000
v 0.16500 0.06300 -0.21000
v 0.11500 0.06900 0.21000
v 0.16500 0.06900 0.21000
v 0.11500 0.06300 0.21000
v 0.16500 0.06300 0.21000
v 0.16500 0.06900 -0.21000
v 0.11500 0.06900 -0.21000
v 0.16500 0.06300 -0.21000
v 0.11500 0.06300 -0.21000
vt 0.00000 0.00000
vt 1.00000 0.00000
vt 0.00000 1.00000
vt 1.00000 1.00000
vt 0.00000 0.00000
vt 1.00000 0.00000
vt 0.00000 1.00000
vt 1.00000 1.00000
vt 0.00000 0.00000
vt 1.00000 0.00000
vt 0.00000 1.00000
vt 1.00000 1.00000
vt 0.00000 0.00000
vt 1.00000 0.00000
vt 0.00000 1.00000
vt 1.00000 1.00000
vt 0.00000 0.00000
vt 1.00000 0.00000
vt 0.00000 1.00000
vt 1.00000 1.00000
vt 0.00000 0.00000
vt 1.00000 0.00000
vt 0.00000 1.00000
vt 1.00000 1.00000
f 745/337 747/339 746/338
f 747/339 748/340 746/338
f 749/341 751/343 750/342
f 751/343 752/344 750/342
f 753/345 755/347 754/346
f 755/347 756/348 754/346
f 757/349 759/351 758/350
f 759/351 760/352 758/350
f 761/353 763/355 762/354
f 763/355 764/356 762/354
f 765/357 767/359 766/358
f 767/359 768/360 766/358
usemtl buckle_metal
v -0.17250 0.07800 0.07250
v -0.17250 0.07800 0.02750
v -0.17250 0.06400 0.07250
v -0.17250 0.06400 0.02750
v -0.22750 0.07800 0.02750
v -0.22750 0.07800 0.07250
v -0.22750 0.06400 0.02750
v -0.22750 0.06400 0.07250
v -0.22750 0.07800 0.02750
v -0.17250 0.07800 0.02750
v -0.22750 0.07800 0.07250
v -0.17250 0.07800 0.07250
v -0.22750 0.06400 0.07250
v -0.17250 0.06400 0.07250
v -0.22750 0.06400 0.02750
v -0.17250 0.06400 0.02750
v -0.22750 0.07800 0.07250
v -0.17250 0.07800 0.07250
v -0.22750 0.06400 0.07250
v -0.17250 0.06400 0.07250
v -0.17250 0.07800 0.02750
v -0.22750 0.07800 0.02750
v -0.17250 0.06400 0.02750
v -0.22750 0.06400 0.02750
vt 0.00000 0.00000
vt 1.00000 0.00000
vt 0.00000 1.00000
vt 1.00000 1.00000
vt 0.00000 0.00000
vt 1.00000 0.00000
vt 0.00000 1.00000
vt 1.00000 1.00000
vt 0.00000 0.00000
vt 1.00000 0.00000
vt 0.00000 1.00000
vt 1.00000 1.00000
vt 0.00000 0.00000
vt 1.00000 0.00000
vt 0.00000 1.00000
vt 1.00000 1.00000
vt 0.00000 0.00000
vt 1.00000 0.00000
vt 0.00000 1.00000
vt 1.00000 1.00000
vt 0.00000 0.00000
vt 1.00000 0.00000
vt 0.00000 1.00000
vt 1.00000 1.00000
f 769/361 771/363 770/362
f 771/363 772/364 770/362
f 773/365 775/367 774/366
f 775/367 776/368 774/366
f 777/369 779/371 778/370
f 779/371 780/372 778/370
f 781/373 783/375 782/374
f 783/375 784/376 782/374
f 785/377 787/379 786/378
f 787/379 788/380 786/378
f 789/381 791/383 790/382
f 791/383 792/384 790/382
v 0.16750 0.07800 -0.01750
v 0.16750 0.07800 -0.06250
v 0.16750 0.06400 -0.01750
v 0.16750 0.06400 -0.06250
v 0.11250 0.07800 -0.06250
v 0.11250 0.07800 -0.01750
v 0.11250 0.06400 -0.06250
v 0.11250 0.06400 -0.01750
v 0.11250 0.07800 -0.06250
v 0.16750 0.07800 -0.06250
v 0.11250 0.07800 -0.01750
v 0.16750 0.07800 -0.01750
v 0.11250 0.06400 -0.01750
v 0.16750 0.06400 -0.01750
v 0.11250 0.06400 -0.06250
v 0.16750 0.06400 -0.06250
v 0.11250 0.07800 -0.01750
v 0.16750 0.07800 -0.01750
v 0.11250 0.06400 -0.01750
v 0.16750 0.06400 -0.01750
v 0.16750 0.07800 -0.06250
v 0.11250 0.07800 -0.06250
v 0.16750 0.06400 -0.06250
v 0.11250 0.06400 -0.06250
vt 0.00000 0.00000
vt 1.00000 0.00000
vt 0.00000 1.00000
vt 1.00000 1.00000
vt 0.00000 0.00000
vt 1.00000 0.00000
vt 0.00000 1.00000
vt 1.00000 1.00000
vt 0.00000 0.00000
vt 1.00000 0.00000
vt 0.00000 1.00000
vt 1.00000 1.00000
vt 0.00000 0.00000
vt 1.00000 0.00000
vt 0.00000 1.00000
vt 1.00000 1.00000
vt 0.00000 0.00000
vt 1.00000 0.00000
vt 0.00000 1.00000
vt 1.00000 1.00000
vt 0.00000 0.00000
vt 1.00000 0.00000
vt 0.00000 1.00000
vt 1.00000 1.00000
f 793/385 795/387 794/386
f 795/387 796/388 794/386
f 797/389 799/391 798/390
f 799/391 800/392 798/390
f 801/393 803/395 802/394
f 803/395 804/396 802/394
f 805/397 807/399 806/398
f 807/399 808/400 806/398
f 809/401 811/403 810/402
f 811/403 812/404 810/402
f 813/405 815/407 814/406
f 815/407 816/408 814/406
